G04 #@! TF.GenerationSoftware,KiCad,Pcbnew,(5.1.9)-1*
G04 #@! TF.CreationDate,2021-01-27T13:34:44-08:00*
G04 #@! TF.ProjectId,AnalogFaderV1,416e616c-6f67-4466-9164-657256312e6b,rev?*
G04 #@! TF.SameCoordinates,Original*
G04 #@! TF.FileFunction,Copper,L1,Top*
G04 #@! TF.FilePolarity,Positive*
%FSLAX46Y46*%
G04 Gerber Fmt 4.6, Leading zero omitted, Abs format (unit mm)*
G04 Created by KiCad (PCBNEW (5.1.9)-1) date 2021-01-27 13:34:44*
%MOMM*%
%LPD*%
G01*
G04 APERTURE LIST*
G04 #@! TA.AperFunction,EtchedComponent*
%ADD10C,0.001000*%
G04 #@! TD*
G04 #@! TA.AperFunction,ComponentPad*
%ADD11C,4.399999*%
G04 #@! TD*
G04 #@! TA.AperFunction,SMDPad,CuDef*
%ADD12R,1.350000X0.400000*%
G04 #@! TD*
G04 #@! TA.AperFunction,ComponentPad*
%ADD13O,0.650000X1.300000*%
G04 #@! TD*
G04 #@! TA.AperFunction,ComponentPad*
%ADD14O,1.550000X0.775000*%
G04 #@! TD*
G04 #@! TA.AperFunction,SMDPad,CuDef*
%ADD15R,1.550000X1.500000*%
G04 #@! TD*
G04 #@! TA.AperFunction,SMDPad,CuDef*
%ADD16R,0.500000X1.200000*%
G04 #@! TD*
G04 #@! TA.AperFunction,SMDPad,CuDef*
%ADD17R,1.600000X0.700000*%
G04 #@! TD*
G04 #@! TA.AperFunction,ViaPad*
%ADD18C,0.800000*%
G04 #@! TD*
G04 #@! TA.AperFunction,Conductor*
%ADD19C,0.457200*%
G04 #@! TD*
G04 #@! TA.AperFunction,Conductor*
%ADD20C,0.250000*%
G04 #@! TD*
G04 #@! TA.AperFunction,Conductor*
%ADD21C,0.482600*%
G04 #@! TD*
G04 #@! TA.AperFunction,Conductor*
%ADD22C,0.254000*%
G04 #@! TD*
G04 #@! TA.AperFunction,Conductor*
%ADD23C,0.100000*%
G04 #@! TD*
G04 APERTURE END LIST*
D10*
G36*
X110926900Y-51189900D02*
G01*
X112481900Y-51189900D01*
X112481900Y-52387400D01*
X112281900Y-52387400D01*
X112281562Y-52375631D01*
X112280540Y-52362648D01*
X112278841Y-52349736D01*
X112276467Y-52336931D01*
X112273427Y-52324268D01*
X112269728Y-52311781D01*
X112265381Y-52299505D01*
X112260397Y-52287473D01*
X112254791Y-52275718D01*
X112248577Y-52264273D01*
X112241772Y-52253169D01*
X112234396Y-52242437D01*
X112226467Y-52232105D01*
X112218010Y-52222202D01*
X112209045Y-52212755D01*
X112199598Y-52203790D01*
X112189695Y-52195333D01*
X112179363Y-52187404D01*
X112168631Y-52180028D01*
X112157527Y-52173223D01*
X112146082Y-52167009D01*
X112134327Y-52161403D01*
X112122295Y-52156419D01*
X112110019Y-52152072D01*
X112097532Y-52148373D01*
X112084869Y-52145333D01*
X112072064Y-52142959D01*
X112059152Y-52141260D01*
X112046169Y-52140238D01*
X112031900Y-52139900D01*
X112021900Y-52139900D01*
X111391900Y-52139900D01*
X111381900Y-52139900D01*
X111368816Y-52140243D01*
X111355768Y-52141270D01*
X111342791Y-52142978D01*
X111329922Y-52145363D01*
X111317195Y-52148419D01*
X111304646Y-52152136D01*
X111292308Y-52156505D01*
X111280216Y-52161514D01*
X111268402Y-52167148D01*
X111256900Y-52173394D01*
X111245740Y-52180232D01*
X111234954Y-52187646D01*
X111224570Y-52195614D01*
X111214617Y-52204114D01*
X111205123Y-52213123D01*
X111196114Y-52222617D01*
X111187614Y-52232570D01*
X111179646Y-52242954D01*
X111172232Y-52253740D01*
X111165394Y-52264900D01*
X111159148Y-52276402D01*
X111153514Y-52288216D01*
X111148505Y-52300308D01*
X111144136Y-52312646D01*
X111140419Y-52325195D01*
X111137363Y-52337922D01*
X111134978Y-52350791D01*
X111133270Y-52363768D01*
X111132243Y-52376816D01*
X111131900Y-52389900D01*
X111132243Y-52402984D01*
X111133270Y-52416032D01*
X111134978Y-52429009D01*
X111137363Y-52441878D01*
X111140419Y-52454605D01*
X111144136Y-52467154D01*
X111148505Y-52479492D01*
X111153514Y-52491584D01*
X111159148Y-52503398D01*
X111165394Y-52514900D01*
X111172232Y-52526060D01*
X111179646Y-52536846D01*
X111187614Y-52547230D01*
X111196114Y-52557183D01*
X111205123Y-52566677D01*
X111214617Y-52575686D01*
X111224570Y-52584186D01*
X111234954Y-52592154D01*
X111245740Y-52599568D01*
X111256900Y-52606406D01*
X111268402Y-52612652D01*
X111280216Y-52618286D01*
X111292308Y-52623295D01*
X111304646Y-52627664D01*
X111317195Y-52631381D01*
X111329922Y-52634437D01*
X111342791Y-52636822D01*
X111355768Y-52638530D01*
X111368816Y-52639557D01*
X111381900Y-52639900D01*
X112031900Y-52639900D01*
X112046169Y-52639562D01*
X112059152Y-52638540D01*
X112072064Y-52636841D01*
X112084869Y-52634467D01*
X112097532Y-52631427D01*
X112110019Y-52627728D01*
X112122295Y-52623381D01*
X112134327Y-52618397D01*
X112146082Y-52612791D01*
X112157527Y-52606577D01*
X112168631Y-52599772D01*
X112179363Y-52592396D01*
X112189695Y-52584467D01*
X112199598Y-52576010D01*
X112209045Y-52567045D01*
X112218010Y-52557598D01*
X112226467Y-52547695D01*
X112234396Y-52537363D01*
X112241772Y-52526631D01*
X112248577Y-52515527D01*
X112254791Y-52504082D01*
X112260397Y-52492327D01*
X112265381Y-52480295D01*
X112269728Y-52468019D01*
X112273427Y-52455532D01*
X112276467Y-52442869D01*
X112278841Y-52430064D01*
X112280540Y-52417152D01*
X112281562Y-52404169D01*
X112281900Y-52392400D01*
X112481900Y-52392400D01*
X112481218Y-52417253D01*
X112479169Y-52443284D01*
X112475761Y-52469172D01*
X112471003Y-52494846D01*
X112464907Y-52520236D01*
X112457491Y-52545273D01*
X112448775Y-52569887D01*
X112438782Y-52594011D01*
X112427541Y-52617578D01*
X112415082Y-52640526D01*
X112401438Y-52662790D01*
X112386648Y-52684309D01*
X112370753Y-52705025D01*
X112353795Y-52724880D01*
X112335821Y-52743821D01*
X112316880Y-52761795D01*
X112297025Y-52778753D01*
X112276309Y-52794648D01*
X112254790Y-52809438D01*
X112232526Y-52823082D01*
X112209578Y-52835541D01*
X112186011Y-52846782D01*
X112161887Y-52856775D01*
X112137273Y-52865491D01*
X112112236Y-52872907D01*
X112086846Y-52879003D01*
X112061172Y-52883761D01*
X112035284Y-52887169D01*
X112009253Y-52889218D01*
X111981900Y-52889900D01*
X111431900Y-52889900D01*
X111405732Y-52889215D01*
X111379636Y-52887161D01*
X111353683Y-52883744D01*
X111327944Y-52878974D01*
X111302490Y-52872863D01*
X111277392Y-52865428D01*
X111252716Y-52856690D01*
X111228532Y-52846673D01*
X111204905Y-52835403D01*
X111181900Y-52822913D01*
X111159580Y-52809235D01*
X111138007Y-52794408D01*
X111117240Y-52778473D01*
X111097335Y-52761472D01*
X111078347Y-52743453D01*
X111060328Y-52724465D01*
X111043327Y-52704560D01*
X111027392Y-52683793D01*
X111012565Y-52662220D01*
X110998887Y-52639900D01*
X110986397Y-52616895D01*
X110975127Y-52593268D01*
X110965110Y-52569084D01*
X110956372Y-52544408D01*
X110948937Y-52519310D01*
X110942826Y-52493856D01*
X110938056Y-52468117D01*
X110934639Y-52442164D01*
X110932585Y-52416068D01*
X110931900Y-52389900D01*
X110931900Y-51194900D01*
X110926900Y-51194900D01*
X110926900Y-51189900D01*
G37*
X110926900Y-51189900D02*
X112481900Y-51189900D01*
X112481900Y-52387400D01*
X112281900Y-52387400D01*
X112281562Y-52375631D01*
X112280540Y-52362648D01*
X112278841Y-52349736D01*
X112276467Y-52336931D01*
X112273427Y-52324268D01*
X112269728Y-52311781D01*
X112265381Y-52299505D01*
X112260397Y-52287473D01*
X112254791Y-52275718D01*
X112248577Y-52264273D01*
X112241772Y-52253169D01*
X112234396Y-52242437D01*
X112226467Y-52232105D01*
X112218010Y-52222202D01*
X112209045Y-52212755D01*
X112199598Y-52203790D01*
X112189695Y-52195333D01*
X112179363Y-52187404D01*
X112168631Y-52180028D01*
X112157527Y-52173223D01*
X112146082Y-52167009D01*
X112134327Y-52161403D01*
X112122295Y-52156419D01*
X112110019Y-52152072D01*
X112097532Y-52148373D01*
X112084869Y-52145333D01*
X112072064Y-52142959D01*
X112059152Y-52141260D01*
X112046169Y-52140238D01*
X112031900Y-52139900D01*
X112021900Y-52139900D01*
X111391900Y-52139900D01*
X111381900Y-52139900D01*
X111368816Y-52140243D01*
X111355768Y-52141270D01*
X111342791Y-52142978D01*
X111329922Y-52145363D01*
X111317195Y-52148419D01*
X111304646Y-52152136D01*
X111292308Y-52156505D01*
X111280216Y-52161514D01*
X111268402Y-52167148D01*
X111256900Y-52173394D01*
X111245740Y-52180232D01*
X111234954Y-52187646D01*
X111224570Y-52195614D01*
X111214617Y-52204114D01*
X111205123Y-52213123D01*
X111196114Y-52222617D01*
X111187614Y-52232570D01*
X111179646Y-52242954D01*
X111172232Y-52253740D01*
X111165394Y-52264900D01*
X111159148Y-52276402D01*
X111153514Y-52288216D01*
X111148505Y-52300308D01*
X111144136Y-52312646D01*
X111140419Y-52325195D01*
X111137363Y-52337922D01*
X111134978Y-52350791D01*
X111133270Y-52363768D01*
X111132243Y-52376816D01*
X111131900Y-52389900D01*
X111132243Y-52402984D01*
X111133270Y-52416032D01*
X111134978Y-52429009D01*
X111137363Y-52441878D01*
X111140419Y-52454605D01*
X111144136Y-52467154D01*
X111148505Y-52479492D01*
X111153514Y-52491584D01*
X111159148Y-52503398D01*
X111165394Y-52514900D01*
X111172232Y-52526060D01*
X111179646Y-52536846D01*
X111187614Y-52547230D01*
X111196114Y-52557183D01*
X111205123Y-52566677D01*
X111214617Y-52575686D01*
X111224570Y-52584186D01*
X111234954Y-52592154D01*
X111245740Y-52599568D01*
X111256900Y-52606406D01*
X111268402Y-52612652D01*
X111280216Y-52618286D01*
X111292308Y-52623295D01*
X111304646Y-52627664D01*
X111317195Y-52631381D01*
X111329922Y-52634437D01*
X111342791Y-52636822D01*
X111355768Y-52638530D01*
X111368816Y-52639557D01*
X111381900Y-52639900D01*
X112031900Y-52639900D01*
X112046169Y-52639562D01*
X112059152Y-52638540D01*
X112072064Y-52636841D01*
X112084869Y-52634467D01*
X112097532Y-52631427D01*
X112110019Y-52627728D01*
X112122295Y-52623381D01*
X112134327Y-52618397D01*
X112146082Y-52612791D01*
X112157527Y-52606577D01*
X112168631Y-52599772D01*
X112179363Y-52592396D01*
X112189695Y-52584467D01*
X112199598Y-52576010D01*
X112209045Y-52567045D01*
X112218010Y-52557598D01*
X112226467Y-52547695D01*
X112234396Y-52537363D01*
X112241772Y-52526631D01*
X112248577Y-52515527D01*
X112254791Y-52504082D01*
X112260397Y-52492327D01*
X112265381Y-52480295D01*
X112269728Y-52468019D01*
X112273427Y-52455532D01*
X112276467Y-52442869D01*
X112278841Y-52430064D01*
X112280540Y-52417152D01*
X112281562Y-52404169D01*
X112281900Y-52392400D01*
X112481900Y-52392400D01*
X112481218Y-52417253D01*
X112479169Y-52443284D01*
X112475761Y-52469172D01*
X112471003Y-52494846D01*
X112464907Y-52520236D01*
X112457491Y-52545273D01*
X112448775Y-52569887D01*
X112438782Y-52594011D01*
X112427541Y-52617578D01*
X112415082Y-52640526D01*
X112401438Y-52662790D01*
X112386648Y-52684309D01*
X112370753Y-52705025D01*
X112353795Y-52724880D01*
X112335821Y-52743821D01*
X112316880Y-52761795D01*
X112297025Y-52778753D01*
X112276309Y-52794648D01*
X112254790Y-52809438D01*
X112232526Y-52823082D01*
X112209578Y-52835541D01*
X112186011Y-52846782D01*
X112161887Y-52856775D01*
X112137273Y-52865491D01*
X112112236Y-52872907D01*
X112086846Y-52879003D01*
X112061172Y-52883761D01*
X112035284Y-52887169D01*
X112009253Y-52889218D01*
X111981900Y-52889900D01*
X111431900Y-52889900D01*
X111405732Y-52889215D01*
X111379636Y-52887161D01*
X111353683Y-52883744D01*
X111327944Y-52878974D01*
X111302490Y-52872863D01*
X111277392Y-52865428D01*
X111252716Y-52856690D01*
X111228532Y-52846673D01*
X111204905Y-52835403D01*
X111181900Y-52822913D01*
X111159580Y-52809235D01*
X111138007Y-52794408D01*
X111117240Y-52778473D01*
X111097335Y-52761472D01*
X111078347Y-52743453D01*
X111060328Y-52724465D01*
X111043327Y-52704560D01*
X111027392Y-52683793D01*
X111012565Y-52662220D01*
X110998887Y-52639900D01*
X110986397Y-52616895D01*
X110975127Y-52593268D01*
X110965110Y-52569084D01*
X110956372Y-52544408D01*
X110948937Y-52519310D01*
X110942826Y-52493856D01*
X110938056Y-52468117D01*
X110934639Y-52442164D01*
X110932585Y-52416068D01*
X110931900Y-52389900D01*
X110931900Y-51194900D01*
X110926900Y-51194900D01*
X110926900Y-51189900D01*
G36*
X112486900Y-46589900D02*
G01*
X110931900Y-46589900D01*
X110931900Y-45392400D01*
X111131900Y-45392400D01*
X111132238Y-45404169D01*
X111133260Y-45417152D01*
X111134959Y-45430064D01*
X111137333Y-45442869D01*
X111140373Y-45455532D01*
X111144072Y-45468019D01*
X111148419Y-45480295D01*
X111153403Y-45492327D01*
X111159009Y-45504082D01*
X111165223Y-45515527D01*
X111172028Y-45526631D01*
X111179404Y-45537363D01*
X111187333Y-45547695D01*
X111195790Y-45557598D01*
X111204755Y-45567045D01*
X111214202Y-45576010D01*
X111224105Y-45584467D01*
X111234437Y-45592396D01*
X111245169Y-45599772D01*
X111256273Y-45606577D01*
X111267718Y-45612791D01*
X111279473Y-45618397D01*
X111291505Y-45623381D01*
X111303781Y-45627728D01*
X111316268Y-45631427D01*
X111328931Y-45634467D01*
X111341736Y-45636841D01*
X111354648Y-45638540D01*
X111367631Y-45639562D01*
X111381900Y-45639900D01*
X111391900Y-45639900D01*
X112021900Y-45639900D01*
X112031900Y-45639900D01*
X112044984Y-45639557D01*
X112058032Y-45638530D01*
X112071009Y-45636822D01*
X112083878Y-45634437D01*
X112096605Y-45631381D01*
X112109154Y-45627664D01*
X112121492Y-45623295D01*
X112133584Y-45618286D01*
X112145398Y-45612652D01*
X112156900Y-45606406D01*
X112168060Y-45599568D01*
X112178846Y-45592154D01*
X112189230Y-45584186D01*
X112199183Y-45575686D01*
X112208677Y-45566677D01*
X112217686Y-45557183D01*
X112226186Y-45547230D01*
X112234154Y-45536846D01*
X112241568Y-45526060D01*
X112248406Y-45514900D01*
X112254652Y-45503398D01*
X112260286Y-45491584D01*
X112265295Y-45479492D01*
X112269664Y-45467154D01*
X112273381Y-45454605D01*
X112276437Y-45441878D01*
X112278822Y-45429009D01*
X112280530Y-45416032D01*
X112281557Y-45402984D01*
X112281900Y-45389900D01*
X112281557Y-45376816D01*
X112280530Y-45363768D01*
X112278822Y-45350791D01*
X112276437Y-45337922D01*
X112273381Y-45325195D01*
X112269664Y-45312646D01*
X112265295Y-45300308D01*
X112260286Y-45288216D01*
X112254652Y-45276402D01*
X112248406Y-45264900D01*
X112241568Y-45253740D01*
X112234154Y-45242954D01*
X112226186Y-45232570D01*
X112217686Y-45222617D01*
X112208677Y-45213123D01*
X112199183Y-45204114D01*
X112189230Y-45195614D01*
X112178846Y-45187646D01*
X112168060Y-45180232D01*
X112156900Y-45173394D01*
X112145398Y-45167148D01*
X112133584Y-45161514D01*
X112121492Y-45156505D01*
X112109154Y-45152136D01*
X112096605Y-45148419D01*
X112083878Y-45145363D01*
X112071009Y-45142978D01*
X112058032Y-45141270D01*
X112044984Y-45140243D01*
X112031900Y-45139900D01*
X111381900Y-45139900D01*
X111367631Y-45140238D01*
X111354648Y-45141260D01*
X111341736Y-45142959D01*
X111328931Y-45145333D01*
X111316268Y-45148373D01*
X111303781Y-45152072D01*
X111291505Y-45156419D01*
X111279473Y-45161403D01*
X111267718Y-45167009D01*
X111256273Y-45173223D01*
X111245169Y-45180028D01*
X111234437Y-45187404D01*
X111224105Y-45195333D01*
X111214202Y-45203790D01*
X111204755Y-45212755D01*
X111195790Y-45222202D01*
X111187333Y-45232105D01*
X111179404Y-45242437D01*
X111172028Y-45253169D01*
X111165223Y-45264273D01*
X111159009Y-45275718D01*
X111153403Y-45287473D01*
X111148419Y-45299505D01*
X111144072Y-45311781D01*
X111140373Y-45324268D01*
X111137333Y-45336931D01*
X111134959Y-45349736D01*
X111133260Y-45362648D01*
X111132238Y-45375631D01*
X111131900Y-45387400D01*
X110931900Y-45387400D01*
X110932582Y-45362547D01*
X110934631Y-45336516D01*
X110938039Y-45310628D01*
X110942797Y-45284954D01*
X110948893Y-45259564D01*
X110956309Y-45234527D01*
X110965025Y-45209913D01*
X110975018Y-45185789D01*
X110986259Y-45162222D01*
X110998718Y-45139274D01*
X111012362Y-45117010D01*
X111027152Y-45095491D01*
X111043047Y-45074775D01*
X111060005Y-45054920D01*
X111077979Y-45035979D01*
X111096920Y-45018005D01*
X111116775Y-45001047D01*
X111137491Y-44985152D01*
X111159010Y-44970362D01*
X111181274Y-44956718D01*
X111204222Y-44944259D01*
X111227789Y-44933018D01*
X111251913Y-44923025D01*
X111276527Y-44914309D01*
X111301564Y-44906893D01*
X111326954Y-44900797D01*
X111352628Y-44896039D01*
X111378516Y-44892631D01*
X111404547Y-44890582D01*
X111431900Y-44889900D01*
X111981900Y-44889900D01*
X112008068Y-44890585D01*
X112034164Y-44892639D01*
X112060117Y-44896056D01*
X112085856Y-44900826D01*
X112111310Y-44906937D01*
X112136408Y-44914372D01*
X112161084Y-44923110D01*
X112185268Y-44933127D01*
X112208895Y-44944397D01*
X112231900Y-44956887D01*
X112254220Y-44970565D01*
X112275793Y-44985392D01*
X112296560Y-45001327D01*
X112316465Y-45018328D01*
X112335453Y-45036347D01*
X112353472Y-45055335D01*
X112370473Y-45075240D01*
X112386408Y-45096007D01*
X112401235Y-45117580D01*
X112414913Y-45139900D01*
X112427403Y-45162905D01*
X112438673Y-45186532D01*
X112448690Y-45210716D01*
X112457428Y-45235392D01*
X112464863Y-45260490D01*
X112470974Y-45285944D01*
X112475744Y-45311683D01*
X112479161Y-45337636D01*
X112481215Y-45363732D01*
X112481900Y-45389900D01*
X112481900Y-46584900D01*
X112486900Y-46584900D01*
X112486900Y-46589900D01*
G37*
X112486900Y-46589900D02*
X110931900Y-46589900D01*
X110931900Y-45392400D01*
X111131900Y-45392400D01*
X111132238Y-45404169D01*
X111133260Y-45417152D01*
X111134959Y-45430064D01*
X111137333Y-45442869D01*
X111140373Y-45455532D01*
X111144072Y-45468019D01*
X111148419Y-45480295D01*
X111153403Y-45492327D01*
X111159009Y-45504082D01*
X111165223Y-45515527D01*
X111172028Y-45526631D01*
X111179404Y-45537363D01*
X111187333Y-45547695D01*
X111195790Y-45557598D01*
X111204755Y-45567045D01*
X111214202Y-45576010D01*
X111224105Y-45584467D01*
X111234437Y-45592396D01*
X111245169Y-45599772D01*
X111256273Y-45606577D01*
X111267718Y-45612791D01*
X111279473Y-45618397D01*
X111291505Y-45623381D01*
X111303781Y-45627728D01*
X111316268Y-45631427D01*
X111328931Y-45634467D01*
X111341736Y-45636841D01*
X111354648Y-45638540D01*
X111367631Y-45639562D01*
X111381900Y-45639900D01*
X111391900Y-45639900D01*
X112021900Y-45639900D01*
X112031900Y-45639900D01*
X112044984Y-45639557D01*
X112058032Y-45638530D01*
X112071009Y-45636822D01*
X112083878Y-45634437D01*
X112096605Y-45631381D01*
X112109154Y-45627664D01*
X112121492Y-45623295D01*
X112133584Y-45618286D01*
X112145398Y-45612652D01*
X112156900Y-45606406D01*
X112168060Y-45599568D01*
X112178846Y-45592154D01*
X112189230Y-45584186D01*
X112199183Y-45575686D01*
X112208677Y-45566677D01*
X112217686Y-45557183D01*
X112226186Y-45547230D01*
X112234154Y-45536846D01*
X112241568Y-45526060D01*
X112248406Y-45514900D01*
X112254652Y-45503398D01*
X112260286Y-45491584D01*
X112265295Y-45479492D01*
X112269664Y-45467154D01*
X112273381Y-45454605D01*
X112276437Y-45441878D01*
X112278822Y-45429009D01*
X112280530Y-45416032D01*
X112281557Y-45402984D01*
X112281900Y-45389900D01*
X112281557Y-45376816D01*
X112280530Y-45363768D01*
X112278822Y-45350791D01*
X112276437Y-45337922D01*
X112273381Y-45325195D01*
X112269664Y-45312646D01*
X112265295Y-45300308D01*
X112260286Y-45288216D01*
X112254652Y-45276402D01*
X112248406Y-45264900D01*
X112241568Y-45253740D01*
X112234154Y-45242954D01*
X112226186Y-45232570D01*
X112217686Y-45222617D01*
X112208677Y-45213123D01*
X112199183Y-45204114D01*
X112189230Y-45195614D01*
X112178846Y-45187646D01*
X112168060Y-45180232D01*
X112156900Y-45173394D01*
X112145398Y-45167148D01*
X112133584Y-45161514D01*
X112121492Y-45156505D01*
X112109154Y-45152136D01*
X112096605Y-45148419D01*
X112083878Y-45145363D01*
X112071009Y-45142978D01*
X112058032Y-45141270D01*
X112044984Y-45140243D01*
X112031900Y-45139900D01*
X111381900Y-45139900D01*
X111367631Y-45140238D01*
X111354648Y-45141260D01*
X111341736Y-45142959D01*
X111328931Y-45145333D01*
X111316268Y-45148373D01*
X111303781Y-45152072D01*
X111291505Y-45156419D01*
X111279473Y-45161403D01*
X111267718Y-45167009D01*
X111256273Y-45173223D01*
X111245169Y-45180028D01*
X111234437Y-45187404D01*
X111224105Y-45195333D01*
X111214202Y-45203790D01*
X111204755Y-45212755D01*
X111195790Y-45222202D01*
X111187333Y-45232105D01*
X111179404Y-45242437D01*
X111172028Y-45253169D01*
X111165223Y-45264273D01*
X111159009Y-45275718D01*
X111153403Y-45287473D01*
X111148419Y-45299505D01*
X111144072Y-45311781D01*
X111140373Y-45324268D01*
X111137333Y-45336931D01*
X111134959Y-45349736D01*
X111133260Y-45362648D01*
X111132238Y-45375631D01*
X111131900Y-45387400D01*
X110931900Y-45387400D01*
X110932582Y-45362547D01*
X110934631Y-45336516D01*
X110938039Y-45310628D01*
X110942797Y-45284954D01*
X110948893Y-45259564D01*
X110956309Y-45234527D01*
X110965025Y-45209913D01*
X110975018Y-45185789D01*
X110986259Y-45162222D01*
X110998718Y-45139274D01*
X111012362Y-45117010D01*
X111027152Y-45095491D01*
X111043047Y-45074775D01*
X111060005Y-45054920D01*
X111077979Y-45035979D01*
X111096920Y-45018005D01*
X111116775Y-45001047D01*
X111137491Y-44985152D01*
X111159010Y-44970362D01*
X111181274Y-44956718D01*
X111204222Y-44944259D01*
X111227789Y-44933018D01*
X111251913Y-44923025D01*
X111276527Y-44914309D01*
X111301564Y-44906893D01*
X111326954Y-44900797D01*
X111352628Y-44896039D01*
X111378516Y-44892631D01*
X111404547Y-44890582D01*
X111431900Y-44889900D01*
X111981900Y-44889900D01*
X112008068Y-44890585D01*
X112034164Y-44892639D01*
X112060117Y-44896056D01*
X112085856Y-44900826D01*
X112111310Y-44906937D01*
X112136408Y-44914372D01*
X112161084Y-44923110D01*
X112185268Y-44933127D01*
X112208895Y-44944397D01*
X112231900Y-44956887D01*
X112254220Y-44970565D01*
X112275793Y-44985392D01*
X112296560Y-45001327D01*
X112316465Y-45018328D01*
X112335453Y-45036347D01*
X112353472Y-45055335D01*
X112370473Y-45075240D01*
X112386408Y-45096007D01*
X112401235Y-45117580D01*
X112414913Y-45139900D01*
X112427403Y-45162905D01*
X112438673Y-45186532D01*
X112448690Y-45210716D01*
X112457428Y-45235392D01*
X112464863Y-45260490D01*
X112470974Y-45285944D01*
X112475744Y-45311683D01*
X112479161Y-45337636D01*
X112481215Y-45363732D01*
X112481900Y-45389900D01*
X112481900Y-46584900D01*
X112486900Y-46584900D01*
X112486900Y-46589900D01*
D11*
X112915700Y-55791100D03*
X131749800Y-55791100D03*
X131749800Y-41986200D03*
X112915700Y-41986200D03*
D12*
X114406900Y-47589900D03*
X114406900Y-48239900D03*
X114406900Y-48889900D03*
X114406900Y-49539900D03*
X114406900Y-50189900D03*
D13*
X114406900Y-46389900D03*
X114406900Y-51389900D03*
D14*
X111706900Y-45389900D03*
D15*
X111706900Y-47889900D03*
X111706900Y-49889900D03*
D14*
X111706900Y-52389900D03*
D16*
X130343400Y-45957700D03*
X131343400Y-45957700D03*
X132343400Y-45957700D03*
X130343400Y-51857700D03*
X131343400Y-51857700D03*
X132343400Y-51857700D03*
D17*
X120801000Y-47832300D03*
X120801000Y-48882300D03*
X120801000Y-49932300D03*
X123801000Y-47832300D03*
X123801000Y-48882300D03*
X123801000Y-49932300D03*
D18*
X120472200Y-46126400D03*
X125984000Y-46482000D03*
X124498100Y-52578000D03*
X117525800Y-52819300D03*
X118122700Y-47828200D03*
X118122700Y-48907700D03*
X120713500Y-50882302D03*
X116039900Y-47586900D03*
X132969000Y-50558700D03*
X131330700Y-50584100D03*
X129743200Y-50571400D03*
X118122700Y-49936400D03*
D19*
X114406900Y-50189900D02*
X114406900Y-51389900D01*
X114406900Y-50189900D02*
X113944900Y-50189900D01*
X113944900Y-50189900D02*
X113347500Y-50787300D01*
X113347500Y-50787300D02*
X113347500Y-52311300D01*
X113347500Y-52311300D02*
X113855500Y-52819300D01*
X117983000Y-52819300D02*
X119392700Y-51409600D01*
X113855500Y-52819300D02*
X117525800Y-52819300D01*
D20*
X132343400Y-42579800D02*
X131749800Y-41986200D01*
X132343400Y-45957700D02*
X132343400Y-42579800D01*
X131343400Y-42392600D02*
X131749800Y-41986200D01*
X131343400Y-45957700D02*
X131343400Y-42392600D01*
X130343400Y-43392600D02*
X131749800Y-41986200D01*
X130343400Y-45957700D02*
X130343400Y-43392600D01*
D19*
X117525800Y-52819300D02*
X117983000Y-52819300D01*
D20*
X118126800Y-47832300D02*
X118122700Y-47828200D01*
X120801000Y-47832300D02*
X118126800Y-47832300D01*
X118872000Y-48882300D02*
X120801000Y-48882300D01*
X118148100Y-48882300D02*
X118122700Y-48907700D01*
X120801000Y-48882300D02*
X118148100Y-48882300D01*
X123801000Y-47832300D02*
X123801000Y-48882300D01*
X123801000Y-48882300D02*
X123801000Y-49932300D01*
X123716200Y-47917100D02*
X123801000Y-47832300D01*
X122850998Y-50882302D02*
X123801000Y-49932300D01*
X120713500Y-50882302D02*
X122850998Y-50882302D01*
X116036900Y-47589900D02*
X116039900Y-47586900D01*
D21*
X114406900Y-47589900D02*
X116036900Y-47589900D01*
D20*
X132343400Y-51184300D02*
X132969000Y-50558700D01*
X132343400Y-51857700D02*
X132343400Y-51184300D01*
X131343400Y-50622200D02*
X131330700Y-50609500D01*
X131343400Y-51857700D02*
X131343400Y-50622200D01*
X130343400Y-51171600D02*
X129743200Y-50571400D01*
X130343400Y-51857700D02*
X130343400Y-51171600D01*
X118126800Y-49932300D02*
X118122700Y-49936400D01*
X120801000Y-49932300D02*
X118126800Y-49932300D01*
D22*
X131811625Y-40015072D02*
X133698948Y-41706817D01*
X133731400Y-42015582D01*
X133731401Y-49857390D01*
X133628774Y-49754763D01*
X133459256Y-49641495D01*
X133270898Y-49563474D01*
X133070939Y-49523700D01*
X132867061Y-49523700D01*
X132667102Y-49563474D01*
X132478744Y-49641495D01*
X132309226Y-49754763D01*
X132165063Y-49898926D01*
X132141364Y-49934394D01*
X132134637Y-49924326D01*
X131990474Y-49780163D01*
X131820956Y-49666895D01*
X131632598Y-49588874D01*
X131432639Y-49549100D01*
X131228761Y-49549100D01*
X131028802Y-49588874D01*
X130840444Y-49666895D01*
X130670926Y-49780163D01*
X130543300Y-49907789D01*
X130402974Y-49767463D01*
X130233456Y-49654195D01*
X130045098Y-49576174D01*
X129845139Y-49536400D01*
X129641261Y-49536400D01*
X129441302Y-49576174D01*
X129252944Y-49654195D01*
X129083426Y-49767463D01*
X128939263Y-49911626D01*
X128825995Y-50081144D01*
X128747974Y-50269502D01*
X128708200Y-50469461D01*
X128708200Y-50673339D01*
X128747974Y-50873298D01*
X128825995Y-51061656D01*
X128939263Y-51231174D01*
X129083426Y-51375337D01*
X129252944Y-51488605D01*
X129441302Y-51566626D01*
X129455328Y-51569416D01*
X129455328Y-52457700D01*
X129467588Y-52582182D01*
X129503898Y-52701880D01*
X129562863Y-52812194D01*
X129642215Y-52908885D01*
X129738906Y-52988237D01*
X129849220Y-53047202D01*
X129968918Y-53083512D01*
X130093400Y-53095772D01*
X130593400Y-53095772D01*
X130717882Y-53083512D01*
X130837580Y-53047202D01*
X130843400Y-53044091D01*
X130849220Y-53047202D01*
X130968918Y-53083512D01*
X131093400Y-53095772D01*
X131593400Y-53095772D01*
X131717882Y-53083512D01*
X131837580Y-53047202D01*
X131843400Y-53044091D01*
X131849220Y-53047202D01*
X131968918Y-53083512D01*
X132093400Y-53095772D01*
X132593400Y-53095772D01*
X132717882Y-53083512D01*
X132837580Y-53047202D01*
X132947894Y-52988237D01*
X133044585Y-52908885D01*
X133123937Y-52812194D01*
X133182902Y-52701880D01*
X133219212Y-52582182D01*
X133231472Y-52457700D01*
X133231472Y-51561768D01*
X133270898Y-51553926D01*
X133459256Y-51475905D01*
X133628774Y-51362637D01*
X133731401Y-51260010D01*
X133731401Y-55746111D01*
X133699658Y-56069846D01*
X131810505Y-57763232D01*
X131720418Y-57772700D01*
X112947979Y-57772700D01*
X112855435Y-57763626D01*
X110952531Y-56057915D01*
X110921400Y-55761718D01*
X110921400Y-53403918D01*
X110923323Y-53405115D01*
X110931305Y-53408991D01*
X110954932Y-53420261D01*
X110966446Y-53424429D01*
X110977170Y-53430349D01*
X110985344Y-53433801D01*
X111009527Y-53443818D01*
X111021235Y-53447375D01*
X111032243Y-53452720D01*
X111040587Y-53455740D01*
X111065262Y-53464478D01*
X111077131Y-53467415D01*
X111088396Y-53472174D01*
X111096886Y-53474754D01*
X111121984Y-53482189D01*
X111134010Y-53484505D01*
X111145521Y-53488672D01*
X111154135Y-53490804D01*
X111179588Y-53496915D01*
X111191716Y-53498598D01*
X111203431Y-53502157D01*
X111212144Y-53503834D01*
X111237882Y-53508604D01*
X111250064Y-53509648D01*
X111261939Y-53512587D01*
X111270728Y-53513807D01*
X111296681Y-53517224D01*
X111308913Y-53517630D01*
X111320930Y-53519944D01*
X111329770Y-53520702D01*
X111355867Y-53522756D01*
X111368111Y-53522521D01*
X111380234Y-53524203D01*
X111389102Y-53524497D01*
X111415270Y-53525182D01*
X111419154Y-53524904D01*
X111423027Y-53525338D01*
X111431900Y-53525400D01*
X111981900Y-53525400D01*
X111985381Y-53525059D01*
X111988868Y-53525362D01*
X111997740Y-53525203D01*
X112025094Y-53524521D01*
X112037641Y-53522974D01*
X112050271Y-53523393D01*
X112059121Y-53522758D01*
X112085153Y-53520709D01*
X112097190Y-53518565D01*
X112109423Y-53518330D01*
X112118228Y-53517233D01*
X112144116Y-53513825D01*
X112156034Y-53511052D01*
X112168238Y-53510177D01*
X112176973Y-53508621D01*
X112202647Y-53503863D01*
X112214413Y-53500467D01*
X112226567Y-53498953D01*
X112235210Y-53496942D01*
X112260600Y-53490846D01*
X112272159Y-53486843D01*
X112284196Y-53484699D01*
X112292721Y-53482239D01*
X112317758Y-53474823D01*
X112329098Y-53470219D01*
X112341017Y-53467445D01*
X112349401Y-53464542D01*
X112374016Y-53455826D01*
X112385110Y-53450629D01*
X112396872Y-53447234D01*
X112405093Y-53443896D01*
X112429217Y-53433903D01*
X112440007Y-53428142D01*
X112451568Y-53424138D01*
X112459603Y-53420374D01*
X112483170Y-53409133D01*
X112493642Y-53402816D01*
X112504971Y-53398216D01*
X112512798Y-53394037D01*
X112535746Y-53381578D01*
X112545890Y-53374711D01*
X112556987Y-53369512D01*
X112564585Y-53364928D01*
X112586848Y-53351284D01*
X112596607Y-53343903D01*
X112607400Y-53338140D01*
X112614748Y-53333166D01*
X112636267Y-53318375D01*
X112645617Y-53310501D01*
X112656085Y-53304187D01*
X112663162Y-53298835D01*
X112683878Y-53282940D01*
X112692820Y-53274573D01*
X112702965Y-53267704D01*
X112709752Y-53261988D01*
X112729607Y-53245030D01*
X112738088Y-53236217D01*
X112747846Y-53228837D01*
X112754325Y-53222775D01*
X112773266Y-53204800D01*
X112781280Y-53195549D01*
X112790648Y-53187660D01*
X112796801Y-53181266D01*
X112814775Y-53162325D01*
X112822290Y-53152672D01*
X112831221Y-53144314D01*
X112837030Y-53137607D01*
X112853988Y-53117753D01*
X112860997Y-53107706D01*
X112869490Y-53098880D01*
X112874940Y-53091878D01*
X112890835Y-53071163D01*
X112897295Y-53060784D01*
X112905299Y-53051544D01*
X112910376Y-53044267D01*
X112925166Y-53022747D01*
X112931078Y-53012037D01*
X112938595Y-53002382D01*
X112943284Y-52994849D01*
X112956928Y-52972585D01*
X112962279Y-52961565D01*
X112969290Y-52951515D01*
X112973578Y-52943746D01*
X112986037Y-52920798D01*
X112990795Y-52909534D01*
X112997257Y-52899152D01*
X113001133Y-52891170D01*
X113012374Y-52867603D01*
X113016538Y-52856100D01*
X113022450Y-52845391D01*
X113025903Y-52837217D01*
X113035896Y-52813093D01*
X113039455Y-52801378D01*
X113044806Y-52790359D01*
X113047826Y-52782015D01*
X113056542Y-52757401D01*
X113059483Y-52745518D01*
X113064243Y-52734248D01*
X113066823Y-52725758D01*
X113074239Y-52700721D01*
X113076552Y-52688711D01*
X113080714Y-52677213D01*
X113082846Y-52668600D01*
X113088942Y-52643209D01*
X113090626Y-52631077D01*
X113094185Y-52619361D01*
X113095718Y-52611400D01*
X113102105Y-52590345D01*
X113106005Y-52550752D01*
X113109233Y-52526228D01*
X113109638Y-52514001D01*
X113111951Y-52501993D01*
X113112709Y-52493152D01*
X113114758Y-52467121D01*
X113114674Y-52462731D01*
X113121847Y-52389900D01*
X113117400Y-52344749D01*
X113117400Y-51516900D01*
X113446900Y-51516900D01*
X113446900Y-51841900D01*
X113490123Y-52026746D01*
X113568577Y-52199608D01*
X113679247Y-52353843D01*
X113817880Y-52483524D01*
X113979149Y-52583667D01*
X114132606Y-52634880D01*
X114279900Y-52506021D01*
X114279900Y-51516900D01*
X114533900Y-51516900D01*
X114533900Y-52506021D01*
X114681194Y-52634880D01*
X114834651Y-52583667D01*
X114995920Y-52483524D01*
X115134553Y-52353843D01*
X115245223Y-52199608D01*
X115323677Y-52026746D01*
X115366900Y-51841900D01*
X115366900Y-51516900D01*
X114533900Y-51516900D01*
X114279900Y-51516900D01*
X113446900Y-51516900D01*
X113117400Y-51516900D01*
X113117400Y-51189900D01*
X113111570Y-51130444D01*
X113106144Y-51070819D01*
X113105514Y-51068679D01*
X113105297Y-51066464D01*
X113088012Y-51009213D01*
X113071125Y-50951838D01*
X113070094Y-50949865D01*
X113069449Y-50947730D01*
X113053457Y-50917653D01*
X113071402Y-50884080D01*
X113107712Y-50764382D01*
X113119972Y-50639900D01*
X113119972Y-50561186D01*
X113146379Y-50643476D01*
X113207100Y-50752833D01*
X113287988Y-50848243D01*
X113385936Y-50926039D01*
X113446900Y-50957382D01*
X113446900Y-51262900D01*
X114279900Y-51262900D01*
X114279900Y-51242900D01*
X114533900Y-51242900D01*
X114533900Y-51262900D01*
X115366900Y-51262900D01*
X115366900Y-50957382D01*
X115427864Y-50926039D01*
X115525812Y-50848243D01*
X115606700Y-50752833D01*
X115667421Y-50643476D01*
X115705641Y-50524374D01*
X115716900Y-50421650D01*
X115558150Y-50262900D01*
X115445578Y-50262900D01*
X115533085Y-50191085D01*
X115612437Y-50094394D01*
X115648932Y-50026118D01*
X115716900Y-49958150D01*
X115706912Y-49867020D01*
X115707712Y-49864382D01*
X115719972Y-49739900D01*
X115719972Y-49339900D01*
X115707712Y-49215418D01*
X115707555Y-49214900D01*
X115707712Y-49214382D01*
X115719972Y-49089900D01*
X115719972Y-48689900D01*
X115708139Y-48569756D01*
X115738002Y-48582126D01*
X115937961Y-48621900D01*
X116141839Y-48621900D01*
X116341798Y-48582126D01*
X116530156Y-48504105D01*
X116699674Y-48390837D01*
X116843837Y-48246674D01*
X116957105Y-48077156D01*
X117035126Y-47888798D01*
X117067456Y-47726261D01*
X117087700Y-47726261D01*
X117087700Y-47930139D01*
X117127474Y-48130098D01*
X117205495Y-48318456D01*
X117238566Y-48367950D01*
X117205495Y-48417444D01*
X117127474Y-48605802D01*
X117087700Y-48805761D01*
X117087700Y-49009639D01*
X117127474Y-49209598D01*
X117205495Y-49397956D01*
X117221594Y-49422050D01*
X117205495Y-49446144D01*
X117127474Y-49634502D01*
X117087700Y-49834461D01*
X117087700Y-50038339D01*
X117127474Y-50238298D01*
X117205495Y-50426656D01*
X117318763Y-50596174D01*
X117462926Y-50740337D01*
X117632444Y-50853605D01*
X117820802Y-50931626D01*
X118020761Y-50971400D01*
X118224639Y-50971400D01*
X118424598Y-50931626D01*
X118612956Y-50853605D01*
X118782474Y-50740337D01*
X118830511Y-50692300D01*
X119516015Y-50692300D01*
X119549815Y-50733485D01*
X119646506Y-50812837D01*
X119678500Y-50829938D01*
X119678500Y-50984241D01*
X119718274Y-51184200D01*
X119796295Y-51372558D01*
X119909563Y-51542076D01*
X120053726Y-51686239D01*
X120223244Y-51799507D01*
X120411602Y-51877528D01*
X120611561Y-51917302D01*
X120815439Y-51917302D01*
X121015398Y-51877528D01*
X121203756Y-51799507D01*
X121373274Y-51686239D01*
X121417211Y-51642302D01*
X122813676Y-51642302D01*
X122850998Y-51645978D01*
X122888320Y-51642302D01*
X122888331Y-51642302D01*
X122999984Y-51631305D01*
X123143245Y-51587848D01*
X123275274Y-51517276D01*
X123390999Y-51422303D01*
X123414802Y-51393300D01*
X123887730Y-50920372D01*
X124601000Y-50920372D01*
X124725482Y-50908112D01*
X124845180Y-50871802D01*
X124955494Y-50812837D01*
X125052185Y-50733485D01*
X125131537Y-50636794D01*
X125190502Y-50526480D01*
X125226812Y-50406782D01*
X125239072Y-50282300D01*
X125239072Y-49582300D01*
X125226812Y-49457818D01*
X125211488Y-49407300D01*
X125226812Y-49356782D01*
X125239072Y-49232300D01*
X125239072Y-48532300D01*
X125226812Y-48407818D01*
X125211488Y-48357300D01*
X125226812Y-48306782D01*
X125239072Y-48182300D01*
X125239072Y-47482300D01*
X125226812Y-47357818D01*
X125190502Y-47238120D01*
X125131537Y-47127806D01*
X125052185Y-47031115D01*
X124955494Y-46951763D01*
X124845180Y-46892798D01*
X124725482Y-46856488D01*
X124601000Y-46844228D01*
X123001000Y-46844228D01*
X122876518Y-46856488D01*
X122756820Y-46892798D01*
X122646506Y-46951763D01*
X122549815Y-47031115D01*
X122470463Y-47127806D01*
X122411498Y-47238120D01*
X122375188Y-47357818D01*
X122362928Y-47482300D01*
X122362928Y-48182300D01*
X122375188Y-48306782D01*
X122390512Y-48357300D01*
X122375188Y-48407818D01*
X122362928Y-48532300D01*
X122362928Y-49232300D01*
X122375188Y-49356782D01*
X122390512Y-49407300D01*
X122375188Y-49457818D01*
X122362928Y-49582300D01*
X122362928Y-50122302D01*
X122239072Y-50122302D01*
X122239072Y-49582300D01*
X122226812Y-49457818D01*
X122211488Y-49407300D01*
X122226812Y-49356782D01*
X122239072Y-49232300D01*
X122239072Y-48532300D01*
X122226812Y-48407818D01*
X122211488Y-48357300D01*
X122226812Y-48306782D01*
X122239072Y-48182300D01*
X122239072Y-47482300D01*
X122226812Y-47357818D01*
X122190502Y-47238120D01*
X122131537Y-47127806D01*
X122052185Y-47031115D01*
X121955494Y-46951763D01*
X121845180Y-46892798D01*
X121725482Y-46856488D01*
X121601000Y-46844228D01*
X120001000Y-46844228D01*
X119876518Y-46856488D01*
X119756820Y-46892798D01*
X119646506Y-46951763D01*
X119549815Y-47031115D01*
X119516015Y-47072300D01*
X118830511Y-47072300D01*
X118782474Y-47024263D01*
X118612956Y-46910995D01*
X118424598Y-46832974D01*
X118224639Y-46793200D01*
X118020761Y-46793200D01*
X117820802Y-46832974D01*
X117632444Y-46910995D01*
X117462926Y-47024263D01*
X117318763Y-47168426D01*
X117205495Y-47337944D01*
X117127474Y-47526302D01*
X117087700Y-47726261D01*
X117067456Y-47726261D01*
X117074900Y-47688839D01*
X117074900Y-47484961D01*
X117035126Y-47285002D01*
X116957105Y-47096644D01*
X116843837Y-46927126D01*
X116699674Y-46782963D01*
X116530156Y-46669695D01*
X116341798Y-46591674D01*
X116141839Y-46551900D01*
X115937961Y-46551900D01*
X115738002Y-46591674D01*
X115549644Y-46669695D01*
X115483935Y-46713600D01*
X115366900Y-46713600D01*
X115366900Y-46017739D01*
X115353010Y-45876707D01*
X115298116Y-45695746D01*
X115208973Y-45528972D01*
X115089007Y-45382793D01*
X115071883Y-45368739D01*
X129455423Y-45368739D01*
X129458400Y-45671950D01*
X129540000Y-45753550D01*
X129540000Y-46161850D01*
X129458400Y-46243450D01*
X129455423Y-46546661D01*
X129465529Y-46671337D01*
X129499762Y-46791645D01*
X129540000Y-46870163D01*
X129540000Y-47053500D01*
X129542440Y-47078276D01*
X129549667Y-47102101D01*
X129561403Y-47124057D01*
X129577197Y-47143303D01*
X129596443Y-47159097D01*
X129618399Y-47170833D01*
X129642224Y-47178060D01*
X129667000Y-47180500D01*
X129955741Y-47180500D01*
X129958111Y-47181264D01*
X130061650Y-47192700D01*
X130073850Y-47180500D01*
X130612950Y-47180500D01*
X130625150Y-47192700D01*
X130728689Y-47181264D01*
X130731059Y-47180500D01*
X130955741Y-47180500D01*
X130958111Y-47181264D01*
X131061650Y-47192700D01*
X131073850Y-47180500D01*
X131612950Y-47180500D01*
X131625150Y-47192700D01*
X131728689Y-47181264D01*
X131731059Y-47180500D01*
X131955741Y-47180500D01*
X131958111Y-47181264D01*
X132061650Y-47192700D01*
X132073850Y-47180500D01*
X132612950Y-47180500D01*
X132625150Y-47192700D01*
X132728689Y-47181264D01*
X132731059Y-47180500D01*
X133146800Y-47180500D01*
X133171576Y-47178060D01*
X133195401Y-47170833D01*
X133217357Y-47159097D01*
X133236603Y-47143303D01*
X133252397Y-47124057D01*
X133264133Y-47102101D01*
X133271360Y-47078276D01*
X133273800Y-47053500D01*
X133273800Y-44754800D01*
X133271360Y-44730024D01*
X133264133Y-44706199D01*
X133252397Y-44684243D01*
X133236603Y-44664997D01*
X133217357Y-44649203D01*
X133195401Y-44637467D01*
X133171576Y-44630240D01*
X133146800Y-44627800D01*
X129667000Y-44627800D01*
X129642224Y-44630240D01*
X129618399Y-44637467D01*
X129596443Y-44649203D01*
X129577197Y-44664997D01*
X129561403Y-44684243D01*
X129549667Y-44706199D01*
X129542440Y-44730024D01*
X129540000Y-44754800D01*
X129540000Y-45045237D01*
X129499762Y-45123755D01*
X129465529Y-45244063D01*
X129455423Y-45368739D01*
X115071883Y-45368739D01*
X114942828Y-45262827D01*
X114776054Y-45173684D01*
X114595093Y-45118790D01*
X114406900Y-45100255D01*
X114218708Y-45118790D01*
X114037747Y-45173684D01*
X113870973Y-45262827D01*
X113724794Y-45382793D01*
X113604828Y-45528972D01*
X113515685Y-45695746D01*
X113460790Y-45876707D01*
X113446900Y-46017738D01*
X113446900Y-46762061D01*
X113452528Y-46819209D01*
X113377406Y-46859363D01*
X113280715Y-46938715D01*
X113201363Y-47035406D01*
X113142398Y-47145720D01*
X113119972Y-47219649D01*
X113119972Y-47139900D01*
X113107712Y-47015418D01*
X113071402Y-46895720D01*
X113056176Y-46867235D01*
X113071011Y-46840250D01*
X113071686Y-46838124D01*
X113072744Y-46836166D01*
X113090412Y-46779090D01*
X113108513Y-46722028D01*
X113108762Y-46719812D01*
X113109420Y-46717685D01*
X113115674Y-46658187D01*
X113122338Y-46598773D01*
X113122368Y-46594500D01*
X113122385Y-46594337D01*
X113122370Y-46594174D01*
X113122400Y-46589900D01*
X113122400Y-46584900D01*
X113117400Y-46533906D01*
X113117400Y-45435051D01*
X113121847Y-45389900D01*
X113115350Y-45323932D01*
X113115390Y-45322717D01*
X113114756Y-45313867D01*
X113112702Y-45287770D01*
X113110658Y-45276297D01*
X113110544Y-45275137D01*
X113110320Y-45263486D01*
X113109224Y-45254681D01*
X113106466Y-45233733D01*
X113102105Y-45189455D01*
X113092273Y-45157042D01*
X113090926Y-45146231D01*
X113088915Y-45137588D01*
X113082804Y-45112135D01*
X113078798Y-45100566D01*
X113076650Y-45088509D01*
X113074189Y-45079984D01*
X113066754Y-45054886D01*
X113062153Y-45043557D01*
X113059382Y-45031647D01*
X113056478Y-45023262D01*
X113047740Y-44998587D01*
X113042549Y-44987506D01*
X113039156Y-44975749D01*
X113035818Y-44967527D01*
X113025801Y-44943344D01*
X113020034Y-44932542D01*
X113016025Y-44920967D01*
X113012261Y-44912932D01*
X113000991Y-44889305D01*
X112994678Y-44878840D01*
X112990078Y-44867511D01*
X112985898Y-44859684D01*
X112973408Y-44836679D01*
X112966543Y-44826538D01*
X112961346Y-44815445D01*
X112956763Y-44807847D01*
X112943085Y-44785527D01*
X112935702Y-44775766D01*
X112929939Y-44764972D01*
X112924964Y-44757624D01*
X112910137Y-44736051D01*
X112902256Y-44726692D01*
X112895937Y-44716217D01*
X112890585Y-44709140D01*
X112874650Y-44688373D01*
X112866282Y-44679431D01*
X112859420Y-44669296D01*
X112853705Y-44662508D01*
X112836704Y-44642603D01*
X112827889Y-44634120D01*
X112820510Y-44624364D01*
X112814447Y-44617885D01*
X112796428Y-44598897D01*
X112787179Y-44590885D01*
X112779297Y-44581525D01*
X112772903Y-44575372D01*
X112753915Y-44557353D01*
X112744260Y-44549837D01*
X112735903Y-44540906D01*
X112729196Y-44535096D01*
X112709292Y-44518095D01*
X112699246Y-44511087D01*
X112690428Y-44502601D01*
X112683427Y-44497150D01*
X112662660Y-44481215D01*
X112652272Y-44474749D01*
X112643026Y-44466740D01*
X112635749Y-44461663D01*
X112614176Y-44446836D01*
X112603459Y-44440920D01*
X112593806Y-44433405D01*
X112586273Y-44428715D01*
X112563953Y-44415037D01*
X112552934Y-44409686D01*
X112542890Y-44402680D01*
X112535121Y-44398392D01*
X112512116Y-44385902D01*
X112500855Y-44381145D01*
X112490476Y-44374685D01*
X112482494Y-44370809D01*
X112458868Y-44359539D01*
X112447354Y-44355371D01*
X112436630Y-44349451D01*
X112428456Y-44345998D01*
X112404272Y-44335982D01*
X112392564Y-44332425D01*
X112381556Y-44327080D01*
X112373213Y-44324059D01*
X112348537Y-44315322D01*
X112336670Y-44312385D01*
X112325404Y-44307626D01*
X112316914Y-44305046D01*
X112291816Y-44297611D01*
X112279788Y-44295294D01*
X112268278Y-44291128D01*
X112259665Y-44288996D01*
X112234211Y-44282885D01*
X112222085Y-44281202D01*
X112210369Y-44277643D01*
X112201656Y-44275966D01*
X112175917Y-44271196D01*
X112163736Y-44270152D01*
X112151861Y-44267213D01*
X112143072Y-44265993D01*
X112117119Y-44262576D01*
X112104888Y-44262170D01*
X112092871Y-44259856D01*
X112084030Y-44259098D01*
X112057934Y-44257044D01*
X112045689Y-44257279D01*
X112033566Y-44255597D01*
X112024698Y-44255303D01*
X111998530Y-44254618D01*
X111994646Y-44254896D01*
X111990773Y-44254462D01*
X111981900Y-44254400D01*
X111431900Y-44254400D01*
X111428419Y-44254741D01*
X111424932Y-44254438D01*
X111416060Y-44254597D01*
X111388707Y-44255279D01*
X111376160Y-44256826D01*
X111363530Y-44256407D01*
X111354679Y-44257042D01*
X111328648Y-44259091D01*
X111316605Y-44261236D01*
X111304377Y-44261471D01*
X111295572Y-44262567D01*
X111269684Y-44265975D01*
X111257765Y-44268748D01*
X111245562Y-44269623D01*
X111236826Y-44271179D01*
X111211153Y-44275937D01*
X111199387Y-44279333D01*
X111187233Y-44280847D01*
X111178591Y-44282858D01*
X111153200Y-44288954D01*
X111141641Y-44292957D01*
X111129604Y-44295101D01*
X111121079Y-44297561D01*
X111096042Y-44304977D01*
X111084701Y-44309582D01*
X111072784Y-44312355D01*
X111064399Y-44315258D01*
X111039785Y-44323974D01*
X111028697Y-44329168D01*
X111016928Y-44332565D01*
X111008707Y-44335904D01*
X110984583Y-44345897D01*
X110973792Y-44351659D01*
X110962233Y-44355662D01*
X110954197Y-44359426D01*
X110930630Y-44370667D01*
X110921400Y-44376235D01*
X110921400Y-42031179D01*
X110951918Y-41719935D01*
X112856682Y-40012556D01*
X112932382Y-40004600D01*
X131704821Y-40004600D01*
X131811625Y-40015072D01*
G04 #@! TA.AperFunction,Conductor*
D23*
G36*
X131811625Y-40015072D02*
G01*
X133698948Y-41706817D01*
X133731400Y-42015582D01*
X133731401Y-49857390D01*
X133628774Y-49754763D01*
X133459256Y-49641495D01*
X133270898Y-49563474D01*
X133070939Y-49523700D01*
X132867061Y-49523700D01*
X132667102Y-49563474D01*
X132478744Y-49641495D01*
X132309226Y-49754763D01*
X132165063Y-49898926D01*
X132141364Y-49934394D01*
X132134637Y-49924326D01*
X131990474Y-49780163D01*
X131820956Y-49666895D01*
X131632598Y-49588874D01*
X131432639Y-49549100D01*
X131228761Y-49549100D01*
X131028802Y-49588874D01*
X130840444Y-49666895D01*
X130670926Y-49780163D01*
X130543300Y-49907789D01*
X130402974Y-49767463D01*
X130233456Y-49654195D01*
X130045098Y-49576174D01*
X129845139Y-49536400D01*
X129641261Y-49536400D01*
X129441302Y-49576174D01*
X129252944Y-49654195D01*
X129083426Y-49767463D01*
X128939263Y-49911626D01*
X128825995Y-50081144D01*
X128747974Y-50269502D01*
X128708200Y-50469461D01*
X128708200Y-50673339D01*
X128747974Y-50873298D01*
X128825995Y-51061656D01*
X128939263Y-51231174D01*
X129083426Y-51375337D01*
X129252944Y-51488605D01*
X129441302Y-51566626D01*
X129455328Y-51569416D01*
X129455328Y-52457700D01*
X129467588Y-52582182D01*
X129503898Y-52701880D01*
X129562863Y-52812194D01*
X129642215Y-52908885D01*
X129738906Y-52988237D01*
X129849220Y-53047202D01*
X129968918Y-53083512D01*
X130093400Y-53095772D01*
X130593400Y-53095772D01*
X130717882Y-53083512D01*
X130837580Y-53047202D01*
X130843400Y-53044091D01*
X130849220Y-53047202D01*
X130968918Y-53083512D01*
X131093400Y-53095772D01*
X131593400Y-53095772D01*
X131717882Y-53083512D01*
X131837580Y-53047202D01*
X131843400Y-53044091D01*
X131849220Y-53047202D01*
X131968918Y-53083512D01*
X132093400Y-53095772D01*
X132593400Y-53095772D01*
X132717882Y-53083512D01*
X132837580Y-53047202D01*
X132947894Y-52988237D01*
X133044585Y-52908885D01*
X133123937Y-52812194D01*
X133182902Y-52701880D01*
X133219212Y-52582182D01*
X133231472Y-52457700D01*
X133231472Y-51561768D01*
X133270898Y-51553926D01*
X133459256Y-51475905D01*
X133628774Y-51362637D01*
X133731401Y-51260010D01*
X133731401Y-55746111D01*
X133699658Y-56069846D01*
X131810505Y-57763232D01*
X131720418Y-57772700D01*
X112947979Y-57772700D01*
X112855435Y-57763626D01*
X110952531Y-56057915D01*
X110921400Y-55761718D01*
X110921400Y-53403918D01*
X110923323Y-53405115D01*
X110931305Y-53408991D01*
X110954932Y-53420261D01*
X110966446Y-53424429D01*
X110977170Y-53430349D01*
X110985344Y-53433801D01*
X111009527Y-53443818D01*
X111021235Y-53447375D01*
X111032243Y-53452720D01*
X111040587Y-53455740D01*
X111065262Y-53464478D01*
X111077131Y-53467415D01*
X111088396Y-53472174D01*
X111096886Y-53474754D01*
X111121984Y-53482189D01*
X111134010Y-53484505D01*
X111145521Y-53488672D01*
X111154135Y-53490804D01*
X111179588Y-53496915D01*
X111191716Y-53498598D01*
X111203431Y-53502157D01*
X111212144Y-53503834D01*
X111237882Y-53508604D01*
X111250064Y-53509648D01*
X111261939Y-53512587D01*
X111270728Y-53513807D01*
X111296681Y-53517224D01*
X111308913Y-53517630D01*
X111320930Y-53519944D01*
X111329770Y-53520702D01*
X111355867Y-53522756D01*
X111368111Y-53522521D01*
X111380234Y-53524203D01*
X111389102Y-53524497D01*
X111415270Y-53525182D01*
X111419154Y-53524904D01*
X111423027Y-53525338D01*
X111431900Y-53525400D01*
X111981900Y-53525400D01*
X111985381Y-53525059D01*
X111988868Y-53525362D01*
X111997740Y-53525203D01*
X112025094Y-53524521D01*
X112037641Y-53522974D01*
X112050271Y-53523393D01*
X112059121Y-53522758D01*
X112085153Y-53520709D01*
X112097190Y-53518565D01*
X112109423Y-53518330D01*
X112118228Y-53517233D01*
X112144116Y-53513825D01*
X112156034Y-53511052D01*
X112168238Y-53510177D01*
X112176973Y-53508621D01*
X112202647Y-53503863D01*
X112214413Y-53500467D01*
X112226567Y-53498953D01*
X112235210Y-53496942D01*
X112260600Y-53490846D01*
X112272159Y-53486843D01*
X112284196Y-53484699D01*
X112292721Y-53482239D01*
X112317758Y-53474823D01*
X112329098Y-53470219D01*
X112341017Y-53467445D01*
X112349401Y-53464542D01*
X112374016Y-53455826D01*
X112385110Y-53450629D01*
X112396872Y-53447234D01*
X112405093Y-53443896D01*
X112429217Y-53433903D01*
X112440007Y-53428142D01*
X112451568Y-53424138D01*
X112459603Y-53420374D01*
X112483170Y-53409133D01*
X112493642Y-53402816D01*
X112504971Y-53398216D01*
X112512798Y-53394037D01*
X112535746Y-53381578D01*
X112545890Y-53374711D01*
X112556987Y-53369512D01*
X112564585Y-53364928D01*
X112586848Y-53351284D01*
X112596607Y-53343903D01*
X112607400Y-53338140D01*
X112614748Y-53333166D01*
X112636267Y-53318375D01*
X112645617Y-53310501D01*
X112656085Y-53304187D01*
X112663162Y-53298835D01*
X112683878Y-53282940D01*
X112692820Y-53274573D01*
X112702965Y-53267704D01*
X112709752Y-53261988D01*
X112729607Y-53245030D01*
X112738088Y-53236217D01*
X112747846Y-53228837D01*
X112754325Y-53222775D01*
X112773266Y-53204800D01*
X112781280Y-53195549D01*
X112790648Y-53187660D01*
X112796801Y-53181266D01*
X112814775Y-53162325D01*
X112822290Y-53152672D01*
X112831221Y-53144314D01*
X112837030Y-53137607D01*
X112853988Y-53117753D01*
X112860997Y-53107706D01*
X112869490Y-53098880D01*
X112874940Y-53091878D01*
X112890835Y-53071163D01*
X112897295Y-53060784D01*
X112905299Y-53051544D01*
X112910376Y-53044267D01*
X112925166Y-53022747D01*
X112931078Y-53012037D01*
X112938595Y-53002382D01*
X112943284Y-52994849D01*
X112956928Y-52972585D01*
X112962279Y-52961565D01*
X112969290Y-52951515D01*
X112973578Y-52943746D01*
X112986037Y-52920798D01*
X112990795Y-52909534D01*
X112997257Y-52899152D01*
X113001133Y-52891170D01*
X113012374Y-52867603D01*
X113016538Y-52856100D01*
X113022450Y-52845391D01*
X113025903Y-52837217D01*
X113035896Y-52813093D01*
X113039455Y-52801378D01*
X113044806Y-52790359D01*
X113047826Y-52782015D01*
X113056542Y-52757401D01*
X113059483Y-52745518D01*
X113064243Y-52734248D01*
X113066823Y-52725758D01*
X113074239Y-52700721D01*
X113076552Y-52688711D01*
X113080714Y-52677213D01*
X113082846Y-52668600D01*
X113088942Y-52643209D01*
X113090626Y-52631077D01*
X113094185Y-52619361D01*
X113095718Y-52611400D01*
X113102105Y-52590345D01*
X113106005Y-52550752D01*
X113109233Y-52526228D01*
X113109638Y-52514001D01*
X113111951Y-52501993D01*
X113112709Y-52493152D01*
X113114758Y-52467121D01*
X113114674Y-52462731D01*
X113121847Y-52389900D01*
X113117400Y-52344749D01*
X113117400Y-51516900D01*
X113446900Y-51516900D01*
X113446900Y-51841900D01*
X113490123Y-52026746D01*
X113568577Y-52199608D01*
X113679247Y-52353843D01*
X113817880Y-52483524D01*
X113979149Y-52583667D01*
X114132606Y-52634880D01*
X114279900Y-52506021D01*
X114279900Y-51516900D01*
X114533900Y-51516900D01*
X114533900Y-52506021D01*
X114681194Y-52634880D01*
X114834651Y-52583667D01*
X114995920Y-52483524D01*
X115134553Y-52353843D01*
X115245223Y-52199608D01*
X115323677Y-52026746D01*
X115366900Y-51841900D01*
X115366900Y-51516900D01*
X114533900Y-51516900D01*
X114279900Y-51516900D01*
X113446900Y-51516900D01*
X113117400Y-51516900D01*
X113117400Y-51189900D01*
X113111570Y-51130444D01*
X113106144Y-51070819D01*
X113105514Y-51068679D01*
X113105297Y-51066464D01*
X113088012Y-51009213D01*
X113071125Y-50951838D01*
X113070094Y-50949865D01*
X113069449Y-50947730D01*
X113053457Y-50917653D01*
X113071402Y-50884080D01*
X113107712Y-50764382D01*
X113119972Y-50639900D01*
X113119972Y-50561186D01*
X113146379Y-50643476D01*
X113207100Y-50752833D01*
X113287988Y-50848243D01*
X113385936Y-50926039D01*
X113446900Y-50957382D01*
X113446900Y-51262900D01*
X114279900Y-51262900D01*
X114279900Y-51242900D01*
X114533900Y-51242900D01*
X114533900Y-51262900D01*
X115366900Y-51262900D01*
X115366900Y-50957382D01*
X115427864Y-50926039D01*
X115525812Y-50848243D01*
X115606700Y-50752833D01*
X115667421Y-50643476D01*
X115705641Y-50524374D01*
X115716900Y-50421650D01*
X115558150Y-50262900D01*
X115445578Y-50262900D01*
X115533085Y-50191085D01*
X115612437Y-50094394D01*
X115648932Y-50026118D01*
X115716900Y-49958150D01*
X115706912Y-49867020D01*
X115707712Y-49864382D01*
X115719972Y-49739900D01*
X115719972Y-49339900D01*
X115707712Y-49215418D01*
X115707555Y-49214900D01*
X115707712Y-49214382D01*
X115719972Y-49089900D01*
X115719972Y-48689900D01*
X115708139Y-48569756D01*
X115738002Y-48582126D01*
X115937961Y-48621900D01*
X116141839Y-48621900D01*
X116341798Y-48582126D01*
X116530156Y-48504105D01*
X116699674Y-48390837D01*
X116843837Y-48246674D01*
X116957105Y-48077156D01*
X117035126Y-47888798D01*
X117067456Y-47726261D01*
X117087700Y-47726261D01*
X117087700Y-47930139D01*
X117127474Y-48130098D01*
X117205495Y-48318456D01*
X117238566Y-48367950D01*
X117205495Y-48417444D01*
X117127474Y-48605802D01*
X117087700Y-48805761D01*
X117087700Y-49009639D01*
X117127474Y-49209598D01*
X117205495Y-49397956D01*
X117221594Y-49422050D01*
X117205495Y-49446144D01*
X117127474Y-49634502D01*
X117087700Y-49834461D01*
X117087700Y-50038339D01*
X117127474Y-50238298D01*
X117205495Y-50426656D01*
X117318763Y-50596174D01*
X117462926Y-50740337D01*
X117632444Y-50853605D01*
X117820802Y-50931626D01*
X118020761Y-50971400D01*
X118224639Y-50971400D01*
X118424598Y-50931626D01*
X118612956Y-50853605D01*
X118782474Y-50740337D01*
X118830511Y-50692300D01*
X119516015Y-50692300D01*
X119549815Y-50733485D01*
X119646506Y-50812837D01*
X119678500Y-50829938D01*
X119678500Y-50984241D01*
X119718274Y-51184200D01*
X119796295Y-51372558D01*
X119909563Y-51542076D01*
X120053726Y-51686239D01*
X120223244Y-51799507D01*
X120411602Y-51877528D01*
X120611561Y-51917302D01*
X120815439Y-51917302D01*
X121015398Y-51877528D01*
X121203756Y-51799507D01*
X121373274Y-51686239D01*
X121417211Y-51642302D01*
X122813676Y-51642302D01*
X122850998Y-51645978D01*
X122888320Y-51642302D01*
X122888331Y-51642302D01*
X122999984Y-51631305D01*
X123143245Y-51587848D01*
X123275274Y-51517276D01*
X123390999Y-51422303D01*
X123414802Y-51393300D01*
X123887730Y-50920372D01*
X124601000Y-50920372D01*
X124725482Y-50908112D01*
X124845180Y-50871802D01*
X124955494Y-50812837D01*
X125052185Y-50733485D01*
X125131537Y-50636794D01*
X125190502Y-50526480D01*
X125226812Y-50406782D01*
X125239072Y-50282300D01*
X125239072Y-49582300D01*
X125226812Y-49457818D01*
X125211488Y-49407300D01*
X125226812Y-49356782D01*
X125239072Y-49232300D01*
X125239072Y-48532300D01*
X125226812Y-48407818D01*
X125211488Y-48357300D01*
X125226812Y-48306782D01*
X125239072Y-48182300D01*
X125239072Y-47482300D01*
X125226812Y-47357818D01*
X125190502Y-47238120D01*
X125131537Y-47127806D01*
X125052185Y-47031115D01*
X124955494Y-46951763D01*
X124845180Y-46892798D01*
X124725482Y-46856488D01*
X124601000Y-46844228D01*
X123001000Y-46844228D01*
X122876518Y-46856488D01*
X122756820Y-46892798D01*
X122646506Y-46951763D01*
X122549815Y-47031115D01*
X122470463Y-47127806D01*
X122411498Y-47238120D01*
X122375188Y-47357818D01*
X122362928Y-47482300D01*
X122362928Y-48182300D01*
X122375188Y-48306782D01*
X122390512Y-48357300D01*
X122375188Y-48407818D01*
X122362928Y-48532300D01*
X122362928Y-49232300D01*
X122375188Y-49356782D01*
X122390512Y-49407300D01*
X122375188Y-49457818D01*
X122362928Y-49582300D01*
X122362928Y-50122302D01*
X122239072Y-50122302D01*
X122239072Y-49582300D01*
X122226812Y-49457818D01*
X122211488Y-49407300D01*
X122226812Y-49356782D01*
X122239072Y-49232300D01*
X122239072Y-48532300D01*
X122226812Y-48407818D01*
X122211488Y-48357300D01*
X122226812Y-48306782D01*
X122239072Y-48182300D01*
X122239072Y-47482300D01*
X122226812Y-47357818D01*
X122190502Y-47238120D01*
X122131537Y-47127806D01*
X122052185Y-47031115D01*
X121955494Y-46951763D01*
X121845180Y-46892798D01*
X121725482Y-46856488D01*
X121601000Y-46844228D01*
X120001000Y-46844228D01*
X119876518Y-46856488D01*
X119756820Y-46892798D01*
X119646506Y-46951763D01*
X119549815Y-47031115D01*
X119516015Y-47072300D01*
X118830511Y-47072300D01*
X118782474Y-47024263D01*
X118612956Y-46910995D01*
X118424598Y-46832974D01*
X118224639Y-46793200D01*
X118020761Y-46793200D01*
X117820802Y-46832974D01*
X117632444Y-46910995D01*
X117462926Y-47024263D01*
X117318763Y-47168426D01*
X117205495Y-47337944D01*
X117127474Y-47526302D01*
X117087700Y-47726261D01*
X117067456Y-47726261D01*
X117074900Y-47688839D01*
X117074900Y-47484961D01*
X117035126Y-47285002D01*
X116957105Y-47096644D01*
X116843837Y-46927126D01*
X116699674Y-46782963D01*
X116530156Y-46669695D01*
X116341798Y-46591674D01*
X116141839Y-46551900D01*
X115937961Y-46551900D01*
X115738002Y-46591674D01*
X115549644Y-46669695D01*
X115483935Y-46713600D01*
X115366900Y-46713600D01*
X115366900Y-46017739D01*
X115353010Y-45876707D01*
X115298116Y-45695746D01*
X115208973Y-45528972D01*
X115089007Y-45382793D01*
X115071883Y-45368739D01*
X129455423Y-45368739D01*
X129458400Y-45671950D01*
X129540000Y-45753550D01*
X129540000Y-46161850D01*
X129458400Y-46243450D01*
X129455423Y-46546661D01*
X129465529Y-46671337D01*
X129499762Y-46791645D01*
X129540000Y-46870163D01*
X129540000Y-47053500D01*
X129542440Y-47078276D01*
X129549667Y-47102101D01*
X129561403Y-47124057D01*
X129577197Y-47143303D01*
X129596443Y-47159097D01*
X129618399Y-47170833D01*
X129642224Y-47178060D01*
X129667000Y-47180500D01*
X129955741Y-47180500D01*
X129958111Y-47181264D01*
X130061650Y-47192700D01*
X130073850Y-47180500D01*
X130612950Y-47180500D01*
X130625150Y-47192700D01*
X130728689Y-47181264D01*
X130731059Y-47180500D01*
X130955741Y-47180500D01*
X130958111Y-47181264D01*
X131061650Y-47192700D01*
X131073850Y-47180500D01*
X131612950Y-47180500D01*
X131625150Y-47192700D01*
X131728689Y-47181264D01*
X131731059Y-47180500D01*
X131955741Y-47180500D01*
X131958111Y-47181264D01*
X132061650Y-47192700D01*
X132073850Y-47180500D01*
X132612950Y-47180500D01*
X132625150Y-47192700D01*
X132728689Y-47181264D01*
X132731059Y-47180500D01*
X133146800Y-47180500D01*
X133171576Y-47178060D01*
X133195401Y-47170833D01*
X133217357Y-47159097D01*
X133236603Y-47143303D01*
X133252397Y-47124057D01*
X133264133Y-47102101D01*
X133271360Y-47078276D01*
X133273800Y-47053500D01*
X133273800Y-44754800D01*
X133271360Y-44730024D01*
X133264133Y-44706199D01*
X133252397Y-44684243D01*
X133236603Y-44664997D01*
X133217357Y-44649203D01*
X133195401Y-44637467D01*
X133171576Y-44630240D01*
X133146800Y-44627800D01*
X129667000Y-44627800D01*
X129642224Y-44630240D01*
X129618399Y-44637467D01*
X129596443Y-44649203D01*
X129577197Y-44664997D01*
X129561403Y-44684243D01*
X129549667Y-44706199D01*
X129542440Y-44730024D01*
X129540000Y-44754800D01*
X129540000Y-45045237D01*
X129499762Y-45123755D01*
X129465529Y-45244063D01*
X129455423Y-45368739D01*
X115071883Y-45368739D01*
X114942828Y-45262827D01*
X114776054Y-45173684D01*
X114595093Y-45118790D01*
X114406900Y-45100255D01*
X114218708Y-45118790D01*
X114037747Y-45173684D01*
X113870973Y-45262827D01*
X113724794Y-45382793D01*
X113604828Y-45528972D01*
X113515685Y-45695746D01*
X113460790Y-45876707D01*
X113446900Y-46017738D01*
X113446900Y-46762061D01*
X113452528Y-46819209D01*
X113377406Y-46859363D01*
X113280715Y-46938715D01*
X113201363Y-47035406D01*
X113142398Y-47145720D01*
X113119972Y-47219649D01*
X113119972Y-47139900D01*
X113107712Y-47015418D01*
X113071402Y-46895720D01*
X113056176Y-46867235D01*
X113071011Y-46840250D01*
X113071686Y-46838124D01*
X113072744Y-46836166D01*
X113090412Y-46779090D01*
X113108513Y-46722028D01*
X113108762Y-46719812D01*
X113109420Y-46717685D01*
X113115674Y-46658187D01*
X113122338Y-46598773D01*
X113122368Y-46594500D01*
X113122385Y-46594337D01*
X113122370Y-46594174D01*
X113122400Y-46589900D01*
X113122400Y-46584900D01*
X113117400Y-46533906D01*
X113117400Y-45435051D01*
X113121847Y-45389900D01*
X113115350Y-45323932D01*
X113115390Y-45322717D01*
X113114756Y-45313867D01*
X113112702Y-45287770D01*
X113110658Y-45276297D01*
X113110544Y-45275137D01*
X113110320Y-45263486D01*
X113109224Y-45254681D01*
X113106466Y-45233733D01*
X113102105Y-45189455D01*
X113092273Y-45157042D01*
X113090926Y-45146231D01*
X113088915Y-45137588D01*
X113082804Y-45112135D01*
X113078798Y-45100566D01*
X113076650Y-45088509D01*
X113074189Y-45079984D01*
X113066754Y-45054886D01*
X113062153Y-45043557D01*
X113059382Y-45031647D01*
X113056478Y-45023262D01*
X113047740Y-44998587D01*
X113042549Y-44987506D01*
X113039156Y-44975749D01*
X113035818Y-44967527D01*
X113025801Y-44943344D01*
X113020034Y-44932542D01*
X113016025Y-44920967D01*
X113012261Y-44912932D01*
X113000991Y-44889305D01*
X112994678Y-44878840D01*
X112990078Y-44867511D01*
X112985898Y-44859684D01*
X112973408Y-44836679D01*
X112966543Y-44826538D01*
X112961346Y-44815445D01*
X112956763Y-44807847D01*
X112943085Y-44785527D01*
X112935702Y-44775766D01*
X112929939Y-44764972D01*
X112924964Y-44757624D01*
X112910137Y-44736051D01*
X112902256Y-44726692D01*
X112895937Y-44716217D01*
X112890585Y-44709140D01*
X112874650Y-44688373D01*
X112866282Y-44679431D01*
X112859420Y-44669296D01*
X112853705Y-44662508D01*
X112836704Y-44642603D01*
X112827889Y-44634120D01*
X112820510Y-44624364D01*
X112814447Y-44617885D01*
X112796428Y-44598897D01*
X112787179Y-44590885D01*
X112779297Y-44581525D01*
X112772903Y-44575372D01*
X112753915Y-44557353D01*
X112744260Y-44549837D01*
X112735903Y-44540906D01*
X112729196Y-44535096D01*
X112709292Y-44518095D01*
X112699246Y-44511087D01*
X112690428Y-44502601D01*
X112683427Y-44497150D01*
X112662660Y-44481215D01*
X112652272Y-44474749D01*
X112643026Y-44466740D01*
X112635749Y-44461663D01*
X112614176Y-44446836D01*
X112603459Y-44440920D01*
X112593806Y-44433405D01*
X112586273Y-44428715D01*
X112563953Y-44415037D01*
X112552934Y-44409686D01*
X112542890Y-44402680D01*
X112535121Y-44398392D01*
X112512116Y-44385902D01*
X112500855Y-44381145D01*
X112490476Y-44374685D01*
X112482494Y-44370809D01*
X112458868Y-44359539D01*
X112447354Y-44355371D01*
X112436630Y-44349451D01*
X112428456Y-44345998D01*
X112404272Y-44335982D01*
X112392564Y-44332425D01*
X112381556Y-44327080D01*
X112373213Y-44324059D01*
X112348537Y-44315322D01*
X112336670Y-44312385D01*
X112325404Y-44307626D01*
X112316914Y-44305046D01*
X112291816Y-44297611D01*
X112279788Y-44295294D01*
X112268278Y-44291128D01*
X112259665Y-44288996D01*
X112234211Y-44282885D01*
X112222085Y-44281202D01*
X112210369Y-44277643D01*
X112201656Y-44275966D01*
X112175917Y-44271196D01*
X112163736Y-44270152D01*
X112151861Y-44267213D01*
X112143072Y-44265993D01*
X112117119Y-44262576D01*
X112104888Y-44262170D01*
X112092871Y-44259856D01*
X112084030Y-44259098D01*
X112057934Y-44257044D01*
X112045689Y-44257279D01*
X112033566Y-44255597D01*
X112024698Y-44255303D01*
X111998530Y-44254618D01*
X111994646Y-44254896D01*
X111990773Y-44254462D01*
X111981900Y-44254400D01*
X111431900Y-44254400D01*
X111428419Y-44254741D01*
X111424932Y-44254438D01*
X111416060Y-44254597D01*
X111388707Y-44255279D01*
X111376160Y-44256826D01*
X111363530Y-44256407D01*
X111354679Y-44257042D01*
X111328648Y-44259091D01*
X111316605Y-44261236D01*
X111304377Y-44261471D01*
X111295572Y-44262567D01*
X111269684Y-44265975D01*
X111257765Y-44268748D01*
X111245562Y-44269623D01*
X111236826Y-44271179D01*
X111211153Y-44275937D01*
X111199387Y-44279333D01*
X111187233Y-44280847D01*
X111178591Y-44282858D01*
X111153200Y-44288954D01*
X111141641Y-44292957D01*
X111129604Y-44295101D01*
X111121079Y-44297561D01*
X111096042Y-44304977D01*
X111084701Y-44309582D01*
X111072784Y-44312355D01*
X111064399Y-44315258D01*
X111039785Y-44323974D01*
X111028697Y-44329168D01*
X111016928Y-44332565D01*
X111008707Y-44335904D01*
X110984583Y-44345897D01*
X110973792Y-44351659D01*
X110962233Y-44355662D01*
X110954197Y-44359426D01*
X110930630Y-44370667D01*
X110921400Y-44376235D01*
X110921400Y-42031179D01*
X110951918Y-41719935D01*
X112856682Y-40012556D01*
X112932382Y-40004600D01*
X131704821Y-40004600D01*
X131811625Y-40015072D01*
G37*
G04 #@! TD.AperFunction*
M02*
