G04 #@! TF.GenerationSoftware,KiCad,Pcbnew,(5.1.9)-1*
G04 #@! TF.CreationDate,2021-01-27T13:34:44-08:00*
G04 #@! TF.ProjectId,AnalogFaderV1,416e616c-6f67-4466-9164-657256312e6b,rev?*
G04 #@! TF.SameCoordinates,Original*
G04 #@! TF.FileFunction,Soldermask,Top*
G04 #@! TF.FilePolarity,Negative*
%FSLAX46Y46*%
G04 Gerber Fmt 4.6, Leading zero omitted, Abs format (unit mm)*
G04 Created by KiCad (PCBNEW (5.1.9)-1) date 2021-01-27 13:34:44*
%MOMM*%
%LPD*%
G01*
G04 APERTURE LIST*
%ADD10C,0.000100*%
%ADD11C,4.399999*%
%ADD12R,1.350000X0.400000*%
%ADD13O,0.650000X1.300000*%
%ADD14O,1.550000X0.775000*%
%ADD15R,1.550000X1.500000*%
%ADD16R,0.500000X1.200000*%
%ADD17R,1.600000X0.700000*%
G04 APERTURE END LIST*
D10*
G36*
X110831900Y-52489900D02*
G01*
X110831900Y-51089900D01*
X112581900Y-51089900D01*
X112581900Y-52489900D01*
X112581215Y-52516068D01*
X112579161Y-52542164D01*
X112575744Y-52568117D01*
X112570974Y-52593856D01*
X112564863Y-52619310D01*
X112557428Y-52644408D01*
X112548690Y-52669084D01*
X112538673Y-52693268D01*
X112527403Y-52716895D01*
X112514913Y-52739900D01*
X112501235Y-52762220D01*
X112486408Y-52783793D01*
X112470473Y-52804560D01*
X112453472Y-52824465D01*
X112435453Y-52843453D01*
X112416465Y-52861472D01*
X112396560Y-52878473D01*
X112375793Y-52894408D01*
X112354220Y-52909235D01*
X112331900Y-52922913D01*
X112308895Y-52935403D01*
X112285268Y-52946673D01*
X112261084Y-52956690D01*
X112236408Y-52965428D01*
X112211310Y-52972863D01*
X112185856Y-52978974D01*
X112160117Y-52983744D01*
X112134164Y-52987161D01*
X112108068Y-52989215D01*
X112081900Y-52989900D01*
X111331900Y-52989900D01*
X111305732Y-52989215D01*
X111279636Y-52987161D01*
X111253683Y-52983744D01*
X111227944Y-52978974D01*
X111202490Y-52972863D01*
X111177392Y-52965428D01*
X111152716Y-52956690D01*
X111128532Y-52946673D01*
X111104905Y-52935403D01*
X111081900Y-52922913D01*
X111059580Y-52909235D01*
X111038007Y-52894408D01*
X111017240Y-52878473D01*
X110997335Y-52861472D01*
X110978347Y-52843453D01*
X110960328Y-52824465D01*
X110943327Y-52804560D01*
X110927392Y-52783793D01*
X110912565Y-52762220D01*
X110898887Y-52739900D01*
X110886397Y-52716895D01*
X110875127Y-52693268D01*
X110865110Y-52669084D01*
X110856372Y-52644408D01*
X110848937Y-52619310D01*
X110842826Y-52593856D01*
X110838056Y-52568117D01*
X110834639Y-52542164D01*
X110832585Y-52516068D01*
X110831900Y-52489900D01*
G37*
X110831900Y-52489900D02*
X110831900Y-51089900D01*
X112581900Y-51089900D01*
X112581900Y-52489900D01*
X112581215Y-52516068D01*
X112579161Y-52542164D01*
X112575744Y-52568117D01*
X112570974Y-52593856D01*
X112564863Y-52619310D01*
X112557428Y-52644408D01*
X112548690Y-52669084D01*
X112538673Y-52693268D01*
X112527403Y-52716895D01*
X112514913Y-52739900D01*
X112501235Y-52762220D01*
X112486408Y-52783793D01*
X112470473Y-52804560D01*
X112453472Y-52824465D01*
X112435453Y-52843453D01*
X112416465Y-52861472D01*
X112396560Y-52878473D01*
X112375793Y-52894408D01*
X112354220Y-52909235D01*
X112331900Y-52922913D01*
X112308895Y-52935403D01*
X112285268Y-52946673D01*
X112261084Y-52956690D01*
X112236408Y-52965428D01*
X112211310Y-52972863D01*
X112185856Y-52978974D01*
X112160117Y-52983744D01*
X112134164Y-52987161D01*
X112108068Y-52989215D01*
X112081900Y-52989900D01*
X111331900Y-52989900D01*
X111305732Y-52989215D01*
X111279636Y-52987161D01*
X111253683Y-52983744D01*
X111227944Y-52978974D01*
X111202490Y-52972863D01*
X111177392Y-52965428D01*
X111152716Y-52956690D01*
X111128532Y-52946673D01*
X111104905Y-52935403D01*
X111081900Y-52922913D01*
X111059580Y-52909235D01*
X111038007Y-52894408D01*
X111017240Y-52878473D01*
X110997335Y-52861472D01*
X110978347Y-52843453D01*
X110960328Y-52824465D01*
X110943327Y-52804560D01*
X110927392Y-52783793D01*
X110912565Y-52762220D01*
X110898887Y-52739900D01*
X110886397Y-52716895D01*
X110875127Y-52693268D01*
X110865110Y-52669084D01*
X110856372Y-52644408D01*
X110848937Y-52619310D01*
X110842826Y-52593856D01*
X110838056Y-52568117D01*
X110834639Y-52542164D01*
X110832585Y-52516068D01*
X110831900Y-52489900D01*
G36*
X112581900Y-45289900D02*
G01*
X112581900Y-46689900D01*
X110831900Y-46689900D01*
X110831900Y-45289900D01*
X110832585Y-45263732D01*
X110834639Y-45237636D01*
X110838056Y-45211683D01*
X110842826Y-45185944D01*
X110848937Y-45160490D01*
X110856372Y-45135392D01*
X110865110Y-45110716D01*
X110875127Y-45086532D01*
X110886397Y-45062905D01*
X110898887Y-45039900D01*
X110912565Y-45017580D01*
X110927392Y-44996007D01*
X110943327Y-44975240D01*
X110960328Y-44955335D01*
X110978347Y-44936347D01*
X110997335Y-44918328D01*
X111017240Y-44901327D01*
X111038007Y-44885392D01*
X111059580Y-44870565D01*
X111081900Y-44856887D01*
X111104905Y-44844397D01*
X111128532Y-44833127D01*
X111152716Y-44823110D01*
X111177392Y-44814372D01*
X111202490Y-44806937D01*
X111227944Y-44800826D01*
X111253683Y-44796056D01*
X111279636Y-44792639D01*
X111305732Y-44790585D01*
X111331900Y-44789900D01*
X112081900Y-44789900D01*
X112108068Y-44790585D01*
X112134164Y-44792639D01*
X112160117Y-44796056D01*
X112185856Y-44800826D01*
X112211310Y-44806937D01*
X112236408Y-44814372D01*
X112261084Y-44823110D01*
X112285268Y-44833127D01*
X112308895Y-44844397D01*
X112331900Y-44856887D01*
X112354220Y-44870565D01*
X112375793Y-44885392D01*
X112396560Y-44901327D01*
X112416465Y-44918328D01*
X112435453Y-44936347D01*
X112453472Y-44955335D01*
X112470473Y-44975240D01*
X112486408Y-44996007D01*
X112501235Y-45017580D01*
X112514913Y-45039900D01*
X112527403Y-45062905D01*
X112538673Y-45086532D01*
X112548690Y-45110716D01*
X112557428Y-45135392D01*
X112564863Y-45160490D01*
X112570974Y-45185944D01*
X112575744Y-45211683D01*
X112579161Y-45237636D01*
X112581215Y-45263732D01*
X112581900Y-45289900D01*
G37*
X112581900Y-45289900D02*
X112581900Y-46689900D01*
X110831900Y-46689900D01*
X110831900Y-45289900D01*
X110832585Y-45263732D01*
X110834639Y-45237636D01*
X110838056Y-45211683D01*
X110842826Y-45185944D01*
X110848937Y-45160490D01*
X110856372Y-45135392D01*
X110865110Y-45110716D01*
X110875127Y-45086532D01*
X110886397Y-45062905D01*
X110898887Y-45039900D01*
X110912565Y-45017580D01*
X110927392Y-44996007D01*
X110943327Y-44975240D01*
X110960328Y-44955335D01*
X110978347Y-44936347D01*
X110997335Y-44918328D01*
X111017240Y-44901327D01*
X111038007Y-44885392D01*
X111059580Y-44870565D01*
X111081900Y-44856887D01*
X111104905Y-44844397D01*
X111128532Y-44833127D01*
X111152716Y-44823110D01*
X111177392Y-44814372D01*
X111202490Y-44806937D01*
X111227944Y-44800826D01*
X111253683Y-44796056D01*
X111279636Y-44792639D01*
X111305732Y-44790585D01*
X111331900Y-44789900D01*
X112081900Y-44789900D01*
X112108068Y-44790585D01*
X112134164Y-44792639D01*
X112160117Y-44796056D01*
X112185856Y-44800826D01*
X112211310Y-44806937D01*
X112236408Y-44814372D01*
X112261084Y-44823110D01*
X112285268Y-44833127D01*
X112308895Y-44844397D01*
X112331900Y-44856887D01*
X112354220Y-44870565D01*
X112375793Y-44885392D01*
X112396560Y-44901327D01*
X112416465Y-44918328D01*
X112435453Y-44936347D01*
X112453472Y-44955335D01*
X112470473Y-44975240D01*
X112486408Y-44996007D01*
X112501235Y-45017580D01*
X112514913Y-45039900D01*
X112527403Y-45062905D01*
X112538673Y-45086532D01*
X112548690Y-45110716D01*
X112557428Y-45135392D01*
X112564863Y-45160490D01*
X112570974Y-45185944D01*
X112575744Y-45211683D01*
X112579161Y-45237636D01*
X112581215Y-45263732D01*
X112581900Y-45289900D01*
D11*
X112915700Y-55791100D03*
X131749800Y-55791100D03*
X131749800Y-41986200D03*
X112915700Y-41986200D03*
D12*
X114406900Y-47589900D03*
X114406900Y-48239900D03*
X114406900Y-48889900D03*
X114406900Y-49539900D03*
X114406900Y-50189900D03*
D13*
X114406900Y-46389900D03*
X114406900Y-51389900D03*
D14*
X111706900Y-45389900D03*
D15*
X111706900Y-47889900D03*
X111706900Y-49889900D03*
D14*
X111706900Y-52389900D03*
D16*
X130343400Y-45957700D03*
X131343400Y-45957700D03*
X132343400Y-45957700D03*
X130343400Y-51857700D03*
X131343400Y-51857700D03*
X132343400Y-51857700D03*
D17*
X120801000Y-47832300D03*
X120801000Y-48882300D03*
X120801000Y-49932300D03*
X123801000Y-47832300D03*
X123801000Y-48882300D03*
X123801000Y-49932300D03*
M02*
