G04 #@! TF.GenerationSoftware,KiCad,Pcbnew,(5.1.9)-1*
G04 #@! TF.CreationDate,2021-02-21T20:56:49-08:00*
G04 #@! TF.ProjectId,AnalogFaderV2,416e616c-6f67-4466-9164-657256322e6b,rev?*
G04 #@! TF.SameCoordinates,Original*
G04 #@! TF.FileFunction,Copper,L2,Bot*
G04 #@! TF.FilePolarity,Positive*
%FSLAX46Y46*%
G04 Gerber Fmt 4.6, Leading zero omitted, Abs format (unit mm)*
G04 Created by KiCad (PCBNEW (5.1.9)-1) date 2021-02-21 20:56:49*
%MOMM*%
%LPD*%
G01*
G04 APERTURE LIST*
G04 #@! TA.AperFunction,ComponentPad*
%ADD10C,3.500001*%
G04 #@! TD*
G04 #@! TA.AperFunction,SMDPad,CuDef*
%ADD11R,0.800000X0.750000*%
G04 #@! TD*
G04 #@! TA.AperFunction,SMDPad,CuDef*
%ADD12R,0.750000X0.800000*%
G04 #@! TD*
G04 #@! TA.AperFunction,SMDPad,CuDef*
%ADD13R,1.600000X0.700000*%
G04 #@! TD*
G04 #@! TA.AperFunction,SMDPad,CuDef*
%ADD14R,0.575000X0.600000*%
G04 #@! TD*
G04 #@! TA.AperFunction,SMDPad,CuDef*
%ADD15R,1.650000X0.600000*%
G04 #@! TD*
G04 #@! TA.AperFunction,SMDPad,CuDef*
%ADD16R,2.030000X1.650000*%
G04 #@! TD*
G04 #@! TA.AperFunction,ComponentPad*
%ADD17O,0.650000X1.300000*%
G04 #@! TD*
G04 #@! TA.AperFunction,ComponentPad*
%ADD18O,1.550000X0.775000*%
G04 #@! TD*
G04 #@! TA.AperFunction,SMDPad,CuDef*
%ADD19R,0.500000X0.900000*%
G04 #@! TD*
G04 #@! TA.AperFunction,SMDPad,CuDef*
%ADD20R,0.900000X0.500000*%
G04 #@! TD*
G04 #@! TA.AperFunction,SMDPad,CuDef*
%ADD21R,1.370000X0.490000*%
G04 #@! TD*
G04 #@! TA.AperFunction,ViaPad*
%ADD22C,0.800000*%
G04 #@! TD*
G04 #@! TA.AperFunction,Conductor*
%ADD23C,0.250000*%
G04 #@! TD*
G04 #@! TA.AperFunction,Conductor*
%ADD24C,0.508000*%
G04 #@! TD*
G04 #@! TA.AperFunction,Conductor*
%ADD25C,0.254000*%
G04 #@! TD*
G04 #@! TA.AperFunction,Conductor*
%ADD26C,0.100000*%
G04 #@! TD*
G04 APERTURE END LIST*
D10*
X149860000Y-59563000D03*
X149860000Y-73596500D03*
X109042200Y-73596500D03*
X109042200Y-59563000D03*
D11*
X122147200Y-65544700D03*
X123647200Y-65544700D03*
D12*
X114947700Y-65899600D03*
X114947700Y-67399600D03*
D11*
X112179100Y-70675500D03*
X113679100Y-70675500D03*
D13*
X146088100Y-67471000D03*
X146088100Y-66421000D03*
X146088100Y-65371000D03*
X149088100Y-67471000D03*
X149088100Y-66421000D03*
X149088100Y-65371000D03*
D14*
X113529400Y-61656500D03*
X112454400Y-61656500D03*
X113529400Y-58956500D03*
D15*
X112991900Y-58356500D03*
X112991900Y-62256500D03*
D14*
X112454400Y-58956500D03*
D16*
X108000800Y-68033900D03*
X108000800Y-64873900D03*
D17*
X110650000Y-63933700D03*
X110650000Y-68933700D03*
D18*
X107950000Y-62933700D03*
X107950000Y-69933700D03*
D19*
X119127400Y-72491600D03*
X117627400Y-72491600D03*
X119127400Y-70967600D03*
X117627400Y-70967600D03*
X122288300Y-68580000D03*
X123788300Y-68580000D03*
X123788300Y-67043300D03*
X122288300Y-67043300D03*
D20*
X119900700Y-61177300D03*
X119900700Y-59677300D03*
X118325900Y-59677300D03*
X118325900Y-61177300D03*
X116763800Y-61177300D03*
X116763800Y-59677300D03*
X114985800Y-59677300D03*
X114985800Y-61177300D03*
D21*
X119615600Y-66210300D03*
X119615600Y-66860300D03*
X119615600Y-67510300D03*
X119615600Y-65560300D03*
X117315600Y-66860300D03*
X117315600Y-66210300D03*
X117315600Y-65560300D03*
X117315600Y-67510300D03*
D22*
X120713500Y-71018400D03*
X115938300Y-71005700D03*
X120319800Y-64414400D03*
X125628400Y-67398900D03*
X128206500Y-69989700D03*
X128625600Y-62509400D03*
X112064800Y-65989200D03*
X142888265Y-68931965D03*
X142862300Y-67932300D03*
X142862300Y-66903600D03*
X150533100Y-67475100D03*
X150495000Y-66421000D03*
X149085300Y-63804800D03*
X111925100Y-64338200D03*
X116255800Y-69215000D03*
X123405900Y-62814200D03*
X126619000Y-64897000D03*
X112979200Y-63271400D03*
X115110862Y-64095574D03*
X115085869Y-63095884D03*
X115092502Y-62095904D03*
D23*
X119615600Y-67510300D02*
X119615600Y-68764800D01*
X120713500Y-69862700D02*
X120713500Y-71018400D01*
X119615600Y-68764800D02*
X120713500Y-69862700D01*
X118750598Y-66210300D02*
X118605599Y-66355299D01*
X119615600Y-66210300D02*
X118750598Y-66210300D01*
X118250600Y-67510300D02*
X117315600Y-67510300D01*
X118605599Y-67155301D02*
X118250600Y-67510300D01*
X118605599Y-66355299D02*
X118605599Y-67155301D01*
X118605599Y-66065301D02*
X118605599Y-64376001D01*
X118750598Y-66210300D02*
X118605599Y-66065301D01*
X118605599Y-64376001D02*
X119634000Y-63347600D01*
X119634000Y-63347600D02*
X122161300Y-63347600D01*
X123647200Y-64833500D02*
X123647200Y-65544700D01*
X122161300Y-63347600D02*
X123647200Y-64833500D01*
X123647200Y-65544700D02*
X123647200Y-65620900D01*
X123788300Y-65762000D02*
X123788300Y-67043300D01*
X123647200Y-65620900D02*
X123788300Y-65762000D01*
D24*
X108000800Y-68033900D02*
X109385100Y-68033900D01*
X109385100Y-68033900D02*
X110299500Y-67119500D01*
X110299500Y-67119500D02*
X111455200Y-67119500D01*
X112179100Y-67843400D02*
X112179100Y-70675500D01*
X111455200Y-67119500D02*
X112179100Y-67843400D01*
X112179100Y-70675500D02*
X112179100Y-71945500D01*
X112725200Y-72491600D02*
X117627400Y-72491600D01*
X112179100Y-71945500D02*
X112725200Y-72491600D01*
X114947700Y-67906900D02*
X112179100Y-70675500D01*
X114947700Y-67399600D02*
X114947700Y-67906900D01*
D23*
X116450598Y-65560300D02*
X117315600Y-65560300D01*
X115647701Y-66363197D02*
X116450598Y-65560300D01*
X115647701Y-66699599D02*
X115647701Y-66363197D01*
X114947700Y-67399600D02*
X115647701Y-66699599D01*
X144349230Y-67471000D02*
X142888265Y-68931965D01*
X146088100Y-67471000D02*
X144349230Y-67471000D01*
X142906602Y-67932300D02*
X142862300Y-67932300D01*
X144417902Y-66421000D02*
X142906602Y-67932300D01*
X146088100Y-66421000D02*
X144417902Y-66421000D01*
X144394900Y-65371000D02*
X142862300Y-66903600D01*
X146088100Y-65371000D02*
X144394900Y-65371000D01*
X149092200Y-67475100D02*
X149088100Y-67471000D01*
X150533100Y-67475100D02*
X149092200Y-67475100D01*
X150495000Y-66421000D02*
X149088100Y-66421000D01*
X149085300Y-65368200D02*
X149088100Y-65371000D01*
X149085300Y-63804800D02*
X149085300Y-65368200D01*
X108035610Y-64908710D02*
X108000800Y-64873900D01*
D24*
X111225590Y-65037710D02*
X111925100Y-64338200D01*
X108164610Y-65037710D02*
X111225590Y-65037710D01*
X108000800Y-64873900D02*
X108164610Y-65037710D01*
D23*
X117315600Y-66860300D02*
X117315600Y-66210300D01*
X116380600Y-66860300D02*
X117315600Y-66860300D01*
X116255800Y-66985100D02*
X116380600Y-66860300D01*
X116255800Y-69215000D02*
X116255800Y-66985100D01*
X120269000Y-59677300D02*
X123405900Y-62814200D01*
X119900700Y-59677300D02*
X120269000Y-59677300D01*
X118325900Y-59677300D02*
X118325900Y-59004200D01*
X118325900Y-59004200D02*
X119100600Y-58229500D01*
X119100600Y-58229500D02*
X121069100Y-58229500D01*
X121069100Y-58229500D02*
X122148600Y-59309000D01*
X122148600Y-60426600D02*
X126619000Y-64897000D01*
X122148600Y-59309000D02*
X122148600Y-60426600D01*
X113529400Y-61719000D02*
X112991900Y-62256500D01*
X113529400Y-61656500D02*
X113529400Y-61719000D01*
X112454400Y-61719000D02*
X112991900Y-62256500D01*
X112454400Y-61656500D02*
X112454400Y-61719000D01*
X113906600Y-62256500D02*
X114985800Y-61177300D01*
X112991900Y-62256500D02*
X113906600Y-62256500D01*
X112991900Y-63258700D02*
X112979200Y-63271400D01*
X112991900Y-62256500D02*
X112991900Y-63258700D01*
X117627400Y-70991600D02*
X119127400Y-72491600D01*
X117627400Y-70967600D02*
X117627400Y-70991600D01*
X123788300Y-68580000D02*
X123788300Y-70026400D01*
X121323100Y-72491600D02*
X119127400Y-72491600D01*
X123788300Y-70026400D02*
X121323100Y-72491600D01*
X123788300Y-68580000D02*
X123291600Y-68580000D01*
X121778299Y-69355001D02*
X121437400Y-69014102D01*
X122798301Y-69355001D02*
X121778299Y-69355001D01*
X122863301Y-69290001D02*
X122798301Y-69355001D01*
X122863301Y-69008299D02*
X122863301Y-69290001D01*
X123291600Y-68580000D02*
X122863301Y-69008299D01*
X121437400Y-69014102D02*
X121437400Y-67424300D01*
X120873400Y-66860300D02*
X119615600Y-66860300D01*
X121437400Y-67424300D02*
X120873400Y-66860300D01*
X122288300Y-67043300D02*
X122288300Y-68580000D01*
X120805300Y-65560300D02*
X119615600Y-65560300D01*
X122288300Y-67043300D02*
X120805300Y-65560300D01*
X116982426Y-64095574D02*
X115110862Y-64095574D01*
X119900700Y-61177300D02*
X116982426Y-64095574D01*
X116407316Y-63095884D02*
X115085869Y-63095884D01*
X118325900Y-61177300D02*
X116407316Y-63095884D01*
X115845196Y-62095904D02*
X115092502Y-62095904D01*
X116763800Y-61177300D02*
X115845196Y-62095904D01*
X113665000Y-58356500D02*
X114985800Y-59677300D01*
X112991900Y-58356500D02*
X113665000Y-58356500D01*
X113529400Y-58894000D02*
X112991900Y-58356500D01*
X113529400Y-58956500D02*
X113529400Y-58894000D01*
X112454400Y-58894000D02*
X112991900Y-58356500D01*
X112454400Y-58956500D02*
X112454400Y-58894000D01*
X114985800Y-59677300D02*
X114985800Y-59601100D01*
X114985800Y-59677300D02*
X116763800Y-59677300D01*
D25*
X149878447Y-57622486D02*
X150250462Y-57734803D01*
X150593574Y-57917239D01*
X150894724Y-58162851D01*
X151142424Y-58462269D01*
X151327255Y-58804108D01*
X151442166Y-59175326D01*
X151486001Y-59592391D01*
X151486001Y-66108901D01*
X151412205Y-65930744D01*
X151298937Y-65761226D01*
X151154774Y-65617063D01*
X150985256Y-65503795D01*
X150796898Y-65425774D01*
X150596939Y-65386000D01*
X150526172Y-65386000D01*
X150526172Y-65021000D01*
X150513912Y-64896518D01*
X150477602Y-64776820D01*
X150418637Y-64666506D01*
X150339285Y-64569815D01*
X150242594Y-64490463D01*
X150132280Y-64431498D01*
X150012582Y-64395188D01*
X149940352Y-64388074D01*
X150002505Y-64295056D01*
X150080526Y-64106698D01*
X150120300Y-63906739D01*
X150120300Y-63702861D01*
X150080526Y-63502902D01*
X150002505Y-63314544D01*
X149889237Y-63145026D01*
X149745074Y-63000863D01*
X149575556Y-62887595D01*
X149387198Y-62809574D01*
X149187239Y-62769800D01*
X148983361Y-62769800D01*
X148783402Y-62809574D01*
X148595044Y-62887595D01*
X148425526Y-63000863D01*
X148281363Y-63145026D01*
X148168095Y-63314544D01*
X148090074Y-63502902D01*
X148050300Y-63702861D01*
X148050300Y-63906739D01*
X148090074Y-64106698D01*
X148168095Y-64295056D01*
X148230593Y-64388592D01*
X148163618Y-64395188D01*
X148043920Y-64431498D01*
X147933606Y-64490463D01*
X147836915Y-64569815D01*
X147757563Y-64666506D01*
X147698598Y-64776820D01*
X147662288Y-64896518D01*
X147650028Y-65021000D01*
X147650028Y-65721000D01*
X147662288Y-65845482D01*
X147677612Y-65896000D01*
X147662288Y-65946518D01*
X147650028Y-66071000D01*
X147650028Y-66771000D01*
X147662288Y-66895482D01*
X147677612Y-66946000D01*
X147662288Y-66996518D01*
X147650028Y-67121000D01*
X147650028Y-67821000D01*
X147662288Y-67945482D01*
X147698598Y-68065180D01*
X147757563Y-68175494D01*
X147836915Y-68272185D01*
X147933606Y-68351537D01*
X148043920Y-68410502D01*
X148163618Y-68446812D01*
X148288100Y-68459072D01*
X149888100Y-68459072D01*
X150012582Y-68446812D01*
X150106012Y-68418470D01*
X150231202Y-68470326D01*
X150431161Y-68510100D01*
X150635039Y-68510100D01*
X150834998Y-68470326D01*
X151023356Y-68392305D01*
X151192874Y-68279037D01*
X151337037Y-68134874D01*
X151450305Y-67965356D01*
X151486000Y-67879180D01*
X151486000Y-73322921D01*
X151444914Y-73741946D01*
X151332597Y-74113962D01*
X151150159Y-74457076D01*
X150904549Y-74758224D01*
X150605131Y-75005924D01*
X150263294Y-75190755D01*
X149892078Y-75305666D01*
X149475018Y-75349500D01*
X135744479Y-75349500D01*
X135325454Y-75308414D01*
X134953438Y-75196097D01*
X134610324Y-75013659D01*
X134309176Y-74768049D01*
X134061476Y-74468631D01*
X133876645Y-74126794D01*
X133761734Y-73755578D01*
X133717900Y-73338518D01*
X133717900Y-72141681D01*
X133714626Y-72108439D01*
X133714626Y-72091963D01*
X133713663Y-72082798D01*
X133713455Y-72080940D01*
X133723655Y-72074124D01*
X133846924Y-71950855D01*
X133943777Y-71805905D01*
X134010490Y-71644845D01*
X134044500Y-71473865D01*
X134044500Y-71299535D01*
X134010490Y-71128555D01*
X133943777Y-70967495D01*
X133915598Y-70925322D01*
X133942900Y-70788065D01*
X133942900Y-70613735D01*
X133908890Y-70442755D01*
X133871153Y-70351650D01*
X133908890Y-70260545D01*
X133942900Y-70089565D01*
X133942900Y-69915235D01*
X133908890Y-69744255D01*
X133871153Y-69653150D01*
X133908890Y-69562045D01*
X133942900Y-69391065D01*
X133942900Y-69216735D01*
X133910738Y-69055045D01*
X133931077Y-69024605D01*
X133997790Y-68863545D01*
X134031800Y-68692565D01*
X134031800Y-68518235D01*
X133997790Y-68347255D01*
X133931077Y-68186195D01*
X133834224Y-68041245D01*
X133711235Y-67918256D01*
X133714750Y-67882405D01*
X133714750Y-67882402D01*
X133717900Y-67850419D01*
X133717900Y-66801661D01*
X141827300Y-66801661D01*
X141827300Y-67005539D01*
X141867074Y-67205498D01*
X141945095Y-67393856D01*
X141961194Y-67417950D01*
X141945095Y-67442044D01*
X141867074Y-67630402D01*
X141827300Y-67830361D01*
X141827300Y-68034239D01*
X141867074Y-68234198D01*
X141945095Y-68422556D01*
X141966021Y-68453874D01*
X141893039Y-68630067D01*
X141853265Y-68830026D01*
X141853265Y-69033904D01*
X141893039Y-69233863D01*
X141971060Y-69422221D01*
X142084328Y-69591739D01*
X142228491Y-69735902D01*
X142398009Y-69849170D01*
X142586367Y-69927191D01*
X142786326Y-69966965D01*
X142990204Y-69966965D01*
X143190163Y-69927191D01*
X143378521Y-69849170D01*
X143548039Y-69735902D01*
X143692202Y-69591739D01*
X143805470Y-69422221D01*
X143883491Y-69233863D01*
X143923265Y-69033904D01*
X143923265Y-68971766D01*
X144664032Y-68231000D01*
X144803115Y-68231000D01*
X144836915Y-68272185D01*
X144933606Y-68351537D01*
X145043920Y-68410502D01*
X145163618Y-68446812D01*
X145288100Y-68459072D01*
X146888100Y-68459072D01*
X147012582Y-68446812D01*
X147132280Y-68410502D01*
X147242594Y-68351537D01*
X147339285Y-68272185D01*
X147418637Y-68175494D01*
X147477602Y-68065180D01*
X147513912Y-67945482D01*
X147526172Y-67821000D01*
X147526172Y-67121000D01*
X147513912Y-66996518D01*
X147498588Y-66946000D01*
X147513912Y-66895482D01*
X147526172Y-66771000D01*
X147526172Y-66071000D01*
X147513912Y-65946518D01*
X147498588Y-65896000D01*
X147513912Y-65845482D01*
X147526172Y-65721000D01*
X147526172Y-65021000D01*
X147513912Y-64896518D01*
X147477602Y-64776820D01*
X147418637Y-64666506D01*
X147339285Y-64569815D01*
X147242594Y-64490463D01*
X147132280Y-64431498D01*
X147012582Y-64395188D01*
X146888100Y-64382928D01*
X145288100Y-64382928D01*
X145163618Y-64395188D01*
X145043920Y-64431498D01*
X144933606Y-64490463D01*
X144836915Y-64569815D01*
X144803115Y-64611000D01*
X144432225Y-64611000D01*
X144394900Y-64607324D01*
X144357575Y-64611000D01*
X144357567Y-64611000D01*
X144245914Y-64621997D01*
X144102653Y-64665454D01*
X143970624Y-64736026D01*
X143854899Y-64830999D01*
X143831101Y-64859997D01*
X142822499Y-65868600D01*
X142760361Y-65868600D01*
X142560402Y-65908374D01*
X142372044Y-65986395D01*
X142202526Y-66099663D01*
X142058363Y-66243826D01*
X141945095Y-66413344D01*
X141867074Y-66601702D01*
X141827300Y-66801661D01*
X133717900Y-66801661D01*
X133717900Y-64940781D01*
X133714626Y-64907539D01*
X133714626Y-64891063D01*
X133713663Y-64881898D01*
X133702853Y-64785524D01*
X133723655Y-64771624D01*
X133846924Y-64648355D01*
X133943777Y-64503405D01*
X134010490Y-64342345D01*
X134044500Y-64171365D01*
X134044500Y-63997035D01*
X134010490Y-63826055D01*
X133943777Y-63664995D01*
X133915598Y-63622822D01*
X133942900Y-63485565D01*
X133942900Y-63311235D01*
X133908890Y-63140255D01*
X133871153Y-63049150D01*
X133908890Y-62958045D01*
X133942900Y-62787065D01*
X133942900Y-62612735D01*
X133908890Y-62441755D01*
X133871153Y-62350650D01*
X133908890Y-62259545D01*
X133942900Y-62088565D01*
X133942900Y-61914235D01*
X133910738Y-61752545D01*
X133931077Y-61722105D01*
X133997790Y-61561045D01*
X134031800Y-61390065D01*
X134031800Y-61215735D01*
X133997790Y-61044755D01*
X133931077Y-60883695D01*
X133834224Y-60738745D01*
X133711235Y-60615756D01*
X133714750Y-60579905D01*
X133714750Y-60579902D01*
X133717900Y-60547919D01*
X133717900Y-59607979D01*
X133758986Y-59188953D01*
X133871303Y-58816938D01*
X134053739Y-58473826D01*
X134299351Y-58172676D01*
X134598769Y-57924976D01*
X134940608Y-57740145D01*
X135311826Y-57625234D01*
X135728882Y-57581400D01*
X149459421Y-57581400D01*
X149878447Y-57622486D01*
G04 #@! TA.AperFunction,Conductor*
D26*
G36*
X149878447Y-57622486D02*
G01*
X150250462Y-57734803D01*
X150593574Y-57917239D01*
X150894724Y-58162851D01*
X151142424Y-58462269D01*
X151327255Y-58804108D01*
X151442166Y-59175326D01*
X151486001Y-59592391D01*
X151486001Y-66108901D01*
X151412205Y-65930744D01*
X151298937Y-65761226D01*
X151154774Y-65617063D01*
X150985256Y-65503795D01*
X150796898Y-65425774D01*
X150596939Y-65386000D01*
X150526172Y-65386000D01*
X150526172Y-65021000D01*
X150513912Y-64896518D01*
X150477602Y-64776820D01*
X150418637Y-64666506D01*
X150339285Y-64569815D01*
X150242594Y-64490463D01*
X150132280Y-64431498D01*
X150012582Y-64395188D01*
X149940352Y-64388074D01*
X150002505Y-64295056D01*
X150080526Y-64106698D01*
X150120300Y-63906739D01*
X150120300Y-63702861D01*
X150080526Y-63502902D01*
X150002505Y-63314544D01*
X149889237Y-63145026D01*
X149745074Y-63000863D01*
X149575556Y-62887595D01*
X149387198Y-62809574D01*
X149187239Y-62769800D01*
X148983361Y-62769800D01*
X148783402Y-62809574D01*
X148595044Y-62887595D01*
X148425526Y-63000863D01*
X148281363Y-63145026D01*
X148168095Y-63314544D01*
X148090074Y-63502902D01*
X148050300Y-63702861D01*
X148050300Y-63906739D01*
X148090074Y-64106698D01*
X148168095Y-64295056D01*
X148230593Y-64388592D01*
X148163618Y-64395188D01*
X148043920Y-64431498D01*
X147933606Y-64490463D01*
X147836915Y-64569815D01*
X147757563Y-64666506D01*
X147698598Y-64776820D01*
X147662288Y-64896518D01*
X147650028Y-65021000D01*
X147650028Y-65721000D01*
X147662288Y-65845482D01*
X147677612Y-65896000D01*
X147662288Y-65946518D01*
X147650028Y-66071000D01*
X147650028Y-66771000D01*
X147662288Y-66895482D01*
X147677612Y-66946000D01*
X147662288Y-66996518D01*
X147650028Y-67121000D01*
X147650028Y-67821000D01*
X147662288Y-67945482D01*
X147698598Y-68065180D01*
X147757563Y-68175494D01*
X147836915Y-68272185D01*
X147933606Y-68351537D01*
X148043920Y-68410502D01*
X148163618Y-68446812D01*
X148288100Y-68459072D01*
X149888100Y-68459072D01*
X150012582Y-68446812D01*
X150106012Y-68418470D01*
X150231202Y-68470326D01*
X150431161Y-68510100D01*
X150635039Y-68510100D01*
X150834998Y-68470326D01*
X151023356Y-68392305D01*
X151192874Y-68279037D01*
X151337037Y-68134874D01*
X151450305Y-67965356D01*
X151486000Y-67879180D01*
X151486000Y-73322921D01*
X151444914Y-73741946D01*
X151332597Y-74113962D01*
X151150159Y-74457076D01*
X150904549Y-74758224D01*
X150605131Y-75005924D01*
X150263294Y-75190755D01*
X149892078Y-75305666D01*
X149475018Y-75349500D01*
X135744479Y-75349500D01*
X135325454Y-75308414D01*
X134953438Y-75196097D01*
X134610324Y-75013659D01*
X134309176Y-74768049D01*
X134061476Y-74468631D01*
X133876645Y-74126794D01*
X133761734Y-73755578D01*
X133717900Y-73338518D01*
X133717900Y-72141681D01*
X133714626Y-72108439D01*
X133714626Y-72091963D01*
X133713663Y-72082798D01*
X133713455Y-72080940D01*
X133723655Y-72074124D01*
X133846924Y-71950855D01*
X133943777Y-71805905D01*
X134010490Y-71644845D01*
X134044500Y-71473865D01*
X134044500Y-71299535D01*
X134010490Y-71128555D01*
X133943777Y-70967495D01*
X133915598Y-70925322D01*
X133942900Y-70788065D01*
X133942900Y-70613735D01*
X133908890Y-70442755D01*
X133871153Y-70351650D01*
X133908890Y-70260545D01*
X133942900Y-70089565D01*
X133942900Y-69915235D01*
X133908890Y-69744255D01*
X133871153Y-69653150D01*
X133908890Y-69562045D01*
X133942900Y-69391065D01*
X133942900Y-69216735D01*
X133910738Y-69055045D01*
X133931077Y-69024605D01*
X133997790Y-68863545D01*
X134031800Y-68692565D01*
X134031800Y-68518235D01*
X133997790Y-68347255D01*
X133931077Y-68186195D01*
X133834224Y-68041245D01*
X133711235Y-67918256D01*
X133714750Y-67882405D01*
X133714750Y-67882402D01*
X133717900Y-67850419D01*
X133717900Y-66801661D01*
X141827300Y-66801661D01*
X141827300Y-67005539D01*
X141867074Y-67205498D01*
X141945095Y-67393856D01*
X141961194Y-67417950D01*
X141945095Y-67442044D01*
X141867074Y-67630402D01*
X141827300Y-67830361D01*
X141827300Y-68034239D01*
X141867074Y-68234198D01*
X141945095Y-68422556D01*
X141966021Y-68453874D01*
X141893039Y-68630067D01*
X141853265Y-68830026D01*
X141853265Y-69033904D01*
X141893039Y-69233863D01*
X141971060Y-69422221D01*
X142084328Y-69591739D01*
X142228491Y-69735902D01*
X142398009Y-69849170D01*
X142586367Y-69927191D01*
X142786326Y-69966965D01*
X142990204Y-69966965D01*
X143190163Y-69927191D01*
X143378521Y-69849170D01*
X143548039Y-69735902D01*
X143692202Y-69591739D01*
X143805470Y-69422221D01*
X143883491Y-69233863D01*
X143923265Y-69033904D01*
X143923265Y-68971766D01*
X144664032Y-68231000D01*
X144803115Y-68231000D01*
X144836915Y-68272185D01*
X144933606Y-68351537D01*
X145043920Y-68410502D01*
X145163618Y-68446812D01*
X145288100Y-68459072D01*
X146888100Y-68459072D01*
X147012582Y-68446812D01*
X147132280Y-68410502D01*
X147242594Y-68351537D01*
X147339285Y-68272185D01*
X147418637Y-68175494D01*
X147477602Y-68065180D01*
X147513912Y-67945482D01*
X147526172Y-67821000D01*
X147526172Y-67121000D01*
X147513912Y-66996518D01*
X147498588Y-66946000D01*
X147513912Y-66895482D01*
X147526172Y-66771000D01*
X147526172Y-66071000D01*
X147513912Y-65946518D01*
X147498588Y-65896000D01*
X147513912Y-65845482D01*
X147526172Y-65721000D01*
X147526172Y-65021000D01*
X147513912Y-64896518D01*
X147477602Y-64776820D01*
X147418637Y-64666506D01*
X147339285Y-64569815D01*
X147242594Y-64490463D01*
X147132280Y-64431498D01*
X147012582Y-64395188D01*
X146888100Y-64382928D01*
X145288100Y-64382928D01*
X145163618Y-64395188D01*
X145043920Y-64431498D01*
X144933606Y-64490463D01*
X144836915Y-64569815D01*
X144803115Y-64611000D01*
X144432225Y-64611000D01*
X144394900Y-64607324D01*
X144357575Y-64611000D01*
X144357567Y-64611000D01*
X144245914Y-64621997D01*
X144102653Y-64665454D01*
X143970624Y-64736026D01*
X143854899Y-64830999D01*
X143831101Y-64859997D01*
X142822499Y-65868600D01*
X142760361Y-65868600D01*
X142560402Y-65908374D01*
X142372044Y-65986395D01*
X142202526Y-66099663D01*
X142058363Y-66243826D01*
X141945095Y-66413344D01*
X141867074Y-66601702D01*
X141827300Y-66801661D01*
X133717900Y-66801661D01*
X133717900Y-64940781D01*
X133714626Y-64907539D01*
X133714626Y-64891063D01*
X133713663Y-64881898D01*
X133702853Y-64785524D01*
X133723655Y-64771624D01*
X133846924Y-64648355D01*
X133943777Y-64503405D01*
X134010490Y-64342345D01*
X134044500Y-64171365D01*
X134044500Y-63997035D01*
X134010490Y-63826055D01*
X133943777Y-63664995D01*
X133915598Y-63622822D01*
X133942900Y-63485565D01*
X133942900Y-63311235D01*
X133908890Y-63140255D01*
X133871153Y-63049150D01*
X133908890Y-62958045D01*
X133942900Y-62787065D01*
X133942900Y-62612735D01*
X133908890Y-62441755D01*
X133871153Y-62350650D01*
X133908890Y-62259545D01*
X133942900Y-62088565D01*
X133942900Y-61914235D01*
X133910738Y-61752545D01*
X133931077Y-61722105D01*
X133997790Y-61561045D01*
X134031800Y-61390065D01*
X134031800Y-61215735D01*
X133997790Y-61044755D01*
X133931077Y-60883695D01*
X133834224Y-60738745D01*
X133711235Y-60615756D01*
X133714750Y-60579905D01*
X133714750Y-60579902D01*
X133717900Y-60547919D01*
X133717900Y-59607979D01*
X133758986Y-59188953D01*
X133871303Y-58816938D01*
X134053739Y-58473826D01*
X134299351Y-58172676D01*
X134598769Y-57924976D01*
X134940608Y-57740145D01*
X135311826Y-57625234D01*
X135728882Y-57581400D01*
X149459421Y-57581400D01*
X149878447Y-57622486D01*
G37*
G04 #@! TD.AperFunction*
D25*
X128250347Y-57609786D02*
X128622362Y-57722103D01*
X128965474Y-57904539D01*
X129266624Y-58150151D01*
X129514324Y-58449569D01*
X129699155Y-58791408D01*
X129814066Y-59162626D01*
X129857900Y-59579682D01*
X129857901Y-60547919D01*
X129861174Y-60581151D01*
X129861174Y-60597637D01*
X129862012Y-60605609D01*
X129741576Y-60726045D01*
X129644723Y-60870995D01*
X129578010Y-61032055D01*
X129544000Y-61203035D01*
X129544000Y-61377365D01*
X129578010Y-61548345D01*
X129644723Y-61709405D01*
X129672902Y-61751578D01*
X129645600Y-61888835D01*
X129645600Y-62063165D01*
X129679610Y-62234145D01*
X129717347Y-62325250D01*
X129679610Y-62416355D01*
X129645600Y-62587335D01*
X129645600Y-62761665D01*
X129679610Y-62932645D01*
X129717347Y-63023750D01*
X129679610Y-63114855D01*
X129645600Y-63285835D01*
X129645600Y-63460165D01*
X129677762Y-63621855D01*
X129657423Y-63652295D01*
X129590710Y-63813355D01*
X129556700Y-63984335D01*
X129556700Y-64158665D01*
X129590710Y-64329645D01*
X129657423Y-64490705D01*
X129754276Y-64635655D01*
X129875906Y-64757285D01*
X129861050Y-64908795D01*
X129861050Y-64908808D01*
X129857901Y-64940781D01*
X129857900Y-67850418D01*
X129861174Y-67883660D01*
X129861174Y-67900137D01*
X129862012Y-67908109D01*
X129741576Y-68028545D01*
X129644723Y-68173495D01*
X129578010Y-68334555D01*
X129544000Y-68505535D01*
X129544000Y-68679865D01*
X129578010Y-68850845D01*
X129644723Y-69011905D01*
X129672902Y-69054078D01*
X129645600Y-69191335D01*
X129645600Y-69365665D01*
X129679610Y-69536645D01*
X129717347Y-69627750D01*
X129679610Y-69718855D01*
X129645600Y-69889835D01*
X129645600Y-70064165D01*
X129679610Y-70235145D01*
X129717347Y-70326250D01*
X129679610Y-70417355D01*
X129645600Y-70588335D01*
X129645600Y-70762665D01*
X129677762Y-70924355D01*
X129657423Y-70954795D01*
X129590710Y-71115855D01*
X129556700Y-71286835D01*
X129556700Y-71461165D01*
X129590710Y-71632145D01*
X129657423Y-71793205D01*
X129754276Y-71938155D01*
X129866833Y-72050712D01*
X129861050Y-72109695D01*
X129861050Y-72109708D01*
X129857901Y-72141681D01*
X129857900Y-73310220D01*
X129816814Y-73729246D01*
X129704497Y-74101262D01*
X129522059Y-74444376D01*
X129276449Y-74745524D01*
X128977031Y-74993224D01*
X128635194Y-75178055D01*
X128263978Y-75292966D01*
X127846918Y-75336800D01*
X109074479Y-75336800D01*
X108655454Y-75295714D01*
X108283438Y-75183397D01*
X107940324Y-75000959D01*
X107639176Y-74755349D01*
X107391476Y-74455931D01*
X107206645Y-74114094D01*
X107091734Y-73742878D01*
X107047900Y-73325818D01*
X107047900Y-70818041D01*
X107169313Y-70882937D01*
X107362055Y-70941405D01*
X107512272Y-70956200D01*
X108387728Y-70956200D01*
X108537945Y-70941405D01*
X108730687Y-70882937D01*
X108908319Y-70787991D01*
X109064015Y-70660215D01*
X109191791Y-70504519D01*
X109286737Y-70326887D01*
X109345205Y-70134145D01*
X109364947Y-69933700D01*
X109345205Y-69733255D01*
X109286737Y-69540513D01*
X109240639Y-69454269D01*
X109259980Y-69448402D01*
X109370294Y-69389437D01*
X109466985Y-69310085D01*
X109546337Y-69213394D01*
X109605302Y-69103080D01*
X109618157Y-69060700D01*
X109690000Y-69060700D01*
X109690000Y-69385700D01*
X109733223Y-69570546D01*
X109811677Y-69743408D01*
X109922347Y-69897643D01*
X110060980Y-70027324D01*
X110222249Y-70127467D01*
X110375706Y-70178680D01*
X110523000Y-70049821D01*
X110523000Y-69060700D01*
X109690000Y-69060700D01*
X109618157Y-69060700D01*
X109641612Y-68983382D01*
X109651591Y-68882063D01*
X109726951Y-68859203D01*
X109825177Y-68806700D01*
X110523000Y-68806700D01*
X110523000Y-68786700D01*
X110777000Y-68786700D01*
X110777000Y-68806700D01*
X110797000Y-68806700D01*
X110797000Y-69060700D01*
X110777000Y-69060700D01*
X110777000Y-70049821D01*
X110924294Y-70178680D01*
X111077751Y-70127467D01*
X111188965Y-70058407D01*
X111153288Y-70176018D01*
X111141028Y-70300500D01*
X111141028Y-71050500D01*
X111153288Y-71174982D01*
X111189598Y-71294680D01*
X111248563Y-71404994D01*
X111290101Y-71455608D01*
X111290101Y-71901831D01*
X111285800Y-71945500D01*
X111302964Y-72119774D01*
X111353798Y-72287352D01*
X111436348Y-72441791D01*
X111519572Y-72543199D01*
X111547442Y-72577159D01*
X111581359Y-72604994D01*
X112065701Y-73089336D01*
X112093541Y-73123259D01*
X112228909Y-73234353D01*
X112383349Y-73316903D01*
X112444986Y-73335600D01*
X112550925Y-73367736D01*
X112569273Y-73369543D01*
X112681533Y-73380600D01*
X112681539Y-73380600D01*
X112725199Y-73384900D01*
X112768859Y-73380600D01*
X116916215Y-73380600D01*
X116926215Y-73392785D01*
X117022906Y-73472137D01*
X117133220Y-73531102D01*
X117252918Y-73567412D01*
X117377400Y-73579672D01*
X117877400Y-73579672D01*
X118001882Y-73567412D01*
X118121580Y-73531102D01*
X118231894Y-73472137D01*
X118328585Y-73392785D01*
X118377400Y-73333304D01*
X118426215Y-73392785D01*
X118522906Y-73472137D01*
X118633220Y-73531102D01*
X118752918Y-73567412D01*
X118877400Y-73579672D01*
X119377400Y-73579672D01*
X119501882Y-73567412D01*
X119621580Y-73531102D01*
X119731894Y-73472137D01*
X119828585Y-73392785D01*
X119907937Y-73296094D01*
X119931720Y-73251600D01*
X121285778Y-73251600D01*
X121323100Y-73255276D01*
X121360422Y-73251600D01*
X121360433Y-73251600D01*
X121472086Y-73240603D01*
X121615347Y-73197146D01*
X121747376Y-73126574D01*
X121863101Y-73031601D01*
X121886904Y-73002597D01*
X124299303Y-70590199D01*
X124328301Y-70566401D01*
X124423274Y-70450676D01*
X124493846Y-70318647D01*
X124537303Y-70175386D01*
X124548300Y-70063733D01*
X124548300Y-70063724D01*
X124551976Y-70026401D01*
X124548300Y-69989078D01*
X124548300Y-69409518D01*
X124568837Y-69384494D01*
X124627802Y-69274180D01*
X124664112Y-69154482D01*
X124676372Y-69030000D01*
X124676372Y-68130000D01*
X124664112Y-68005518D01*
X124627802Y-67885820D01*
X124588157Y-67811650D01*
X124627802Y-67737480D01*
X124664112Y-67617782D01*
X124676372Y-67493300D01*
X124676372Y-66593300D01*
X124664112Y-66468818D01*
X124627802Y-66349120D01*
X124582745Y-66264825D01*
X124636702Y-66163880D01*
X124673012Y-66044182D01*
X124685272Y-65919700D01*
X124685272Y-65169700D01*
X124673012Y-65045218D01*
X124636702Y-64925520D01*
X124577737Y-64815206D01*
X124498385Y-64718515D01*
X124401694Y-64639163D01*
X124378721Y-64626884D01*
X124352746Y-64541253D01*
X124328239Y-64495404D01*
X124282174Y-64409223D01*
X124210999Y-64322497D01*
X124187201Y-64293499D01*
X124158204Y-64269702D01*
X123699565Y-63811064D01*
X123707798Y-63809426D01*
X123896156Y-63731405D01*
X124065674Y-63618137D01*
X124165505Y-63518306D01*
X125584000Y-64936802D01*
X125584000Y-64998939D01*
X125623774Y-65198898D01*
X125701795Y-65387256D01*
X125815063Y-65556774D01*
X125959226Y-65700937D01*
X126128744Y-65814205D01*
X126317102Y-65892226D01*
X126517061Y-65932000D01*
X126720939Y-65932000D01*
X126920898Y-65892226D01*
X127109256Y-65814205D01*
X127278774Y-65700937D01*
X127422937Y-65556774D01*
X127536205Y-65387256D01*
X127614226Y-65198898D01*
X127654000Y-64998939D01*
X127654000Y-64795061D01*
X127614226Y-64595102D01*
X127536205Y-64406744D01*
X127422937Y-64237226D01*
X127278774Y-64093063D01*
X127109256Y-63979795D01*
X126920898Y-63901774D01*
X126720939Y-63862000D01*
X126658802Y-63862000D01*
X122908600Y-60111799D01*
X122908600Y-59346333D01*
X122912277Y-59309000D01*
X122897603Y-59160014D01*
X122854146Y-59016753D01*
X122783574Y-58884724D01*
X122712399Y-58797997D01*
X122688601Y-58768999D01*
X122659604Y-58745202D01*
X121632904Y-57718502D01*
X121609101Y-57689499D01*
X121493376Y-57594526D01*
X121445060Y-57568700D01*
X127831321Y-57568700D01*
X128250347Y-57609786D01*
G04 #@! TA.AperFunction,Conductor*
D26*
G36*
X128250347Y-57609786D02*
G01*
X128622362Y-57722103D01*
X128965474Y-57904539D01*
X129266624Y-58150151D01*
X129514324Y-58449569D01*
X129699155Y-58791408D01*
X129814066Y-59162626D01*
X129857900Y-59579682D01*
X129857901Y-60547919D01*
X129861174Y-60581151D01*
X129861174Y-60597637D01*
X129862012Y-60605609D01*
X129741576Y-60726045D01*
X129644723Y-60870995D01*
X129578010Y-61032055D01*
X129544000Y-61203035D01*
X129544000Y-61377365D01*
X129578010Y-61548345D01*
X129644723Y-61709405D01*
X129672902Y-61751578D01*
X129645600Y-61888835D01*
X129645600Y-62063165D01*
X129679610Y-62234145D01*
X129717347Y-62325250D01*
X129679610Y-62416355D01*
X129645600Y-62587335D01*
X129645600Y-62761665D01*
X129679610Y-62932645D01*
X129717347Y-63023750D01*
X129679610Y-63114855D01*
X129645600Y-63285835D01*
X129645600Y-63460165D01*
X129677762Y-63621855D01*
X129657423Y-63652295D01*
X129590710Y-63813355D01*
X129556700Y-63984335D01*
X129556700Y-64158665D01*
X129590710Y-64329645D01*
X129657423Y-64490705D01*
X129754276Y-64635655D01*
X129875906Y-64757285D01*
X129861050Y-64908795D01*
X129861050Y-64908808D01*
X129857901Y-64940781D01*
X129857900Y-67850418D01*
X129861174Y-67883660D01*
X129861174Y-67900137D01*
X129862012Y-67908109D01*
X129741576Y-68028545D01*
X129644723Y-68173495D01*
X129578010Y-68334555D01*
X129544000Y-68505535D01*
X129544000Y-68679865D01*
X129578010Y-68850845D01*
X129644723Y-69011905D01*
X129672902Y-69054078D01*
X129645600Y-69191335D01*
X129645600Y-69365665D01*
X129679610Y-69536645D01*
X129717347Y-69627750D01*
X129679610Y-69718855D01*
X129645600Y-69889835D01*
X129645600Y-70064165D01*
X129679610Y-70235145D01*
X129717347Y-70326250D01*
X129679610Y-70417355D01*
X129645600Y-70588335D01*
X129645600Y-70762665D01*
X129677762Y-70924355D01*
X129657423Y-70954795D01*
X129590710Y-71115855D01*
X129556700Y-71286835D01*
X129556700Y-71461165D01*
X129590710Y-71632145D01*
X129657423Y-71793205D01*
X129754276Y-71938155D01*
X129866833Y-72050712D01*
X129861050Y-72109695D01*
X129861050Y-72109708D01*
X129857901Y-72141681D01*
X129857900Y-73310220D01*
X129816814Y-73729246D01*
X129704497Y-74101262D01*
X129522059Y-74444376D01*
X129276449Y-74745524D01*
X128977031Y-74993224D01*
X128635194Y-75178055D01*
X128263978Y-75292966D01*
X127846918Y-75336800D01*
X109074479Y-75336800D01*
X108655454Y-75295714D01*
X108283438Y-75183397D01*
X107940324Y-75000959D01*
X107639176Y-74755349D01*
X107391476Y-74455931D01*
X107206645Y-74114094D01*
X107091734Y-73742878D01*
X107047900Y-73325818D01*
X107047900Y-70818041D01*
X107169313Y-70882937D01*
X107362055Y-70941405D01*
X107512272Y-70956200D01*
X108387728Y-70956200D01*
X108537945Y-70941405D01*
X108730687Y-70882937D01*
X108908319Y-70787991D01*
X109064015Y-70660215D01*
X109191791Y-70504519D01*
X109286737Y-70326887D01*
X109345205Y-70134145D01*
X109364947Y-69933700D01*
X109345205Y-69733255D01*
X109286737Y-69540513D01*
X109240639Y-69454269D01*
X109259980Y-69448402D01*
X109370294Y-69389437D01*
X109466985Y-69310085D01*
X109546337Y-69213394D01*
X109605302Y-69103080D01*
X109618157Y-69060700D01*
X109690000Y-69060700D01*
X109690000Y-69385700D01*
X109733223Y-69570546D01*
X109811677Y-69743408D01*
X109922347Y-69897643D01*
X110060980Y-70027324D01*
X110222249Y-70127467D01*
X110375706Y-70178680D01*
X110523000Y-70049821D01*
X110523000Y-69060700D01*
X109690000Y-69060700D01*
X109618157Y-69060700D01*
X109641612Y-68983382D01*
X109651591Y-68882063D01*
X109726951Y-68859203D01*
X109825177Y-68806700D01*
X110523000Y-68806700D01*
X110523000Y-68786700D01*
X110777000Y-68786700D01*
X110777000Y-68806700D01*
X110797000Y-68806700D01*
X110797000Y-69060700D01*
X110777000Y-69060700D01*
X110777000Y-70049821D01*
X110924294Y-70178680D01*
X111077751Y-70127467D01*
X111188965Y-70058407D01*
X111153288Y-70176018D01*
X111141028Y-70300500D01*
X111141028Y-71050500D01*
X111153288Y-71174982D01*
X111189598Y-71294680D01*
X111248563Y-71404994D01*
X111290101Y-71455608D01*
X111290101Y-71901831D01*
X111285800Y-71945500D01*
X111302964Y-72119774D01*
X111353798Y-72287352D01*
X111436348Y-72441791D01*
X111519572Y-72543199D01*
X111547442Y-72577159D01*
X111581359Y-72604994D01*
X112065701Y-73089336D01*
X112093541Y-73123259D01*
X112228909Y-73234353D01*
X112383349Y-73316903D01*
X112444986Y-73335600D01*
X112550925Y-73367736D01*
X112569273Y-73369543D01*
X112681533Y-73380600D01*
X112681539Y-73380600D01*
X112725199Y-73384900D01*
X112768859Y-73380600D01*
X116916215Y-73380600D01*
X116926215Y-73392785D01*
X117022906Y-73472137D01*
X117133220Y-73531102D01*
X117252918Y-73567412D01*
X117377400Y-73579672D01*
X117877400Y-73579672D01*
X118001882Y-73567412D01*
X118121580Y-73531102D01*
X118231894Y-73472137D01*
X118328585Y-73392785D01*
X118377400Y-73333304D01*
X118426215Y-73392785D01*
X118522906Y-73472137D01*
X118633220Y-73531102D01*
X118752918Y-73567412D01*
X118877400Y-73579672D01*
X119377400Y-73579672D01*
X119501882Y-73567412D01*
X119621580Y-73531102D01*
X119731894Y-73472137D01*
X119828585Y-73392785D01*
X119907937Y-73296094D01*
X119931720Y-73251600D01*
X121285778Y-73251600D01*
X121323100Y-73255276D01*
X121360422Y-73251600D01*
X121360433Y-73251600D01*
X121472086Y-73240603D01*
X121615347Y-73197146D01*
X121747376Y-73126574D01*
X121863101Y-73031601D01*
X121886904Y-73002597D01*
X124299303Y-70590199D01*
X124328301Y-70566401D01*
X124423274Y-70450676D01*
X124493846Y-70318647D01*
X124537303Y-70175386D01*
X124548300Y-70063733D01*
X124548300Y-70063724D01*
X124551976Y-70026401D01*
X124548300Y-69989078D01*
X124548300Y-69409518D01*
X124568837Y-69384494D01*
X124627802Y-69274180D01*
X124664112Y-69154482D01*
X124676372Y-69030000D01*
X124676372Y-68130000D01*
X124664112Y-68005518D01*
X124627802Y-67885820D01*
X124588157Y-67811650D01*
X124627802Y-67737480D01*
X124664112Y-67617782D01*
X124676372Y-67493300D01*
X124676372Y-66593300D01*
X124664112Y-66468818D01*
X124627802Y-66349120D01*
X124582745Y-66264825D01*
X124636702Y-66163880D01*
X124673012Y-66044182D01*
X124685272Y-65919700D01*
X124685272Y-65169700D01*
X124673012Y-65045218D01*
X124636702Y-64925520D01*
X124577737Y-64815206D01*
X124498385Y-64718515D01*
X124401694Y-64639163D01*
X124378721Y-64626884D01*
X124352746Y-64541253D01*
X124328239Y-64495404D01*
X124282174Y-64409223D01*
X124210999Y-64322497D01*
X124187201Y-64293499D01*
X124158204Y-64269702D01*
X123699565Y-63811064D01*
X123707798Y-63809426D01*
X123896156Y-63731405D01*
X124065674Y-63618137D01*
X124165505Y-63518306D01*
X125584000Y-64936802D01*
X125584000Y-64998939D01*
X125623774Y-65198898D01*
X125701795Y-65387256D01*
X125815063Y-65556774D01*
X125959226Y-65700937D01*
X126128744Y-65814205D01*
X126317102Y-65892226D01*
X126517061Y-65932000D01*
X126720939Y-65932000D01*
X126920898Y-65892226D01*
X127109256Y-65814205D01*
X127278774Y-65700937D01*
X127422937Y-65556774D01*
X127536205Y-65387256D01*
X127614226Y-65198898D01*
X127654000Y-64998939D01*
X127654000Y-64795061D01*
X127614226Y-64595102D01*
X127536205Y-64406744D01*
X127422937Y-64237226D01*
X127278774Y-64093063D01*
X127109256Y-63979795D01*
X126920898Y-63901774D01*
X126720939Y-63862000D01*
X126658802Y-63862000D01*
X122908600Y-60111799D01*
X122908600Y-59346333D01*
X122912277Y-59309000D01*
X122897603Y-59160014D01*
X122854146Y-59016753D01*
X122783574Y-58884724D01*
X122712399Y-58797997D01*
X122688601Y-58768999D01*
X122659604Y-58745202D01*
X121632904Y-57718502D01*
X121609101Y-57689499D01*
X121493376Y-57594526D01*
X121445060Y-57568700D01*
X127831321Y-57568700D01*
X128250347Y-57609786D01*
G37*
G04 #@! TD.AperFunction*
D25*
X119742600Y-68231550D02*
X119901350Y-68390300D01*
X120290497Y-68393292D01*
X120415157Y-68383004D01*
X120535415Y-68348594D01*
X120646649Y-68291384D01*
X120677400Y-68266951D01*
X120677400Y-68976779D01*
X120673724Y-69014102D01*
X120677400Y-69051424D01*
X120677400Y-69051434D01*
X120688397Y-69163087D01*
X120729271Y-69297832D01*
X120731854Y-69306348D01*
X120802426Y-69438378D01*
X120834697Y-69477700D01*
X120897399Y-69554103D01*
X120926403Y-69577906D01*
X121214495Y-69865998D01*
X121238298Y-69895002D01*
X121354023Y-69989975D01*
X121486052Y-70060547D01*
X121629313Y-70104004D01*
X121740966Y-70115001D01*
X121740976Y-70115001D01*
X121778299Y-70118677D01*
X121815621Y-70115001D01*
X122624897Y-70115001D01*
X121008299Y-71731600D01*
X119931720Y-71731600D01*
X119930900Y-71730066D01*
X119971825Y-71649537D01*
X120005652Y-71529114D01*
X120015336Y-71404405D01*
X120012400Y-71253350D01*
X119853650Y-71094600D01*
X119250400Y-71094600D01*
X119250400Y-71114600D01*
X119004400Y-71114600D01*
X119004400Y-71094600D01*
X118980400Y-71094600D01*
X118980400Y-70840600D01*
X119004400Y-70840600D01*
X119004400Y-70041350D01*
X119250400Y-70041350D01*
X119250400Y-70840600D01*
X119853650Y-70840600D01*
X120012400Y-70681850D01*
X120015336Y-70530795D01*
X120005652Y-70406086D01*
X119971825Y-70285663D01*
X119915155Y-70174153D01*
X119837819Y-70075842D01*
X119742789Y-69994507D01*
X119633718Y-69933274D01*
X119514797Y-69894496D01*
X119409150Y-69882600D01*
X119250400Y-70041350D01*
X119004400Y-70041350D01*
X118845650Y-69882600D01*
X118740003Y-69894496D01*
X118621082Y-69933274D01*
X118512011Y-69994507D01*
X118416981Y-70075842D01*
X118377505Y-70126025D01*
X118328585Y-70066415D01*
X118231894Y-69987063D01*
X118121580Y-69928098D01*
X118001882Y-69891788D01*
X117877400Y-69879528D01*
X117377400Y-69879528D01*
X117252918Y-69891788D01*
X117133220Y-69928098D01*
X117022906Y-69987063D01*
X116926215Y-70066415D01*
X116846863Y-70163106D01*
X116787898Y-70273420D01*
X116751588Y-70393118D01*
X116739328Y-70517600D01*
X116739328Y-71417600D01*
X116751588Y-71542082D01*
X116769946Y-71602600D01*
X114393253Y-71602600D01*
X114433594Y-71581037D01*
X114530285Y-71501685D01*
X114609637Y-71404994D01*
X114668602Y-71294680D01*
X114704912Y-71174982D01*
X114717172Y-71050500D01*
X114714100Y-70961250D01*
X114555350Y-70802500D01*
X113806100Y-70802500D01*
X113806100Y-70822500D01*
X113552100Y-70822500D01*
X113552100Y-70802500D01*
X113532100Y-70802500D01*
X113532100Y-70579735D01*
X113583335Y-70528500D01*
X113806100Y-70528500D01*
X113806100Y-70548500D01*
X114555350Y-70548500D01*
X114714100Y-70389750D01*
X114717172Y-70300500D01*
X114704912Y-70176018D01*
X114668602Y-70056320D01*
X114609637Y-69946006D01*
X114530285Y-69849315D01*
X114433594Y-69769963D01*
X114373822Y-69738014D01*
X115304302Y-68807534D01*
X115260574Y-68913102D01*
X115220800Y-69113061D01*
X115220800Y-69316939D01*
X115260574Y-69516898D01*
X115338595Y-69705256D01*
X115451863Y-69874774D01*
X115596026Y-70018937D01*
X115765544Y-70132205D01*
X115953902Y-70210226D01*
X116153861Y-70250000D01*
X116357739Y-70250000D01*
X116557698Y-70210226D01*
X116746056Y-70132205D01*
X116915574Y-70018937D01*
X117059737Y-69874774D01*
X117173005Y-69705256D01*
X117251026Y-69516898D01*
X117290800Y-69316939D01*
X117290800Y-69113061D01*
X117251026Y-68913102D01*
X117173005Y-68724744D01*
X117059737Y-68555226D01*
X117015800Y-68511289D01*
X117015800Y-68393372D01*
X118000600Y-68393372D01*
X118125082Y-68381112D01*
X118244780Y-68344802D01*
X118355094Y-68285837D01*
X118385767Y-68260664D01*
X118399586Y-68259303D01*
X118504223Y-68227562D01*
X118584551Y-68291384D01*
X118695785Y-68348594D01*
X118816043Y-68383004D01*
X118940703Y-68393292D01*
X119329850Y-68390300D01*
X119488600Y-68231550D01*
X119488600Y-67743372D01*
X119742600Y-67743372D01*
X119742600Y-68231550D01*
G04 #@! TA.AperFunction,Conductor*
D26*
G36*
X119742600Y-68231550D02*
G01*
X119901350Y-68390300D01*
X120290497Y-68393292D01*
X120415157Y-68383004D01*
X120535415Y-68348594D01*
X120646649Y-68291384D01*
X120677400Y-68266951D01*
X120677400Y-68976779D01*
X120673724Y-69014102D01*
X120677400Y-69051424D01*
X120677400Y-69051434D01*
X120688397Y-69163087D01*
X120729271Y-69297832D01*
X120731854Y-69306348D01*
X120802426Y-69438378D01*
X120834697Y-69477700D01*
X120897399Y-69554103D01*
X120926403Y-69577906D01*
X121214495Y-69865998D01*
X121238298Y-69895002D01*
X121354023Y-69989975D01*
X121486052Y-70060547D01*
X121629313Y-70104004D01*
X121740966Y-70115001D01*
X121740976Y-70115001D01*
X121778299Y-70118677D01*
X121815621Y-70115001D01*
X122624897Y-70115001D01*
X121008299Y-71731600D01*
X119931720Y-71731600D01*
X119930900Y-71730066D01*
X119971825Y-71649537D01*
X120005652Y-71529114D01*
X120015336Y-71404405D01*
X120012400Y-71253350D01*
X119853650Y-71094600D01*
X119250400Y-71094600D01*
X119250400Y-71114600D01*
X119004400Y-71114600D01*
X119004400Y-71094600D01*
X118980400Y-71094600D01*
X118980400Y-70840600D01*
X119004400Y-70840600D01*
X119004400Y-70041350D01*
X119250400Y-70041350D01*
X119250400Y-70840600D01*
X119853650Y-70840600D01*
X120012400Y-70681850D01*
X120015336Y-70530795D01*
X120005652Y-70406086D01*
X119971825Y-70285663D01*
X119915155Y-70174153D01*
X119837819Y-70075842D01*
X119742789Y-69994507D01*
X119633718Y-69933274D01*
X119514797Y-69894496D01*
X119409150Y-69882600D01*
X119250400Y-70041350D01*
X119004400Y-70041350D01*
X118845650Y-69882600D01*
X118740003Y-69894496D01*
X118621082Y-69933274D01*
X118512011Y-69994507D01*
X118416981Y-70075842D01*
X118377505Y-70126025D01*
X118328585Y-70066415D01*
X118231894Y-69987063D01*
X118121580Y-69928098D01*
X118001882Y-69891788D01*
X117877400Y-69879528D01*
X117377400Y-69879528D01*
X117252918Y-69891788D01*
X117133220Y-69928098D01*
X117022906Y-69987063D01*
X116926215Y-70066415D01*
X116846863Y-70163106D01*
X116787898Y-70273420D01*
X116751588Y-70393118D01*
X116739328Y-70517600D01*
X116739328Y-71417600D01*
X116751588Y-71542082D01*
X116769946Y-71602600D01*
X114393253Y-71602600D01*
X114433594Y-71581037D01*
X114530285Y-71501685D01*
X114609637Y-71404994D01*
X114668602Y-71294680D01*
X114704912Y-71174982D01*
X114717172Y-71050500D01*
X114714100Y-70961250D01*
X114555350Y-70802500D01*
X113806100Y-70802500D01*
X113806100Y-70822500D01*
X113552100Y-70822500D01*
X113552100Y-70802500D01*
X113532100Y-70802500D01*
X113532100Y-70579735D01*
X113583335Y-70528500D01*
X113806100Y-70528500D01*
X113806100Y-70548500D01*
X114555350Y-70548500D01*
X114714100Y-70389750D01*
X114717172Y-70300500D01*
X114704912Y-70176018D01*
X114668602Y-70056320D01*
X114609637Y-69946006D01*
X114530285Y-69849315D01*
X114433594Y-69769963D01*
X114373822Y-69738014D01*
X115304302Y-68807534D01*
X115260574Y-68913102D01*
X115220800Y-69113061D01*
X115220800Y-69316939D01*
X115260574Y-69516898D01*
X115338595Y-69705256D01*
X115451863Y-69874774D01*
X115596026Y-70018937D01*
X115765544Y-70132205D01*
X115953902Y-70210226D01*
X116153861Y-70250000D01*
X116357739Y-70250000D01*
X116557698Y-70210226D01*
X116746056Y-70132205D01*
X116915574Y-70018937D01*
X117059737Y-69874774D01*
X117173005Y-69705256D01*
X117251026Y-69516898D01*
X117290800Y-69316939D01*
X117290800Y-69113061D01*
X117251026Y-68913102D01*
X117173005Y-68724744D01*
X117059737Y-68555226D01*
X117015800Y-68511289D01*
X117015800Y-68393372D01*
X118000600Y-68393372D01*
X118125082Y-68381112D01*
X118244780Y-68344802D01*
X118355094Y-68285837D01*
X118385767Y-68260664D01*
X118399586Y-68259303D01*
X118504223Y-68227562D01*
X118584551Y-68291384D01*
X118695785Y-68348594D01*
X118816043Y-68383004D01*
X118940703Y-68393292D01*
X119329850Y-68390300D01*
X119488600Y-68231550D01*
X119488600Y-67743372D01*
X119742600Y-67743372D01*
X119742600Y-68231550D01*
G37*
G04 #@! TD.AperFunction*
D25*
X114050869Y-63197823D02*
X114090643Y-63397782D01*
X114168664Y-63586140D01*
X114188996Y-63616570D01*
X114115636Y-63793676D01*
X114075862Y-63993635D01*
X114075862Y-64197513D01*
X114115636Y-64397472D01*
X114193657Y-64585830D01*
X114306925Y-64755348D01*
X114430684Y-64879107D01*
X114328520Y-64910098D01*
X114218206Y-64969063D01*
X114121515Y-65048415D01*
X114042163Y-65145106D01*
X113983198Y-65255420D01*
X113946888Y-65375118D01*
X113934628Y-65499600D01*
X113937700Y-65613850D01*
X114096450Y-65772600D01*
X114820700Y-65772600D01*
X114820700Y-65752600D01*
X115074700Y-65752600D01*
X115074700Y-65772600D01*
X115094700Y-65772600D01*
X115094700Y-65839037D01*
X115012727Y-65938921D01*
X114955171Y-66046600D01*
X114820700Y-66046600D01*
X114820700Y-66026600D01*
X114096450Y-66026600D01*
X113937700Y-66185350D01*
X113934628Y-66299600D01*
X113946888Y-66424082D01*
X113983198Y-66543780D01*
X114039761Y-66649600D01*
X113983198Y-66755420D01*
X113946888Y-66875118D01*
X113934628Y-66999600D01*
X113934628Y-67662736D01*
X113068100Y-68529264D01*
X113068100Y-67887059D01*
X113072400Y-67843399D01*
X113068100Y-67799734D01*
X113068100Y-67799733D01*
X113057166Y-67688720D01*
X113055236Y-67669124D01*
X113009325Y-67517775D01*
X113004403Y-67501549D01*
X113003598Y-67500042D01*
X112986149Y-67467399D01*
X112921853Y-67347109D01*
X112810759Y-67211741D01*
X112776842Y-67183907D01*
X112114699Y-66521763D01*
X112086859Y-66487841D01*
X111951491Y-66376747D01*
X111797051Y-66294197D01*
X111629474Y-66243364D01*
X111498867Y-66230500D01*
X111498860Y-66230500D01*
X111455200Y-66226200D01*
X111411540Y-66230500D01*
X110343160Y-66230500D01*
X110299500Y-66226200D01*
X110255840Y-66230500D01*
X110255833Y-66230500D01*
X110141825Y-66241729D01*
X110125225Y-66243364D01*
X110083985Y-66255874D01*
X109957649Y-66294197D01*
X109957647Y-66294198D01*
X109947541Y-66299600D01*
X109803209Y-66376747D01*
X109767200Y-66406299D01*
X109714248Y-66449756D01*
X109667841Y-66487841D01*
X109640005Y-66521759D01*
X109432418Y-66729347D01*
X109370294Y-66678363D01*
X109259980Y-66619398D01*
X109140282Y-66583088D01*
X109015800Y-66570828D01*
X107047900Y-66570828D01*
X107047900Y-66336972D01*
X109015800Y-66336972D01*
X109140282Y-66324712D01*
X109259980Y-66288402D01*
X109370294Y-66229437D01*
X109466985Y-66150085D01*
X109546337Y-66053394D01*
X109605302Y-65943080D01*
X109610268Y-65926710D01*
X111181930Y-65926710D01*
X111225590Y-65931010D01*
X111269250Y-65926710D01*
X111269257Y-65926710D01*
X111399864Y-65913846D01*
X111567441Y-65863013D01*
X111721881Y-65780463D01*
X111857249Y-65669369D01*
X111885088Y-65635447D01*
X112177205Y-65343330D01*
X112226998Y-65333426D01*
X112415356Y-65255405D01*
X112584874Y-65142137D01*
X112729037Y-64997974D01*
X112842305Y-64828456D01*
X112920326Y-64640098D01*
X112960100Y-64440139D01*
X112960100Y-64306400D01*
X113081139Y-64306400D01*
X113281098Y-64266626D01*
X113469456Y-64188605D01*
X113638974Y-64075337D01*
X113783137Y-63931174D01*
X113896405Y-63761656D01*
X113974426Y-63573298D01*
X114014200Y-63373339D01*
X114014200Y-63169461D01*
X114012467Y-63160749D01*
X114050869Y-63149099D01*
X114050869Y-63197823D01*
G04 #@! TA.AperFunction,Conductor*
D26*
G36*
X114050869Y-63197823D02*
G01*
X114090643Y-63397782D01*
X114168664Y-63586140D01*
X114188996Y-63616570D01*
X114115636Y-63793676D01*
X114075862Y-63993635D01*
X114075862Y-64197513D01*
X114115636Y-64397472D01*
X114193657Y-64585830D01*
X114306925Y-64755348D01*
X114430684Y-64879107D01*
X114328520Y-64910098D01*
X114218206Y-64969063D01*
X114121515Y-65048415D01*
X114042163Y-65145106D01*
X113983198Y-65255420D01*
X113946888Y-65375118D01*
X113934628Y-65499600D01*
X113937700Y-65613850D01*
X114096450Y-65772600D01*
X114820700Y-65772600D01*
X114820700Y-65752600D01*
X115074700Y-65752600D01*
X115074700Y-65772600D01*
X115094700Y-65772600D01*
X115094700Y-65839037D01*
X115012727Y-65938921D01*
X114955171Y-66046600D01*
X114820700Y-66046600D01*
X114820700Y-66026600D01*
X114096450Y-66026600D01*
X113937700Y-66185350D01*
X113934628Y-66299600D01*
X113946888Y-66424082D01*
X113983198Y-66543780D01*
X114039761Y-66649600D01*
X113983198Y-66755420D01*
X113946888Y-66875118D01*
X113934628Y-66999600D01*
X113934628Y-67662736D01*
X113068100Y-68529264D01*
X113068100Y-67887059D01*
X113072400Y-67843399D01*
X113068100Y-67799734D01*
X113068100Y-67799733D01*
X113057166Y-67688720D01*
X113055236Y-67669124D01*
X113009325Y-67517775D01*
X113004403Y-67501549D01*
X113003598Y-67500042D01*
X112986149Y-67467399D01*
X112921853Y-67347109D01*
X112810759Y-67211741D01*
X112776842Y-67183907D01*
X112114699Y-66521763D01*
X112086859Y-66487841D01*
X111951491Y-66376747D01*
X111797051Y-66294197D01*
X111629474Y-66243364D01*
X111498867Y-66230500D01*
X111498860Y-66230500D01*
X111455200Y-66226200D01*
X111411540Y-66230500D01*
X110343160Y-66230500D01*
X110299500Y-66226200D01*
X110255840Y-66230500D01*
X110255833Y-66230500D01*
X110141825Y-66241729D01*
X110125225Y-66243364D01*
X110083985Y-66255874D01*
X109957649Y-66294197D01*
X109957647Y-66294198D01*
X109947541Y-66299600D01*
X109803209Y-66376747D01*
X109767200Y-66406299D01*
X109714248Y-66449756D01*
X109667841Y-66487841D01*
X109640005Y-66521759D01*
X109432418Y-66729347D01*
X109370294Y-66678363D01*
X109259980Y-66619398D01*
X109140282Y-66583088D01*
X109015800Y-66570828D01*
X107047900Y-66570828D01*
X107047900Y-66336972D01*
X109015800Y-66336972D01*
X109140282Y-66324712D01*
X109259980Y-66288402D01*
X109370294Y-66229437D01*
X109466985Y-66150085D01*
X109546337Y-66053394D01*
X109605302Y-65943080D01*
X109610268Y-65926710D01*
X111181930Y-65926710D01*
X111225590Y-65931010D01*
X111269250Y-65926710D01*
X111269257Y-65926710D01*
X111399864Y-65913846D01*
X111567441Y-65863013D01*
X111721881Y-65780463D01*
X111857249Y-65669369D01*
X111885088Y-65635447D01*
X112177205Y-65343330D01*
X112226998Y-65333426D01*
X112415356Y-65255405D01*
X112584874Y-65142137D01*
X112729037Y-64997974D01*
X112842305Y-64828456D01*
X112920326Y-64640098D01*
X112960100Y-64440139D01*
X112960100Y-64306400D01*
X113081139Y-64306400D01*
X113281098Y-64266626D01*
X113469456Y-64188605D01*
X113638974Y-64075337D01*
X113783137Y-63931174D01*
X113896405Y-63761656D01*
X113974426Y-63573298D01*
X114014200Y-63373339D01*
X114014200Y-63169461D01*
X114012467Y-63160749D01*
X114050869Y-63149099D01*
X114050869Y-63197823D01*
G37*
G04 #@! TD.AperFunction*
D25*
X122353274Y-64614376D02*
X122274200Y-64693450D01*
X122274200Y-65417700D01*
X122294200Y-65417700D01*
X122294200Y-65671700D01*
X122274200Y-65671700D01*
X122274200Y-65691700D01*
X122020200Y-65691700D01*
X122020200Y-65671700D01*
X122000200Y-65671700D01*
X122000200Y-65417700D01*
X122020200Y-65417700D01*
X122020200Y-64693450D01*
X121861450Y-64534700D01*
X121747200Y-64531628D01*
X121622718Y-64543888D01*
X121503020Y-64580198D01*
X121392706Y-64639163D01*
X121296015Y-64718515D01*
X121216663Y-64815206D01*
X121173751Y-64895487D01*
X121097547Y-64854754D01*
X120954286Y-64811297D01*
X120842633Y-64800300D01*
X120842622Y-64800300D01*
X120805300Y-64796624D01*
X120767978Y-64800300D01*
X120674026Y-64800300D01*
X120655094Y-64784763D01*
X120544780Y-64725798D01*
X120425082Y-64689488D01*
X120300600Y-64677228D01*
X119379173Y-64677228D01*
X119948802Y-64107600D01*
X121846499Y-64107600D01*
X122353274Y-64614376D01*
G04 #@! TA.AperFunction,Conductor*
D26*
G36*
X122353274Y-64614376D02*
G01*
X122274200Y-64693450D01*
X122274200Y-65417700D01*
X122294200Y-65417700D01*
X122294200Y-65671700D01*
X122274200Y-65671700D01*
X122274200Y-65691700D01*
X122020200Y-65691700D01*
X122020200Y-65671700D01*
X122000200Y-65671700D01*
X122000200Y-65417700D01*
X122020200Y-65417700D01*
X122020200Y-64693450D01*
X121861450Y-64534700D01*
X121747200Y-64531628D01*
X121622718Y-64543888D01*
X121503020Y-64580198D01*
X121392706Y-64639163D01*
X121296015Y-64718515D01*
X121216663Y-64815206D01*
X121173751Y-64895487D01*
X121097547Y-64854754D01*
X120954286Y-64811297D01*
X120842633Y-64800300D01*
X120842622Y-64800300D01*
X120805300Y-64796624D01*
X120767978Y-64800300D01*
X120674026Y-64800300D01*
X120655094Y-64784763D01*
X120544780Y-64725798D01*
X120425082Y-64689488D01*
X120300600Y-64677228D01*
X119379173Y-64677228D01*
X119948802Y-64107600D01*
X121846499Y-64107600D01*
X122353274Y-64614376D01*
G37*
G04 #@! TD.AperFunction*
D25*
X111715715Y-57605315D02*
X111636363Y-57702006D01*
X111577398Y-57812320D01*
X111541088Y-57932018D01*
X111528828Y-58056500D01*
X111528828Y-59256500D01*
X111541088Y-59380982D01*
X111577398Y-59500680D01*
X111636363Y-59610994D01*
X111715715Y-59707685D01*
X111812406Y-59787037D01*
X111922720Y-59846002D01*
X112042418Y-59882312D01*
X112166900Y-59894572D01*
X112741900Y-59894572D01*
X112866382Y-59882312D01*
X112986080Y-59846002D01*
X112991900Y-59842891D01*
X112997720Y-59846002D01*
X113117418Y-59882312D01*
X113241900Y-59894572D01*
X113816900Y-59894572D01*
X113897728Y-59886611D01*
X113897728Y-59927300D01*
X113909988Y-60051782D01*
X113946298Y-60171480D01*
X114005263Y-60281794D01*
X114084615Y-60378485D01*
X114144096Y-60427300D01*
X114084615Y-60476115D01*
X114005263Y-60572806D01*
X113946298Y-60683120D01*
X113932144Y-60729778D01*
X113816900Y-60718428D01*
X113241900Y-60718428D01*
X113117418Y-60730688D01*
X112997720Y-60766998D01*
X112991900Y-60770109D01*
X112986080Y-60766998D01*
X112866382Y-60730688D01*
X112741900Y-60718428D01*
X112166900Y-60718428D01*
X112042418Y-60730688D01*
X111922720Y-60766998D01*
X111812406Y-60825963D01*
X111715715Y-60905315D01*
X111636363Y-61002006D01*
X111577398Y-61112320D01*
X111541088Y-61232018D01*
X111528828Y-61356500D01*
X111528828Y-62556500D01*
X111541088Y-62680982D01*
X111577398Y-62800680D01*
X111636363Y-62910994D01*
X111715715Y-63007685D01*
X111812406Y-63087037D01*
X111922720Y-63146002D01*
X111947378Y-63153482D01*
X111944200Y-63169461D01*
X111944200Y-63303200D01*
X111823161Y-63303200D01*
X111623202Y-63342974D01*
X111581592Y-63360210D01*
X111566777Y-63296854D01*
X111488323Y-63123992D01*
X111377653Y-62969757D01*
X111239020Y-62840076D01*
X111077751Y-62739933D01*
X110924294Y-62688720D01*
X110777000Y-62817579D01*
X110777000Y-63806700D01*
X110797000Y-63806700D01*
X110797000Y-64060700D01*
X110777000Y-64060700D01*
X110777000Y-64080700D01*
X110523000Y-64080700D01*
X110523000Y-64060700D01*
X109690000Y-64060700D01*
X109690000Y-64148710D01*
X109653872Y-64148710D01*
X109653872Y-64048900D01*
X109641612Y-63924418D01*
X109605302Y-63804720D01*
X109546337Y-63694406D01*
X109466985Y-63597715D01*
X109370294Y-63518363D01*
X109301704Y-63481700D01*
X109690000Y-63481700D01*
X109690000Y-63806700D01*
X110523000Y-63806700D01*
X110523000Y-62817579D01*
X110375706Y-62688720D01*
X110222249Y-62739933D01*
X110060980Y-62840076D01*
X109922347Y-62969757D01*
X109811677Y-63123992D01*
X109733223Y-63296854D01*
X109690000Y-63481700D01*
X109301704Y-63481700D01*
X109259980Y-63459398D01*
X109222057Y-63447894D01*
X109286737Y-63326887D01*
X109345205Y-63134145D01*
X109364947Y-62933700D01*
X109345205Y-62733255D01*
X109286737Y-62540513D01*
X109191791Y-62362881D01*
X109064015Y-62207185D01*
X108908319Y-62079409D01*
X108730687Y-61984463D01*
X108537945Y-61925995D01*
X108387728Y-61911200D01*
X107512272Y-61911200D01*
X107362055Y-61925995D01*
X107169313Y-61984463D01*
X107047900Y-62049359D01*
X107047900Y-59595279D01*
X107088986Y-59176253D01*
X107201303Y-58804238D01*
X107383739Y-58461126D01*
X107629351Y-58159976D01*
X107928769Y-57912276D01*
X108270608Y-57727445D01*
X108641826Y-57612534D01*
X109058882Y-57568700D01*
X111760331Y-57568700D01*
X111715715Y-57605315D01*
G04 #@! TA.AperFunction,Conductor*
D26*
G36*
X111715715Y-57605315D02*
G01*
X111636363Y-57702006D01*
X111577398Y-57812320D01*
X111541088Y-57932018D01*
X111528828Y-58056500D01*
X111528828Y-59256500D01*
X111541088Y-59380982D01*
X111577398Y-59500680D01*
X111636363Y-59610994D01*
X111715715Y-59707685D01*
X111812406Y-59787037D01*
X111922720Y-59846002D01*
X112042418Y-59882312D01*
X112166900Y-59894572D01*
X112741900Y-59894572D01*
X112866382Y-59882312D01*
X112986080Y-59846002D01*
X112991900Y-59842891D01*
X112997720Y-59846002D01*
X113117418Y-59882312D01*
X113241900Y-59894572D01*
X113816900Y-59894572D01*
X113897728Y-59886611D01*
X113897728Y-59927300D01*
X113909988Y-60051782D01*
X113946298Y-60171480D01*
X114005263Y-60281794D01*
X114084615Y-60378485D01*
X114144096Y-60427300D01*
X114084615Y-60476115D01*
X114005263Y-60572806D01*
X113946298Y-60683120D01*
X113932144Y-60729778D01*
X113816900Y-60718428D01*
X113241900Y-60718428D01*
X113117418Y-60730688D01*
X112997720Y-60766998D01*
X112991900Y-60770109D01*
X112986080Y-60766998D01*
X112866382Y-60730688D01*
X112741900Y-60718428D01*
X112166900Y-60718428D01*
X112042418Y-60730688D01*
X111922720Y-60766998D01*
X111812406Y-60825963D01*
X111715715Y-60905315D01*
X111636363Y-61002006D01*
X111577398Y-61112320D01*
X111541088Y-61232018D01*
X111528828Y-61356500D01*
X111528828Y-62556500D01*
X111541088Y-62680982D01*
X111577398Y-62800680D01*
X111636363Y-62910994D01*
X111715715Y-63007685D01*
X111812406Y-63087037D01*
X111922720Y-63146002D01*
X111947378Y-63153482D01*
X111944200Y-63169461D01*
X111944200Y-63303200D01*
X111823161Y-63303200D01*
X111623202Y-63342974D01*
X111581592Y-63360210D01*
X111566777Y-63296854D01*
X111488323Y-63123992D01*
X111377653Y-62969757D01*
X111239020Y-62840076D01*
X111077751Y-62739933D01*
X110924294Y-62688720D01*
X110777000Y-62817579D01*
X110777000Y-63806700D01*
X110797000Y-63806700D01*
X110797000Y-64060700D01*
X110777000Y-64060700D01*
X110777000Y-64080700D01*
X110523000Y-64080700D01*
X110523000Y-64060700D01*
X109690000Y-64060700D01*
X109690000Y-64148710D01*
X109653872Y-64148710D01*
X109653872Y-64048900D01*
X109641612Y-63924418D01*
X109605302Y-63804720D01*
X109546337Y-63694406D01*
X109466985Y-63597715D01*
X109370294Y-63518363D01*
X109301704Y-63481700D01*
X109690000Y-63481700D01*
X109690000Y-63806700D01*
X110523000Y-63806700D01*
X110523000Y-62817579D01*
X110375706Y-62688720D01*
X110222249Y-62739933D01*
X110060980Y-62840076D01*
X109922347Y-62969757D01*
X109811677Y-63123992D01*
X109733223Y-63296854D01*
X109690000Y-63481700D01*
X109301704Y-63481700D01*
X109259980Y-63459398D01*
X109222057Y-63447894D01*
X109286737Y-63326887D01*
X109345205Y-63134145D01*
X109364947Y-62933700D01*
X109345205Y-62733255D01*
X109286737Y-62540513D01*
X109191791Y-62362881D01*
X109064015Y-62207185D01*
X108908319Y-62079409D01*
X108730687Y-61984463D01*
X108537945Y-61925995D01*
X108387728Y-61911200D01*
X107512272Y-61911200D01*
X107362055Y-61925995D01*
X107169313Y-61984463D01*
X107047900Y-62049359D01*
X107047900Y-59595279D01*
X107088986Y-59176253D01*
X107201303Y-58804238D01*
X107383739Y-58461126D01*
X107629351Y-58159976D01*
X107928769Y-57912276D01*
X108270608Y-57727445D01*
X108641826Y-57612534D01*
X109058882Y-57568700D01*
X111760331Y-57568700D01*
X111715715Y-57605315D01*
G37*
G04 #@! TD.AperFunction*
M02*
