M48
; DRILL file {KiCad (5.1.9)-1} date 02/21/21 20:57:18
; FORMAT={-:-/ absolute / inch / decimal}
; #@! TF.CreationDate,2021-02-21T20:57:18-08:00
; #@! TF.GenerationSoftware,Kicad,Pcbnew,(5.1.9)-1
; #@! TF.FileFunction,Plated,1,2,PTH
FMAT,2
INCH
T1C0.0157
T2C0.0197
T3C0.0217
T4C0.0866
%
G90
G05
T1
X4.4065Y-2.533
X4.412Y-2.598
X4.448Y-2.491
X4.5309Y-2.4841
X4.5312Y-2.4447
X4.5319Y-2.5234
X4.5645Y-2.7955
X4.577Y-2.725
X4.737Y-2.536
X4.7525Y-2.796
X4.8585Y-2.473
X4.946Y-2.6535
X4.985Y-2.555
X5.0475Y-2.7555
X5.064Y-2.461
X5.6245Y-2.634
X5.6245Y-2.6745
X5.6255Y-2.7139
X5.8695Y-2.512
X5.925Y-2.615
X5.9265Y-2.6565
T4
X4.293Y-2.345
X4.293Y-2.8975
X5.9Y-2.345
X5.9Y-2.8975
T2
G00X4.2628Y-2.4777
M15
G01X4.2372Y-2.4777
M16
G05
G00X4.2628Y-2.7533
M15
G01X4.2372Y-2.7533
M16
G05
T3
G00X4.3563Y-2.5112
M15
G01X4.3563Y-2.523
M16
G05
G00X4.3563Y-2.708
M15
G01X4.3563Y-2.7198
M16
G05
T0
M30
