G04 #@! TF.GenerationSoftware,KiCad,Pcbnew,(5.1.9)-1*
G04 #@! TF.CreationDate,2021-02-21T20:56:49-08:00*
G04 #@! TF.ProjectId,AnalogFaderV2,416e616c-6f67-4466-9164-657256322e6b,rev?*
G04 #@! TF.SameCoordinates,Original*
G04 #@! TF.FileFunction,Copper,L1,Top*
G04 #@! TF.FilePolarity,Positive*
%FSLAX46Y46*%
G04 Gerber Fmt 4.6, Leading zero omitted, Abs format (unit mm)*
G04 Created by KiCad (PCBNEW (5.1.9)-1) date 2021-02-21 20:56:49*
%MOMM*%
%LPD*%
G01*
G04 APERTURE LIST*
G04 #@! TA.AperFunction,EtchedComponent*
%ADD10C,0.001000*%
G04 #@! TD*
G04 #@! TA.AperFunction,ComponentPad*
%ADD11C,3.500001*%
G04 #@! TD*
G04 #@! TA.AperFunction,SMDPad,CuDef*
%ADD12R,2.800000X2.100000*%
G04 #@! TD*
G04 #@! TA.AperFunction,SMDPad,CuDef*
%ADD13R,1.900000X0.600000*%
G04 #@! TD*
G04 #@! TA.AperFunction,SMDPad,CuDef*
%ADD14R,1.350000X0.400000*%
G04 #@! TD*
G04 #@! TA.AperFunction,ComponentPad*
%ADD15O,0.650000X1.300000*%
G04 #@! TD*
G04 #@! TA.AperFunction,ComponentPad*
%ADD16O,1.550000X0.775000*%
G04 #@! TD*
G04 #@! TA.AperFunction,SMDPad,CuDef*
%ADD17R,1.550000X1.500000*%
G04 #@! TD*
G04 #@! TA.AperFunction,SMDPad,CuDef*
%ADD18R,1.200000X0.500000*%
G04 #@! TD*
G04 #@! TA.AperFunction,ViaPad*
%ADD19C,0.800000*%
G04 #@! TD*
G04 #@! TA.AperFunction,Conductor*
%ADD20C,0.250000*%
G04 #@! TD*
G04 #@! TA.AperFunction,Conductor*
%ADD21C,0.381000*%
G04 #@! TD*
G04 #@! TA.AperFunction,Conductor*
%ADD22C,0.254000*%
G04 #@! TD*
G04 #@! TA.AperFunction,Conductor*
%ADD23C,0.100000*%
G04 #@! TD*
G04 APERTURE END LIST*
D10*
G36*
X108730000Y-64133700D02*
G01*
X107175000Y-64133700D01*
X107175000Y-62936200D01*
X107375000Y-62936200D01*
X107375338Y-62947969D01*
X107376360Y-62960952D01*
X107378059Y-62973864D01*
X107380433Y-62986669D01*
X107383473Y-62999332D01*
X107387172Y-63011819D01*
X107391519Y-63024095D01*
X107396503Y-63036127D01*
X107402109Y-63047882D01*
X107408323Y-63059327D01*
X107415128Y-63070431D01*
X107422504Y-63081163D01*
X107430433Y-63091495D01*
X107438890Y-63101398D01*
X107447855Y-63110845D01*
X107457302Y-63119810D01*
X107467205Y-63128267D01*
X107477537Y-63136196D01*
X107488269Y-63143572D01*
X107499373Y-63150377D01*
X107510818Y-63156591D01*
X107522573Y-63162197D01*
X107534605Y-63167181D01*
X107546881Y-63171528D01*
X107559368Y-63175227D01*
X107572031Y-63178267D01*
X107584836Y-63180641D01*
X107597748Y-63182340D01*
X107610731Y-63183362D01*
X107625000Y-63183700D01*
X107635000Y-63183700D01*
X108265000Y-63183700D01*
X108275000Y-63183700D01*
X108288084Y-63183357D01*
X108301132Y-63182330D01*
X108314109Y-63180622D01*
X108326978Y-63178237D01*
X108339705Y-63175181D01*
X108352254Y-63171464D01*
X108364592Y-63167095D01*
X108376684Y-63162086D01*
X108388498Y-63156452D01*
X108400000Y-63150206D01*
X108411160Y-63143368D01*
X108421946Y-63135954D01*
X108432330Y-63127986D01*
X108442283Y-63119486D01*
X108451777Y-63110477D01*
X108460786Y-63100983D01*
X108469286Y-63091030D01*
X108477254Y-63080646D01*
X108484668Y-63069860D01*
X108491506Y-63058700D01*
X108497752Y-63047198D01*
X108503386Y-63035384D01*
X108508395Y-63023292D01*
X108512764Y-63010954D01*
X108516481Y-62998405D01*
X108519537Y-62985678D01*
X108521922Y-62972809D01*
X108523630Y-62959832D01*
X108524657Y-62946784D01*
X108525000Y-62933700D01*
X108524657Y-62920616D01*
X108523630Y-62907568D01*
X108521922Y-62894591D01*
X108519537Y-62881722D01*
X108516481Y-62868995D01*
X108512764Y-62856446D01*
X108508395Y-62844108D01*
X108503386Y-62832016D01*
X108497752Y-62820202D01*
X108491506Y-62808700D01*
X108484668Y-62797540D01*
X108477254Y-62786754D01*
X108469286Y-62776370D01*
X108460786Y-62766417D01*
X108451777Y-62756923D01*
X108442283Y-62747914D01*
X108432330Y-62739414D01*
X108421946Y-62731446D01*
X108411160Y-62724032D01*
X108400000Y-62717194D01*
X108388498Y-62710948D01*
X108376684Y-62705314D01*
X108364592Y-62700305D01*
X108352254Y-62695936D01*
X108339705Y-62692219D01*
X108326978Y-62689163D01*
X108314109Y-62686778D01*
X108301132Y-62685070D01*
X108288084Y-62684043D01*
X108275000Y-62683700D01*
X107625000Y-62683700D01*
X107610731Y-62684038D01*
X107597748Y-62685060D01*
X107584836Y-62686759D01*
X107572031Y-62689133D01*
X107559368Y-62692173D01*
X107546881Y-62695872D01*
X107534605Y-62700219D01*
X107522573Y-62705203D01*
X107510818Y-62710809D01*
X107499373Y-62717023D01*
X107488269Y-62723828D01*
X107477537Y-62731204D01*
X107467205Y-62739133D01*
X107457302Y-62747590D01*
X107447855Y-62756555D01*
X107438890Y-62766002D01*
X107430433Y-62775905D01*
X107422504Y-62786237D01*
X107415128Y-62796969D01*
X107408323Y-62808073D01*
X107402109Y-62819518D01*
X107396503Y-62831273D01*
X107391519Y-62843305D01*
X107387172Y-62855581D01*
X107383473Y-62868068D01*
X107380433Y-62880731D01*
X107378059Y-62893536D01*
X107376360Y-62906448D01*
X107375338Y-62919431D01*
X107375000Y-62931200D01*
X107175000Y-62931200D01*
X107175682Y-62906347D01*
X107177731Y-62880316D01*
X107181139Y-62854428D01*
X107185897Y-62828754D01*
X107191993Y-62803364D01*
X107199409Y-62778327D01*
X107208125Y-62753713D01*
X107218118Y-62729589D01*
X107229359Y-62706022D01*
X107241818Y-62683074D01*
X107255462Y-62660810D01*
X107270252Y-62639291D01*
X107286147Y-62618575D01*
X107303105Y-62598720D01*
X107321079Y-62579779D01*
X107340020Y-62561805D01*
X107359875Y-62544847D01*
X107380591Y-62528952D01*
X107402110Y-62514162D01*
X107424374Y-62500518D01*
X107447322Y-62488059D01*
X107470889Y-62476818D01*
X107495013Y-62466825D01*
X107519627Y-62458109D01*
X107544664Y-62450693D01*
X107570054Y-62444597D01*
X107595728Y-62439839D01*
X107621616Y-62436431D01*
X107647647Y-62434382D01*
X107675000Y-62433700D01*
X108225000Y-62433700D01*
X108251168Y-62434385D01*
X108277264Y-62436439D01*
X108303217Y-62439856D01*
X108328956Y-62444626D01*
X108354410Y-62450737D01*
X108379508Y-62458172D01*
X108404184Y-62466910D01*
X108428368Y-62476927D01*
X108451995Y-62488197D01*
X108475000Y-62500687D01*
X108497320Y-62514365D01*
X108518893Y-62529192D01*
X108539660Y-62545127D01*
X108559565Y-62562128D01*
X108578553Y-62580147D01*
X108596572Y-62599135D01*
X108613573Y-62619040D01*
X108629508Y-62639807D01*
X108644335Y-62661380D01*
X108658013Y-62683700D01*
X108670503Y-62706705D01*
X108681773Y-62730332D01*
X108691790Y-62754516D01*
X108700528Y-62779192D01*
X108707963Y-62804290D01*
X108714074Y-62829744D01*
X108718844Y-62855483D01*
X108722261Y-62881436D01*
X108724315Y-62907532D01*
X108725000Y-62933700D01*
X108725000Y-64128700D01*
X108730000Y-64128700D01*
X108730000Y-64133700D01*
G37*
X108730000Y-64133700D02*
X107175000Y-64133700D01*
X107175000Y-62936200D01*
X107375000Y-62936200D01*
X107375338Y-62947969D01*
X107376360Y-62960952D01*
X107378059Y-62973864D01*
X107380433Y-62986669D01*
X107383473Y-62999332D01*
X107387172Y-63011819D01*
X107391519Y-63024095D01*
X107396503Y-63036127D01*
X107402109Y-63047882D01*
X107408323Y-63059327D01*
X107415128Y-63070431D01*
X107422504Y-63081163D01*
X107430433Y-63091495D01*
X107438890Y-63101398D01*
X107447855Y-63110845D01*
X107457302Y-63119810D01*
X107467205Y-63128267D01*
X107477537Y-63136196D01*
X107488269Y-63143572D01*
X107499373Y-63150377D01*
X107510818Y-63156591D01*
X107522573Y-63162197D01*
X107534605Y-63167181D01*
X107546881Y-63171528D01*
X107559368Y-63175227D01*
X107572031Y-63178267D01*
X107584836Y-63180641D01*
X107597748Y-63182340D01*
X107610731Y-63183362D01*
X107625000Y-63183700D01*
X107635000Y-63183700D01*
X108265000Y-63183700D01*
X108275000Y-63183700D01*
X108288084Y-63183357D01*
X108301132Y-63182330D01*
X108314109Y-63180622D01*
X108326978Y-63178237D01*
X108339705Y-63175181D01*
X108352254Y-63171464D01*
X108364592Y-63167095D01*
X108376684Y-63162086D01*
X108388498Y-63156452D01*
X108400000Y-63150206D01*
X108411160Y-63143368D01*
X108421946Y-63135954D01*
X108432330Y-63127986D01*
X108442283Y-63119486D01*
X108451777Y-63110477D01*
X108460786Y-63100983D01*
X108469286Y-63091030D01*
X108477254Y-63080646D01*
X108484668Y-63069860D01*
X108491506Y-63058700D01*
X108497752Y-63047198D01*
X108503386Y-63035384D01*
X108508395Y-63023292D01*
X108512764Y-63010954D01*
X108516481Y-62998405D01*
X108519537Y-62985678D01*
X108521922Y-62972809D01*
X108523630Y-62959832D01*
X108524657Y-62946784D01*
X108525000Y-62933700D01*
X108524657Y-62920616D01*
X108523630Y-62907568D01*
X108521922Y-62894591D01*
X108519537Y-62881722D01*
X108516481Y-62868995D01*
X108512764Y-62856446D01*
X108508395Y-62844108D01*
X108503386Y-62832016D01*
X108497752Y-62820202D01*
X108491506Y-62808700D01*
X108484668Y-62797540D01*
X108477254Y-62786754D01*
X108469286Y-62776370D01*
X108460786Y-62766417D01*
X108451777Y-62756923D01*
X108442283Y-62747914D01*
X108432330Y-62739414D01*
X108421946Y-62731446D01*
X108411160Y-62724032D01*
X108400000Y-62717194D01*
X108388498Y-62710948D01*
X108376684Y-62705314D01*
X108364592Y-62700305D01*
X108352254Y-62695936D01*
X108339705Y-62692219D01*
X108326978Y-62689163D01*
X108314109Y-62686778D01*
X108301132Y-62685070D01*
X108288084Y-62684043D01*
X108275000Y-62683700D01*
X107625000Y-62683700D01*
X107610731Y-62684038D01*
X107597748Y-62685060D01*
X107584836Y-62686759D01*
X107572031Y-62689133D01*
X107559368Y-62692173D01*
X107546881Y-62695872D01*
X107534605Y-62700219D01*
X107522573Y-62705203D01*
X107510818Y-62710809D01*
X107499373Y-62717023D01*
X107488269Y-62723828D01*
X107477537Y-62731204D01*
X107467205Y-62739133D01*
X107457302Y-62747590D01*
X107447855Y-62756555D01*
X107438890Y-62766002D01*
X107430433Y-62775905D01*
X107422504Y-62786237D01*
X107415128Y-62796969D01*
X107408323Y-62808073D01*
X107402109Y-62819518D01*
X107396503Y-62831273D01*
X107391519Y-62843305D01*
X107387172Y-62855581D01*
X107383473Y-62868068D01*
X107380433Y-62880731D01*
X107378059Y-62893536D01*
X107376360Y-62906448D01*
X107375338Y-62919431D01*
X107375000Y-62931200D01*
X107175000Y-62931200D01*
X107175682Y-62906347D01*
X107177731Y-62880316D01*
X107181139Y-62854428D01*
X107185897Y-62828754D01*
X107191993Y-62803364D01*
X107199409Y-62778327D01*
X107208125Y-62753713D01*
X107218118Y-62729589D01*
X107229359Y-62706022D01*
X107241818Y-62683074D01*
X107255462Y-62660810D01*
X107270252Y-62639291D01*
X107286147Y-62618575D01*
X107303105Y-62598720D01*
X107321079Y-62579779D01*
X107340020Y-62561805D01*
X107359875Y-62544847D01*
X107380591Y-62528952D01*
X107402110Y-62514162D01*
X107424374Y-62500518D01*
X107447322Y-62488059D01*
X107470889Y-62476818D01*
X107495013Y-62466825D01*
X107519627Y-62458109D01*
X107544664Y-62450693D01*
X107570054Y-62444597D01*
X107595728Y-62439839D01*
X107621616Y-62436431D01*
X107647647Y-62434382D01*
X107675000Y-62433700D01*
X108225000Y-62433700D01*
X108251168Y-62434385D01*
X108277264Y-62436439D01*
X108303217Y-62439856D01*
X108328956Y-62444626D01*
X108354410Y-62450737D01*
X108379508Y-62458172D01*
X108404184Y-62466910D01*
X108428368Y-62476927D01*
X108451995Y-62488197D01*
X108475000Y-62500687D01*
X108497320Y-62514365D01*
X108518893Y-62529192D01*
X108539660Y-62545127D01*
X108559565Y-62562128D01*
X108578553Y-62580147D01*
X108596572Y-62599135D01*
X108613573Y-62619040D01*
X108629508Y-62639807D01*
X108644335Y-62661380D01*
X108658013Y-62683700D01*
X108670503Y-62706705D01*
X108681773Y-62730332D01*
X108691790Y-62754516D01*
X108700528Y-62779192D01*
X108707963Y-62804290D01*
X108714074Y-62829744D01*
X108718844Y-62855483D01*
X108722261Y-62881436D01*
X108724315Y-62907532D01*
X108725000Y-62933700D01*
X108725000Y-64128700D01*
X108730000Y-64128700D01*
X108730000Y-64133700D01*
G36*
X107170000Y-68733700D02*
G01*
X108725000Y-68733700D01*
X108725000Y-69931200D01*
X108525000Y-69931200D01*
X108524662Y-69919431D01*
X108523640Y-69906448D01*
X108521941Y-69893536D01*
X108519567Y-69880731D01*
X108516527Y-69868068D01*
X108512828Y-69855581D01*
X108508481Y-69843305D01*
X108503497Y-69831273D01*
X108497891Y-69819518D01*
X108491677Y-69808073D01*
X108484872Y-69796969D01*
X108477496Y-69786237D01*
X108469567Y-69775905D01*
X108461110Y-69766002D01*
X108452145Y-69756555D01*
X108442698Y-69747590D01*
X108432795Y-69739133D01*
X108422463Y-69731204D01*
X108411731Y-69723828D01*
X108400627Y-69717023D01*
X108389182Y-69710809D01*
X108377427Y-69705203D01*
X108365395Y-69700219D01*
X108353119Y-69695872D01*
X108340632Y-69692173D01*
X108327969Y-69689133D01*
X108315164Y-69686759D01*
X108302252Y-69685060D01*
X108289269Y-69684038D01*
X108275000Y-69683700D01*
X108265000Y-69683700D01*
X107635000Y-69683700D01*
X107625000Y-69683700D01*
X107611916Y-69684043D01*
X107598868Y-69685070D01*
X107585891Y-69686778D01*
X107573022Y-69689163D01*
X107560295Y-69692219D01*
X107547746Y-69695936D01*
X107535408Y-69700305D01*
X107523316Y-69705314D01*
X107511502Y-69710948D01*
X107500000Y-69717194D01*
X107488840Y-69724032D01*
X107478054Y-69731446D01*
X107467670Y-69739414D01*
X107457717Y-69747914D01*
X107448223Y-69756923D01*
X107439214Y-69766417D01*
X107430714Y-69776370D01*
X107422746Y-69786754D01*
X107415332Y-69797540D01*
X107408494Y-69808700D01*
X107402248Y-69820202D01*
X107396614Y-69832016D01*
X107391605Y-69844108D01*
X107387236Y-69856446D01*
X107383519Y-69868995D01*
X107380463Y-69881722D01*
X107378078Y-69894591D01*
X107376370Y-69907568D01*
X107375343Y-69920616D01*
X107375000Y-69933700D01*
X107375343Y-69946784D01*
X107376370Y-69959832D01*
X107378078Y-69972809D01*
X107380463Y-69985678D01*
X107383519Y-69998405D01*
X107387236Y-70010954D01*
X107391605Y-70023292D01*
X107396614Y-70035384D01*
X107402248Y-70047198D01*
X107408494Y-70058700D01*
X107415332Y-70069860D01*
X107422746Y-70080646D01*
X107430714Y-70091030D01*
X107439214Y-70100983D01*
X107448223Y-70110477D01*
X107457717Y-70119486D01*
X107467670Y-70127986D01*
X107478054Y-70135954D01*
X107488840Y-70143368D01*
X107500000Y-70150206D01*
X107511502Y-70156452D01*
X107523316Y-70162086D01*
X107535408Y-70167095D01*
X107547746Y-70171464D01*
X107560295Y-70175181D01*
X107573022Y-70178237D01*
X107585891Y-70180622D01*
X107598868Y-70182330D01*
X107611916Y-70183357D01*
X107625000Y-70183700D01*
X108275000Y-70183700D01*
X108289269Y-70183362D01*
X108302252Y-70182340D01*
X108315164Y-70180641D01*
X108327969Y-70178267D01*
X108340632Y-70175227D01*
X108353119Y-70171528D01*
X108365395Y-70167181D01*
X108377427Y-70162197D01*
X108389182Y-70156591D01*
X108400627Y-70150377D01*
X108411731Y-70143572D01*
X108422463Y-70136196D01*
X108432795Y-70128267D01*
X108442698Y-70119810D01*
X108452145Y-70110845D01*
X108461110Y-70101398D01*
X108469567Y-70091495D01*
X108477496Y-70081163D01*
X108484872Y-70070431D01*
X108491677Y-70059327D01*
X108497891Y-70047882D01*
X108503497Y-70036127D01*
X108508481Y-70024095D01*
X108512828Y-70011819D01*
X108516527Y-69999332D01*
X108519567Y-69986669D01*
X108521941Y-69973864D01*
X108523640Y-69960952D01*
X108524662Y-69947969D01*
X108525000Y-69936200D01*
X108725000Y-69936200D01*
X108724318Y-69961053D01*
X108722269Y-69987084D01*
X108718861Y-70012972D01*
X108714103Y-70038646D01*
X108708007Y-70064036D01*
X108700591Y-70089073D01*
X108691875Y-70113687D01*
X108681882Y-70137811D01*
X108670641Y-70161378D01*
X108658182Y-70184326D01*
X108644538Y-70206590D01*
X108629748Y-70228109D01*
X108613853Y-70248825D01*
X108596895Y-70268680D01*
X108578921Y-70287621D01*
X108559980Y-70305595D01*
X108540125Y-70322553D01*
X108519409Y-70338448D01*
X108497890Y-70353238D01*
X108475626Y-70366882D01*
X108452678Y-70379341D01*
X108429111Y-70390582D01*
X108404987Y-70400575D01*
X108380373Y-70409291D01*
X108355336Y-70416707D01*
X108329946Y-70422803D01*
X108304272Y-70427561D01*
X108278384Y-70430969D01*
X108252353Y-70433018D01*
X108225000Y-70433700D01*
X107675000Y-70433700D01*
X107648832Y-70433015D01*
X107622736Y-70430961D01*
X107596783Y-70427544D01*
X107571044Y-70422774D01*
X107545590Y-70416663D01*
X107520492Y-70409228D01*
X107495816Y-70400490D01*
X107471632Y-70390473D01*
X107448005Y-70379203D01*
X107425000Y-70366713D01*
X107402680Y-70353035D01*
X107381107Y-70338208D01*
X107360340Y-70322273D01*
X107340435Y-70305272D01*
X107321447Y-70287253D01*
X107303428Y-70268265D01*
X107286427Y-70248360D01*
X107270492Y-70227593D01*
X107255665Y-70206020D01*
X107241987Y-70183700D01*
X107229497Y-70160695D01*
X107218227Y-70137068D01*
X107208210Y-70112884D01*
X107199472Y-70088208D01*
X107192037Y-70063110D01*
X107185926Y-70037656D01*
X107181156Y-70011917D01*
X107177739Y-69985964D01*
X107175685Y-69959868D01*
X107175000Y-69933700D01*
X107175000Y-68738700D01*
X107170000Y-68738700D01*
X107170000Y-68733700D01*
G37*
X107170000Y-68733700D02*
X108725000Y-68733700D01*
X108725000Y-69931200D01*
X108525000Y-69931200D01*
X108524662Y-69919431D01*
X108523640Y-69906448D01*
X108521941Y-69893536D01*
X108519567Y-69880731D01*
X108516527Y-69868068D01*
X108512828Y-69855581D01*
X108508481Y-69843305D01*
X108503497Y-69831273D01*
X108497891Y-69819518D01*
X108491677Y-69808073D01*
X108484872Y-69796969D01*
X108477496Y-69786237D01*
X108469567Y-69775905D01*
X108461110Y-69766002D01*
X108452145Y-69756555D01*
X108442698Y-69747590D01*
X108432795Y-69739133D01*
X108422463Y-69731204D01*
X108411731Y-69723828D01*
X108400627Y-69717023D01*
X108389182Y-69710809D01*
X108377427Y-69705203D01*
X108365395Y-69700219D01*
X108353119Y-69695872D01*
X108340632Y-69692173D01*
X108327969Y-69689133D01*
X108315164Y-69686759D01*
X108302252Y-69685060D01*
X108289269Y-69684038D01*
X108275000Y-69683700D01*
X108265000Y-69683700D01*
X107635000Y-69683700D01*
X107625000Y-69683700D01*
X107611916Y-69684043D01*
X107598868Y-69685070D01*
X107585891Y-69686778D01*
X107573022Y-69689163D01*
X107560295Y-69692219D01*
X107547746Y-69695936D01*
X107535408Y-69700305D01*
X107523316Y-69705314D01*
X107511502Y-69710948D01*
X107500000Y-69717194D01*
X107488840Y-69724032D01*
X107478054Y-69731446D01*
X107467670Y-69739414D01*
X107457717Y-69747914D01*
X107448223Y-69756923D01*
X107439214Y-69766417D01*
X107430714Y-69776370D01*
X107422746Y-69786754D01*
X107415332Y-69797540D01*
X107408494Y-69808700D01*
X107402248Y-69820202D01*
X107396614Y-69832016D01*
X107391605Y-69844108D01*
X107387236Y-69856446D01*
X107383519Y-69868995D01*
X107380463Y-69881722D01*
X107378078Y-69894591D01*
X107376370Y-69907568D01*
X107375343Y-69920616D01*
X107375000Y-69933700D01*
X107375343Y-69946784D01*
X107376370Y-69959832D01*
X107378078Y-69972809D01*
X107380463Y-69985678D01*
X107383519Y-69998405D01*
X107387236Y-70010954D01*
X107391605Y-70023292D01*
X107396614Y-70035384D01*
X107402248Y-70047198D01*
X107408494Y-70058700D01*
X107415332Y-70069860D01*
X107422746Y-70080646D01*
X107430714Y-70091030D01*
X107439214Y-70100983D01*
X107448223Y-70110477D01*
X107457717Y-70119486D01*
X107467670Y-70127986D01*
X107478054Y-70135954D01*
X107488840Y-70143368D01*
X107500000Y-70150206D01*
X107511502Y-70156452D01*
X107523316Y-70162086D01*
X107535408Y-70167095D01*
X107547746Y-70171464D01*
X107560295Y-70175181D01*
X107573022Y-70178237D01*
X107585891Y-70180622D01*
X107598868Y-70182330D01*
X107611916Y-70183357D01*
X107625000Y-70183700D01*
X108275000Y-70183700D01*
X108289269Y-70183362D01*
X108302252Y-70182340D01*
X108315164Y-70180641D01*
X108327969Y-70178267D01*
X108340632Y-70175227D01*
X108353119Y-70171528D01*
X108365395Y-70167181D01*
X108377427Y-70162197D01*
X108389182Y-70156591D01*
X108400627Y-70150377D01*
X108411731Y-70143572D01*
X108422463Y-70136196D01*
X108432795Y-70128267D01*
X108442698Y-70119810D01*
X108452145Y-70110845D01*
X108461110Y-70101398D01*
X108469567Y-70091495D01*
X108477496Y-70081163D01*
X108484872Y-70070431D01*
X108491677Y-70059327D01*
X108497891Y-70047882D01*
X108503497Y-70036127D01*
X108508481Y-70024095D01*
X108512828Y-70011819D01*
X108516527Y-69999332D01*
X108519567Y-69986669D01*
X108521941Y-69973864D01*
X108523640Y-69960952D01*
X108524662Y-69947969D01*
X108525000Y-69936200D01*
X108725000Y-69936200D01*
X108724318Y-69961053D01*
X108722269Y-69987084D01*
X108718861Y-70012972D01*
X108714103Y-70038646D01*
X108708007Y-70064036D01*
X108700591Y-70089073D01*
X108691875Y-70113687D01*
X108681882Y-70137811D01*
X108670641Y-70161378D01*
X108658182Y-70184326D01*
X108644538Y-70206590D01*
X108629748Y-70228109D01*
X108613853Y-70248825D01*
X108596895Y-70268680D01*
X108578921Y-70287621D01*
X108559980Y-70305595D01*
X108540125Y-70322553D01*
X108519409Y-70338448D01*
X108497890Y-70353238D01*
X108475626Y-70366882D01*
X108452678Y-70379341D01*
X108429111Y-70390582D01*
X108404987Y-70400575D01*
X108380373Y-70409291D01*
X108355336Y-70416707D01*
X108329946Y-70422803D01*
X108304272Y-70427561D01*
X108278384Y-70430969D01*
X108252353Y-70433018D01*
X108225000Y-70433700D01*
X107675000Y-70433700D01*
X107648832Y-70433015D01*
X107622736Y-70430961D01*
X107596783Y-70427544D01*
X107571044Y-70422774D01*
X107545590Y-70416663D01*
X107520492Y-70409228D01*
X107495816Y-70400490D01*
X107471632Y-70390473D01*
X107448005Y-70379203D01*
X107425000Y-70366713D01*
X107402680Y-70353035D01*
X107381107Y-70338208D01*
X107360340Y-70322273D01*
X107340435Y-70305272D01*
X107321447Y-70287253D01*
X107303428Y-70268265D01*
X107286427Y-70248360D01*
X107270492Y-70227593D01*
X107255665Y-70206020D01*
X107241987Y-70183700D01*
X107229497Y-70160695D01*
X107218227Y-70137068D01*
X107208210Y-70112884D01*
X107199472Y-70088208D01*
X107192037Y-70063110D01*
X107185926Y-70037656D01*
X107181156Y-70011917D01*
X107177739Y-69985964D01*
X107175685Y-69959868D01*
X107175000Y-69933700D01*
X107175000Y-68738700D01*
X107170000Y-68738700D01*
X107170000Y-68733700D01*
D11*
X149860000Y-59563000D03*
X149860000Y-73596500D03*
X109042200Y-73596500D03*
X109042200Y-59563000D03*
D12*
X125758400Y-60777700D03*
X125758400Y-72077700D03*
D13*
X123408400Y-68927700D03*
X123408400Y-63927700D03*
X123408400Y-64927700D03*
X123408400Y-65927700D03*
X123408400Y-66927700D03*
X123408400Y-67927700D03*
X140129300Y-64914300D03*
X140129300Y-65914300D03*
X140129300Y-66914300D03*
X140129300Y-67914300D03*
X140129300Y-68914300D03*
X140129300Y-63914300D03*
D12*
X137779300Y-60764300D03*
X137779300Y-72064300D03*
D14*
X110650000Y-65133700D03*
X110650000Y-65783700D03*
X110650000Y-66433700D03*
X110650000Y-67083700D03*
X110650000Y-67733700D03*
D15*
X110650000Y-63933700D03*
X110650000Y-68933700D03*
D16*
X107950000Y-62933700D03*
D17*
X107950000Y-65433700D03*
X107950000Y-67433700D03*
D16*
X107950000Y-69933700D03*
D18*
X120171000Y-65433700D03*
X120171000Y-66433700D03*
X120171000Y-67433700D03*
X114271000Y-65433700D03*
X114271000Y-66433700D03*
X114271000Y-67433700D03*
D19*
X120713500Y-71018400D03*
X115938300Y-71005700D03*
X120319800Y-64414400D03*
X125628400Y-67398900D03*
X128206500Y-69989700D03*
X128625600Y-62509400D03*
X112064800Y-65989200D03*
X142888265Y-68931965D03*
X142862300Y-67932300D03*
X142862300Y-66903600D03*
X150533100Y-67475100D03*
X150495000Y-66421000D03*
X149085300Y-63804800D03*
X111925100Y-64338200D03*
X116255800Y-69215000D03*
X123405900Y-62814200D03*
X126619000Y-64897000D03*
X112979200Y-63271400D03*
X115110862Y-64095574D03*
X115085869Y-63095884D03*
X115092502Y-62095904D03*
D20*
X110650000Y-67733700D02*
X110650000Y-68933700D01*
X120171000Y-65433700D02*
X118418100Y-65433700D01*
X118418100Y-65433700D02*
X118262400Y-65278000D01*
X118262400Y-65278000D02*
X118262400Y-64249300D01*
X118262400Y-64249300D02*
X118706900Y-63804800D01*
X119710200Y-63804800D02*
X120319800Y-64414400D01*
X118706900Y-63804800D02*
X119710200Y-63804800D01*
X120171000Y-66433700D02*
X118313200Y-66433700D01*
X118418100Y-66328800D02*
X118418100Y-65433700D01*
X118313200Y-66433700D02*
X118418100Y-66328800D01*
X120171000Y-67433700D02*
X118424200Y-67433700D01*
X118313200Y-67322700D02*
X118313200Y-66433700D01*
X118424200Y-67433700D02*
X118313200Y-67322700D01*
X140146965Y-68931965D02*
X140129300Y-68914300D01*
X142888265Y-68931965D02*
X140146965Y-68931965D01*
X140147300Y-67932300D02*
X140129300Y-67914300D01*
X142862300Y-67932300D02*
X140147300Y-67932300D01*
X140140000Y-66903600D02*
X140129300Y-66914300D01*
X142862300Y-66903600D02*
X140140000Y-66903600D01*
X140129300Y-63914300D02*
X142219400Y-63914300D01*
X142219400Y-63914300D02*
X143751300Y-62382400D01*
X143751300Y-62382400D02*
X149885400Y-62382400D01*
X151220001Y-66788199D02*
X150533100Y-67475100D01*
X151220001Y-63717001D02*
X151220001Y-66788199D01*
X149885400Y-62382400D02*
X151220001Y-63717001D01*
X149433301Y-63079799D02*
X150418800Y-64065298D01*
X143941491Y-63079799D02*
X149433301Y-63079799D01*
X142106990Y-64914300D02*
X143941491Y-63079799D01*
X140129300Y-64914300D02*
X142106990Y-64914300D01*
X150418800Y-66344800D02*
X150495000Y-66421000D01*
X150418800Y-64065298D02*
X150418800Y-66344800D01*
X140129300Y-65914300D02*
X141743400Y-65914300D01*
X143852900Y-63804800D02*
X149085300Y-63804800D01*
X141743400Y-65914300D02*
X143852900Y-63804800D01*
D21*
X111133601Y-65129699D02*
X110650000Y-65129699D01*
X111925100Y-64338200D02*
X111133601Y-65129699D01*
D20*
X116543100Y-68927700D02*
X116255800Y-69215000D01*
X123408400Y-68927700D02*
X116543100Y-68927700D01*
X123408400Y-66927700D02*
X123408400Y-67927700D01*
X123408400Y-67927700D02*
X123408400Y-68927700D01*
X123405900Y-63925200D02*
X123408400Y-63927700D01*
X123405900Y-62814200D02*
X123405900Y-63925200D01*
X123439100Y-64897000D02*
X123408400Y-64927700D01*
X126619000Y-64897000D02*
X123439100Y-64897000D01*
X120637502Y-68402200D02*
X121653300Y-67386402D01*
X122208400Y-65927700D02*
X123408400Y-65927700D01*
X121653300Y-66482800D02*
X122208400Y-65927700D01*
X121653300Y-67386402D02*
X121653300Y-66482800D01*
X112979200Y-67779900D02*
X113601500Y-68402200D01*
X113601500Y-68402200D02*
X120637502Y-68402200D01*
X112979200Y-63271400D02*
X112979200Y-67779900D01*
X115110862Y-64095574D02*
X116013174Y-64095574D01*
X116013174Y-64095574D02*
X116941600Y-65024000D01*
X116941600Y-65024000D02*
X116941600Y-66662300D01*
X116170200Y-67433700D02*
X114271000Y-67433700D01*
X116941600Y-66662300D02*
X116170200Y-67433700D01*
X114800985Y-64858699D02*
X115798399Y-64858699D01*
X114385861Y-63230207D02*
X114385861Y-64443575D01*
X114385861Y-64443575D02*
X114800985Y-64858699D01*
X114520184Y-63095884D02*
X114385861Y-63230207D01*
X115085869Y-63095884D02*
X114520184Y-63095884D01*
X115798399Y-64858699D02*
X116281200Y-65341500D01*
X116281200Y-65341500D02*
X116281200Y-66217800D01*
X116065300Y-66433700D02*
X114271000Y-66433700D01*
X116281200Y-66217800D02*
X116065300Y-66433700D01*
X115092502Y-62095904D02*
X114408696Y-62095904D01*
X113935852Y-65098552D02*
X114271000Y-65433700D01*
X113935852Y-62568748D02*
X113935852Y-65098552D01*
X114408696Y-62095904D02*
X113935852Y-62568748D01*
D22*
X149878447Y-57622486D02*
X150250462Y-57734803D01*
X150593574Y-57917239D01*
X150894724Y-58162851D01*
X151142424Y-58462269D01*
X151327255Y-58804108D01*
X151442166Y-59175326D01*
X151486001Y-59592391D01*
X151486001Y-62908199D01*
X150449204Y-61871403D01*
X150425401Y-61842399D01*
X150309676Y-61747426D01*
X150177647Y-61676854D01*
X150034386Y-61633397D01*
X149922733Y-61622400D01*
X149922722Y-61622400D01*
X149885400Y-61618724D01*
X149848078Y-61622400D01*
X143788625Y-61622400D01*
X143751300Y-61618724D01*
X143713975Y-61622400D01*
X143713967Y-61622400D01*
X143602314Y-61633397D01*
X143459053Y-61676854D01*
X143327024Y-61747426D01*
X143211299Y-61842399D01*
X143187501Y-61871397D01*
X141904599Y-63154300D01*
X141519744Y-63154300D01*
X141433794Y-63083763D01*
X141323480Y-63024798D01*
X141203782Y-62988488D01*
X141079300Y-62976228D01*
X139179300Y-62976228D01*
X139054818Y-62988488D01*
X138935120Y-63024798D01*
X138824806Y-63083763D01*
X138728115Y-63163115D01*
X138648763Y-63259806D01*
X138589798Y-63370120D01*
X138553488Y-63489818D01*
X138541228Y-63614300D01*
X138541228Y-64214300D01*
X138553488Y-64338782D01*
X138576396Y-64414300D01*
X138553488Y-64489818D01*
X138541228Y-64614300D01*
X138541228Y-65214300D01*
X138553488Y-65338782D01*
X138576396Y-65414300D01*
X138553488Y-65489818D01*
X138541228Y-65614300D01*
X138541228Y-66214300D01*
X138553488Y-66338782D01*
X138576396Y-66414300D01*
X138553488Y-66489818D01*
X138541228Y-66614300D01*
X138541228Y-67214300D01*
X138553488Y-67338782D01*
X138576396Y-67414300D01*
X138553488Y-67489818D01*
X138541228Y-67614300D01*
X138541228Y-68214300D01*
X138553488Y-68338782D01*
X138576396Y-68414300D01*
X138553488Y-68489818D01*
X138541228Y-68614300D01*
X138541228Y-69214300D01*
X138553488Y-69338782D01*
X138589798Y-69458480D01*
X138648763Y-69568794D01*
X138728115Y-69665485D01*
X138824806Y-69744837D01*
X138935120Y-69803802D01*
X139054818Y-69840112D01*
X139179300Y-69852372D01*
X141079300Y-69852372D01*
X141203782Y-69840112D01*
X141323480Y-69803802D01*
X141433794Y-69744837D01*
X141498219Y-69691965D01*
X142184554Y-69691965D01*
X142228491Y-69735902D01*
X142398009Y-69849170D01*
X142586367Y-69927191D01*
X142786326Y-69966965D01*
X142990204Y-69966965D01*
X143190163Y-69927191D01*
X143378521Y-69849170D01*
X143548039Y-69735902D01*
X143692202Y-69591739D01*
X143805470Y-69422221D01*
X143883491Y-69233863D01*
X143923265Y-69033904D01*
X143923265Y-68830026D01*
X143883491Y-68630067D01*
X143805470Y-68441709D01*
X143784544Y-68410391D01*
X143857526Y-68234198D01*
X143897300Y-68034239D01*
X143897300Y-67830361D01*
X143857526Y-67630402D01*
X143779505Y-67442044D01*
X143763406Y-67417950D01*
X143779505Y-67393856D01*
X143857526Y-67205498D01*
X143897300Y-67005539D01*
X143897300Y-66801661D01*
X143857526Y-66601702D01*
X143779505Y-66413344D01*
X143666237Y-66243826D01*
X143522074Y-66099663D01*
X143352556Y-65986395D01*
X143164198Y-65908374D01*
X142964239Y-65868600D01*
X142863901Y-65868600D01*
X144167702Y-64564800D01*
X148381589Y-64564800D01*
X148425526Y-64608737D01*
X148595044Y-64722005D01*
X148783402Y-64800026D01*
X148983361Y-64839800D01*
X149187239Y-64839800D01*
X149387198Y-64800026D01*
X149575556Y-64722005D01*
X149658800Y-64666383D01*
X149658801Y-65809510D01*
X149577795Y-65930744D01*
X149499774Y-66119102D01*
X149460000Y-66319061D01*
X149460000Y-66522939D01*
X149499774Y-66722898D01*
X149577795Y-66911256D01*
X149621430Y-66976560D01*
X149615895Y-66984844D01*
X149537874Y-67173202D01*
X149498100Y-67373161D01*
X149498100Y-67577039D01*
X149537874Y-67776998D01*
X149615895Y-67965356D01*
X149729163Y-68134874D01*
X149873326Y-68279037D01*
X150042844Y-68392305D01*
X150231202Y-68470326D01*
X150431161Y-68510100D01*
X150635039Y-68510100D01*
X150834998Y-68470326D01*
X151023356Y-68392305D01*
X151192874Y-68279037D01*
X151337037Y-68134874D01*
X151450305Y-67965356D01*
X151486000Y-67879180D01*
X151486000Y-73322921D01*
X151444914Y-73741946D01*
X151332597Y-74113962D01*
X151150159Y-74457076D01*
X150904549Y-74758224D01*
X150605131Y-75005924D01*
X150263294Y-75190755D01*
X149892078Y-75305666D01*
X149475018Y-75349500D01*
X135744479Y-75349500D01*
X135325454Y-75308414D01*
X134953438Y-75196097D01*
X134610324Y-75013659D01*
X134309176Y-74768049D01*
X134061476Y-74468631D01*
X133876645Y-74126794D01*
X133761734Y-73755578D01*
X133717900Y-73338518D01*
X133717900Y-72141681D01*
X133714626Y-72108439D01*
X133714626Y-72091963D01*
X133713663Y-72082798D01*
X133713455Y-72080940D01*
X133723655Y-72074124D01*
X133846924Y-71950855D01*
X133943777Y-71805905D01*
X134010490Y-71644845D01*
X134044500Y-71473865D01*
X134044500Y-71299535D01*
X134010490Y-71128555D01*
X133963165Y-71014300D01*
X135741228Y-71014300D01*
X135741228Y-73114300D01*
X135753488Y-73238782D01*
X135789798Y-73358480D01*
X135848763Y-73468794D01*
X135928115Y-73565485D01*
X136024806Y-73644837D01*
X136135120Y-73703802D01*
X136254818Y-73740112D01*
X136379300Y-73752372D01*
X139179300Y-73752372D01*
X139303782Y-73740112D01*
X139423480Y-73703802D01*
X139533794Y-73644837D01*
X139630485Y-73565485D01*
X139709837Y-73468794D01*
X139768802Y-73358480D01*
X139805112Y-73238782D01*
X139817372Y-73114300D01*
X139817372Y-71014300D01*
X139805112Y-70889818D01*
X139768802Y-70770120D01*
X139709837Y-70659806D01*
X139630485Y-70563115D01*
X139533794Y-70483763D01*
X139423480Y-70424798D01*
X139303782Y-70388488D01*
X139179300Y-70376228D01*
X136379300Y-70376228D01*
X136254818Y-70388488D01*
X136135120Y-70424798D01*
X136024806Y-70483763D01*
X135928115Y-70563115D01*
X135848763Y-70659806D01*
X135789798Y-70770120D01*
X135753488Y-70889818D01*
X135741228Y-71014300D01*
X133963165Y-71014300D01*
X133943777Y-70967495D01*
X133915598Y-70925322D01*
X133942900Y-70788065D01*
X133942900Y-70613735D01*
X133908890Y-70442755D01*
X133871153Y-70351650D01*
X133908890Y-70260545D01*
X133942900Y-70089565D01*
X133942900Y-69915235D01*
X133908890Y-69744255D01*
X133871153Y-69653150D01*
X133908890Y-69562045D01*
X133942900Y-69391065D01*
X133942900Y-69216735D01*
X133910738Y-69055045D01*
X133931077Y-69024605D01*
X133997790Y-68863545D01*
X134031800Y-68692565D01*
X134031800Y-68518235D01*
X133997790Y-68347255D01*
X133931077Y-68186195D01*
X133834224Y-68041245D01*
X133711235Y-67918256D01*
X133714750Y-67882405D01*
X133714750Y-67882402D01*
X133717900Y-67850419D01*
X133717900Y-64940781D01*
X133714626Y-64907539D01*
X133714626Y-64891063D01*
X133713663Y-64881898D01*
X133702853Y-64785524D01*
X133723655Y-64771624D01*
X133846924Y-64648355D01*
X133943777Y-64503405D01*
X134010490Y-64342345D01*
X134044500Y-64171365D01*
X134044500Y-63997035D01*
X134010490Y-63826055D01*
X133943777Y-63664995D01*
X133915598Y-63622822D01*
X133942900Y-63485565D01*
X133942900Y-63311235D01*
X133908890Y-63140255D01*
X133871153Y-63049150D01*
X133908890Y-62958045D01*
X133942900Y-62787065D01*
X133942900Y-62612735D01*
X133908890Y-62441755D01*
X133871153Y-62350650D01*
X133908890Y-62259545D01*
X133942900Y-62088565D01*
X133942900Y-61914235D01*
X133910738Y-61752545D01*
X133931077Y-61722105D01*
X133997790Y-61561045D01*
X134031800Y-61390065D01*
X134031800Y-61215735D01*
X133997790Y-61044755D01*
X133931077Y-60883695D01*
X133834224Y-60738745D01*
X133711235Y-60615756D01*
X133714750Y-60579905D01*
X133714750Y-60579902D01*
X133717900Y-60547919D01*
X133717900Y-59714300D01*
X135741228Y-59714300D01*
X135741228Y-61814300D01*
X135753488Y-61938782D01*
X135789798Y-62058480D01*
X135848763Y-62168794D01*
X135928115Y-62265485D01*
X136024806Y-62344837D01*
X136135120Y-62403802D01*
X136254818Y-62440112D01*
X136379300Y-62452372D01*
X139179300Y-62452372D01*
X139303782Y-62440112D01*
X139423480Y-62403802D01*
X139533794Y-62344837D01*
X139630485Y-62265485D01*
X139709837Y-62168794D01*
X139768802Y-62058480D01*
X139805112Y-61938782D01*
X139817372Y-61814300D01*
X139817372Y-59714300D01*
X139805112Y-59589818D01*
X139768802Y-59470120D01*
X139709837Y-59359806D01*
X139630485Y-59263115D01*
X139533794Y-59183763D01*
X139423480Y-59124798D01*
X139303782Y-59088488D01*
X139179300Y-59076228D01*
X136379300Y-59076228D01*
X136254818Y-59088488D01*
X136135120Y-59124798D01*
X136024806Y-59183763D01*
X135928115Y-59263115D01*
X135848763Y-59359806D01*
X135789798Y-59470120D01*
X135753488Y-59589818D01*
X135741228Y-59714300D01*
X133717900Y-59714300D01*
X133717900Y-59607979D01*
X133758986Y-59188953D01*
X133871303Y-58816938D01*
X134053739Y-58473826D01*
X134299351Y-58172676D01*
X134598769Y-57924976D01*
X134940608Y-57740145D01*
X135311826Y-57625234D01*
X135728882Y-57581400D01*
X149459421Y-57581400D01*
X149878447Y-57622486D01*
G04 #@! TA.AperFunction,Conductor*
D23*
G36*
X149878447Y-57622486D02*
G01*
X150250462Y-57734803D01*
X150593574Y-57917239D01*
X150894724Y-58162851D01*
X151142424Y-58462269D01*
X151327255Y-58804108D01*
X151442166Y-59175326D01*
X151486001Y-59592391D01*
X151486001Y-62908199D01*
X150449204Y-61871403D01*
X150425401Y-61842399D01*
X150309676Y-61747426D01*
X150177647Y-61676854D01*
X150034386Y-61633397D01*
X149922733Y-61622400D01*
X149922722Y-61622400D01*
X149885400Y-61618724D01*
X149848078Y-61622400D01*
X143788625Y-61622400D01*
X143751300Y-61618724D01*
X143713975Y-61622400D01*
X143713967Y-61622400D01*
X143602314Y-61633397D01*
X143459053Y-61676854D01*
X143327024Y-61747426D01*
X143211299Y-61842399D01*
X143187501Y-61871397D01*
X141904599Y-63154300D01*
X141519744Y-63154300D01*
X141433794Y-63083763D01*
X141323480Y-63024798D01*
X141203782Y-62988488D01*
X141079300Y-62976228D01*
X139179300Y-62976228D01*
X139054818Y-62988488D01*
X138935120Y-63024798D01*
X138824806Y-63083763D01*
X138728115Y-63163115D01*
X138648763Y-63259806D01*
X138589798Y-63370120D01*
X138553488Y-63489818D01*
X138541228Y-63614300D01*
X138541228Y-64214300D01*
X138553488Y-64338782D01*
X138576396Y-64414300D01*
X138553488Y-64489818D01*
X138541228Y-64614300D01*
X138541228Y-65214300D01*
X138553488Y-65338782D01*
X138576396Y-65414300D01*
X138553488Y-65489818D01*
X138541228Y-65614300D01*
X138541228Y-66214300D01*
X138553488Y-66338782D01*
X138576396Y-66414300D01*
X138553488Y-66489818D01*
X138541228Y-66614300D01*
X138541228Y-67214300D01*
X138553488Y-67338782D01*
X138576396Y-67414300D01*
X138553488Y-67489818D01*
X138541228Y-67614300D01*
X138541228Y-68214300D01*
X138553488Y-68338782D01*
X138576396Y-68414300D01*
X138553488Y-68489818D01*
X138541228Y-68614300D01*
X138541228Y-69214300D01*
X138553488Y-69338782D01*
X138589798Y-69458480D01*
X138648763Y-69568794D01*
X138728115Y-69665485D01*
X138824806Y-69744837D01*
X138935120Y-69803802D01*
X139054818Y-69840112D01*
X139179300Y-69852372D01*
X141079300Y-69852372D01*
X141203782Y-69840112D01*
X141323480Y-69803802D01*
X141433794Y-69744837D01*
X141498219Y-69691965D01*
X142184554Y-69691965D01*
X142228491Y-69735902D01*
X142398009Y-69849170D01*
X142586367Y-69927191D01*
X142786326Y-69966965D01*
X142990204Y-69966965D01*
X143190163Y-69927191D01*
X143378521Y-69849170D01*
X143548039Y-69735902D01*
X143692202Y-69591739D01*
X143805470Y-69422221D01*
X143883491Y-69233863D01*
X143923265Y-69033904D01*
X143923265Y-68830026D01*
X143883491Y-68630067D01*
X143805470Y-68441709D01*
X143784544Y-68410391D01*
X143857526Y-68234198D01*
X143897300Y-68034239D01*
X143897300Y-67830361D01*
X143857526Y-67630402D01*
X143779505Y-67442044D01*
X143763406Y-67417950D01*
X143779505Y-67393856D01*
X143857526Y-67205498D01*
X143897300Y-67005539D01*
X143897300Y-66801661D01*
X143857526Y-66601702D01*
X143779505Y-66413344D01*
X143666237Y-66243826D01*
X143522074Y-66099663D01*
X143352556Y-65986395D01*
X143164198Y-65908374D01*
X142964239Y-65868600D01*
X142863901Y-65868600D01*
X144167702Y-64564800D01*
X148381589Y-64564800D01*
X148425526Y-64608737D01*
X148595044Y-64722005D01*
X148783402Y-64800026D01*
X148983361Y-64839800D01*
X149187239Y-64839800D01*
X149387198Y-64800026D01*
X149575556Y-64722005D01*
X149658800Y-64666383D01*
X149658801Y-65809510D01*
X149577795Y-65930744D01*
X149499774Y-66119102D01*
X149460000Y-66319061D01*
X149460000Y-66522939D01*
X149499774Y-66722898D01*
X149577795Y-66911256D01*
X149621430Y-66976560D01*
X149615895Y-66984844D01*
X149537874Y-67173202D01*
X149498100Y-67373161D01*
X149498100Y-67577039D01*
X149537874Y-67776998D01*
X149615895Y-67965356D01*
X149729163Y-68134874D01*
X149873326Y-68279037D01*
X150042844Y-68392305D01*
X150231202Y-68470326D01*
X150431161Y-68510100D01*
X150635039Y-68510100D01*
X150834998Y-68470326D01*
X151023356Y-68392305D01*
X151192874Y-68279037D01*
X151337037Y-68134874D01*
X151450305Y-67965356D01*
X151486000Y-67879180D01*
X151486000Y-73322921D01*
X151444914Y-73741946D01*
X151332597Y-74113962D01*
X151150159Y-74457076D01*
X150904549Y-74758224D01*
X150605131Y-75005924D01*
X150263294Y-75190755D01*
X149892078Y-75305666D01*
X149475018Y-75349500D01*
X135744479Y-75349500D01*
X135325454Y-75308414D01*
X134953438Y-75196097D01*
X134610324Y-75013659D01*
X134309176Y-74768049D01*
X134061476Y-74468631D01*
X133876645Y-74126794D01*
X133761734Y-73755578D01*
X133717900Y-73338518D01*
X133717900Y-72141681D01*
X133714626Y-72108439D01*
X133714626Y-72091963D01*
X133713663Y-72082798D01*
X133713455Y-72080940D01*
X133723655Y-72074124D01*
X133846924Y-71950855D01*
X133943777Y-71805905D01*
X134010490Y-71644845D01*
X134044500Y-71473865D01*
X134044500Y-71299535D01*
X134010490Y-71128555D01*
X133963165Y-71014300D01*
X135741228Y-71014300D01*
X135741228Y-73114300D01*
X135753488Y-73238782D01*
X135789798Y-73358480D01*
X135848763Y-73468794D01*
X135928115Y-73565485D01*
X136024806Y-73644837D01*
X136135120Y-73703802D01*
X136254818Y-73740112D01*
X136379300Y-73752372D01*
X139179300Y-73752372D01*
X139303782Y-73740112D01*
X139423480Y-73703802D01*
X139533794Y-73644837D01*
X139630485Y-73565485D01*
X139709837Y-73468794D01*
X139768802Y-73358480D01*
X139805112Y-73238782D01*
X139817372Y-73114300D01*
X139817372Y-71014300D01*
X139805112Y-70889818D01*
X139768802Y-70770120D01*
X139709837Y-70659806D01*
X139630485Y-70563115D01*
X139533794Y-70483763D01*
X139423480Y-70424798D01*
X139303782Y-70388488D01*
X139179300Y-70376228D01*
X136379300Y-70376228D01*
X136254818Y-70388488D01*
X136135120Y-70424798D01*
X136024806Y-70483763D01*
X135928115Y-70563115D01*
X135848763Y-70659806D01*
X135789798Y-70770120D01*
X135753488Y-70889818D01*
X135741228Y-71014300D01*
X133963165Y-71014300D01*
X133943777Y-70967495D01*
X133915598Y-70925322D01*
X133942900Y-70788065D01*
X133942900Y-70613735D01*
X133908890Y-70442755D01*
X133871153Y-70351650D01*
X133908890Y-70260545D01*
X133942900Y-70089565D01*
X133942900Y-69915235D01*
X133908890Y-69744255D01*
X133871153Y-69653150D01*
X133908890Y-69562045D01*
X133942900Y-69391065D01*
X133942900Y-69216735D01*
X133910738Y-69055045D01*
X133931077Y-69024605D01*
X133997790Y-68863545D01*
X134031800Y-68692565D01*
X134031800Y-68518235D01*
X133997790Y-68347255D01*
X133931077Y-68186195D01*
X133834224Y-68041245D01*
X133711235Y-67918256D01*
X133714750Y-67882405D01*
X133714750Y-67882402D01*
X133717900Y-67850419D01*
X133717900Y-64940781D01*
X133714626Y-64907539D01*
X133714626Y-64891063D01*
X133713663Y-64881898D01*
X133702853Y-64785524D01*
X133723655Y-64771624D01*
X133846924Y-64648355D01*
X133943777Y-64503405D01*
X134010490Y-64342345D01*
X134044500Y-64171365D01*
X134044500Y-63997035D01*
X134010490Y-63826055D01*
X133943777Y-63664995D01*
X133915598Y-63622822D01*
X133942900Y-63485565D01*
X133942900Y-63311235D01*
X133908890Y-63140255D01*
X133871153Y-63049150D01*
X133908890Y-62958045D01*
X133942900Y-62787065D01*
X133942900Y-62612735D01*
X133908890Y-62441755D01*
X133871153Y-62350650D01*
X133908890Y-62259545D01*
X133942900Y-62088565D01*
X133942900Y-61914235D01*
X133910738Y-61752545D01*
X133931077Y-61722105D01*
X133997790Y-61561045D01*
X134031800Y-61390065D01*
X134031800Y-61215735D01*
X133997790Y-61044755D01*
X133931077Y-60883695D01*
X133834224Y-60738745D01*
X133711235Y-60615756D01*
X133714750Y-60579905D01*
X133714750Y-60579902D01*
X133717900Y-60547919D01*
X133717900Y-59714300D01*
X135741228Y-59714300D01*
X135741228Y-61814300D01*
X135753488Y-61938782D01*
X135789798Y-62058480D01*
X135848763Y-62168794D01*
X135928115Y-62265485D01*
X136024806Y-62344837D01*
X136135120Y-62403802D01*
X136254818Y-62440112D01*
X136379300Y-62452372D01*
X139179300Y-62452372D01*
X139303782Y-62440112D01*
X139423480Y-62403802D01*
X139533794Y-62344837D01*
X139630485Y-62265485D01*
X139709837Y-62168794D01*
X139768802Y-62058480D01*
X139805112Y-61938782D01*
X139817372Y-61814300D01*
X139817372Y-59714300D01*
X139805112Y-59589818D01*
X139768802Y-59470120D01*
X139709837Y-59359806D01*
X139630485Y-59263115D01*
X139533794Y-59183763D01*
X139423480Y-59124798D01*
X139303782Y-59088488D01*
X139179300Y-59076228D01*
X136379300Y-59076228D01*
X136254818Y-59088488D01*
X136135120Y-59124798D01*
X136024806Y-59183763D01*
X135928115Y-59263115D01*
X135848763Y-59359806D01*
X135789798Y-59470120D01*
X135753488Y-59589818D01*
X135741228Y-59714300D01*
X133717900Y-59714300D01*
X133717900Y-59607979D01*
X133758986Y-59188953D01*
X133871303Y-58816938D01*
X134053739Y-58473826D01*
X134299351Y-58172676D01*
X134598769Y-57924976D01*
X134940608Y-57740145D01*
X135311826Y-57625234D01*
X135728882Y-57581400D01*
X149459421Y-57581400D01*
X149878447Y-57622486D01*
G37*
G04 #@! TD.AperFunction*
D22*
X128250347Y-57609786D02*
X128622362Y-57722103D01*
X128965474Y-57904539D01*
X129266624Y-58150151D01*
X129514324Y-58449569D01*
X129699155Y-58791408D01*
X129814066Y-59162626D01*
X129857900Y-59579682D01*
X129857901Y-60547919D01*
X129861174Y-60581151D01*
X129861174Y-60597637D01*
X129862012Y-60605609D01*
X129741576Y-60726045D01*
X129644723Y-60870995D01*
X129578010Y-61032055D01*
X129544000Y-61203035D01*
X129544000Y-61377365D01*
X129578010Y-61548345D01*
X129644723Y-61709405D01*
X129672902Y-61751578D01*
X129645600Y-61888835D01*
X129645600Y-62063165D01*
X129679610Y-62234145D01*
X129717347Y-62325250D01*
X129679610Y-62416355D01*
X129645600Y-62587335D01*
X129645600Y-62761665D01*
X129679610Y-62932645D01*
X129717347Y-63023750D01*
X129679610Y-63114855D01*
X129645600Y-63285835D01*
X129645600Y-63460165D01*
X129677762Y-63621855D01*
X129657423Y-63652295D01*
X129590710Y-63813355D01*
X129556700Y-63984335D01*
X129556700Y-64158665D01*
X129590710Y-64329645D01*
X129657423Y-64490705D01*
X129754276Y-64635655D01*
X129875906Y-64757285D01*
X129861050Y-64908795D01*
X129861050Y-64908808D01*
X129857901Y-64940781D01*
X129857900Y-67850418D01*
X129861174Y-67883660D01*
X129861174Y-67900137D01*
X129862012Y-67908109D01*
X129741576Y-68028545D01*
X129644723Y-68173495D01*
X129578010Y-68334555D01*
X129544000Y-68505535D01*
X129544000Y-68679865D01*
X129578010Y-68850845D01*
X129644723Y-69011905D01*
X129672902Y-69054078D01*
X129645600Y-69191335D01*
X129645600Y-69365665D01*
X129679610Y-69536645D01*
X129717347Y-69627750D01*
X129679610Y-69718855D01*
X129645600Y-69889835D01*
X129645600Y-70064165D01*
X129679610Y-70235145D01*
X129717347Y-70326250D01*
X129679610Y-70417355D01*
X129645600Y-70588335D01*
X129645600Y-70762665D01*
X129677762Y-70924355D01*
X129657423Y-70954795D01*
X129590710Y-71115855D01*
X129556700Y-71286835D01*
X129556700Y-71461165D01*
X129590710Y-71632145D01*
X129657423Y-71793205D01*
X129754276Y-71938155D01*
X129866833Y-72050712D01*
X129861050Y-72109695D01*
X129861050Y-72109708D01*
X129857901Y-72141681D01*
X129857900Y-73310220D01*
X129816814Y-73729246D01*
X129704497Y-74101262D01*
X129522059Y-74444376D01*
X129276449Y-74745524D01*
X128977031Y-74993224D01*
X128635194Y-75178055D01*
X128263978Y-75292966D01*
X127846918Y-75336800D01*
X109074479Y-75336800D01*
X108655454Y-75295714D01*
X108283438Y-75183397D01*
X107940324Y-75000959D01*
X107639176Y-74755349D01*
X107391476Y-74455931D01*
X107206645Y-74114094D01*
X107091734Y-73742878D01*
X107047900Y-73325818D01*
X107047900Y-70879621D01*
X107053437Y-70882678D01*
X107063094Y-70890196D01*
X107070627Y-70894885D01*
X107092947Y-70908563D01*
X107103966Y-70913914D01*
X107114010Y-70920920D01*
X107121779Y-70925208D01*
X107144784Y-70937698D01*
X107156042Y-70942453D01*
X107166423Y-70948915D01*
X107174405Y-70952791D01*
X107198032Y-70964061D01*
X107209546Y-70968229D01*
X107220270Y-70974149D01*
X107228444Y-70977601D01*
X107252627Y-70987618D01*
X107264335Y-70991175D01*
X107275343Y-70996520D01*
X107283687Y-70999540D01*
X107308362Y-71008278D01*
X107320231Y-71011215D01*
X107331496Y-71015974D01*
X107339986Y-71018554D01*
X107365084Y-71025989D01*
X107377110Y-71028305D01*
X107388621Y-71032472D01*
X107397235Y-71034604D01*
X107422688Y-71040715D01*
X107434816Y-71042398D01*
X107446531Y-71045957D01*
X107455244Y-71047634D01*
X107480982Y-71052404D01*
X107493164Y-71053448D01*
X107505039Y-71056387D01*
X107513828Y-71057607D01*
X107539781Y-71061024D01*
X107552013Y-71061430D01*
X107564030Y-71063744D01*
X107572870Y-71064502D01*
X107598967Y-71066556D01*
X107611211Y-71066321D01*
X107623334Y-71068003D01*
X107632202Y-71068297D01*
X107658370Y-71068982D01*
X107662254Y-71068704D01*
X107666127Y-71069138D01*
X107675000Y-71069200D01*
X108225000Y-71069200D01*
X108228481Y-71068859D01*
X108231968Y-71069162D01*
X108240840Y-71069003D01*
X108268194Y-71068321D01*
X108280741Y-71066774D01*
X108293371Y-71067193D01*
X108302221Y-71066558D01*
X108328253Y-71064509D01*
X108340290Y-71062365D01*
X108352523Y-71062130D01*
X108361328Y-71061033D01*
X108387216Y-71057625D01*
X108399134Y-71054852D01*
X108411338Y-71053977D01*
X108420073Y-71052421D01*
X108445747Y-71047663D01*
X108457513Y-71044267D01*
X108469667Y-71042753D01*
X108478310Y-71040742D01*
X108503700Y-71034646D01*
X108515259Y-71030643D01*
X108527296Y-71028499D01*
X108530064Y-71027700D01*
X123720328Y-71027700D01*
X123720328Y-73127700D01*
X123732588Y-73252182D01*
X123768898Y-73371880D01*
X123827863Y-73482194D01*
X123907215Y-73578885D01*
X124003906Y-73658237D01*
X124114220Y-73717202D01*
X124233918Y-73753512D01*
X124358400Y-73765772D01*
X127158400Y-73765772D01*
X127282882Y-73753512D01*
X127402580Y-73717202D01*
X127512894Y-73658237D01*
X127609585Y-73578885D01*
X127688937Y-73482194D01*
X127747902Y-73371880D01*
X127784212Y-73252182D01*
X127796472Y-73127700D01*
X127796472Y-71027700D01*
X127784212Y-70903218D01*
X127747902Y-70783520D01*
X127688937Y-70673206D01*
X127609585Y-70576515D01*
X127512894Y-70497163D01*
X127402580Y-70438198D01*
X127282882Y-70401888D01*
X127158400Y-70389628D01*
X124358400Y-70389628D01*
X124233918Y-70401888D01*
X124114220Y-70438198D01*
X124003906Y-70497163D01*
X123907215Y-70576515D01*
X123827863Y-70673206D01*
X123768898Y-70783520D01*
X123732588Y-70903218D01*
X123720328Y-71027700D01*
X108530064Y-71027700D01*
X108535821Y-71026039D01*
X108560858Y-71018623D01*
X108572198Y-71014019D01*
X108584117Y-71011245D01*
X108592501Y-71008342D01*
X108617116Y-70999626D01*
X108628210Y-70994429D01*
X108639972Y-70991034D01*
X108648193Y-70987696D01*
X108672317Y-70977703D01*
X108683107Y-70971942D01*
X108694668Y-70967938D01*
X108702703Y-70964174D01*
X108726270Y-70952933D01*
X108736742Y-70946616D01*
X108748071Y-70942016D01*
X108755898Y-70937837D01*
X108778846Y-70925378D01*
X108788990Y-70918511D01*
X108800087Y-70913312D01*
X108807685Y-70908728D01*
X108829948Y-70895084D01*
X108839707Y-70887703D01*
X108850500Y-70881940D01*
X108857848Y-70876966D01*
X108879367Y-70862175D01*
X108888717Y-70854301D01*
X108899185Y-70847987D01*
X108906262Y-70842635D01*
X108926978Y-70826740D01*
X108935920Y-70818373D01*
X108946065Y-70811504D01*
X108952852Y-70805788D01*
X108972707Y-70788830D01*
X108981188Y-70780017D01*
X108990946Y-70772637D01*
X108997425Y-70766575D01*
X109016366Y-70748600D01*
X109024380Y-70739349D01*
X109033748Y-70731460D01*
X109039901Y-70725066D01*
X109057875Y-70706125D01*
X109065390Y-70696472D01*
X109074321Y-70688114D01*
X109080130Y-70681407D01*
X109097088Y-70661553D01*
X109104097Y-70651506D01*
X109112590Y-70642680D01*
X109118040Y-70635678D01*
X109133935Y-70614963D01*
X109140395Y-70604584D01*
X109148399Y-70595344D01*
X109153476Y-70588067D01*
X109168266Y-70566547D01*
X109174178Y-70555837D01*
X109181695Y-70546182D01*
X109186384Y-70538649D01*
X109200028Y-70516385D01*
X109205379Y-70505365D01*
X109212390Y-70495315D01*
X109216678Y-70487546D01*
X109229137Y-70464598D01*
X109233895Y-70453334D01*
X109240357Y-70442952D01*
X109244233Y-70434970D01*
X109255474Y-70411403D01*
X109259638Y-70399900D01*
X109265550Y-70389191D01*
X109269003Y-70381017D01*
X109278996Y-70356893D01*
X109282555Y-70345178D01*
X109287906Y-70334159D01*
X109290926Y-70325815D01*
X109299642Y-70301201D01*
X109302583Y-70289318D01*
X109307343Y-70278048D01*
X109309923Y-70269558D01*
X109317339Y-70244521D01*
X109319652Y-70232511D01*
X109323814Y-70221013D01*
X109325946Y-70212400D01*
X109332042Y-70187009D01*
X109333726Y-70174877D01*
X109337285Y-70163161D01*
X109338818Y-70155200D01*
X109345205Y-70134145D01*
X109349105Y-70094552D01*
X109352333Y-70070028D01*
X109352738Y-70057801D01*
X109355051Y-70045793D01*
X109355809Y-70036952D01*
X109357858Y-70010921D01*
X109357774Y-70006531D01*
X109364947Y-69933700D01*
X109360500Y-69888549D01*
X109360500Y-69060700D01*
X109690000Y-69060700D01*
X109690000Y-69385700D01*
X109733223Y-69570546D01*
X109811677Y-69743408D01*
X109922347Y-69897643D01*
X110060980Y-70027324D01*
X110222249Y-70127467D01*
X110375706Y-70178680D01*
X110523000Y-70049821D01*
X110523000Y-69060700D01*
X110777000Y-69060700D01*
X110777000Y-70049821D01*
X110924294Y-70178680D01*
X111077751Y-70127467D01*
X111239020Y-70027324D01*
X111377653Y-69897643D01*
X111488323Y-69743408D01*
X111566777Y-69570546D01*
X111610000Y-69385700D01*
X111610000Y-69060700D01*
X110777000Y-69060700D01*
X110523000Y-69060700D01*
X109690000Y-69060700D01*
X109360500Y-69060700D01*
X109360500Y-68733700D01*
X109354670Y-68674244D01*
X109349244Y-68614619D01*
X109348614Y-68612479D01*
X109348397Y-68610264D01*
X109331112Y-68553013D01*
X109314225Y-68495638D01*
X109313194Y-68493665D01*
X109312549Y-68491530D01*
X109296557Y-68461453D01*
X109314502Y-68427880D01*
X109350812Y-68308182D01*
X109363072Y-68183700D01*
X109363072Y-68104986D01*
X109389479Y-68187276D01*
X109450200Y-68296633D01*
X109531088Y-68392043D01*
X109629036Y-68469839D01*
X109690000Y-68501182D01*
X109690000Y-68806700D01*
X110523000Y-68806700D01*
X110523000Y-68786700D01*
X110777000Y-68786700D01*
X110777000Y-68806700D01*
X111610000Y-68806700D01*
X111610000Y-68501182D01*
X111670964Y-68469839D01*
X111768912Y-68392043D01*
X111849800Y-68296633D01*
X111910521Y-68187276D01*
X111948741Y-68068174D01*
X111960000Y-67965450D01*
X111801250Y-67806700D01*
X111688678Y-67806700D01*
X111776185Y-67734885D01*
X111855537Y-67638194D01*
X111892032Y-67569918D01*
X111960000Y-67501950D01*
X111950012Y-67410820D01*
X111950812Y-67408182D01*
X111963072Y-67283700D01*
X111963072Y-66883700D01*
X111950812Y-66759218D01*
X111950655Y-66758700D01*
X111950812Y-66758182D01*
X111963072Y-66633700D01*
X111963072Y-66233700D01*
X111950812Y-66109218D01*
X111950655Y-66108700D01*
X111950812Y-66108182D01*
X111963072Y-65983700D01*
X111963072Y-65583700D01*
X111952668Y-65478064D01*
X112065105Y-65365628D01*
X112219200Y-65334977D01*
X112219201Y-67742568D01*
X112215524Y-67779900D01*
X112219201Y-67817233D01*
X112229954Y-67926403D01*
X112230198Y-67928885D01*
X112273654Y-68072146D01*
X112344226Y-68204176D01*
X112400875Y-68273202D01*
X112439200Y-68319901D01*
X112468198Y-68343699D01*
X113037700Y-68913202D01*
X113061499Y-68942201D01*
X113090497Y-68965999D01*
X113177223Y-69037174D01*
X113304911Y-69105425D01*
X113309253Y-69107746D01*
X113452514Y-69151203D01*
X113564167Y-69162200D01*
X113564176Y-69162200D01*
X113601499Y-69165876D01*
X113638822Y-69162200D01*
X115220800Y-69162200D01*
X115220800Y-69316939D01*
X115260574Y-69516898D01*
X115338595Y-69705256D01*
X115451863Y-69874774D01*
X115596026Y-70018937D01*
X115765544Y-70132205D01*
X115953902Y-70210226D01*
X116153861Y-70250000D01*
X116357739Y-70250000D01*
X116557698Y-70210226D01*
X116746056Y-70132205D01*
X116915574Y-70018937D01*
X117059737Y-69874774D01*
X117173005Y-69705256D01*
X117180277Y-69687700D01*
X122017956Y-69687700D01*
X122103906Y-69758237D01*
X122214220Y-69817202D01*
X122333918Y-69853512D01*
X122458400Y-69865772D01*
X124358400Y-69865772D01*
X124482882Y-69853512D01*
X124602580Y-69817202D01*
X124712894Y-69758237D01*
X124809585Y-69678885D01*
X124888937Y-69582194D01*
X124947902Y-69471880D01*
X124984212Y-69352182D01*
X124996472Y-69227700D01*
X124996472Y-68627700D01*
X124984212Y-68503218D01*
X124961304Y-68427700D01*
X124984212Y-68352182D01*
X124996472Y-68227700D01*
X124996472Y-67627700D01*
X124984212Y-67503218D01*
X124961304Y-67427700D01*
X124984212Y-67352182D01*
X124996472Y-67227700D01*
X124996472Y-66627700D01*
X124984212Y-66503218D01*
X124961304Y-66427700D01*
X124984212Y-66352182D01*
X124996472Y-66227700D01*
X124996472Y-65657000D01*
X125915289Y-65657000D01*
X125959226Y-65700937D01*
X126128744Y-65814205D01*
X126317102Y-65892226D01*
X126517061Y-65932000D01*
X126720939Y-65932000D01*
X126920898Y-65892226D01*
X127109256Y-65814205D01*
X127278774Y-65700937D01*
X127422937Y-65556774D01*
X127536205Y-65387256D01*
X127614226Y-65198898D01*
X127654000Y-64998939D01*
X127654000Y-64795061D01*
X127614226Y-64595102D01*
X127536205Y-64406744D01*
X127422937Y-64237226D01*
X127278774Y-64093063D01*
X127109256Y-63979795D01*
X126920898Y-63901774D01*
X126720939Y-63862000D01*
X126517061Y-63862000D01*
X126317102Y-63901774D01*
X126128744Y-63979795D01*
X125959226Y-64093063D01*
X125915289Y-64137000D01*
X124996472Y-64137000D01*
X124996472Y-63627700D01*
X124984212Y-63503218D01*
X124947902Y-63383520D01*
X124888937Y-63273206D01*
X124809585Y-63176515D01*
X124712894Y-63097163D01*
X124602580Y-63038198D01*
X124482882Y-63001888D01*
X124424978Y-62996185D01*
X124440900Y-62916139D01*
X124440900Y-62712261D01*
X124401126Y-62512302D01*
X124381853Y-62465772D01*
X127158400Y-62465772D01*
X127282882Y-62453512D01*
X127402580Y-62417202D01*
X127512894Y-62358237D01*
X127609585Y-62278885D01*
X127688937Y-62182194D01*
X127747902Y-62071880D01*
X127784212Y-61952182D01*
X127796472Y-61827700D01*
X127796472Y-59727700D01*
X127784212Y-59603218D01*
X127747902Y-59483520D01*
X127688937Y-59373206D01*
X127609585Y-59276515D01*
X127512894Y-59197163D01*
X127402580Y-59138198D01*
X127282882Y-59101888D01*
X127158400Y-59089628D01*
X124358400Y-59089628D01*
X124233918Y-59101888D01*
X124114220Y-59138198D01*
X124003906Y-59197163D01*
X123907215Y-59276515D01*
X123827863Y-59373206D01*
X123768898Y-59483520D01*
X123732588Y-59603218D01*
X123720328Y-59727700D01*
X123720328Y-61824164D01*
X123707798Y-61818974D01*
X123507839Y-61779200D01*
X123303961Y-61779200D01*
X123104002Y-61818974D01*
X122915644Y-61896995D01*
X122746126Y-62010263D01*
X122601963Y-62154426D01*
X122488695Y-62323944D01*
X122410674Y-62512302D01*
X122370900Y-62712261D01*
X122370900Y-62916139D01*
X122386918Y-62996668D01*
X122333918Y-63001888D01*
X122214220Y-63038198D01*
X122103906Y-63097163D01*
X122007215Y-63176515D01*
X121927863Y-63273206D01*
X121868898Y-63383520D01*
X121832588Y-63503218D01*
X121820328Y-63627700D01*
X121820328Y-64227700D01*
X121832588Y-64352182D01*
X121855496Y-64427700D01*
X121832588Y-64503218D01*
X121820328Y-64627700D01*
X121820328Y-65227700D01*
X121824601Y-65271090D01*
X121784123Y-65292726D01*
X121705800Y-65357005D01*
X121668399Y-65387699D01*
X121644600Y-65416698D01*
X121375924Y-65685374D01*
X121247250Y-65556700D01*
X121145300Y-65556700D01*
X121145300Y-65310700D01*
X121247250Y-65310700D01*
X121406000Y-65151950D01*
X121394564Y-65048411D01*
X121356189Y-64929359D01*
X121295325Y-64820081D01*
X121214312Y-64724777D01*
X121116263Y-64647109D01*
X121004945Y-64590062D01*
X120884637Y-64555829D01*
X120759961Y-64545723D01*
X120456750Y-64548700D01*
X120298000Y-64707450D01*
X120298000Y-64719200D01*
X120044000Y-64719200D01*
X120044000Y-64707450D01*
X119885250Y-64548700D01*
X119582039Y-64545723D01*
X119457363Y-64555829D01*
X119337055Y-64590062D01*
X119225737Y-64647109D01*
X119134728Y-64719200D01*
X118884700Y-64719200D01*
X118859924Y-64721640D01*
X118836099Y-64728867D01*
X118814143Y-64740603D01*
X118794897Y-64756397D01*
X118779103Y-64775643D01*
X118767367Y-64797599D01*
X118760140Y-64821424D01*
X118757700Y-64846200D01*
X118757700Y-67642200D01*
X117036501Y-67642200D01*
X117452602Y-67226099D01*
X117481601Y-67202301D01*
X117576574Y-67086576D01*
X117647146Y-66954547D01*
X117690603Y-66811286D01*
X117701600Y-66699633D01*
X117701600Y-66699624D01*
X117705276Y-66662301D01*
X117701600Y-66624978D01*
X117701600Y-65061325D01*
X117705276Y-65024000D01*
X117701600Y-64986675D01*
X117701600Y-64986667D01*
X117690603Y-64875014D01*
X117647146Y-64731753D01*
X117576574Y-64599724D01*
X117481601Y-64483999D01*
X117452604Y-64460202D01*
X116576977Y-63584576D01*
X116553175Y-63555573D01*
X116437450Y-63460600D01*
X116305421Y-63390028D01*
X116162160Y-63346571D01*
X116092643Y-63339724D01*
X116120869Y-63197823D01*
X116120869Y-62993945D01*
X116081095Y-62793986D01*
X116003074Y-62605628D01*
X115999886Y-62600858D01*
X116009707Y-62586160D01*
X116087728Y-62397802D01*
X116127502Y-62197843D01*
X116127502Y-61993965D01*
X116087728Y-61794006D01*
X116009707Y-61605648D01*
X115896439Y-61436130D01*
X115752276Y-61291967D01*
X115582758Y-61178699D01*
X115394400Y-61100678D01*
X115194441Y-61060904D01*
X114990563Y-61060904D01*
X114790604Y-61100678D01*
X114602246Y-61178699D01*
X114432728Y-61291967D01*
X114390694Y-61334001D01*
X114371372Y-61335904D01*
X114371363Y-61335904D01*
X114259710Y-61346901D01*
X114116449Y-61390358D01*
X113984420Y-61460930D01*
X113868695Y-61555903D01*
X113844896Y-61584902D01*
X113424854Y-62004945D01*
X113395851Y-62028747D01*
X113346954Y-62088329D01*
X113300878Y-62144472D01*
X113238836Y-62260543D01*
X113235346Y-62267073D01*
X113081139Y-62236400D01*
X112877261Y-62236400D01*
X112677302Y-62276174D01*
X112488944Y-62354195D01*
X112319426Y-62467463D01*
X112175263Y-62611626D01*
X112061995Y-62781144D01*
X111983974Y-62969502D01*
X111944200Y-63169461D01*
X111944200Y-63303200D01*
X111823161Y-63303200D01*
X111623202Y-63342974D01*
X111581592Y-63360210D01*
X111566777Y-63296854D01*
X111488323Y-63123992D01*
X111377653Y-62969757D01*
X111239020Y-62840076D01*
X111077751Y-62739933D01*
X110924294Y-62688720D01*
X110777000Y-62817579D01*
X110777000Y-63806700D01*
X110797000Y-63806700D01*
X110797000Y-64060700D01*
X110777000Y-64060700D01*
X110777000Y-64080700D01*
X110523000Y-64080700D01*
X110523000Y-64060700D01*
X109690000Y-64060700D01*
X109690000Y-64366017D01*
X109620506Y-64403163D01*
X109523815Y-64482515D01*
X109444463Y-64579206D01*
X109385498Y-64689520D01*
X109363072Y-64763449D01*
X109363072Y-64683700D01*
X109350812Y-64559218D01*
X109314502Y-64439520D01*
X109299276Y-64411035D01*
X109314111Y-64384050D01*
X109314786Y-64381924D01*
X109315844Y-64379966D01*
X109333512Y-64322890D01*
X109351613Y-64265828D01*
X109351862Y-64263612D01*
X109352520Y-64261485D01*
X109358774Y-64201987D01*
X109365438Y-64142573D01*
X109365468Y-64138300D01*
X109365485Y-64138137D01*
X109365470Y-64137974D01*
X109365500Y-64133700D01*
X109365500Y-64128700D01*
X109360500Y-64077706D01*
X109360500Y-63481700D01*
X109690000Y-63481700D01*
X109690000Y-63806700D01*
X110523000Y-63806700D01*
X110523000Y-62817579D01*
X110375706Y-62688720D01*
X110222249Y-62739933D01*
X110060980Y-62840076D01*
X109922347Y-62969757D01*
X109811677Y-63123992D01*
X109733223Y-63296854D01*
X109690000Y-63481700D01*
X109360500Y-63481700D01*
X109360500Y-62978851D01*
X109364947Y-62933700D01*
X109358450Y-62867732D01*
X109358490Y-62866517D01*
X109357856Y-62857667D01*
X109355802Y-62831570D01*
X109353758Y-62820097D01*
X109353644Y-62818937D01*
X109353420Y-62807286D01*
X109352324Y-62798481D01*
X109349566Y-62777533D01*
X109345205Y-62733255D01*
X109335373Y-62700842D01*
X109334026Y-62690031D01*
X109332015Y-62681388D01*
X109325904Y-62655935D01*
X109321898Y-62644366D01*
X109319750Y-62632309D01*
X109317289Y-62623784D01*
X109309854Y-62598686D01*
X109305253Y-62587357D01*
X109302482Y-62575447D01*
X109299578Y-62567062D01*
X109290840Y-62542387D01*
X109285649Y-62531306D01*
X109282256Y-62519549D01*
X109278918Y-62511327D01*
X109268901Y-62487144D01*
X109263134Y-62476342D01*
X109259125Y-62464767D01*
X109255361Y-62456732D01*
X109244091Y-62433105D01*
X109237778Y-62422640D01*
X109233178Y-62411311D01*
X109228998Y-62403484D01*
X109216508Y-62380479D01*
X109209643Y-62370338D01*
X109204446Y-62359245D01*
X109199863Y-62351647D01*
X109186185Y-62329327D01*
X109178802Y-62319566D01*
X109173039Y-62308772D01*
X109168064Y-62301424D01*
X109153237Y-62279851D01*
X109145356Y-62270492D01*
X109139037Y-62260017D01*
X109133685Y-62252940D01*
X109117750Y-62232173D01*
X109109382Y-62223231D01*
X109102520Y-62213096D01*
X109096805Y-62206308D01*
X109079804Y-62186403D01*
X109070989Y-62177920D01*
X109063610Y-62168164D01*
X109057547Y-62161685D01*
X109039528Y-62142697D01*
X109030279Y-62134685D01*
X109022397Y-62125325D01*
X109016003Y-62119172D01*
X108997015Y-62101153D01*
X108987360Y-62093637D01*
X108979003Y-62084706D01*
X108972296Y-62078896D01*
X108952392Y-62061895D01*
X108942346Y-62054887D01*
X108933528Y-62046401D01*
X108926527Y-62040950D01*
X108905760Y-62025015D01*
X108895372Y-62018549D01*
X108886126Y-62010540D01*
X108878849Y-62005463D01*
X108857276Y-61990636D01*
X108846559Y-61984720D01*
X108836906Y-61977205D01*
X108829373Y-61972515D01*
X108807053Y-61958837D01*
X108796034Y-61953486D01*
X108785990Y-61946480D01*
X108778221Y-61942192D01*
X108755216Y-61929702D01*
X108743955Y-61924945D01*
X108733576Y-61918485D01*
X108725594Y-61914609D01*
X108701968Y-61903339D01*
X108690454Y-61899171D01*
X108679730Y-61893251D01*
X108671556Y-61889798D01*
X108647372Y-61879782D01*
X108635664Y-61876225D01*
X108624656Y-61870880D01*
X108616313Y-61867859D01*
X108591637Y-61859122D01*
X108579770Y-61856185D01*
X108568504Y-61851426D01*
X108560014Y-61848846D01*
X108534916Y-61841411D01*
X108522888Y-61839094D01*
X108511378Y-61834928D01*
X108502765Y-61832796D01*
X108477311Y-61826685D01*
X108465185Y-61825002D01*
X108453469Y-61821443D01*
X108444756Y-61819766D01*
X108419017Y-61814996D01*
X108406836Y-61813952D01*
X108394961Y-61811013D01*
X108386172Y-61809793D01*
X108360219Y-61806376D01*
X108347988Y-61805970D01*
X108335971Y-61803656D01*
X108327130Y-61802898D01*
X108301034Y-61800844D01*
X108288789Y-61801079D01*
X108276666Y-61799397D01*
X108267798Y-61799103D01*
X108241630Y-61798418D01*
X108237746Y-61798696D01*
X108233873Y-61798262D01*
X108225000Y-61798200D01*
X107675000Y-61798200D01*
X107671519Y-61798541D01*
X107668032Y-61798238D01*
X107659160Y-61798397D01*
X107631807Y-61799079D01*
X107619260Y-61800626D01*
X107606630Y-61800207D01*
X107597779Y-61800842D01*
X107571748Y-61802891D01*
X107559705Y-61805036D01*
X107547477Y-61805271D01*
X107538672Y-61806367D01*
X107512784Y-61809775D01*
X107500865Y-61812548D01*
X107488662Y-61813423D01*
X107479926Y-61814979D01*
X107454253Y-61819737D01*
X107442487Y-61823133D01*
X107430333Y-61824647D01*
X107421691Y-61826658D01*
X107396300Y-61832754D01*
X107384741Y-61836757D01*
X107372704Y-61838901D01*
X107364179Y-61841361D01*
X107339142Y-61848777D01*
X107327801Y-61853382D01*
X107315884Y-61856155D01*
X107307499Y-61859058D01*
X107282885Y-61867774D01*
X107271797Y-61872968D01*
X107260028Y-61876365D01*
X107251807Y-61879704D01*
X107227683Y-61889697D01*
X107216892Y-61895459D01*
X107205333Y-61899462D01*
X107197297Y-61903226D01*
X107173730Y-61914467D01*
X107163258Y-61920784D01*
X107151929Y-61925384D01*
X107144102Y-61929563D01*
X107121154Y-61942022D01*
X107111010Y-61948889D01*
X107099913Y-61954088D01*
X107092315Y-61958672D01*
X107070051Y-61972316D01*
X107060294Y-61979695D01*
X107049500Y-61985459D01*
X107047900Y-61986542D01*
X107047900Y-59595279D01*
X107088986Y-59176253D01*
X107201303Y-58804238D01*
X107383739Y-58461126D01*
X107629351Y-58159976D01*
X107928769Y-57912276D01*
X108270608Y-57727445D01*
X108641826Y-57612534D01*
X109058882Y-57568700D01*
X127831321Y-57568700D01*
X128250347Y-57609786D01*
G04 #@! TA.AperFunction,Conductor*
D23*
G36*
X128250347Y-57609786D02*
G01*
X128622362Y-57722103D01*
X128965474Y-57904539D01*
X129266624Y-58150151D01*
X129514324Y-58449569D01*
X129699155Y-58791408D01*
X129814066Y-59162626D01*
X129857900Y-59579682D01*
X129857901Y-60547919D01*
X129861174Y-60581151D01*
X129861174Y-60597637D01*
X129862012Y-60605609D01*
X129741576Y-60726045D01*
X129644723Y-60870995D01*
X129578010Y-61032055D01*
X129544000Y-61203035D01*
X129544000Y-61377365D01*
X129578010Y-61548345D01*
X129644723Y-61709405D01*
X129672902Y-61751578D01*
X129645600Y-61888835D01*
X129645600Y-62063165D01*
X129679610Y-62234145D01*
X129717347Y-62325250D01*
X129679610Y-62416355D01*
X129645600Y-62587335D01*
X129645600Y-62761665D01*
X129679610Y-62932645D01*
X129717347Y-63023750D01*
X129679610Y-63114855D01*
X129645600Y-63285835D01*
X129645600Y-63460165D01*
X129677762Y-63621855D01*
X129657423Y-63652295D01*
X129590710Y-63813355D01*
X129556700Y-63984335D01*
X129556700Y-64158665D01*
X129590710Y-64329645D01*
X129657423Y-64490705D01*
X129754276Y-64635655D01*
X129875906Y-64757285D01*
X129861050Y-64908795D01*
X129861050Y-64908808D01*
X129857901Y-64940781D01*
X129857900Y-67850418D01*
X129861174Y-67883660D01*
X129861174Y-67900137D01*
X129862012Y-67908109D01*
X129741576Y-68028545D01*
X129644723Y-68173495D01*
X129578010Y-68334555D01*
X129544000Y-68505535D01*
X129544000Y-68679865D01*
X129578010Y-68850845D01*
X129644723Y-69011905D01*
X129672902Y-69054078D01*
X129645600Y-69191335D01*
X129645600Y-69365665D01*
X129679610Y-69536645D01*
X129717347Y-69627750D01*
X129679610Y-69718855D01*
X129645600Y-69889835D01*
X129645600Y-70064165D01*
X129679610Y-70235145D01*
X129717347Y-70326250D01*
X129679610Y-70417355D01*
X129645600Y-70588335D01*
X129645600Y-70762665D01*
X129677762Y-70924355D01*
X129657423Y-70954795D01*
X129590710Y-71115855D01*
X129556700Y-71286835D01*
X129556700Y-71461165D01*
X129590710Y-71632145D01*
X129657423Y-71793205D01*
X129754276Y-71938155D01*
X129866833Y-72050712D01*
X129861050Y-72109695D01*
X129861050Y-72109708D01*
X129857901Y-72141681D01*
X129857900Y-73310220D01*
X129816814Y-73729246D01*
X129704497Y-74101262D01*
X129522059Y-74444376D01*
X129276449Y-74745524D01*
X128977031Y-74993224D01*
X128635194Y-75178055D01*
X128263978Y-75292966D01*
X127846918Y-75336800D01*
X109074479Y-75336800D01*
X108655454Y-75295714D01*
X108283438Y-75183397D01*
X107940324Y-75000959D01*
X107639176Y-74755349D01*
X107391476Y-74455931D01*
X107206645Y-74114094D01*
X107091734Y-73742878D01*
X107047900Y-73325818D01*
X107047900Y-70879621D01*
X107053437Y-70882678D01*
X107063094Y-70890196D01*
X107070627Y-70894885D01*
X107092947Y-70908563D01*
X107103966Y-70913914D01*
X107114010Y-70920920D01*
X107121779Y-70925208D01*
X107144784Y-70937698D01*
X107156042Y-70942453D01*
X107166423Y-70948915D01*
X107174405Y-70952791D01*
X107198032Y-70964061D01*
X107209546Y-70968229D01*
X107220270Y-70974149D01*
X107228444Y-70977601D01*
X107252627Y-70987618D01*
X107264335Y-70991175D01*
X107275343Y-70996520D01*
X107283687Y-70999540D01*
X107308362Y-71008278D01*
X107320231Y-71011215D01*
X107331496Y-71015974D01*
X107339986Y-71018554D01*
X107365084Y-71025989D01*
X107377110Y-71028305D01*
X107388621Y-71032472D01*
X107397235Y-71034604D01*
X107422688Y-71040715D01*
X107434816Y-71042398D01*
X107446531Y-71045957D01*
X107455244Y-71047634D01*
X107480982Y-71052404D01*
X107493164Y-71053448D01*
X107505039Y-71056387D01*
X107513828Y-71057607D01*
X107539781Y-71061024D01*
X107552013Y-71061430D01*
X107564030Y-71063744D01*
X107572870Y-71064502D01*
X107598967Y-71066556D01*
X107611211Y-71066321D01*
X107623334Y-71068003D01*
X107632202Y-71068297D01*
X107658370Y-71068982D01*
X107662254Y-71068704D01*
X107666127Y-71069138D01*
X107675000Y-71069200D01*
X108225000Y-71069200D01*
X108228481Y-71068859D01*
X108231968Y-71069162D01*
X108240840Y-71069003D01*
X108268194Y-71068321D01*
X108280741Y-71066774D01*
X108293371Y-71067193D01*
X108302221Y-71066558D01*
X108328253Y-71064509D01*
X108340290Y-71062365D01*
X108352523Y-71062130D01*
X108361328Y-71061033D01*
X108387216Y-71057625D01*
X108399134Y-71054852D01*
X108411338Y-71053977D01*
X108420073Y-71052421D01*
X108445747Y-71047663D01*
X108457513Y-71044267D01*
X108469667Y-71042753D01*
X108478310Y-71040742D01*
X108503700Y-71034646D01*
X108515259Y-71030643D01*
X108527296Y-71028499D01*
X108530064Y-71027700D01*
X123720328Y-71027700D01*
X123720328Y-73127700D01*
X123732588Y-73252182D01*
X123768898Y-73371880D01*
X123827863Y-73482194D01*
X123907215Y-73578885D01*
X124003906Y-73658237D01*
X124114220Y-73717202D01*
X124233918Y-73753512D01*
X124358400Y-73765772D01*
X127158400Y-73765772D01*
X127282882Y-73753512D01*
X127402580Y-73717202D01*
X127512894Y-73658237D01*
X127609585Y-73578885D01*
X127688937Y-73482194D01*
X127747902Y-73371880D01*
X127784212Y-73252182D01*
X127796472Y-73127700D01*
X127796472Y-71027700D01*
X127784212Y-70903218D01*
X127747902Y-70783520D01*
X127688937Y-70673206D01*
X127609585Y-70576515D01*
X127512894Y-70497163D01*
X127402580Y-70438198D01*
X127282882Y-70401888D01*
X127158400Y-70389628D01*
X124358400Y-70389628D01*
X124233918Y-70401888D01*
X124114220Y-70438198D01*
X124003906Y-70497163D01*
X123907215Y-70576515D01*
X123827863Y-70673206D01*
X123768898Y-70783520D01*
X123732588Y-70903218D01*
X123720328Y-71027700D01*
X108530064Y-71027700D01*
X108535821Y-71026039D01*
X108560858Y-71018623D01*
X108572198Y-71014019D01*
X108584117Y-71011245D01*
X108592501Y-71008342D01*
X108617116Y-70999626D01*
X108628210Y-70994429D01*
X108639972Y-70991034D01*
X108648193Y-70987696D01*
X108672317Y-70977703D01*
X108683107Y-70971942D01*
X108694668Y-70967938D01*
X108702703Y-70964174D01*
X108726270Y-70952933D01*
X108736742Y-70946616D01*
X108748071Y-70942016D01*
X108755898Y-70937837D01*
X108778846Y-70925378D01*
X108788990Y-70918511D01*
X108800087Y-70913312D01*
X108807685Y-70908728D01*
X108829948Y-70895084D01*
X108839707Y-70887703D01*
X108850500Y-70881940D01*
X108857848Y-70876966D01*
X108879367Y-70862175D01*
X108888717Y-70854301D01*
X108899185Y-70847987D01*
X108906262Y-70842635D01*
X108926978Y-70826740D01*
X108935920Y-70818373D01*
X108946065Y-70811504D01*
X108952852Y-70805788D01*
X108972707Y-70788830D01*
X108981188Y-70780017D01*
X108990946Y-70772637D01*
X108997425Y-70766575D01*
X109016366Y-70748600D01*
X109024380Y-70739349D01*
X109033748Y-70731460D01*
X109039901Y-70725066D01*
X109057875Y-70706125D01*
X109065390Y-70696472D01*
X109074321Y-70688114D01*
X109080130Y-70681407D01*
X109097088Y-70661553D01*
X109104097Y-70651506D01*
X109112590Y-70642680D01*
X109118040Y-70635678D01*
X109133935Y-70614963D01*
X109140395Y-70604584D01*
X109148399Y-70595344D01*
X109153476Y-70588067D01*
X109168266Y-70566547D01*
X109174178Y-70555837D01*
X109181695Y-70546182D01*
X109186384Y-70538649D01*
X109200028Y-70516385D01*
X109205379Y-70505365D01*
X109212390Y-70495315D01*
X109216678Y-70487546D01*
X109229137Y-70464598D01*
X109233895Y-70453334D01*
X109240357Y-70442952D01*
X109244233Y-70434970D01*
X109255474Y-70411403D01*
X109259638Y-70399900D01*
X109265550Y-70389191D01*
X109269003Y-70381017D01*
X109278996Y-70356893D01*
X109282555Y-70345178D01*
X109287906Y-70334159D01*
X109290926Y-70325815D01*
X109299642Y-70301201D01*
X109302583Y-70289318D01*
X109307343Y-70278048D01*
X109309923Y-70269558D01*
X109317339Y-70244521D01*
X109319652Y-70232511D01*
X109323814Y-70221013D01*
X109325946Y-70212400D01*
X109332042Y-70187009D01*
X109333726Y-70174877D01*
X109337285Y-70163161D01*
X109338818Y-70155200D01*
X109345205Y-70134145D01*
X109349105Y-70094552D01*
X109352333Y-70070028D01*
X109352738Y-70057801D01*
X109355051Y-70045793D01*
X109355809Y-70036952D01*
X109357858Y-70010921D01*
X109357774Y-70006531D01*
X109364947Y-69933700D01*
X109360500Y-69888549D01*
X109360500Y-69060700D01*
X109690000Y-69060700D01*
X109690000Y-69385700D01*
X109733223Y-69570546D01*
X109811677Y-69743408D01*
X109922347Y-69897643D01*
X110060980Y-70027324D01*
X110222249Y-70127467D01*
X110375706Y-70178680D01*
X110523000Y-70049821D01*
X110523000Y-69060700D01*
X110777000Y-69060700D01*
X110777000Y-70049821D01*
X110924294Y-70178680D01*
X111077751Y-70127467D01*
X111239020Y-70027324D01*
X111377653Y-69897643D01*
X111488323Y-69743408D01*
X111566777Y-69570546D01*
X111610000Y-69385700D01*
X111610000Y-69060700D01*
X110777000Y-69060700D01*
X110523000Y-69060700D01*
X109690000Y-69060700D01*
X109360500Y-69060700D01*
X109360500Y-68733700D01*
X109354670Y-68674244D01*
X109349244Y-68614619D01*
X109348614Y-68612479D01*
X109348397Y-68610264D01*
X109331112Y-68553013D01*
X109314225Y-68495638D01*
X109313194Y-68493665D01*
X109312549Y-68491530D01*
X109296557Y-68461453D01*
X109314502Y-68427880D01*
X109350812Y-68308182D01*
X109363072Y-68183700D01*
X109363072Y-68104986D01*
X109389479Y-68187276D01*
X109450200Y-68296633D01*
X109531088Y-68392043D01*
X109629036Y-68469839D01*
X109690000Y-68501182D01*
X109690000Y-68806700D01*
X110523000Y-68806700D01*
X110523000Y-68786700D01*
X110777000Y-68786700D01*
X110777000Y-68806700D01*
X111610000Y-68806700D01*
X111610000Y-68501182D01*
X111670964Y-68469839D01*
X111768912Y-68392043D01*
X111849800Y-68296633D01*
X111910521Y-68187276D01*
X111948741Y-68068174D01*
X111960000Y-67965450D01*
X111801250Y-67806700D01*
X111688678Y-67806700D01*
X111776185Y-67734885D01*
X111855537Y-67638194D01*
X111892032Y-67569918D01*
X111960000Y-67501950D01*
X111950012Y-67410820D01*
X111950812Y-67408182D01*
X111963072Y-67283700D01*
X111963072Y-66883700D01*
X111950812Y-66759218D01*
X111950655Y-66758700D01*
X111950812Y-66758182D01*
X111963072Y-66633700D01*
X111963072Y-66233700D01*
X111950812Y-66109218D01*
X111950655Y-66108700D01*
X111950812Y-66108182D01*
X111963072Y-65983700D01*
X111963072Y-65583700D01*
X111952668Y-65478064D01*
X112065105Y-65365628D01*
X112219200Y-65334977D01*
X112219201Y-67742568D01*
X112215524Y-67779900D01*
X112219201Y-67817233D01*
X112229954Y-67926403D01*
X112230198Y-67928885D01*
X112273654Y-68072146D01*
X112344226Y-68204176D01*
X112400875Y-68273202D01*
X112439200Y-68319901D01*
X112468198Y-68343699D01*
X113037700Y-68913202D01*
X113061499Y-68942201D01*
X113090497Y-68965999D01*
X113177223Y-69037174D01*
X113304911Y-69105425D01*
X113309253Y-69107746D01*
X113452514Y-69151203D01*
X113564167Y-69162200D01*
X113564176Y-69162200D01*
X113601499Y-69165876D01*
X113638822Y-69162200D01*
X115220800Y-69162200D01*
X115220800Y-69316939D01*
X115260574Y-69516898D01*
X115338595Y-69705256D01*
X115451863Y-69874774D01*
X115596026Y-70018937D01*
X115765544Y-70132205D01*
X115953902Y-70210226D01*
X116153861Y-70250000D01*
X116357739Y-70250000D01*
X116557698Y-70210226D01*
X116746056Y-70132205D01*
X116915574Y-70018937D01*
X117059737Y-69874774D01*
X117173005Y-69705256D01*
X117180277Y-69687700D01*
X122017956Y-69687700D01*
X122103906Y-69758237D01*
X122214220Y-69817202D01*
X122333918Y-69853512D01*
X122458400Y-69865772D01*
X124358400Y-69865772D01*
X124482882Y-69853512D01*
X124602580Y-69817202D01*
X124712894Y-69758237D01*
X124809585Y-69678885D01*
X124888937Y-69582194D01*
X124947902Y-69471880D01*
X124984212Y-69352182D01*
X124996472Y-69227700D01*
X124996472Y-68627700D01*
X124984212Y-68503218D01*
X124961304Y-68427700D01*
X124984212Y-68352182D01*
X124996472Y-68227700D01*
X124996472Y-67627700D01*
X124984212Y-67503218D01*
X124961304Y-67427700D01*
X124984212Y-67352182D01*
X124996472Y-67227700D01*
X124996472Y-66627700D01*
X124984212Y-66503218D01*
X124961304Y-66427700D01*
X124984212Y-66352182D01*
X124996472Y-66227700D01*
X124996472Y-65657000D01*
X125915289Y-65657000D01*
X125959226Y-65700937D01*
X126128744Y-65814205D01*
X126317102Y-65892226D01*
X126517061Y-65932000D01*
X126720939Y-65932000D01*
X126920898Y-65892226D01*
X127109256Y-65814205D01*
X127278774Y-65700937D01*
X127422937Y-65556774D01*
X127536205Y-65387256D01*
X127614226Y-65198898D01*
X127654000Y-64998939D01*
X127654000Y-64795061D01*
X127614226Y-64595102D01*
X127536205Y-64406744D01*
X127422937Y-64237226D01*
X127278774Y-64093063D01*
X127109256Y-63979795D01*
X126920898Y-63901774D01*
X126720939Y-63862000D01*
X126517061Y-63862000D01*
X126317102Y-63901774D01*
X126128744Y-63979795D01*
X125959226Y-64093063D01*
X125915289Y-64137000D01*
X124996472Y-64137000D01*
X124996472Y-63627700D01*
X124984212Y-63503218D01*
X124947902Y-63383520D01*
X124888937Y-63273206D01*
X124809585Y-63176515D01*
X124712894Y-63097163D01*
X124602580Y-63038198D01*
X124482882Y-63001888D01*
X124424978Y-62996185D01*
X124440900Y-62916139D01*
X124440900Y-62712261D01*
X124401126Y-62512302D01*
X124381853Y-62465772D01*
X127158400Y-62465772D01*
X127282882Y-62453512D01*
X127402580Y-62417202D01*
X127512894Y-62358237D01*
X127609585Y-62278885D01*
X127688937Y-62182194D01*
X127747902Y-62071880D01*
X127784212Y-61952182D01*
X127796472Y-61827700D01*
X127796472Y-59727700D01*
X127784212Y-59603218D01*
X127747902Y-59483520D01*
X127688937Y-59373206D01*
X127609585Y-59276515D01*
X127512894Y-59197163D01*
X127402580Y-59138198D01*
X127282882Y-59101888D01*
X127158400Y-59089628D01*
X124358400Y-59089628D01*
X124233918Y-59101888D01*
X124114220Y-59138198D01*
X124003906Y-59197163D01*
X123907215Y-59276515D01*
X123827863Y-59373206D01*
X123768898Y-59483520D01*
X123732588Y-59603218D01*
X123720328Y-59727700D01*
X123720328Y-61824164D01*
X123707798Y-61818974D01*
X123507839Y-61779200D01*
X123303961Y-61779200D01*
X123104002Y-61818974D01*
X122915644Y-61896995D01*
X122746126Y-62010263D01*
X122601963Y-62154426D01*
X122488695Y-62323944D01*
X122410674Y-62512302D01*
X122370900Y-62712261D01*
X122370900Y-62916139D01*
X122386918Y-62996668D01*
X122333918Y-63001888D01*
X122214220Y-63038198D01*
X122103906Y-63097163D01*
X122007215Y-63176515D01*
X121927863Y-63273206D01*
X121868898Y-63383520D01*
X121832588Y-63503218D01*
X121820328Y-63627700D01*
X121820328Y-64227700D01*
X121832588Y-64352182D01*
X121855496Y-64427700D01*
X121832588Y-64503218D01*
X121820328Y-64627700D01*
X121820328Y-65227700D01*
X121824601Y-65271090D01*
X121784123Y-65292726D01*
X121705800Y-65357005D01*
X121668399Y-65387699D01*
X121644600Y-65416698D01*
X121375924Y-65685374D01*
X121247250Y-65556700D01*
X121145300Y-65556700D01*
X121145300Y-65310700D01*
X121247250Y-65310700D01*
X121406000Y-65151950D01*
X121394564Y-65048411D01*
X121356189Y-64929359D01*
X121295325Y-64820081D01*
X121214312Y-64724777D01*
X121116263Y-64647109D01*
X121004945Y-64590062D01*
X120884637Y-64555829D01*
X120759961Y-64545723D01*
X120456750Y-64548700D01*
X120298000Y-64707450D01*
X120298000Y-64719200D01*
X120044000Y-64719200D01*
X120044000Y-64707450D01*
X119885250Y-64548700D01*
X119582039Y-64545723D01*
X119457363Y-64555829D01*
X119337055Y-64590062D01*
X119225737Y-64647109D01*
X119134728Y-64719200D01*
X118884700Y-64719200D01*
X118859924Y-64721640D01*
X118836099Y-64728867D01*
X118814143Y-64740603D01*
X118794897Y-64756397D01*
X118779103Y-64775643D01*
X118767367Y-64797599D01*
X118760140Y-64821424D01*
X118757700Y-64846200D01*
X118757700Y-67642200D01*
X117036501Y-67642200D01*
X117452602Y-67226099D01*
X117481601Y-67202301D01*
X117576574Y-67086576D01*
X117647146Y-66954547D01*
X117690603Y-66811286D01*
X117701600Y-66699633D01*
X117701600Y-66699624D01*
X117705276Y-66662301D01*
X117701600Y-66624978D01*
X117701600Y-65061325D01*
X117705276Y-65024000D01*
X117701600Y-64986675D01*
X117701600Y-64986667D01*
X117690603Y-64875014D01*
X117647146Y-64731753D01*
X117576574Y-64599724D01*
X117481601Y-64483999D01*
X117452604Y-64460202D01*
X116576977Y-63584576D01*
X116553175Y-63555573D01*
X116437450Y-63460600D01*
X116305421Y-63390028D01*
X116162160Y-63346571D01*
X116092643Y-63339724D01*
X116120869Y-63197823D01*
X116120869Y-62993945D01*
X116081095Y-62793986D01*
X116003074Y-62605628D01*
X115999886Y-62600858D01*
X116009707Y-62586160D01*
X116087728Y-62397802D01*
X116127502Y-62197843D01*
X116127502Y-61993965D01*
X116087728Y-61794006D01*
X116009707Y-61605648D01*
X115896439Y-61436130D01*
X115752276Y-61291967D01*
X115582758Y-61178699D01*
X115394400Y-61100678D01*
X115194441Y-61060904D01*
X114990563Y-61060904D01*
X114790604Y-61100678D01*
X114602246Y-61178699D01*
X114432728Y-61291967D01*
X114390694Y-61334001D01*
X114371372Y-61335904D01*
X114371363Y-61335904D01*
X114259710Y-61346901D01*
X114116449Y-61390358D01*
X113984420Y-61460930D01*
X113868695Y-61555903D01*
X113844896Y-61584902D01*
X113424854Y-62004945D01*
X113395851Y-62028747D01*
X113346954Y-62088329D01*
X113300878Y-62144472D01*
X113238836Y-62260543D01*
X113235346Y-62267073D01*
X113081139Y-62236400D01*
X112877261Y-62236400D01*
X112677302Y-62276174D01*
X112488944Y-62354195D01*
X112319426Y-62467463D01*
X112175263Y-62611626D01*
X112061995Y-62781144D01*
X111983974Y-62969502D01*
X111944200Y-63169461D01*
X111944200Y-63303200D01*
X111823161Y-63303200D01*
X111623202Y-63342974D01*
X111581592Y-63360210D01*
X111566777Y-63296854D01*
X111488323Y-63123992D01*
X111377653Y-62969757D01*
X111239020Y-62840076D01*
X111077751Y-62739933D01*
X110924294Y-62688720D01*
X110777000Y-62817579D01*
X110777000Y-63806700D01*
X110797000Y-63806700D01*
X110797000Y-64060700D01*
X110777000Y-64060700D01*
X110777000Y-64080700D01*
X110523000Y-64080700D01*
X110523000Y-64060700D01*
X109690000Y-64060700D01*
X109690000Y-64366017D01*
X109620506Y-64403163D01*
X109523815Y-64482515D01*
X109444463Y-64579206D01*
X109385498Y-64689520D01*
X109363072Y-64763449D01*
X109363072Y-64683700D01*
X109350812Y-64559218D01*
X109314502Y-64439520D01*
X109299276Y-64411035D01*
X109314111Y-64384050D01*
X109314786Y-64381924D01*
X109315844Y-64379966D01*
X109333512Y-64322890D01*
X109351613Y-64265828D01*
X109351862Y-64263612D01*
X109352520Y-64261485D01*
X109358774Y-64201987D01*
X109365438Y-64142573D01*
X109365468Y-64138300D01*
X109365485Y-64138137D01*
X109365470Y-64137974D01*
X109365500Y-64133700D01*
X109365500Y-64128700D01*
X109360500Y-64077706D01*
X109360500Y-63481700D01*
X109690000Y-63481700D01*
X109690000Y-63806700D01*
X110523000Y-63806700D01*
X110523000Y-62817579D01*
X110375706Y-62688720D01*
X110222249Y-62739933D01*
X110060980Y-62840076D01*
X109922347Y-62969757D01*
X109811677Y-63123992D01*
X109733223Y-63296854D01*
X109690000Y-63481700D01*
X109360500Y-63481700D01*
X109360500Y-62978851D01*
X109364947Y-62933700D01*
X109358450Y-62867732D01*
X109358490Y-62866517D01*
X109357856Y-62857667D01*
X109355802Y-62831570D01*
X109353758Y-62820097D01*
X109353644Y-62818937D01*
X109353420Y-62807286D01*
X109352324Y-62798481D01*
X109349566Y-62777533D01*
X109345205Y-62733255D01*
X109335373Y-62700842D01*
X109334026Y-62690031D01*
X109332015Y-62681388D01*
X109325904Y-62655935D01*
X109321898Y-62644366D01*
X109319750Y-62632309D01*
X109317289Y-62623784D01*
X109309854Y-62598686D01*
X109305253Y-62587357D01*
X109302482Y-62575447D01*
X109299578Y-62567062D01*
X109290840Y-62542387D01*
X109285649Y-62531306D01*
X109282256Y-62519549D01*
X109278918Y-62511327D01*
X109268901Y-62487144D01*
X109263134Y-62476342D01*
X109259125Y-62464767D01*
X109255361Y-62456732D01*
X109244091Y-62433105D01*
X109237778Y-62422640D01*
X109233178Y-62411311D01*
X109228998Y-62403484D01*
X109216508Y-62380479D01*
X109209643Y-62370338D01*
X109204446Y-62359245D01*
X109199863Y-62351647D01*
X109186185Y-62329327D01*
X109178802Y-62319566D01*
X109173039Y-62308772D01*
X109168064Y-62301424D01*
X109153237Y-62279851D01*
X109145356Y-62270492D01*
X109139037Y-62260017D01*
X109133685Y-62252940D01*
X109117750Y-62232173D01*
X109109382Y-62223231D01*
X109102520Y-62213096D01*
X109096805Y-62206308D01*
X109079804Y-62186403D01*
X109070989Y-62177920D01*
X109063610Y-62168164D01*
X109057547Y-62161685D01*
X109039528Y-62142697D01*
X109030279Y-62134685D01*
X109022397Y-62125325D01*
X109016003Y-62119172D01*
X108997015Y-62101153D01*
X108987360Y-62093637D01*
X108979003Y-62084706D01*
X108972296Y-62078896D01*
X108952392Y-62061895D01*
X108942346Y-62054887D01*
X108933528Y-62046401D01*
X108926527Y-62040950D01*
X108905760Y-62025015D01*
X108895372Y-62018549D01*
X108886126Y-62010540D01*
X108878849Y-62005463D01*
X108857276Y-61990636D01*
X108846559Y-61984720D01*
X108836906Y-61977205D01*
X108829373Y-61972515D01*
X108807053Y-61958837D01*
X108796034Y-61953486D01*
X108785990Y-61946480D01*
X108778221Y-61942192D01*
X108755216Y-61929702D01*
X108743955Y-61924945D01*
X108733576Y-61918485D01*
X108725594Y-61914609D01*
X108701968Y-61903339D01*
X108690454Y-61899171D01*
X108679730Y-61893251D01*
X108671556Y-61889798D01*
X108647372Y-61879782D01*
X108635664Y-61876225D01*
X108624656Y-61870880D01*
X108616313Y-61867859D01*
X108591637Y-61859122D01*
X108579770Y-61856185D01*
X108568504Y-61851426D01*
X108560014Y-61848846D01*
X108534916Y-61841411D01*
X108522888Y-61839094D01*
X108511378Y-61834928D01*
X108502765Y-61832796D01*
X108477311Y-61826685D01*
X108465185Y-61825002D01*
X108453469Y-61821443D01*
X108444756Y-61819766D01*
X108419017Y-61814996D01*
X108406836Y-61813952D01*
X108394961Y-61811013D01*
X108386172Y-61809793D01*
X108360219Y-61806376D01*
X108347988Y-61805970D01*
X108335971Y-61803656D01*
X108327130Y-61802898D01*
X108301034Y-61800844D01*
X108288789Y-61801079D01*
X108276666Y-61799397D01*
X108267798Y-61799103D01*
X108241630Y-61798418D01*
X108237746Y-61798696D01*
X108233873Y-61798262D01*
X108225000Y-61798200D01*
X107675000Y-61798200D01*
X107671519Y-61798541D01*
X107668032Y-61798238D01*
X107659160Y-61798397D01*
X107631807Y-61799079D01*
X107619260Y-61800626D01*
X107606630Y-61800207D01*
X107597779Y-61800842D01*
X107571748Y-61802891D01*
X107559705Y-61805036D01*
X107547477Y-61805271D01*
X107538672Y-61806367D01*
X107512784Y-61809775D01*
X107500865Y-61812548D01*
X107488662Y-61813423D01*
X107479926Y-61814979D01*
X107454253Y-61819737D01*
X107442487Y-61823133D01*
X107430333Y-61824647D01*
X107421691Y-61826658D01*
X107396300Y-61832754D01*
X107384741Y-61836757D01*
X107372704Y-61838901D01*
X107364179Y-61841361D01*
X107339142Y-61848777D01*
X107327801Y-61853382D01*
X107315884Y-61856155D01*
X107307499Y-61859058D01*
X107282885Y-61867774D01*
X107271797Y-61872968D01*
X107260028Y-61876365D01*
X107251807Y-61879704D01*
X107227683Y-61889697D01*
X107216892Y-61895459D01*
X107205333Y-61899462D01*
X107197297Y-61903226D01*
X107173730Y-61914467D01*
X107163258Y-61920784D01*
X107151929Y-61925384D01*
X107144102Y-61929563D01*
X107121154Y-61942022D01*
X107111010Y-61948889D01*
X107099913Y-61954088D01*
X107092315Y-61958672D01*
X107070051Y-61972316D01*
X107060294Y-61979695D01*
X107049500Y-61985459D01*
X107047900Y-61986542D01*
X107047900Y-59595279D01*
X107088986Y-59176253D01*
X107201303Y-58804238D01*
X107383739Y-58461126D01*
X107629351Y-58159976D01*
X107928769Y-57912276D01*
X108270608Y-57727445D01*
X108641826Y-57612534D01*
X109058882Y-57568700D01*
X127831321Y-57568700D01*
X128250347Y-57609786D01*
G37*
G04 #@! TD.AperFunction*
M02*
