G04 #@! TF.GenerationSoftware,KiCad,Pcbnew,(5.1.9)-1*
G04 #@! TF.CreationDate,2021-01-27T13:34:44-08:00*
G04 #@! TF.ProjectId,AnalogFaderV1,416e616c-6f67-4466-9164-657256312e6b,rev?*
G04 #@! TF.SameCoordinates,Original*
G04 #@! TF.FileFunction,Copper,L2,Bot*
G04 #@! TF.FilePolarity,Positive*
%FSLAX46Y46*%
G04 Gerber Fmt 4.6, Leading zero omitted, Abs format (unit mm)*
G04 Created by KiCad (PCBNEW (5.1.9)-1) date 2021-01-27 13:34:44*
%MOMM*%
%LPD*%
G01*
G04 APERTURE LIST*
G04 #@! TA.AperFunction,ComponentPad*
%ADD10C,4.399999*%
G04 #@! TD*
G04 #@! TA.AperFunction,SMDPad,CuDef*
%ADD11R,0.575000X0.600000*%
G04 #@! TD*
G04 #@! TA.AperFunction,SMDPad,CuDef*
%ADD12R,1.650000X0.600000*%
G04 #@! TD*
G04 #@! TA.AperFunction,ComponentPad*
%ADD13O,0.650000X1.300000*%
G04 #@! TD*
G04 #@! TA.AperFunction,ComponentPad*
%ADD14O,1.550000X0.775000*%
G04 #@! TD*
G04 #@! TA.AperFunction,SMDPad,CuDef*
%ADD15R,0.800000X0.750000*%
G04 #@! TD*
G04 #@! TA.AperFunction,SMDPad,CuDef*
%ADD16R,0.750000X0.800000*%
G04 #@! TD*
G04 #@! TA.AperFunction,SMDPad,CuDef*
%ADD17R,2.030000X1.650000*%
G04 #@! TD*
G04 #@! TA.AperFunction,SMDPad,CuDef*
%ADD18R,0.500000X0.900000*%
G04 #@! TD*
G04 #@! TA.AperFunction,SMDPad,CuDef*
%ADD19R,0.900000X0.500000*%
G04 #@! TD*
G04 #@! TA.AperFunction,SMDPad,CuDef*
%ADD20R,1.370000X0.490000*%
G04 #@! TD*
G04 #@! TA.AperFunction,ViaPad*
%ADD21C,0.800000*%
G04 #@! TD*
G04 #@! TA.AperFunction,Conductor*
%ADD22C,0.250000*%
G04 #@! TD*
G04 #@! TA.AperFunction,Conductor*
%ADD23C,0.508000*%
G04 #@! TD*
G04 #@! TA.AperFunction,Conductor*
%ADD24C,0.635000*%
G04 #@! TD*
G04 #@! TA.AperFunction,Conductor*
%ADD25C,0.381000*%
G04 #@! TD*
G04 #@! TA.AperFunction,Conductor*
%ADD26C,0.254000*%
G04 #@! TD*
G04 #@! TA.AperFunction,Conductor*
%ADD27C,0.100000*%
G04 #@! TD*
G04 APERTURE END LIST*
D10*
X112915700Y-55791100D03*
X131749800Y-55791100D03*
X131749800Y-41986200D03*
X112915700Y-41986200D03*
D11*
X117314000Y-44288700D03*
X116239000Y-44288700D03*
X117314000Y-41588700D03*
D12*
X116776500Y-40988700D03*
X116776500Y-44888700D03*
D11*
X116239000Y-41588700D03*
D13*
X114406900Y-46389900D03*
X114406900Y-51389900D03*
D14*
X111706900Y-45389900D03*
X111706900Y-52389900D03*
D15*
X126008000Y-47637700D03*
X127508000Y-47637700D03*
D16*
X119405400Y-48106200D03*
X119405400Y-49606200D03*
D15*
X116001100Y-51968400D03*
X117501100Y-51968400D03*
D17*
X111963200Y-50482500D03*
X111963200Y-47322500D03*
D18*
X123393200Y-54140100D03*
X121893200Y-54140100D03*
X121893200Y-52578000D03*
X123393200Y-52578000D03*
X127673100Y-50673000D03*
X126173100Y-50673000D03*
X126173100Y-49123600D03*
X127673100Y-49123600D03*
X121818400Y-44640500D03*
X123318400Y-44640500D03*
X123329700Y-43002200D03*
X121829700Y-43002200D03*
X121829700Y-41363900D03*
X123329700Y-41363900D03*
D19*
X118732300Y-43459400D03*
X118732300Y-41959400D03*
D20*
X123673900Y-48323500D03*
X123673900Y-48973500D03*
X123673900Y-49623500D03*
X123673900Y-47673500D03*
X121373900Y-48973500D03*
X121373900Y-48323500D03*
X121373900Y-47673500D03*
X121373900Y-49623500D03*
D21*
X120472200Y-46126400D03*
X125984000Y-46482000D03*
X124498100Y-52578000D03*
X117525800Y-52819300D03*
X118122700Y-47828200D03*
X118122700Y-48907700D03*
X120713500Y-50882302D03*
X116039900Y-47586900D03*
X132969000Y-50558700D03*
X131330700Y-50584100D03*
X129743200Y-50571400D03*
X118122700Y-49936400D03*
D22*
X122663899Y-48468499D02*
X122808898Y-48323500D01*
X122663899Y-49198503D02*
X122663899Y-48468499D01*
X122238902Y-49623500D02*
X122663899Y-49198503D01*
X121373900Y-49623500D02*
X122238902Y-49623500D01*
X122808898Y-48323500D02*
X123673900Y-48323500D01*
X122663899Y-48178501D02*
X122808898Y-48323500D01*
X127673100Y-47802800D02*
X127508000Y-47637700D01*
X127673100Y-49123600D02*
X127673100Y-47802800D01*
X122663899Y-47168499D02*
X124379098Y-45453300D01*
X122663899Y-48178501D02*
X122663899Y-47168499D01*
X124379098Y-45453300D02*
X126517400Y-45453300D01*
X127508000Y-46443900D02*
X127508000Y-47637700D01*
X126517400Y-45453300D02*
X127508000Y-46443900D01*
X123673900Y-49623500D02*
X123673900Y-51052700D01*
X123393200Y-51333400D02*
X123393200Y-52578000D01*
X123673900Y-51052700D02*
X123393200Y-51333400D01*
X119580300Y-49781100D02*
X119405400Y-49606200D01*
X112242600Y-50482500D02*
X112699800Y-50482500D01*
D23*
X116001100Y-49872200D02*
X116001100Y-51968400D01*
X115252500Y-49123600D02*
X116001100Y-49872200D01*
X113322100Y-49123600D02*
X115252500Y-49123600D01*
X111963200Y-50482500D02*
X113322100Y-49123600D01*
D22*
X121653300Y-54140100D02*
X121640600Y-54127400D01*
X121893200Y-54140100D02*
X121653300Y-54140100D01*
X120438900Y-47673500D02*
X120105401Y-48006999D01*
X121373900Y-47673500D02*
X120438900Y-47673500D01*
X119405400Y-49466202D02*
X119405400Y-49606200D01*
X120105401Y-48766201D02*
X119405400Y-49466202D01*
X120105401Y-48006999D02*
X120105401Y-48766201D01*
D24*
X116001100Y-52978400D02*
X117162800Y-54140100D01*
X116001100Y-51968400D02*
X116001100Y-52978400D01*
X120878600Y-54140100D02*
X121653300Y-54140100D01*
X117162800Y-54140100D02*
X120878600Y-54140100D01*
D25*
X119405400Y-52666900D02*
X120878600Y-54140100D01*
X119405400Y-49606200D02*
X119405400Y-52666900D01*
D22*
X120192800Y-44640500D02*
X121818400Y-44640500D01*
X118122700Y-46710600D02*
X120192800Y-44640500D01*
X118122700Y-47828200D02*
X118122700Y-46710600D01*
X117397699Y-48182699D02*
X117397699Y-46362599D01*
X118122700Y-48907700D02*
X117397699Y-48182699D01*
X120758098Y-43002200D02*
X121829700Y-43002200D01*
X117397699Y-46362599D02*
X120758098Y-43002200D01*
X121373900Y-48323500D02*
X121373900Y-48973500D01*
X120105401Y-50274203D02*
X120713500Y-50882302D01*
X120105401Y-49402611D02*
X120105401Y-50274203D01*
X120534512Y-48973500D02*
X120105401Y-49402611D01*
X121373900Y-48973500D02*
X120534512Y-48973500D01*
X112227600Y-47586900D02*
X111963200Y-47322500D01*
D23*
X116039900Y-47586900D02*
X112227600Y-47586900D01*
D22*
X122668201Y-53353001D02*
X121893200Y-52578000D01*
X123393200Y-54078000D02*
X121893200Y-52578000D01*
X123393200Y-54140100D02*
X123393200Y-54078000D01*
X125598099Y-49299109D02*
X125272490Y-48973500D01*
X125598099Y-53637001D02*
X125598099Y-49299109D01*
X125095000Y-54140100D02*
X125598099Y-53637001D01*
X125272490Y-48973500D02*
X123673900Y-48973500D01*
X123393200Y-54140100D02*
X125095000Y-54140100D01*
X127673100Y-51562000D02*
X125598099Y-53637001D01*
X127673100Y-50673000D02*
X127673100Y-51562000D01*
X126059000Y-49123600D02*
X126173100Y-49123600D01*
X124608900Y-47673500D02*
X126059000Y-49123600D01*
X123673900Y-47673500D02*
X124608900Y-47673500D01*
X126173100Y-49123600D02*
X126173100Y-50673000D01*
X127546100Y-44640500D02*
X123318400Y-44640500D01*
X128568189Y-45662589D02*
X127546100Y-44640500D01*
X128568190Y-51105802D02*
X128568189Y-45662589D01*
X129208799Y-51746411D02*
X128568190Y-51105802D01*
X131781289Y-51746411D02*
X129208799Y-51746411D01*
X132969000Y-50558700D02*
X131781289Y-51746411D01*
X126771400Y-43002200D02*
X123329700Y-43002200D01*
X129018199Y-50919401D02*
X129018199Y-45248999D01*
X129395199Y-51296401D02*
X129018199Y-50919401D01*
X130618399Y-51296401D02*
X129395199Y-51296401D01*
X129018199Y-45248999D02*
X126771400Y-43002200D01*
X131330700Y-50584100D02*
X130618399Y-51296401D01*
X116239000Y-41526200D02*
X116776500Y-40988700D01*
X116239000Y-41588700D02*
X116239000Y-41526200D01*
X117314000Y-41526200D02*
X116776500Y-40988700D01*
X117314000Y-41588700D02*
X117314000Y-41526200D01*
X117823700Y-40988700D02*
X118795800Y-41960800D01*
X116776500Y-40988700D02*
X117823700Y-40988700D01*
X119327800Y-41363900D02*
X118732300Y-41959400D01*
X121829700Y-41363900D02*
X119327800Y-41363900D01*
X126212600Y-41363900D02*
X123329700Y-41363900D01*
X129743200Y-44894500D02*
X126212600Y-41363900D01*
X129743200Y-50571400D02*
X129743200Y-44894500D01*
X117314000Y-44351200D02*
X116776500Y-44888700D01*
X117314000Y-44288700D02*
X117314000Y-44351200D01*
X116239000Y-44351200D02*
X116776500Y-44888700D01*
X116239000Y-44288700D02*
X116239000Y-44351200D01*
X118141900Y-43460800D02*
X117314000Y-44288700D01*
X118795800Y-43460800D02*
X118141900Y-43460800D01*
X116947689Y-45059889D02*
X116776500Y-44888700D01*
X116947689Y-48761389D02*
X116947689Y-45059889D01*
X118122700Y-49936400D02*
X116947689Y-48761389D01*
D26*
X115112100Y-50240435D02*
X115112100Y-50404954D01*
X114995920Y-50296276D01*
X114834651Y-50196133D01*
X114681194Y-50144920D01*
X114533900Y-50273779D01*
X114533900Y-51262900D01*
X114553900Y-51262900D01*
X114553900Y-51516900D01*
X114533900Y-51516900D01*
X114533900Y-52506021D01*
X114681194Y-52634880D01*
X114834651Y-52583667D01*
X114982551Y-52491826D01*
X115011598Y-52587580D01*
X115048601Y-52656806D01*
X115048601Y-52931606D01*
X115043992Y-52978400D01*
X115062383Y-53165122D01*
X115116849Y-53344669D01*
X115200937Y-53501987D01*
X115205295Y-53510141D01*
X115324323Y-53655178D01*
X115360664Y-53685002D01*
X116456197Y-54780536D01*
X116486022Y-54816878D01*
X116631059Y-54935906D01*
X116796531Y-55024352D01*
X116976077Y-55078817D01*
X117162800Y-55097208D01*
X117209585Y-55092600D01*
X121254543Y-55092600D01*
X121288706Y-55120637D01*
X121399020Y-55179602D01*
X121518718Y-55215912D01*
X121643200Y-55228172D01*
X122143200Y-55228172D01*
X122267682Y-55215912D01*
X122387380Y-55179602D01*
X122497694Y-55120637D01*
X122594385Y-55041285D01*
X122643200Y-54981804D01*
X122692015Y-55041285D01*
X122788706Y-55120637D01*
X122899020Y-55179602D01*
X123018718Y-55215912D01*
X123143200Y-55228172D01*
X123643200Y-55228172D01*
X123767682Y-55215912D01*
X123887380Y-55179602D01*
X123997694Y-55120637D01*
X124094385Y-55041285D01*
X124173737Y-54944594D01*
X124197520Y-54900100D01*
X125057678Y-54900100D01*
X125095000Y-54903776D01*
X125132322Y-54900100D01*
X125132333Y-54900100D01*
X125243986Y-54889103D01*
X125387247Y-54845646D01*
X125519276Y-54775074D01*
X125635001Y-54680101D01*
X125658803Y-54651098D01*
X126109102Y-54200799D01*
X126138100Y-54177002D01*
X126161903Y-54147998D01*
X128184103Y-52125799D01*
X128213101Y-52102001D01*
X128308074Y-51986276D01*
X128330990Y-51943404D01*
X128644999Y-52257413D01*
X128668798Y-52286412D01*
X128697796Y-52310210D01*
X128784522Y-52381385D01*
X128873631Y-52429015D01*
X128916552Y-52451957D01*
X129059813Y-52495414D01*
X129171466Y-52506411D01*
X129171476Y-52506411D01*
X129208799Y-52510087D01*
X129246122Y-52506411D01*
X131743967Y-52506411D01*
X131781289Y-52510087D01*
X131818611Y-52506411D01*
X131818622Y-52506411D01*
X131930275Y-52495414D01*
X132073536Y-52451957D01*
X132205565Y-52381385D01*
X132321290Y-52286412D01*
X132345093Y-52257408D01*
X133008802Y-51593700D01*
X133070939Y-51593700D01*
X133270898Y-51553926D01*
X133459256Y-51475905D01*
X133628774Y-51362637D01*
X133731401Y-51260010D01*
X133731401Y-55746111D01*
X133699658Y-56069846D01*
X131810505Y-57763232D01*
X131720418Y-57772700D01*
X112947979Y-57772700D01*
X112855435Y-57763626D01*
X110952531Y-56057915D01*
X110921400Y-55761718D01*
X110921400Y-53336564D01*
X110926213Y-53339137D01*
X111118955Y-53397605D01*
X111269172Y-53412400D01*
X112144628Y-53412400D01*
X112294845Y-53397605D01*
X112487587Y-53339137D01*
X112665219Y-53244191D01*
X112820915Y-53116415D01*
X112948691Y-52960719D01*
X113043637Y-52783087D01*
X113102105Y-52590345D01*
X113121847Y-52389900D01*
X113102105Y-52189455D01*
X113043637Y-51996713D01*
X113014396Y-51942007D01*
X113102682Y-51933312D01*
X113222380Y-51897002D01*
X113332694Y-51838037D01*
X113429385Y-51758685D01*
X113446900Y-51737343D01*
X113446900Y-51841900D01*
X113490123Y-52026746D01*
X113568577Y-52199608D01*
X113679247Y-52353843D01*
X113817880Y-52483524D01*
X113979149Y-52583667D01*
X114132606Y-52634880D01*
X114279900Y-52506021D01*
X114279900Y-51516900D01*
X114259900Y-51516900D01*
X114259900Y-51262900D01*
X114279900Y-51262900D01*
X114279900Y-50273779D01*
X114132606Y-50144920D01*
X113979149Y-50196133D01*
X113817880Y-50296276D01*
X113679247Y-50425957D01*
X113616272Y-50513722D01*
X113616272Y-50086664D01*
X113690336Y-50012600D01*
X114884265Y-50012600D01*
X115112100Y-50240435D01*
G04 #@! TA.AperFunction,Conductor*
D27*
G36*
X115112100Y-50240435D02*
G01*
X115112100Y-50404954D01*
X114995920Y-50296276D01*
X114834651Y-50196133D01*
X114681194Y-50144920D01*
X114533900Y-50273779D01*
X114533900Y-51262900D01*
X114553900Y-51262900D01*
X114553900Y-51516900D01*
X114533900Y-51516900D01*
X114533900Y-52506021D01*
X114681194Y-52634880D01*
X114834651Y-52583667D01*
X114982551Y-52491826D01*
X115011598Y-52587580D01*
X115048601Y-52656806D01*
X115048601Y-52931606D01*
X115043992Y-52978400D01*
X115062383Y-53165122D01*
X115116849Y-53344669D01*
X115200937Y-53501987D01*
X115205295Y-53510141D01*
X115324323Y-53655178D01*
X115360664Y-53685002D01*
X116456197Y-54780536D01*
X116486022Y-54816878D01*
X116631059Y-54935906D01*
X116796531Y-55024352D01*
X116976077Y-55078817D01*
X117162800Y-55097208D01*
X117209585Y-55092600D01*
X121254543Y-55092600D01*
X121288706Y-55120637D01*
X121399020Y-55179602D01*
X121518718Y-55215912D01*
X121643200Y-55228172D01*
X122143200Y-55228172D01*
X122267682Y-55215912D01*
X122387380Y-55179602D01*
X122497694Y-55120637D01*
X122594385Y-55041285D01*
X122643200Y-54981804D01*
X122692015Y-55041285D01*
X122788706Y-55120637D01*
X122899020Y-55179602D01*
X123018718Y-55215912D01*
X123143200Y-55228172D01*
X123643200Y-55228172D01*
X123767682Y-55215912D01*
X123887380Y-55179602D01*
X123997694Y-55120637D01*
X124094385Y-55041285D01*
X124173737Y-54944594D01*
X124197520Y-54900100D01*
X125057678Y-54900100D01*
X125095000Y-54903776D01*
X125132322Y-54900100D01*
X125132333Y-54900100D01*
X125243986Y-54889103D01*
X125387247Y-54845646D01*
X125519276Y-54775074D01*
X125635001Y-54680101D01*
X125658803Y-54651098D01*
X126109102Y-54200799D01*
X126138100Y-54177002D01*
X126161903Y-54147998D01*
X128184103Y-52125799D01*
X128213101Y-52102001D01*
X128308074Y-51986276D01*
X128330990Y-51943404D01*
X128644999Y-52257413D01*
X128668798Y-52286412D01*
X128697796Y-52310210D01*
X128784522Y-52381385D01*
X128873631Y-52429015D01*
X128916552Y-52451957D01*
X129059813Y-52495414D01*
X129171466Y-52506411D01*
X129171476Y-52506411D01*
X129208799Y-52510087D01*
X129246122Y-52506411D01*
X131743967Y-52506411D01*
X131781289Y-52510087D01*
X131818611Y-52506411D01*
X131818622Y-52506411D01*
X131930275Y-52495414D01*
X132073536Y-52451957D01*
X132205565Y-52381385D01*
X132321290Y-52286412D01*
X132345093Y-52257408D01*
X133008802Y-51593700D01*
X133070939Y-51593700D01*
X133270898Y-51553926D01*
X133459256Y-51475905D01*
X133628774Y-51362637D01*
X133731401Y-51260010D01*
X133731401Y-55746111D01*
X133699658Y-56069846D01*
X131810505Y-57763232D01*
X131720418Y-57772700D01*
X112947979Y-57772700D01*
X112855435Y-57763626D01*
X110952531Y-56057915D01*
X110921400Y-55761718D01*
X110921400Y-53336564D01*
X110926213Y-53339137D01*
X111118955Y-53397605D01*
X111269172Y-53412400D01*
X112144628Y-53412400D01*
X112294845Y-53397605D01*
X112487587Y-53339137D01*
X112665219Y-53244191D01*
X112820915Y-53116415D01*
X112948691Y-52960719D01*
X113043637Y-52783087D01*
X113102105Y-52590345D01*
X113121847Y-52389900D01*
X113102105Y-52189455D01*
X113043637Y-51996713D01*
X113014396Y-51942007D01*
X113102682Y-51933312D01*
X113222380Y-51897002D01*
X113332694Y-51838037D01*
X113429385Y-51758685D01*
X113446900Y-51737343D01*
X113446900Y-51841900D01*
X113490123Y-52026746D01*
X113568577Y-52199608D01*
X113679247Y-52353843D01*
X113817880Y-52483524D01*
X113979149Y-52583667D01*
X114132606Y-52634880D01*
X114279900Y-52506021D01*
X114279900Y-51516900D01*
X114259900Y-51516900D01*
X114259900Y-51262900D01*
X114279900Y-51262900D01*
X114279900Y-50273779D01*
X114132606Y-50144920D01*
X113979149Y-50196133D01*
X113817880Y-50296276D01*
X113679247Y-50425957D01*
X113616272Y-50513722D01*
X113616272Y-50086664D01*
X113690336Y-50012600D01*
X114884265Y-50012600D01*
X115112100Y-50240435D01*
G37*
G04 #@! TD.AperFunction*
D26*
X123800900Y-50344750D02*
X123959650Y-50503500D01*
X124348797Y-50506492D01*
X124473457Y-50496204D01*
X124593715Y-50461794D01*
X124704949Y-50404584D01*
X124802885Y-50326772D01*
X124838100Y-50285222D01*
X124838099Y-53322199D01*
X124780199Y-53380100D01*
X124197520Y-53380100D01*
X124186774Y-53359997D01*
X124237625Y-53259937D01*
X124271452Y-53139514D01*
X124281136Y-53014805D01*
X124278200Y-52863750D01*
X124119450Y-52705000D01*
X123516200Y-52705000D01*
X123516200Y-52725000D01*
X123270200Y-52725000D01*
X123270200Y-52705000D01*
X123246200Y-52705000D01*
X123246200Y-52451000D01*
X123270200Y-52451000D01*
X123270200Y-51651750D01*
X123516200Y-51651750D01*
X123516200Y-52451000D01*
X124119450Y-52451000D01*
X124278200Y-52292250D01*
X124281136Y-52141195D01*
X124271452Y-52016486D01*
X124237625Y-51896063D01*
X124180955Y-51784553D01*
X124103619Y-51686242D01*
X124008589Y-51604907D01*
X123899518Y-51543674D01*
X123780597Y-51504896D01*
X123674950Y-51493000D01*
X123516200Y-51651750D01*
X123270200Y-51651750D01*
X123111450Y-51493000D01*
X123005803Y-51504896D01*
X122886882Y-51543674D01*
X122777811Y-51604907D01*
X122682781Y-51686242D01*
X122643305Y-51736425D01*
X122594385Y-51676815D01*
X122497694Y-51597463D01*
X122387380Y-51538498D01*
X122267682Y-51502188D01*
X122143200Y-51489928D01*
X121643200Y-51489928D01*
X121545876Y-51499513D01*
X121630705Y-51372558D01*
X121708726Y-51184200D01*
X121748500Y-50984241D01*
X121748500Y-50780363D01*
X121708726Y-50580404D01*
X121678144Y-50506572D01*
X122058900Y-50506572D01*
X122183382Y-50494312D01*
X122303080Y-50458002D01*
X122413394Y-50399037D01*
X122479639Y-50344671D01*
X122531149Y-50329046D01*
X122541949Y-50323273D01*
X122544915Y-50326772D01*
X122642851Y-50404584D01*
X122754085Y-50461794D01*
X122874343Y-50496204D01*
X122999003Y-50506492D01*
X123388150Y-50503500D01*
X123546900Y-50344750D01*
X123546900Y-49856572D01*
X123800900Y-49856572D01*
X123800900Y-50344750D01*
G04 #@! TA.AperFunction,Conductor*
D27*
G36*
X123800900Y-50344750D02*
G01*
X123959650Y-50503500D01*
X124348797Y-50506492D01*
X124473457Y-50496204D01*
X124593715Y-50461794D01*
X124704949Y-50404584D01*
X124802885Y-50326772D01*
X124838100Y-50285222D01*
X124838099Y-53322199D01*
X124780199Y-53380100D01*
X124197520Y-53380100D01*
X124186774Y-53359997D01*
X124237625Y-53259937D01*
X124271452Y-53139514D01*
X124281136Y-53014805D01*
X124278200Y-52863750D01*
X124119450Y-52705000D01*
X123516200Y-52705000D01*
X123516200Y-52725000D01*
X123270200Y-52725000D01*
X123270200Y-52705000D01*
X123246200Y-52705000D01*
X123246200Y-52451000D01*
X123270200Y-52451000D01*
X123270200Y-51651750D01*
X123516200Y-51651750D01*
X123516200Y-52451000D01*
X124119450Y-52451000D01*
X124278200Y-52292250D01*
X124281136Y-52141195D01*
X124271452Y-52016486D01*
X124237625Y-51896063D01*
X124180955Y-51784553D01*
X124103619Y-51686242D01*
X124008589Y-51604907D01*
X123899518Y-51543674D01*
X123780597Y-51504896D01*
X123674950Y-51493000D01*
X123516200Y-51651750D01*
X123270200Y-51651750D01*
X123111450Y-51493000D01*
X123005803Y-51504896D01*
X122886882Y-51543674D01*
X122777811Y-51604907D01*
X122682781Y-51686242D01*
X122643305Y-51736425D01*
X122594385Y-51676815D01*
X122497694Y-51597463D01*
X122387380Y-51538498D01*
X122267682Y-51502188D01*
X122143200Y-51489928D01*
X121643200Y-51489928D01*
X121545876Y-51499513D01*
X121630705Y-51372558D01*
X121708726Y-51184200D01*
X121748500Y-50984241D01*
X121748500Y-50780363D01*
X121708726Y-50580404D01*
X121678144Y-50506572D01*
X122058900Y-50506572D01*
X122183382Y-50494312D01*
X122303080Y-50458002D01*
X122413394Y-50399037D01*
X122479639Y-50344671D01*
X122531149Y-50329046D01*
X122541949Y-50323273D01*
X122544915Y-50326772D01*
X122642851Y-50404584D01*
X122754085Y-50461794D01*
X122874343Y-50496204D01*
X122999003Y-50506492D01*
X123388150Y-50503500D01*
X123546900Y-50344750D01*
X123546900Y-49856572D01*
X123800900Y-49856572D01*
X123800900Y-50344750D01*
G37*
G04 #@! TD.AperFunction*
D26*
X117087700Y-49976202D02*
X117087700Y-50038339D01*
X117127474Y-50238298D01*
X117205495Y-50426656D01*
X117318763Y-50596174D01*
X117462926Y-50740337D01*
X117632444Y-50853605D01*
X117820802Y-50931626D01*
X117978073Y-50962909D01*
X117901100Y-50955328D01*
X117786850Y-50958400D01*
X117628100Y-51117150D01*
X117628100Y-51841400D01*
X118377350Y-51841400D01*
X118536100Y-51682650D01*
X118539172Y-51593400D01*
X118526912Y-51468918D01*
X118490602Y-51349220D01*
X118431637Y-51238906D01*
X118352285Y-51142215D01*
X118255594Y-51062863D01*
X118145280Y-51003898D01*
X118038148Y-50971400D01*
X118224639Y-50971400D01*
X118424598Y-50931626D01*
X118579900Y-50867297D01*
X118579901Y-52626340D01*
X118575906Y-52666900D01*
X118591845Y-52828726D01*
X118639047Y-52984333D01*
X118715701Y-53127742D01*
X118764826Y-53187600D01*
X117557339Y-53187600D01*
X117281744Y-52912006D01*
X117374100Y-52819650D01*
X117374100Y-52095400D01*
X117628100Y-52095400D01*
X117628100Y-52819650D01*
X117786850Y-52978400D01*
X117901100Y-52981472D01*
X118025582Y-52969212D01*
X118145280Y-52932902D01*
X118255594Y-52873937D01*
X118352285Y-52794585D01*
X118431637Y-52697894D01*
X118490602Y-52587580D01*
X118526912Y-52467882D01*
X118539172Y-52343400D01*
X118536100Y-52254150D01*
X118377350Y-52095400D01*
X117628100Y-52095400D01*
X117374100Y-52095400D01*
X117354100Y-52095400D01*
X117354100Y-51841400D01*
X117374100Y-51841400D01*
X117374100Y-51117150D01*
X117215350Y-50958400D01*
X117101100Y-50955328D01*
X116976618Y-50967588D01*
X116890100Y-50993833D01*
X116890100Y-49915859D01*
X116894400Y-49872199D01*
X116890100Y-49828534D01*
X116890100Y-49828533D01*
X116884645Y-49773147D01*
X117087700Y-49976202D01*
G04 #@! TA.AperFunction,Conductor*
D27*
G36*
X117087700Y-49976202D02*
G01*
X117087700Y-50038339D01*
X117127474Y-50238298D01*
X117205495Y-50426656D01*
X117318763Y-50596174D01*
X117462926Y-50740337D01*
X117632444Y-50853605D01*
X117820802Y-50931626D01*
X117978073Y-50962909D01*
X117901100Y-50955328D01*
X117786850Y-50958400D01*
X117628100Y-51117150D01*
X117628100Y-51841400D01*
X118377350Y-51841400D01*
X118536100Y-51682650D01*
X118539172Y-51593400D01*
X118526912Y-51468918D01*
X118490602Y-51349220D01*
X118431637Y-51238906D01*
X118352285Y-51142215D01*
X118255594Y-51062863D01*
X118145280Y-51003898D01*
X118038148Y-50971400D01*
X118224639Y-50971400D01*
X118424598Y-50931626D01*
X118579900Y-50867297D01*
X118579901Y-52626340D01*
X118575906Y-52666900D01*
X118591845Y-52828726D01*
X118639047Y-52984333D01*
X118715701Y-53127742D01*
X118764826Y-53187600D01*
X117557339Y-53187600D01*
X117281744Y-52912006D01*
X117374100Y-52819650D01*
X117374100Y-52095400D01*
X117628100Y-52095400D01*
X117628100Y-52819650D01*
X117786850Y-52978400D01*
X117901100Y-52981472D01*
X118025582Y-52969212D01*
X118145280Y-52932902D01*
X118255594Y-52873937D01*
X118352285Y-52794585D01*
X118431637Y-52697894D01*
X118490602Y-52587580D01*
X118526912Y-52467882D01*
X118539172Y-52343400D01*
X118536100Y-52254150D01*
X118377350Y-52095400D01*
X117628100Y-52095400D01*
X117374100Y-52095400D01*
X117354100Y-52095400D01*
X117354100Y-51841400D01*
X117374100Y-51841400D01*
X117374100Y-51117150D01*
X117215350Y-50958400D01*
X117101100Y-50955328D01*
X116976618Y-50967588D01*
X116890100Y-50993833D01*
X116890100Y-49915859D01*
X116894400Y-49872199D01*
X116890100Y-49828534D01*
X116890100Y-49828533D01*
X116884645Y-49773147D01*
X117087700Y-49976202D01*
G37*
G04 #@! TD.AperFunction*
D26*
X131811625Y-40015072D02*
X133698948Y-41706817D01*
X133731400Y-42015582D01*
X133731401Y-49857390D01*
X133628774Y-49754763D01*
X133459256Y-49641495D01*
X133270898Y-49563474D01*
X133070939Y-49523700D01*
X132867061Y-49523700D01*
X132667102Y-49563474D01*
X132478744Y-49641495D01*
X132309226Y-49754763D01*
X132165063Y-49898926D01*
X132141364Y-49934394D01*
X132134637Y-49924326D01*
X131990474Y-49780163D01*
X131820956Y-49666895D01*
X131632598Y-49588874D01*
X131432639Y-49549100D01*
X131228761Y-49549100D01*
X131028802Y-49588874D01*
X130840444Y-49666895D01*
X130670926Y-49780163D01*
X130543300Y-49907789D01*
X130503200Y-49867689D01*
X130503200Y-44931822D01*
X130506876Y-44894499D01*
X130503200Y-44857176D01*
X130503200Y-44857167D01*
X130492203Y-44745514D01*
X130448746Y-44602253D01*
X130378174Y-44470224D01*
X130340990Y-44424915D01*
X130306999Y-44383496D01*
X130306995Y-44383492D01*
X130283201Y-44354499D01*
X130254208Y-44330705D01*
X126776404Y-40852903D01*
X126752601Y-40823899D01*
X126636876Y-40728926D01*
X126504847Y-40658354D01*
X126361586Y-40614897D01*
X126249933Y-40603900D01*
X126249922Y-40603900D01*
X126212600Y-40600224D01*
X126175278Y-40603900D01*
X124134020Y-40603900D01*
X124110237Y-40559406D01*
X124030885Y-40462715D01*
X123934194Y-40383363D01*
X123823880Y-40324398D01*
X123704182Y-40288088D01*
X123579700Y-40275828D01*
X123079700Y-40275828D01*
X122955218Y-40288088D01*
X122835520Y-40324398D01*
X122725206Y-40383363D01*
X122628515Y-40462715D01*
X122579700Y-40522196D01*
X122530885Y-40462715D01*
X122434194Y-40383363D01*
X122323880Y-40324398D01*
X122204182Y-40288088D01*
X122079700Y-40275828D01*
X121579700Y-40275828D01*
X121455218Y-40288088D01*
X121335520Y-40324398D01*
X121225206Y-40383363D01*
X121128515Y-40462715D01*
X121049163Y-40559406D01*
X121025380Y-40603900D01*
X119365122Y-40603900D01*
X119327799Y-40600224D01*
X119290476Y-40603900D01*
X119290467Y-40603900D01*
X119178814Y-40614897D01*
X119035553Y-40658354D01*
X118903524Y-40728926D01*
X118787799Y-40823899D01*
X118764000Y-40852898D01*
X118763350Y-40853548D01*
X118387504Y-40477702D01*
X118363701Y-40448699D01*
X118247976Y-40353726D01*
X118115947Y-40283154D01*
X118081586Y-40272731D01*
X118052685Y-40237515D01*
X117955994Y-40158163D01*
X117845680Y-40099198D01*
X117725982Y-40062888D01*
X117601500Y-40050628D01*
X115951500Y-40050628D01*
X115827018Y-40062888D01*
X115707320Y-40099198D01*
X115597006Y-40158163D01*
X115500315Y-40237515D01*
X115420963Y-40334206D01*
X115361998Y-40444520D01*
X115325688Y-40564218D01*
X115313428Y-40688700D01*
X115313428Y-41888700D01*
X115325688Y-42013182D01*
X115361998Y-42132880D01*
X115420963Y-42243194D01*
X115500315Y-42339885D01*
X115597006Y-42419237D01*
X115707320Y-42478202D01*
X115827018Y-42514512D01*
X115951500Y-42526772D01*
X116526500Y-42526772D01*
X116650982Y-42514512D01*
X116770680Y-42478202D01*
X116776500Y-42475091D01*
X116782320Y-42478202D01*
X116902018Y-42514512D01*
X117026500Y-42526772D01*
X117601500Y-42526772D01*
X117725398Y-42514570D01*
X117751763Y-42563894D01*
X117831115Y-42660585D01*
X117890596Y-42709400D01*
X117831115Y-42758215D01*
X117820957Y-42770593D01*
X117717624Y-42825826D01*
X117717622Y-42825827D01*
X117717623Y-42825827D01*
X117630896Y-42897001D01*
X117630892Y-42897005D01*
X117601899Y-42920799D01*
X117578105Y-42949792D01*
X117177270Y-43350628D01*
X117026500Y-43350628D01*
X116902018Y-43362888D01*
X116782320Y-43399198D01*
X116776500Y-43402309D01*
X116770680Y-43399198D01*
X116650982Y-43362888D01*
X116526500Y-43350628D01*
X115951500Y-43350628D01*
X115827018Y-43362888D01*
X115707320Y-43399198D01*
X115597006Y-43458163D01*
X115500315Y-43537515D01*
X115420963Y-43634206D01*
X115361998Y-43744520D01*
X115325688Y-43864218D01*
X115313428Y-43988700D01*
X115313428Y-45188700D01*
X115325688Y-45313182D01*
X115361998Y-45432880D01*
X115420963Y-45543194D01*
X115500315Y-45639885D01*
X115597006Y-45719237D01*
X115707320Y-45778202D01*
X115827018Y-45814512D01*
X115951500Y-45826772D01*
X116187690Y-45826772D01*
X116187690Y-46561020D01*
X116141839Y-46551900D01*
X115937961Y-46551900D01*
X115738002Y-46591674D01*
X115549644Y-46669695D01*
X115507432Y-46697900D01*
X115366900Y-46697900D01*
X115366900Y-46017739D01*
X115353010Y-45876707D01*
X115298116Y-45695746D01*
X115208973Y-45528972D01*
X115089007Y-45382793D01*
X114942828Y-45262827D01*
X114776054Y-45173684D01*
X114595093Y-45118790D01*
X114406900Y-45100255D01*
X114218708Y-45118790D01*
X114037747Y-45173684D01*
X113870973Y-45262827D01*
X113724794Y-45382793D01*
X113604828Y-45528972D01*
X113515685Y-45695746D01*
X113460790Y-45876707D01*
X113446900Y-46017738D01*
X113446900Y-46067657D01*
X113429385Y-46046315D01*
X113332694Y-45966963D01*
X113222380Y-45907998D01*
X113102682Y-45871688D01*
X113001600Y-45861733D01*
X113043637Y-45783087D01*
X113102105Y-45590345D01*
X113121847Y-45389900D01*
X113102105Y-45189455D01*
X113043637Y-44996713D01*
X112948691Y-44819081D01*
X112820915Y-44663385D01*
X112665219Y-44535609D01*
X112487587Y-44440663D01*
X112294845Y-44382195D01*
X112144628Y-44367400D01*
X111269172Y-44367400D01*
X111118955Y-44382195D01*
X110926213Y-44440663D01*
X110921400Y-44443236D01*
X110921400Y-42031179D01*
X110951918Y-41719935D01*
X112856682Y-40012556D01*
X112932382Y-40004600D01*
X131704821Y-40004600D01*
X131811625Y-40015072D01*
G04 #@! TA.AperFunction,Conductor*
D27*
G36*
X131811625Y-40015072D02*
G01*
X133698948Y-41706817D01*
X133731400Y-42015582D01*
X133731401Y-49857390D01*
X133628774Y-49754763D01*
X133459256Y-49641495D01*
X133270898Y-49563474D01*
X133070939Y-49523700D01*
X132867061Y-49523700D01*
X132667102Y-49563474D01*
X132478744Y-49641495D01*
X132309226Y-49754763D01*
X132165063Y-49898926D01*
X132141364Y-49934394D01*
X132134637Y-49924326D01*
X131990474Y-49780163D01*
X131820956Y-49666895D01*
X131632598Y-49588874D01*
X131432639Y-49549100D01*
X131228761Y-49549100D01*
X131028802Y-49588874D01*
X130840444Y-49666895D01*
X130670926Y-49780163D01*
X130543300Y-49907789D01*
X130503200Y-49867689D01*
X130503200Y-44931822D01*
X130506876Y-44894499D01*
X130503200Y-44857176D01*
X130503200Y-44857167D01*
X130492203Y-44745514D01*
X130448746Y-44602253D01*
X130378174Y-44470224D01*
X130340990Y-44424915D01*
X130306999Y-44383496D01*
X130306995Y-44383492D01*
X130283201Y-44354499D01*
X130254208Y-44330705D01*
X126776404Y-40852903D01*
X126752601Y-40823899D01*
X126636876Y-40728926D01*
X126504847Y-40658354D01*
X126361586Y-40614897D01*
X126249933Y-40603900D01*
X126249922Y-40603900D01*
X126212600Y-40600224D01*
X126175278Y-40603900D01*
X124134020Y-40603900D01*
X124110237Y-40559406D01*
X124030885Y-40462715D01*
X123934194Y-40383363D01*
X123823880Y-40324398D01*
X123704182Y-40288088D01*
X123579700Y-40275828D01*
X123079700Y-40275828D01*
X122955218Y-40288088D01*
X122835520Y-40324398D01*
X122725206Y-40383363D01*
X122628515Y-40462715D01*
X122579700Y-40522196D01*
X122530885Y-40462715D01*
X122434194Y-40383363D01*
X122323880Y-40324398D01*
X122204182Y-40288088D01*
X122079700Y-40275828D01*
X121579700Y-40275828D01*
X121455218Y-40288088D01*
X121335520Y-40324398D01*
X121225206Y-40383363D01*
X121128515Y-40462715D01*
X121049163Y-40559406D01*
X121025380Y-40603900D01*
X119365122Y-40603900D01*
X119327799Y-40600224D01*
X119290476Y-40603900D01*
X119290467Y-40603900D01*
X119178814Y-40614897D01*
X119035553Y-40658354D01*
X118903524Y-40728926D01*
X118787799Y-40823899D01*
X118764000Y-40852898D01*
X118763350Y-40853548D01*
X118387504Y-40477702D01*
X118363701Y-40448699D01*
X118247976Y-40353726D01*
X118115947Y-40283154D01*
X118081586Y-40272731D01*
X118052685Y-40237515D01*
X117955994Y-40158163D01*
X117845680Y-40099198D01*
X117725982Y-40062888D01*
X117601500Y-40050628D01*
X115951500Y-40050628D01*
X115827018Y-40062888D01*
X115707320Y-40099198D01*
X115597006Y-40158163D01*
X115500315Y-40237515D01*
X115420963Y-40334206D01*
X115361998Y-40444520D01*
X115325688Y-40564218D01*
X115313428Y-40688700D01*
X115313428Y-41888700D01*
X115325688Y-42013182D01*
X115361998Y-42132880D01*
X115420963Y-42243194D01*
X115500315Y-42339885D01*
X115597006Y-42419237D01*
X115707320Y-42478202D01*
X115827018Y-42514512D01*
X115951500Y-42526772D01*
X116526500Y-42526772D01*
X116650982Y-42514512D01*
X116770680Y-42478202D01*
X116776500Y-42475091D01*
X116782320Y-42478202D01*
X116902018Y-42514512D01*
X117026500Y-42526772D01*
X117601500Y-42526772D01*
X117725398Y-42514570D01*
X117751763Y-42563894D01*
X117831115Y-42660585D01*
X117890596Y-42709400D01*
X117831115Y-42758215D01*
X117820957Y-42770593D01*
X117717624Y-42825826D01*
X117717622Y-42825827D01*
X117717623Y-42825827D01*
X117630896Y-42897001D01*
X117630892Y-42897005D01*
X117601899Y-42920799D01*
X117578105Y-42949792D01*
X117177270Y-43350628D01*
X117026500Y-43350628D01*
X116902018Y-43362888D01*
X116782320Y-43399198D01*
X116776500Y-43402309D01*
X116770680Y-43399198D01*
X116650982Y-43362888D01*
X116526500Y-43350628D01*
X115951500Y-43350628D01*
X115827018Y-43362888D01*
X115707320Y-43399198D01*
X115597006Y-43458163D01*
X115500315Y-43537515D01*
X115420963Y-43634206D01*
X115361998Y-43744520D01*
X115325688Y-43864218D01*
X115313428Y-43988700D01*
X115313428Y-45188700D01*
X115325688Y-45313182D01*
X115361998Y-45432880D01*
X115420963Y-45543194D01*
X115500315Y-45639885D01*
X115597006Y-45719237D01*
X115707320Y-45778202D01*
X115827018Y-45814512D01*
X115951500Y-45826772D01*
X116187690Y-45826772D01*
X116187690Y-46561020D01*
X116141839Y-46551900D01*
X115937961Y-46551900D01*
X115738002Y-46591674D01*
X115549644Y-46669695D01*
X115507432Y-46697900D01*
X115366900Y-46697900D01*
X115366900Y-46017739D01*
X115353010Y-45876707D01*
X115298116Y-45695746D01*
X115208973Y-45528972D01*
X115089007Y-45382793D01*
X114942828Y-45262827D01*
X114776054Y-45173684D01*
X114595093Y-45118790D01*
X114406900Y-45100255D01*
X114218708Y-45118790D01*
X114037747Y-45173684D01*
X113870973Y-45262827D01*
X113724794Y-45382793D01*
X113604828Y-45528972D01*
X113515685Y-45695746D01*
X113460790Y-45876707D01*
X113446900Y-46017738D01*
X113446900Y-46067657D01*
X113429385Y-46046315D01*
X113332694Y-45966963D01*
X113222380Y-45907998D01*
X113102682Y-45871688D01*
X113001600Y-45861733D01*
X113043637Y-45783087D01*
X113102105Y-45590345D01*
X113121847Y-45389900D01*
X113102105Y-45189455D01*
X113043637Y-44996713D01*
X112948691Y-44819081D01*
X112820915Y-44663385D01*
X112665219Y-44535609D01*
X112487587Y-44440663D01*
X112294845Y-44382195D01*
X112144628Y-44367400D01*
X111269172Y-44367400D01*
X111118955Y-44382195D01*
X110926213Y-44440663D01*
X110921400Y-44443236D01*
X110921400Y-42031179D01*
X110951918Y-41719935D01*
X112856682Y-40012556D01*
X112932382Y-40004600D01*
X131704821Y-40004600D01*
X131811625Y-40015072D01*
G37*
G04 #@! TD.AperFunction*
D26*
X121037863Y-45444994D02*
X121117215Y-45541685D01*
X121213906Y-45621037D01*
X121324220Y-45680002D01*
X121443918Y-45716312D01*
X121568400Y-45728572D01*
X122068400Y-45728572D01*
X122192882Y-45716312D01*
X122312580Y-45680002D01*
X122422894Y-45621037D01*
X122519585Y-45541685D01*
X122568400Y-45482204D01*
X122617215Y-45541685D01*
X122713906Y-45621037D01*
X122824220Y-45680002D01*
X122943918Y-45716312D01*
X123032555Y-45725042D01*
X122152897Y-46604700D01*
X122123899Y-46628498D01*
X122100101Y-46657496D01*
X122100100Y-46657497D01*
X122028925Y-46744223D01*
X122004228Y-46790428D01*
X120688900Y-46790428D01*
X120564418Y-46802688D01*
X120444720Y-46838998D01*
X120334406Y-46897963D01*
X120303733Y-46923136D01*
X120289914Y-46924497D01*
X120146653Y-46967954D01*
X120014624Y-47038526D01*
X119947764Y-47093396D01*
X119904882Y-47080388D01*
X119780400Y-47068128D01*
X119691150Y-47071200D01*
X119532400Y-47229950D01*
X119532400Y-47507209D01*
X119516731Y-47526302D01*
X119470427Y-47582723D01*
X119405163Y-47704822D01*
X119399855Y-47714753D01*
X119356398Y-47858014D01*
X119345401Y-47969667D01*
X119345401Y-47969677D01*
X119341725Y-48006999D01*
X119345401Y-48044321D01*
X119345401Y-48253200D01*
X119278400Y-48253200D01*
X119278400Y-48233200D01*
X119258400Y-48233200D01*
X119258400Y-47979200D01*
X119278400Y-47979200D01*
X119278400Y-47229950D01*
X119119650Y-47071200D01*
X119030400Y-47068128D01*
X118905918Y-47080388D01*
X118882700Y-47087431D01*
X118882700Y-47025401D01*
X120507603Y-45400500D01*
X121014080Y-45400500D01*
X121037863Y-45444994D01*
G04 #@! TA.AperFunction,Conductor*
D27*
G36*
X121037863Y-45444994D02*
G01*
X121117215Y-45541685D01*
X121213906Y-45621037D01*
X121324220Y-45680002D01*
X121443918Y-45716312D01*
X121568400Y-45728572D01*
X122068400Y-45728572D01*
X122192882Y-45716312D01*
X122312580Y-45680002D01*
X122422894Y-45621037D01*
X122519585Y-45541685D01*
X122568400Y-45482204D01*
X122617215Y-45541685D01*
X122713906Y-45621037D01*
X122824220Y-45680002D01*
X122943918Y-45716312D01*
X123032555Y-45725042D01*
X122152897Y-46604700D01*
X122123899Y-46628498D01*
X122100101Y-46657496D01*
X122100100Y-46657497D01*
X122028925Y-46744223D01*
X122004228Y-46790428D01*
X120688900Y-46790428D01*
X120564418Y-46802688D01*
X120444720Y-46838998D01*
X120334406Y-46897963D01*
X120303733Y-46923136D01*
X120289914Y-46924497D01*
X120146653Y-46967954D01*
X120014624Y-47038526D01*
X119947764Y-47093396D01*
X119904882Y-47080388D01*
X119780400Y-47068128D01*
X119691150Y-47071200D01*
X119532400Y-47229950D01*
X119532400Y-47507209D01*
X119516731Y-47526302D01*
X119470427Y-47582723D01*
X119405163Y-47704822D01*
X119399855Y-47714753D01*
X119356398Y-47858014D01*
X119345401Y-47969667D01*
X119345401Y-47969677D01*
X119341725Y-48006999D01*
X119345401Y-48044321D01*
X119345401Y-48253200D01*
X119278400Y-48253200D01*
X119278400Y-48233200D01*
X119258400Y-48233200D01*
X119258400Y-47979200D01*
X119278400Y-47979200D01*
X119278400Y-47229950D01*
X119119650Y-47071200D01*
X119030400Y-47068128D01*
X118905918Y-47080388D01*
X118882700Y-47087431D01*
X118882700Y-47025401D01*
X120507603Y-45400500D01*
X121014080Y-45400500D01*
X121037863Y-45444994D01*
G37*
G04 #@! TD.AperFunction*
D26*
X126674343Y-46685044D02*
X126652180Y-46673198D01*
X126532482Y-46636888D01*
X126408000Y-46624628D01*
X126293750Y-46627700D01*
X126135000Y-46786450D01*
X126135000Y-47510700D01*
X126155000Y-47510700D01*
X126155000Y-47764700D01*
X126135000Y-47764700D01*
X126135000Y-47784700D01*
X125881000Y-47784700D01*
X125881000Y-47764700D01*
X125861000Y-47764700D01*
X125861000Y-47510700D01*
X125881000Y-47510700D01*
X125881000Y-46786450D01*
X125722250Y-46627700D01*
X125608000Y-46624628D01*
X125483518Y-46636888D01*
X125363820Y-46673198D01*
X125253506Y-46732163D01*
X125156815Y-46811515D01*
X125077463Y-46908206D01*
X125018498Y-47018520D01*
X125015324Y-47028984D01*
X124901147Y-46967954D01*
X124757886Y-46924497D01*
X124744067Y-46923136D01*
X124713394Y-46897963D01*
X124603080Y-46838998D01*
X124483382Y-46802688D01*
X124358900Y-46790428D01*
X124116772Y-46790428D01*
X124693900Y-46213300D01*
X126202599Y-46213300D01*
X126674343Y-46685044D01*
G04 #@! TA.AperFunction,Conductor*
D27*
G36*
X126674343Y-46685044D02*
G01*
X126652180Y-46673198D01*
X126532482Y-46636888D01*
X126408000Y-46624628D01*
X126293750Y-46627700D01*
X126135000Y-46786450D01*
X126135000Y-47510700D01*
X126155000Y-47510700D01*
X126155000Y-47764700D01*
X126135000Y-47764700D01*
X126135000Y-47784700D01*
X125881000Y-47784700D01*
X125881000Y-47764700D01*
X125861000Y-47764700D01*
X125861000Y-47510700D01*
X125881000Y-47510700D01*
X125881000Y-46786450D01*
X125722250Y-46627700D01*
X125608000Y-46624628D01*
X125483518Y-46636888D01*
X125363820Y-46673198D01*
X125253506Y-46732163D01*
X125156815Y-46811515D01*
X125077463Y-46908206D01*
X125018498Y-47018520D01*
X125015324Y-47028984D01*
X124901147Y-46967954D01*
X124757886Y-46924497D01*
X124744067Y-46923136D01*
X124713394Y-46897963D01*
X124603080Y-46838998D01*
X124483382Y-46802688D01*
X124358900Y-46790428D01*
X124116772Y-46790428D01*
X124693900Y-46213300D01*
X126202599Y-46213300D01*
X126674343Y-46685044D01*
G37*
G04 #@! TD.AperFunction*
M02*
