G04 #@! TF.GenerationSoftware,KiCad,Pcbnew,(5.1.9)-1*
G04 #@! TF.CreationDate,2021-02-21T21:01:16-08:00*
G04 #@! TF.ProjectId,AnalogFaderV2,416e616c-6f67-4466-9164-657256322e6b,rev?*
G04 #@! TF.SameCoordinates,Original*
G04 #@! TF.FileFunction,Legend,Top*
G04 #@! TF.FilePolarity,Positive*
%FSLAX46Y46*%
G04 Gerber Fmt 4.6, Leading zero omitted, Abs format (unit mm)*
G04 Created by KiCad (PCBNEW (5.1.9)-1) date 2021-02-21 21:01:16*
%MOMM*%
%LPD*%
G01*
G04 APERTURE LIST*
%ADD10C,0.150000*%
%ADD11C,0.010000*%
%ADD12C,0.200000*%
%ADD13C,0.127000*%
G04 APERTURE END LIST*
D10*
X111475095Y-74499766D02*
X111951285Y-74499766D01*
X111379857Y-74785480D02*
X111713190Y-73785480D01*
X112046523Y-74785480D01*
X112379857Y-74118814D02*
X112379857Y-74785480D01*
X112379857Y-74214052D02*
X112427476Y-74166433D01*
X112522714Y-74118814D01*
X112665571Y-74118814D01*
X112760809Y-74166433D01*
X112808428Y-74261671D01*
X112808428Y-74785480D01*
X113713190Y-74785480D02*
X113713190Y-74261671D01*
X113665571Y-74166433D01*
X113570333Y-74118814D01*
X113379857Y-74118814D01*
X113284619Y-74166433D01*
X113713190Y-74737861D02*
X113617952Y-74785480D01*
X113379857Y-74785480D01*
X113284619Y-74737861D01*
X113237000Y-74642623D01*
X113237000Y-74547385D01*
X113284619Y-74452147D01*
X113379857Y-74404528D01*
X113617952Y-74404528D01*
X113713190Y-74356909D01*
X114332238Y-74785480D02*
X114237000Y-74737861D01*
X114189380Y-74642623D01*
X114189380Y-73785480D01*
X114856047Y-74785480D02*
X114760809Y-74737861D01*
X114713190Y-74690242D01*
X114665571Y-74595004D01*
X114665571Y-74309290D01*
X114713190Y-74214052D01*
X114760809Y-74166433D01*
X114856047Y-74118814D01*
X114998904Y-74118814D01*
X115094142Y-74166433D01*
X115141761Y-74214052D01*
X115189380Y-74309290D01*
X115189380Y-74595004D01*
X115141761Y-74690242D01*
X115094142Y-74737861D01*
X114998904Y-74785480D01*
X114856047Y-74785480D01*
X116046523Y-74118814D02*
X116046523Y-74928338D01*
X115998904Y-75023576D01*
X115951285Y-75071195D01*
X115856047Y-75118814D01*
X115713190Y-75118814D01*
X115617952Y-75071195D01*
X116046523Y-74737861D02*
X115951285Y-74785480D01*
X115760809Y-74785480D01*
X115665571Y-74737861D01*
X115617952Y-74690242D01*
X115570333Y-74595004D01*
X115570333Y-74309290D01*
X115617952Y-74214052D01*
X115665571Y-74166433D01*
X115760809Y-74118814D01*
X115951285Y-74118814D01*
X116046523Y-74166433D01*
X117617952Y-74261671D02*
X117284619Y-74261671D01*
X117284619Y-74785480D02*
X117284619Y-73785480D01*
X117760809Y-73785480D01*
X118570333Y-74785480D02*
X118570333Y-74261671D01*
X118522714Y-74166433D01*
X118427476Y-74118814D01*
X118237000Y-74118814D01*
X118141761Y-74166433D01*
X118570333Y-74737861D02*
X118475095Y-74785480D01*
X118237000Y-74785480D01*
X118141761Y-74737861D01*
X118094142Y-74642623D01*
X118094142Y-74547385D01*
X118141761Y-74452147D01*
X118237000Y-74404528D01*
X118475095Y-74404528D01*
X118570333Y-74356909D01*
X119475095Y-74785480D02*
X119475095Y-73785480D01*
X119475095Y-74737861D02*
X119379857Y-74785480D01*
X119189380Y-74785480D01*
X119094142Y-74737861D01*
X119046523Y-74690242D01*
X118998904Y-74595004D01*
X118998904Y-74309290D01*
X119046523Y-74214052D01*
X119094142Y-74166433D01*
X119189380Y-74118814D01*
X119379857Y-74118814D01*
X119475095Y-74166433D01*
X120332238Y-74737861D02*
X120237000Y-74785480D01*
X120046523Y-74785480D01*
X119951285Y-74737861D01*
X119903666Y-74642623D01*
X119903666Y-74261671D01*
X119951285Y-74166433D01*
X120046523Y-74118814D01*
X120237000Y-74118814D01*
X120332238Y-74166433D01*
X120379857Y-74261671D01*
X120379857Y-74356909D01*
X119903666Y-74452147D01*
X120808428Y-74785480D02*
X120808428Y-74118814D01*
X120808428Y-74309290D02*
X120856047Y-74214052D01*
X120903666Y-74166433D01*
X120998904Y-74118814D01*
X121094142Y-74118814D01*
X122046523Y-73785480D02*
X122379857Y-74785480D01*
X122713190Y-73785480D01*
X122998904Y-73880719D02*
X123046523Y-73833100D01*
X123141761Y-73785480D01*
X123379857Y-73785480D01*
X123475095Y-73833100D01*
X123522714Y-73880719D01*
X123570333Y-73975957D01*
X123570333Y-74071195D01*
X123522714Y-74214052D01*
X122951285Y-74785480D01*
X123570333Y-74785480D01*
X123998904Y-74690242D02*
X124046523Y-74737861D01*
X123998904Y-74785480D01*
X123951285Y-74737861D01*
X123998904Y-74690242D01*
X123998904Y-74785480D01*
X124665571Y-73785480D02*
X124760809Y-73785480D01*
X124856047Y-73833100D01*
X124903666Y-73880719D01*
X124951285Y-73975957D01*
X124998904Y-74166433D01*
X124998904Y-74404528D01*
X124951285Y-74595004D01*
X124903666Y-74690242D01*
X124856047Y-74737861D01*
X124760809Y-74785480D01*
X124665571Y-74785480D01*
X124570333Y-74737861D01*
X124522714Y-74690242D01*
X124475095Y-74595004D01*
X124427476Y-74404528D01*
X124427476Y-74166433D01*
X124475095Y-73975957D01*
X124522714Y-73880719D01*
X124570333Y-73833100D01*
X124665571Y-73785480D01*
D11*
G36*
X147702954Y-62876460D02*
G01*
X147702954Y-62876472D01*
X147702135Y-62878421D01*
X147699810Y-62883471D01*
X147696176Y-62891207D01*
X147691429Y-62901214D01*
X147685766Y-62913075D01*
X147679385Y-62926376D01*
X147674403Y-62936719D01*
X147629281Y-63031551D01*
X147583768Y-63129746D01*
X147538090Y-63230808D01*
X147492470Y-63334239D01*
X147447132Y-63439545D01*
X147442615Y-63450177D01*
X147431569Y-63476287D01*
X147421815Y-63499541D01*
X147413067Y-63520657D01*
X147405037Y-63540356D01*
X147397440Y-63559355D01*
X147389990Y-63578373D01*
X147382400Y-63598130D01*
X147374383Y-63619344D01*
X147365654Y-63642734D01*
X147362069Y-63652400D01*
X147352422Y-63677601D01*
X147342180Y-63702626D01*
X147331109Y-63727961D01*
X147318978Y-63754096D01*
X147305553Y-63781516D01*
X147290603Y-63810711D01*
X147273895Y-63842167D01*
X147255878Y-63875139D01*
X147207922Y-63958029D01*
X147156384Y-64039729D01*
X147101487Y-64119927D01*
X147043457Y-64198310D01*
X146982519Y-64274565D01*
X146918897Y-64348380D01*
X146901051Y-64368111D01*
X146891334Y-64378892D01*
X146883964Y-64387466D01*
X146878522Y-64394382D01*
X146874588Y-64400193D01*
X146871743Y-64405450D01*
X146870531Y-64408203D01*
X146862151Y-64424871D01*
X146851583Y-64438822D01*
X146838322Y-64450590D01*
X146821860Y-64460711D01*
X146819816Y-64461754D01*
X146814652Y-64464552D01*
X146809421Y-64467896D01*
X146803665Y-64472162D01*
X146796922Y-64477728D01*
X146788736Y-64484970D01*
X146778645Y-64494266D01*
X146767880Y-64504394D01*
X146756806Y-64514725D01*
X146745636Y-64524874D01*
X146734991Y-64534298D01*
X146725488Y-64542454D01*
X146717746Y-64548800D01*
X146713781Y-64551822D01*
X146706330Y-64557611D01*
X146697146Y-64565369D01*
X146687199Y-64574243D01*
X146677461Y-64583378D01*
X146673564Y-64587190D01*
X146664498Y-64595917D01*
X146655084Y-64604508D01*
X146646199Y-64612197D01*
X146638717Y-64618213D01*
X146635832Y-64620315D01*
X146629026Y-64625095D01*
X146620083Y-64631492D01*
X146609999Y-64638786D01*
X146599770Y-64646259D01*
X146596100Y-64648961D01*
X146570651Y-64667399D01*
X146545950Y-64684619D01*
X146522850Y-64700032D01*
X146512765Y-64706500D01*
X146493440Y-64718984D01*
X146476685Y-64730377D01*
X146462767Y-64740488D01*
X146451955Y-64749126D01*
X146448239Y-64752422D01*
X146437142Y-64762696D01*
X146444329Y-64763902D01*
X146453338Y-64765360D01*
X146465612Y-64767270D01*
X146480546Y-64769541D01*
X146497536Y-64772087D01*
X146515977Y-64774818D01*
X146535262Y-64777646D01*
X146554788Y-64780483D01*
X146573950Y-64783240D01*
X146592141Y-64785829D01*
X146608759Y-64788161D01*
X146623196Y-64790148D01*
X146632247Y-64791362D01*
X146668553Y-64796020D01*
X146701847Y-64799996D01*
X146732948Y-64803358D01*
X146762679Y-64806171D01*
X146791861Y-64808504D01*
X146821315Y-64810423D01*
X146851864Y-64811996D01*
X146884328Y-64813289D01*
X146910670Y-64814123D01*
X146931823Y-64814774D01*
X146949776Y-64815434D01*
X146965232Y-64816152D01*
X146978899Y-64816974D01*
X146991481Y-64817947D01*
X147003685Y-64819119D01*
X147016217Y-64820537D01*
X147026923Y-64821875D01*
X147120591Y-64833394D01*
X147211443Y-64843381D01*
X147300239Y-64851883D01*
X147387735Y-64858951D01*
X147474691Y-64864634D01*
X147561863Y-64868980D01*
X147650011Y-64872040D01*
X147739892Y-64873862D01*
X147832264Y-64874495D01*
X147837770Y-64874496D01*
X147906264Y-64874207D01*
X147971721Y-64873333D01*
X148034976Y-64871842D01*
X148096859Y-64869702D01*
X148158204Y-64866880D01*
X148219843Y-64863342D01*
X148282609Y-64859057D01*
X148336000Y-64854922D01*
X148376893Y-64851429D01*
X148418835Y-64847525D01*
X148461483Y-64843257D01*
X148504491Y-64838670D01*
X148547515Y-64833811D01*
X148590208Y-64828724D01*
X148632227Y-64823457D01*
X148673225Y-64818054D01*
X148712859Y-64812563D01*
X148750782Y-64807027D01*
X148786650Y-64801494D01*
X148820118Y-64796010D01*
X148850841Y-64790619D01*
X148878474Y-64785369D01*
X148902671Y-64780305D01*
X148910185Y-64778603D01*
X148943742Y-64771078D01*
X148978086Y-64763845D01*
X149012115Y-64757121D01*
X149044726Y-64751122D01*
X149074818Y-64746065D01*
X149077485Y-64745645D01*
X149091490Y-64743407D01*
X149106134Y-64740987D01*
X149120245Y-64738585D01*
X149132655Y-64736399D01*
X149140985Y-64734861D01*
X149153504Y-64732712D01*
X149163406Y-64731520D01*
X149170217Y-64731338D01*
X149171950Y-64731555D01*
X149178492Y-64732916D01*
X149169019Y-64739619D01*
X149158114Y-64747478D01*
X149144782Y-64757319D01*
X149129637Y-64768672D01*
X149113297Y-64781067D01*
X149096376Y-64794035D01*
X149079491Y-64807105D01*
X149063257Y-64819808D01*
X149048290Y-64831675D01*
X149047200Y-64832547D01*
X148969485Y-64896991D01*
X148894103Y-64964085D01*
X148820829Y-65034051D01*
X148749433Y-65107112D01*
X148679689Y-65183491D01*
X148631011Y-65239900D01*
X148611291Y-65262779D01*
X148589143Y-65287579D01*
X148565135Y-65313709D01*
X148539833Y-65340578D01*
X148513803Y-65367598D01*
X148487613Y-65394176D01*
X148461829Y-65419723D01*
X148437018Y-65443648D01*
X148420993Y-65458689D01*
X148346160Y-65525872D01*
X148270663Y-65589333D01*
X148194529Y-65649054D01*
X148117783Y-65705020D01*
X148040455Y-65757212D01*
X147962570Y-65805613D01*
X147884156Y-65850207D01*
X147805240Y-65890976D01*
X147725849Y-65927903D01*
X147646010Y-65960971D01*
X147596400Y-65979491D01*
X147557009Y-65993097D01*
X147515594Y-66006501D01*
X147473306Y-66019360D01*
X147431302Y-66031332D01*
X147390733Y-66042075D01*
X147362008Y-66049103D01*
X147350347Y-66052010D01*
X147336015Y-66055846D01*
X147320052Y-66060317D01*
X147303498Y-66065128D01*
X147287393Y-66069987D01*
X147279947Y-66072306D01*
X147190789Y-66099020D01*
X147102671Y-66122568D01*
X147015000Y-66143058D01*
X146927183Y-66160599D01*
X146838629Y-66175301D01*
X146748745Y-66187270D01*
X146656938Y-66196618D01*
X146567770Y-66203146D01*
X146550032Y-66204041D01*
X146529082Y-66204813D01*
X146505614Y-66205456D01*
X146480322Y-66205964D01*
X146453899Y-66206331D01*
X146427040Y-66206551D01*
X146400439Y-66206619D01*
X146374788Y-66206528D01*
X146350783Y-66206274D01*
X146329117Y-66205849D01*
X146311816Y-66205301D01*
X146223676Y-66200675D01*
X146138024Y-66193811D01*
X146054094Y-66184634D01*
X145971121Y-66173071D01*
X145958254Y-66171053D01*
X145918116Y-66164666D01*
X145895271Y-66169119D01*
X145851331Y-66179228D01*
X145807485Y-66192310D01*
X145764336Y-66208103D01*
X145722490Y-66226348D01*
X145682552Y-66246785D01*
X145645129Y-66269151D01*
X145616036Y-66289272D01*
X145602468Y-66299330D01*
X145606566Y-66305458D01*
X145614760Y-66320604D01*
X145620623Y-66337525D01*
X145623704Y-66354750D01*
X145624062Y-66362381D01*
X145624441Y-66368871D01*
X145625718Y-66376079D01*
X145628105Y-66384883D01*
X145631811Y-66396156D01*
X145633010Y-66399582D01*
X145652387Y-66459234D01*
X145669321Y-66521373D01*
X145683702Y-66585351D01*
X145695422Y-66650519D01*
X145704369Y-66716230D01*
X145710435Y-66781836D01*
X145713510Y-66846689D01*
X145713891Y-66877223D01*
X145712131Y-66947961D01*
X145706805Y-67019531D01*
X145698008Y-67091398D01*
X145685834Y-67163023D01*
X145670378Y-67233868D01*
X145651732Y-67303397D01*
X145629992Y-67371071D01*
X145624961Y-67385223D01*
X145620376Y-67397865D01*
X145616260Y-67409040D01*
X145612428Y-67419096D01*
X145608694Y-67428380D01*
X145604873Y-67437241D01*
X145600781Y-67446024D01*
X145596233Y-67455077D01*
X145591043Y-67464748D01*
X145585027Y-67475384D01*
X145577999Y-67487332D01*
X145569775Y-67500939D01*
X145560170Y-67516552D01*
X145548998Y-67534520D01*
X145536075Y-67555189D01*
X145525046Y-67572793D01*
X145498857Y-67614615D01*
X145474660Y-67653325D01*
X145452346Y-67689105D01*
X145431807Y-67722137D01*
X145412935Y-67752604D01*
X145395620Y-67780689D01*
X145379755Y-67806573D01*
X145365231Y-67830441D01*
X145351939Y-67852473D01*
X145339770Y-67872853D01*
X145328617Y-67891763D01*
X145318371Y-67909385D01*
X145308922Y-67925903D01*
X145300164Y-67941499D01*
X145291986Y-67956354D01*
X145284282Y-67970653D01*
X145276941Y-67984577D01*
X145269856Y-67998309D01*
X145262918Y-68012031D01*
X145257869Y-68022177D01*
X145247567Y-68043222D01*
X145238725Y-68061825D01*
X145230914Y-68078968D01*
X145223706Y-68095629D01*
X145216671Y-68112790D01*
X145209382Y-68131430D01*
X145204598Y-68144025D01*
X145185445Y-68199673D01*
X145168911Y-68257731D01*
X145155082Y-68317632D01*
X145144046Y-68378807D01*
X145135891Y-68440688D01*
X145130706Y-68502708D01*
X145128579Y-68564298D01*
X145129597Y-68624891D01*
X145129709Y-68627380D01*
X145130409Y-68642650D01*
X145131125Y-68658371D01*
X145131812Y-68673558D01*
X145132427Y-68687225D01*
X145132923Y-68698389D01*
X145133086Y-68702109D01*
X145132836Y-68740424D01*
X145128731Y-68778588D01*
X145120763Y-68816616D01*
X145108926Y-68854522D01*
X145093214Y-68892321D01*
X145073621Y-68930029D01*
X145050140Y-68967660D01*
X145022765Y-69005229D01*
X144991490Y-69042750D01*
X144985986Y-69048903D01*
X144943584Y-69094692D01*
X144902006Y-69137179D01*
X144860796Y-69176754D01*
X144819502Y-69213807D01*
X144777668Y-69248728D01*
X144734840Y-69281908D01*
X144690563Y-69313737D01*
X144644383Y-69344605D01*
X144633462Y-69351599D01*
X144618607Y-69361103D01*
X144604954Y-69369998D01*
X144591921Y-69378688D01*
X144578927Y-69387577D01*
X144565393Y-69397071D01*
X144550736Y-69407573D01*
X144534377Y-69419488D01*
X144515735Y-69433220D01*
X144507502Y-69439317D01*
X144487058Y-69454483D01*
X144469439Y-69467573D01*
X144454325Y-69478829D01*
X144441397Y-69488494D01*
X144430333Y-69496811D01*
X144420814Y-69504022D01*
X144412521Y-69510370D01*
X144405131Y-69516097D01*
X144398327Y-69521445D01*
X144391786Y-69526659D01*
X144385190Y-69531979D01*
X144384725Y-69532356D01*
X144370789Y-69543645D01*
X144359504Y-69552750D01*
X144350495Y-69559963D01*
X144343384Y-69565571D01*
X144337796Y-69569864D01*
X144333355Y-69573131D01*
X144329686Y-69575662D01*
X144326413Y-69577746D01*
X144323539Y-69579453D01*
X144316779Y-69583218D01*
X144312910Y-69584931D01*
X144311567Y-69584700D01*
X144312279Y-69582812D01*
X144314476Y-69579736D01*
X144318822Y-69574198D01*
X144324908Y-69566691D01*
X144332325Y-69557705D01*
X144340663Y-69547734D01*
X144349515Y-69537269D01*
X144358469Y-69526803D01*
X144367118Y-69516826D01*
X144367935Y-69515893D01*
X144377656Y-69505078D01*
X144389600Y-69492260D01*
X144403188Y-69478021D01*
X144417843Y-69462943D01*
X144432988Y-69447609D01*
X144448046Y-69432603D01*
X144462439Y-69418505D01*
X144475590Y-69405900D01*
X144486922Y-69395370D01*
X144490831Y-69391855D01*
X144503888Y-69379835D01*
X144519014Y-69365170D01*
X144535838Y-69348265D01*
X144553990Y-69329527D01*
X144573098Y-69309362D01*
X144592791Y-69288177D01*
X144612699Y-69266378D01*
X144632450Y-69244372D01*
X144651673Y-69222564D01*
X144669998Y-69201362D01*
X144687054Y-69181171D01*
X144702469Y-69162399D01*
X144715873Y-69145451D01*
X144716481Y-69144662D01*
X144750315Y-69097966D01*
X144782468Y-69048057D01*
X144812748Y-68995336D01*
X144840960Y-68940204D01*
X144866911Y-68883061D01*
X144890407Y-68824309D01*
X144911255Y-68764348D01*
X144929130Y-68704070D01*
X144932629Y-68690939D01*
X144936151Y-68677329D01*
X144939555Y-68663821D01*
X144942700Y-68651000D01*
X144945446Y-68639450D01*
X144947653Y-68629754D01*
X144949180Y-68622497D01*
X144949886Y-68618261D01*
X144949917Y-68617675D01*
X144949310Y-68618394D01*
X144947706Y-68622198D01*
X144945348Y-68628470D01*
X144942481Y-68636590D01*
X144942456Y-68636662D01*
X144926654Y-68677440D01*
X144908119Y-68715691D01*
X144886702Y-68751613D01*
X144862254Y-68785403D01*
X144834625Y-68817257D01*
X144803666Y-68847374D01*
X144769226Y-68875951D01*
X144750693Y-68889697D01*
X144733530Y-68901559D01*
X144715772Y-68912955D01*
X144696772Y-68924259D01*
X144675883Y-68935847D01*
X144652456Y-68948094D01*
X144632485Y-68958107D01*
X144568697Y-68991532D01*
X144504850Y-69028814D01*
X144441016Y-69069906D01*
X144377267Y-69114757D01*
X144313675Y-69163321D01*
X144250310Y-69215549D01*
X144247736Y-69217752D01*
X144233579Y-69229853D01*
X144218017Y-69243094D01*
X144201941Y-69256722D01*
X144186240Y-69269984D01*
X144171807Y-69282125D01*
X144160631Y-69291474D01*
X144147430Y-69302518D01*
X144135737Y-69312410D01*
X144124974Y-69321664D01*
X144114563Y-69330792D01*
X144103927Y-69340311D01*
X144092490Y-69350733D01*
X144079673Y-69362572D01*
X144064900Y-69376344D01*
X144056605Y-69384109D01*
X144045389Y-69394499D01*
X144034284Y-69404561D01*
X144023672Y-69413972D01*
X144013933Y-69422408D01*
X144005448Y-69429544D01*
X143998596Y-69435057D01*
X143993760Y-69438622D01*
X143991319Y-69439914D01*
X143991144Y-69439865D01*
X143991879Y-69437943D01*
X143994873Y-69433355D01*
X143999869Y-69426424D01*
X144006608Y-69417472D01*
X144014833Y-69406821D01*
X144024285Y-69394794D01*
X144034706Y-69381713D01*
X144045839Y-69367902D01*
X144057426Y-69353682D01*
X144069207Y-69339377D01*
X144080926Y-69325308D01*
X144092324Y-69311798D01*
X144103144Y-69299170D01*
X144110048Y-69291241D01*
X144125923Y-69273426D01*
X144144612Y-69252957D01*
X144166120Y-69229831D01*
X144190448Y-69204044D01*
X144217601Y-69175594D01*
X144247580Y-69144477D01*
X144280390Y-69110690D01*
X144316032Y-69074231D01*
X144354511Y-69035095D01*
X144392966Y-68996170D01*
X144404351Y-68984663D01*
X144414829Y-68974043D01*
X144424567Y-68964117D01*
X144433733Y-68954694D01*
X144442493Y-68945579D01*
X144451015Y-68936582D01*
X144459466Y-68927509D01*
X144468014Y-68918169D01*
X144476826Y-68908368D01*
X144486068Y-68897915D01*
X144495909Y-68886617D01*
X144506515Y-68874282D01*
X144518053Y-68860717D01*
X144530692Y-68845730D01*
X144544598Y-68829129D01*
X144559938Y-68810720D01*
X144576880Y-68790313D01*
X144595591Y-68767713D01*
X144616238Y-68742730D01*
X144638988Y-68715170D01*
X144664009Y-68684842D01*
X144671518Y-68675739D01*
X144687876Y-68654822D01*
X144705424Y-68630303D01*
X144718220Y-68611099D01*
X144950139Y-68611099D01*
X144950498Y-68613633D01*
X144951165Y-68613663D01*
X144951632Y-68611048D01*
X144951320Y-68609919D01*
X144950452Y-68609179D01*
X144950139Y-68611099D01*
X144718220Y-68611099D01*
X144723319Y-68603447D01*
X144951939Y-68603447D01*
X144952916Y-68604423D01*
X144953893Y-68603447D01*
X144952916Y-68602470D01*
X144951939Y-68603447D01*
X144723319Y-68603447D01*
X144724097Y-68602280D01*
X144743828Y-68570850D01*
X144753061Y-68555577D01*
X144793222Y-68485317D01*
X144829772Y-68414937D01*
X144862682Y-68344519D01*
X144891923Y-68274147D01*
X144917466Y-68203904D01*
X144939283Y-68133873D01*
X144957345Y-68064137D01*
X144971624Y-67994779D01*
X144982089Y-67925883D01*
X144987080Y-67878570D01*
X144987702Y-67869871D01*
X144988350Y-67858146D01*
X144988988Y-67844278D01*
X144989576Y-67829148D01*
X144990076Y-67813638D01*
X144990323Y-67804323D01*
X144990111Y-67733058D01*
X144986100Y-67661365D01*
X144978335Y-67589512D01*
X144966862Y-67517766D01*
X144951728Y-67446393D01*
X144932978Y-67375660D01*
X144910657Y-67305834D01*
X144898749Y-67272877D01*
X144890807Y-67253173D01*
X144880803Y-67230778D01*
X144868981Y-67206156D01*
X144855584Y-67179769D01*
X144840859Y-67152081D01*
X144825049Y-67123556D01*
X144808398Y-67094655D01*
X144791152Y-67065843D01*
X144779679Y-67047288D01*
X144768969Y-67030382D01*
X144758974Y-67015065D01*
X144749296Y-67000809D01*
X144739537Y-66987086D01*
X144729299Y-66973370D01*
X144718185Y-66959133D01*
X144705796Y-66943847D01*
X144691735Y-66926985D01*
X144675603Y-66908020D01*
X144667428Y-66898502D01*
X144657850Y-66887379D01*
X144646340Y-66874014D01*
X144633515Y-66859124D01*
X144619994Y-66843426D01*
X144606394Y-66827638D01*
X144593335Y-66812479D01*
X144587490Y-66805694D01*
X144564465Y-66778840D01*
X144543801Y-66754453D01*
X144525184Y-66732150D01*
X144508303Y-66711549D01*
X144492842Y-66692267D01*
X144478491Y-66673920D01*
X144464935Y-66656127D01*
X144461564Y-66651627D01*
X144432733Y-66611956D01*
X144406950Y-66574175D01*
X144384063Y-66537934D01*
X144363919Y-66502883D01*
X144346365Y-66468672D01*
X144331247Y-66434951D01*
X144318414Y-66401371D01*
X144307710Y-66367581D01*
X144298985Y-66333231D01*
X144292084Y-66297973D01*
X144286854Y-66261454D01*
X144285468Y-66249062D01*
X144284511Y-66236902D01*
X144283804Y-66221738D01*
X144283348Y-66204466D01*
X144283142Y-66185984D01*
X144283188Y-66167187D01*
X144283483Y-66148970D01*
X144284030Y-66132231D01*
X144284827Y-66117865D01*
X144285468Y-66110339D01*
X144293732Y-66048608D01*
X144305874Y-65987285D01*
X144321880Y-65926437D01*
X144332743Y-65891945D01*
X144336861Y-65880086D01*
X144342057Y-65865850D01*
X144347987Y-65850113D01*
X144354310Y-65833751D01*
X144360684Y-65817641D01*
X144366765Y-65802659D01*
X144372212Y-65789680D01*
X144376376Y-65780246D01*
X144379489Y-65772992D01*
X144381687Y-65766955D01*
X144382637Y-65763092D01*
X144382594Y-65762375D01*
X144380504Y-65760753D01*
X144375533Y-65758160D01*
X144368464Y-65754976D01*
X144361524Y-65752142D01*
X144325094Y-65739699D01*
X144287503Y-65730294D01*
X144249495Y-65724054D01*
X144211815Y-65721108D01*
X144181647Y-65721241D01*
X144163433Y-65722405D01*
X144144986Y-65724242D01*
X144126962Y-65726640D01*
X144110015Y-65729483D01*
X144094800Y-65732658D01*
X144081971Y-65736052D01*
X144072183Y-65739551D01*
X144069777Y-65740686D01*
X144063187Y-65743606D01*
X144055198Y-65746525D01*
X144051195Y-65747766D01*
X144046102Y-65749461D01*
X144041714Y-65751700D01*
X144037213Y-65755096D01*
X144031779Y-65760263D01*
X144024944Y-65767439D01*
X144003709Y-65788936D01*
X143981120Y-65809461D01*
X143957938Y-65828395D01*
X143934923Y-65845120D01*
X143912836Y-65859017D01*
X143911150Y-65859978D01*
X143902045Y-65864985D01*
X143892618Y-65869857D01*
X143882411Y-65874794D01*
X143870967Y-65879997D01*
X143857828Y-65885666D01*
X143842535Y-65892003D01*
X143824632Y-65899209D01*
X143803660Y-65907484D01*
X143796239Y-65910386D01*
X143771654Y-65920132D01*
X143750353Y-65928921D01*
X143731892Y-65936963D01*
X143715824Y-65944466D01*
X143701705Y-65951640D01*
X143689089Y-65958693D01*
X143677531Y-65965834D01*
X143676077Y-65966783D01*
X143651508Y-65984297D01*
X143629697Y-66002899D01*
X143610060Y-66023221D01*
X143592014Y-66045894D01*
X143574976Y-66071551D01*
X143567328Y-66084506D01*
X143562705Y-66092520D01*
X143558866Y-66099007D01*
X143556168Y-66103376D01*
X143554968Y-66105036D01*
X143554939Y-66105004D01*
X143555685Y-66102643D01*
X143557768Y-66097252D01*
X143560956Y-66089380D01*
X143565018Y-66079576D01*
X143569722Y-66068389D01*
X143574835Y-66056367D01*
X143580125Y-66044059D01*
X143585361Y-66032014D01*
X143590311Y-66020781D01*
X143594151Y-66012214D01*
X143627587Y-65942391D01*
X143664353Y-65873119D01*
X143704103Y-65804948D01*
X143746492Y-65738430D01*
X143791172Y-65674116D01*
X143837800Y-65612557D01*
X143868127Y-65575310D01*
X143887501Y-65552188D01*
X143889420Y-65537827D01*
X143890345Y-65527362D01*
X143889889Y-65517975D01*
X143888395Y-65509171D01*
X143883156Y-65474649D01*
X143881384Y-65439376D01*
X143883028Y-65403981D01*
X143888040Y-65369093D01*
X143896369Y-65335340D01*
X143903974Y-65313170D01*
X143918899Y-65279821D01*
X143937070Y-65248555D01*
X143958315Y-65219557D01*
X143982461Y-65193016D01*
X144009337Y-65169118D01*
X144038771Y-65148051D01*
X144070590Y-65130001D01*
X144073685Y-65128472D01*
X144101227Y-65116268D01*
X144128379Y-65106872D01*
X144156149Y-65100027D01*
X144185547Y-65095476D01*
X144211349Y-65093287D01*
X144224009Y-65092545D01*
X144237335Y-65091754D01*
X144249911Y-65090999D01*
X144260322Y-65090364D01*
X144262231Y-65090246D01*
X144291657Y-65090019D01*
X144322705Y-65092757D01*
X144354651Y-65098302D01*
X144386770Y-65106494D01*
X144418338Y-65117173D01*
X144448632Y-65130180D01*
X144452823Y-65132224D01*
X144478236Y-65145951D01*
X144499947Y-65160144D01*
X144518149Y-65174937D01*
X144527636Y-65184339D01*
X144536249Y-65194289D01*
X144544013Y-65204877D01*
X144551386Y-65216856D01*
X144558824Y-65230977D01*
X144566786Y-65247994D01*
X144568086Y-65250915D01*
X144577366Y-65271270D01*
X144585862Y-65288378D01*
X144593938Y-65302727D01*
X144601961Y-65314805D01*
X144610295Y-65325101D01*
X144619307Y-65334102D01*
X144629361Y-65342295D01*
X144640823Y-65350169D01*
X144643905Y-65352116D01*
X144657885Y-65360824D01*
X144672539Y-65359169D01*
X144682321Y-65357598D01*
X144692936Y-65355187D01*
X144700626Y-65352927D01*
X144706778Y-65350662D01*
X144711599Y-65348274D01*
X144715998Y-65345078D01*
X144720883Y-65340390D01*
X144727164Y-65333524D01*
X144728755Y-65331731D01*
X144757484Y-65296665D01*
X144783029Y-65260091D01*
X144805305Y-65222236D01*
X144824225Y-65183328D01*
X144839703Y-65143593D01*
X144851655Y-65103258D01*
X144859993Y-65062550D01*
X144864632Y-65021696D01*
X144865487Y-64980922D01*
X144865123Y-64971247D01*
X144864399Y-64957823D01*
X144863556Y-64945189D01*
X144862524Y-64932703D01*
X144861233Y-64919725D01*
X144859614Y-64905612D01*
X144857595Y-64889724D01*
X144855108Y-64871419D01*
X144852081Y-64850056D01*
X144851244Y-64844247D01*
X144847659Y-64819019D01*
X144844686Y-64797098D01*
X144842274Y-64777939D01*
X144840371Y-64760997D01*
X144838927Y-64745728D01*
X144837889Y-64731586D01*
X144837206Y-64718028D01*
X144836827Y-64704510D01*
X144836701Y-64690485D01*
X144836700Y-64690304D01*
X144836881Y-64669747D01*
X144837546Y-64651879D01*
X144838811Y-64635499D01*
X144840789Y-64619404D01*
X144843594Y-64602395D01*
X144846513Y-64587316D01*
X144857466Y-64542349D01*
X144871845Y-64498001D01*
X144889451Y-64454540D01*
X144910082Y-64412234D01*
X144933536Y-64371351D01*
X144959613Y-64332160D01*
X144988111Y-64294929D01*
X145018830Y-64259926D01*
X145051568Y-64227418D01*
X145086124Y-64197675D01*
X145122297Y-64170965D01*
X145159886Y-64147555D01*
X145187061Y-64133212D01*
X145208409Y-64123164D01*
X145227897Y-64114911D01*
X145246835Y-64107961D01*
X145266530Y-64101821D01*
X145280851Y-64097903D01*
X145294042Y-64094582D01*
X145306981Y-64091612D01*
X145320074Y-64088939D01*
X145333727Y-64086512D01*
X145348348Y-64084278D01*
X145364340Y-64082185D01*
X145382112Y-64080181D01*
X145402069Y-64078214D01*
X145424616Y-64076231D01*
X145450161Y-64074180D01*
X145479110Y-64072009D01*
X145486316Y-64071486D01*
X145514829Y-64069392D01*
X145539909Y-64067455D01*
X145562024Y-64065605D01*
X145581643Y-64063770D01*
X145599232Y-64061881D01*
X145615261Y-64059867D01*
X145630197Y-64057657D01*
X145644508Y-64055182D01*
X145658663Y-64052369D01*
X145673129Y-64049150D01*
X145688374Y-64045453D01*
X145704867Y-64041208D01*
X145723076Y-64036344D01*
X145727437Y-64035163D01*
X145751328Y-64028476D01*
X145778409Y-64020536D01*
X145808220Y-64011491D01*
X145840304Y-64001493D01*
X145874204Y-63990691D01*
X145909462Y-63979235D01*
X145945618Y-63967276D01*
X145982217Y-63954964D01*
X146018800Y-63942448D01*
X146054908Y-63929879D01*
X146090085Y-63917406D01*
X146123270Y-63905401D01*
X146207979Y-63872859D01*
X146293962Y-63836748D01*
X146381095Y-63797148D01*
X146469252Y-63754141D01*
X146558308Y-63707807D01*
X146648138Y-63658225D01*
X146738619Y-63605476D01*
X146829624Y-63549640D01*
X146921028Y-63490799D01*
X147012708Y-63429031D01*
X147104539Y-63364417D01*
X147196394Y-63297039D01*
X147288150Y-63226975D01*
X147379682Y-63154306D01*
X147470864Y-63079113D01*
X147561572Y-63001475D01*
X147648125Y-62924687D01*
X147662188Y-62911994D01*
X147673623Y-62901685D01*
X147682701Y-62893521D01*
X147689692Y-62887264D01*
X147694866Y-62882677D01*
X147698494Y-62879521D01*
X147700846Y-62877560D01*
X147702193Y-62876554D01*
X147702806Y-62876267D01*
X147702954Y-62876460D01*
G37*
X147702954Y-62876460D02*
X147702954Y-62876472D01*
X147702135Y-62878421D01*
X147699810Y-62883471D01*
X147696176Y-62891207D01*
X147691429Y-62901214D01*
X147685766Y-62913075D01*
X147679385Y-62926376D01*
X147674403Y-62936719D01*
X147629281Y-63031551D01*
X147583768Y-63129746D01*
X147538090Y-63230808D01*
X147492470Y-63334239D01*
X147447132Y-63439545D01*
X147442615Y-63450177D01*
X147431569Y-63476287D01*
X147421815Y-63499541D01*
X147413067Y-63520657D01*
X147405037Y-63540356D01*
X147397440Y-63559355D01*
X147389990Y-63578373D01*
X147382400Y-63598130D01*
X147374383Y-63619344D01*
X147365654Y-63642734D01*
X147362069Y-63652400D01*
X147352422Y-63677601D01*
X147342180Y-63702626D01*
X147331109Y-63727961D01*
X147318978Y-63754096D01*
X147305553Y-63781516D01*
X147290603Y-63810711D01*
X147273895Y-63842167D01*
X147255878Y-63875139D01*
X147207922Y-63958029D01*
X147156384Y-64039729D01*
X147101487Y-64119927D01*
X147043457Y-64198310D01*
X146982519Y-64274565D01*
X146918897Y-64348380D01*
X146901051Y-64368111D01*
X146891334Y-64378892D01*
X146883964Y-64387466D01*
X146878522Y-64394382D01*
X146874588Y-64400193D01*
X146871743Y-64405450D01*
X146870531Y-64408203D01*
X146862151Y-64424871D01*
X146851583Y-64438822D01*
X146838322Y-64450590D01*
X146821860Y-64460711D01*
X146819816Y-64461754D01*
X146814652Y-64464552D01*
X146809421Y-64467896D01*
X146803665Y-64472162D01*
X146796922Y-64477728D01*
X146788736Y-64484970D01*
X146778645Y-64494266D01*
X146767880Y-64504394D01*
X146756806Y-64514725D01*
X146745636Y-64524874D01*
X146734991Y-64534298D01*
X146725488Y-64542454D01*
X146717746Y-64548800D01*
X146713781Y-64551822D01*
X146706330Y-64557611D01*
X146697146Y-64565369D01*
X146687199Y-64574243D01*
X146677461Y-64583378D01*
X146673564Y-64587190D01*
X146664498Y-64595917D01*
X146655084Y-64604508D01*
X146646199Y-64612197D01*
X146638717Y-64618213D01*
X146635832Y-64620315D01*
X146629026Y-64625095D01*
X146620083Y-64631492D01*
X146609999Y-64638786D01*
X146599770Y-64646259D01*
X146596100Y-64648961D01*
X146570651Y-64667399D01*
X146545950Y-64684619D01*
X146522850Y-64700032D01*
X146512765Y-64706500D01*
X146493440Y-64718984D01*
X146476685Y-64730377D01*
X146462767Y-64740488D01*
X146451955Y-64749126D01*
X146448239Y-64752422D01*
X146437142Y-64762696D01*
X146444329Y-64763902D01*
X146453338Y-64765360D01*
X146465612Y-64767270D01*
X146480546Y-64769541D01*
X146497536Y-64772087D01*
X146515977Y-64774818D01*
X146535262Y-64777646D01*
X146554788Y-64780483D01*
X146573950Y-64783240D01*
X146592141Y-64785829D01*
X146608759Y-64788161D01*
X146623196Y-64790148D01*
X146632247Y-64791362D01*
X146668553Y-64796020D01*
X146701847Y-64799996D01*
X146732948Y-64803358D01*
X146762679Y-64806171D01*
X146791861Y-64808504D01*
X146821315Y-64810423D01*
X146851864Y-64811996D01*
X146884328Y-64813289D01*
X146910670Y-64814123D01*
X146931823Y-64814774D01*
X146949776Y-64815434D01*
X146965232Y-64816152D01*
X146978899Y-64816974D01*
X146991481Y-64817947D01*
X147003685Y-64819119D01*
X147016217Y-64820537D01*
X147026923Y-64821875D01*
X147120591Y-64833394D01*
X147211443Y-64843381D01*
X147300239Y-64851883D01*
X147387735Y-64858951D01*
X147474691Y-64864634D01*
X147561863Y-64868980D01*
X147650011Y-64872040D01*
X147739892Y-64873862D01*
X147832264Y-64874495D01*
X147837770Y-64874496D01*
X147906264Y-64874207D01*
X147971721Y-64873333D01*
X148034976Y-64871842D01*
X148096859Y-64869702D01*
X148158204Y-64866880D01*
X148219843Y-64863342D01*
X148282609Y-64859057D01*
X148336000Y-64854922D01*
X148376893Y-64851429D01*
X148418835Y-64847525D01*
X148461483Y-64843257D01*
X148504491Y-64838670D01*
X148547515Y-64833811D01*
X148590208Y-64828724D01*
X148632227Y-64823457D01*
X148673225Y-64818054D01*
X148712859Y-64812563D01*
X148750782Y-64807027D01*
X148786650Y-64801494D01*
X148820118Y-64796010D01*
X148850841Y-64790619D01*
X148878474Y-64785369D01*
X148902671Y-64780305D01*
X148910185Y-64778603D01*
X148943742Y-64771078D01*
X148978086Y-64763845D01*
X149012115Y-64757121D01*
X149044726Y-64751122D01*
X149074818Y-64746065D01*
X149077485Y-64745645D01*
X149091490Y-64743407D01*
X149106134Y-64740987D01*
X149120245Y-64738585D01*
X149132655Y-64736399D01*
X149140985Y-64734861D01*
X149153504Y-64732712D01*
X149163406Y-64731520D01*
X149170217Y-64731338D01*
X149171950Y-64731555D01*
X149178492Y-64732916D01*
X149169019Y-64739619D01*
X149158114Y-64747478D01*
X149144782Y-64757319D01*
X149129637Y-64768672D01*
X149113297Y-64781067D01*
X149096376Y-64794035D01*
X149079491Y-64807105D01*
X149063257Y-64819808D01*
X149048290Y-64831675D01*
X149047200Y-64832547D01*
X148969485Y-64896991D01*
X148894103Y-64964085D01*
X148820829Y-65034051D01*
X148749433Y-65107112D01*
X148679689Y-65183491D01*
X148631011Y-65239900D01*
X148611291Y-65262779D01*
X148589143Y-65287579D01*
X148565135Y-65313709D01*
X148539833Y-65340578D01*
X148513803Y-65367598D01*
X148487613Y-65394176D01*
X148461829Y-65419723D01*
X148437018Y-65443648D01*
X148420993Y-65458689D01*
X148346160Y-65525872D01*
X148270663Y-65589333D01*
X148194529Y-65649054D01*
X148117783Y-65705020D01*
X148040455Y-65757212D01*
X147962570Y-65805613D01*
X147884156Y-65850207D01*
X147805240Y-65890976D01*
X147725849Y-65927903D01*
X147646010Y-65960971D01*
X147596400Y-65979491D01*
X147557009Y-65993097D01*
X147515594Y-66006501D01*
X147473306Y-66019360D01*
X147431302Y-66031332D01*
X147390733Y-66042075D01*
X147362008Y-66049103D01*
X147350347Y-66052010D01*
X147336015Y-66055846D01*
X147320052Y-66060317D01*
X147303498Y-66065128D01*
X147287393Y-66069987D01*
X147279947Y-66072306D01*
X147190789Y-66099020D01*
X147102671Y-66122568D01*
X147015000Y-66143058D01*
X146927183Y-66160599D01*
X146838629Y-66175301D01*
X146748745Y-66187270D01*
X146656938Y-66196618D01*
X146567770Y-66203146D01*
X146550032Y-66204041D01*
X146529082Y-66204813D01*
X146505614Y-66205456D01*
X146480322Y-66205964D01*
X146453899Y-66206331D01*
X146427040Y-66206551D01*
X146400439Y-66206619D01*
X146374788Y-66206528D01*
X146350783Y-66206274D01*
X146329117Y-66205849D01*
X146311816Y-66205301D01*
X146223676Y-66200675D01*
X146138024Y-66193811D01*
X146054094Y-66184634D01*
X145971121Y-66173071D01*
X145958254Y-66171053D01*
X145918116Y-66164666D01*
X145895271Y-66169119D01*
X145851331Y-66179228D01*
X145807485Y-66192310D01*
X145764336Y-66208103D01*
X145722490Y-66226348D01*
X145682552Y-66246785D01*
X145645129Y-66269151D01*
X145616036Y-66289272D01*
X145602468Y-66299330D01*
X145606566Y-66305458D01*
X145614760Y-66320604D01*
X145620623Y-66337525D01*
X145623704Y-66354750D01*
X145624062Y-66362381D01*
X145624441Y-66368871D01*
X145625718Y-66376079D01*
X145628105Y-66384883D01*
X145631811Y-66396156D01*
X145633010Y-66399582D01*
X145652387Y-66459234D01*
X145669321Y-66521373D01*
X145683702Y-66585351D01*
X145695422Y-66650519D01*
X145704369Y-66716230D01*
X145710435Y-66781836D01*
X145713510Y-66846689D01*
X145713891Y-66877223D01*
X145712131Y-66947961D01*
X145706805Y-67019531D01*
X145698008Y-67091398D01*
X145685834Y-67163023D01*
X145670378Y-67233868D01*
X145651732Y-67303397D01*
X145629992Y-67371071D01*
X145624961Y-67385223D01*
X145620376Y-67397865D01*
X145616260Y-67409040D01*
X145612428Y-67419096D01*
X145608694Y-67428380D01*
X145604873Y-67437241D01*
X145600781Y-67446024D01*
X145596233Y-67455077D01*
X145591043Y-67464748D01*
X145585027Y-67475384D01*
X145577999Y-67487332D01*
X145569775Y-67500939D01*
X145560170Y-67516552D01*
X145548998Y-67534520D01*
X145536075Y-67555189D01*
X145525046Y-67572793D01*
X145498857Y-67614615D01*
X145474660Y-67653325D01*
X145452346Y-67689105D01*
X145431807Y-67722137D01*
X145412935Y-67752604D01*
X145395620Y-67780689D01*
X145379755Y-67806573D01*
X145365231Y-67830441D01*
X145351939Y-67852473D01*
X145339770Y-67872853D01*
X145328617Y-67891763D01*
X145318371Y-67909385D01*
X145308922Y-67925903D01*
X145300164Y-67941499D01*
X145291986Y-67956354D01*
X145284282Y-67970653D01*
X145276941Y-67984577D01*
X145269856Y-67998309D01*
X145262918Y-68012031D01*
X145257869Y-68022177D01*
X145247567Y-68043222D01*
X145238725Y-68061825D01*
X145230914Y-68078968D01*
X145223706Y-68095629D01*
X145216671Y-68112790D01*
X145209382Y-68131430D01*
X145204598Y-68144025D01*
X145185445Y-68199673D01*
X145168911Y-68257731D01*
X145155082Y-68317632D01*
X145144046Y-68378807D01*
X145135891Y-68440688D01*
X145130706Y-68502708D01*
X145128579Y-68564298D01*
X145129597Y-68624891D01*
X145129709Y-68627380D01*
X145130409Y-68642650D01*
X145131125Y-68658371D01*
X145131812Y-68673558D01*
X145132427Y-68687225D01*
X145132923Y-68698389D01*
X145133086Y-68702109D01*
X145132836Y-68740424D01*
X145128731Y-68778588D01*
X145120763Y-68816616D01*
X145108926Y-68854522D01*
X145093214Y-68892321D01*
X145073621Y-68930029D01*
X145050140Y-68967660D01*
X145022765Y-69005229D01*
X144991490Y-69042750D01*
X144985986Y-69048903D01*
X144943584Y-69094692D01*
X144902006Y-69137179D01*
X144860796Y-69176754D01*
X144819502Y-69213807D01*
X144777668Y-69248728D01*
X144734840Y-69281908D01*
X144690563Y-69313737D01*
X144644383Y-69344605D01*
X144633462Y-69351599D01*
X144618607Y-69361103D01*
X144604954Y-69369998D01*
X144591921Y-69378688D01*
X144578927Y-69387577D01*
X144565393Y-69397071D01*
X144550736Y-69407573D01*
X144534377Y-69419488D01*
X144515735Y-69433220D01*
X144507502Y-69439317D01*
X144487058Y-69454483D01*
X144469439Y-69467573D01*
X144454325Y-69478829D01*
X144441397Y-69488494D01*
X144430333Y-69496811D01*
X144420814Y-69504022D01*
X144412521Y-69510370D01*
X144405131Y-69516097D01*
X144398327Y-69521445D01*
X144391786Y-69526659D01*
X144385190Y-69531979D01*
X144384725Y-69532356D01*
X144370789Y-69543645D01*
X144359504Y-69552750D01*
X144350495Y-69559963D01*
X144343384Y-69565571D01*
X144337796Y-69569864D01*
X144333355Y-69573131D01*
X144329686Y-69575662D01*
X144326413Y-69577746D01*
X144323539Y-69579453D01*
X144316779Y-69583218D01*
X144312910Y-69584931D01*
X144311567Y-69584700D01*
X144312279Y-69582812D01*
X144314476Y-69579736D01*
X144318822Y-69574198D01*
X144324908Y-69566691D01*
X144332325Y-69557705D01*
X144340663Y-69547734D01*
X144349515Y-69537269D01*
X144358469Y-69526803D01*
X144367118Y-69516826D01*
X144367935Y-69515893D01*
X144377656Y-69505078D01*
X144389600Y-69492260D01*
X144403188Y-69478021D01*
X144417843Y-69462943D01*
X144432988Y-69447609D01*
X144448046Y-69432603D01*
X144462439Y-69418505D01*
X144475590Y-69405900D01*
X144486922Y-69395370D01*
X144490831Y-69391855D01*
X144503888Y-69379835D01*
X144519014Y-69365170D01*
X144535838Y-69348265D01*
X144553990Y-69329527D01*
X144573098Y-69309362D01*
X144592791Y-69288177D01*
X144612699Y-69266378D01*
X144632450Y-69244372D01*
X144651673Y-69222564D01*
X144669998Y-69201362D01*
X144687054Y-69181171D01*
X144702469Y-69162399D01*
X144715873Y-69145451D01*
X144716481Y-69144662D01*
X144750315Y-69097966D01*
X144782468Y-69048057D01*
X144812748Y-68995336D01*
X144840960Y-68940204D01*
X144866911Y-68883061D01*
X144890407Y-68824309D01*
X144911255Y-68764348D01*
X144929130Y-68704070D01*
X144932629Y-68690939D01*
X144936151Y-68677329D01*
X144939555Y-68663821D01*
X144942700Y-68651000D01*
X144945446Y-68639450D01*
X144947653Y-68629754D01*
X144949180Y-68622497D01*
X144949886Y-68618261D01*
X144949917Y-68617675D01*
X144949310Y-68618394D01*
X144947706Y-68622198D01*
X144945348Y-68628470D01*
X144942481Y-68636590D01*
X144942456Y-68636662D01*
X144926654Y-68677440D01*
X144908119Y-68715691D01*
X144886702Y-68751613D01*
X144862254Y-68785403D01*
X144834625Y-68817257D01*
X144803666Y-68847374D01*
X144769226Y-68875951D01*
X144750693Y-68889697D01*
X144733530Y-68901559D01*
X144715772Y-68912955D01*
X144696772Y-68924259D01*
X144675883Y-68935847D01*
X144652456Y-68948094D01*
X144632485Y-68958107D01*
X144568697Y-68991532D01*
X144504850Y-69028814D01*
X144441016Y-69069906D01*
X144377267Y-69114757D01*
X144313675Y-69163321D01*
X144250310Y-69215549D01*
X144247736Y-69217752D01*
X144233579Y-69229853D01*
X144218017Y-69243094D01*
X144201941Y-69256722D01*
X144186240Y-69269984D01*
X144171807Y-69282125D01*
X144160631Y-69291474D01*
X144147430Y-69302518D01*
X144135737Y-69312410D01*
X144124974Y-69321664D01*
X144114563Y-69330792D01*
X144103927Y-69340311D01*
X144092490Y-69350733D01*
X144079673Y-69362572D01*
X144064900Y-69376344D01*
X144056605Y-69384109D01*
X144045389Y-69394499D01*
X144034284Y-69404561D01*
X144023672Y-69413972D01*
X144013933Y-69422408D01*
X144005448Y-69429544D01*
X143998596Y-69435057D01*
X143993760Y-69438622D01*
X143991319Y-69439914D01*
X143991144Y-69439865D01*
X143991879Y-69437943D01*
X143994873Y-69433355D01*
X143999869Y-69426424D01*
X144006608Y-69417472D01*
X144014833Y-69406821D01*
X144024285Y-69394794D01*
X144034706Y-69381713D01*
X144045839Y-69367902D01*
X144057426Y-69353682D01*
X144069207Y-69339377D01*
X144080926Y-69325308D01*
X144092324Y-69311798D01*
X144103144Y-69299170D01*
X144110048Y-69291241D01*
X144125923Y-69273426D01*
X144144612Y-69252957D01*
X144166120Y-69229831D01*
X144190448Y-69204044D01*
X144217601Y-69175594D01*
X144247580Y-69144477D01*
X144280390Y-69110690D01*
X144316032Y-69074231D01*
X144354511Y-69035095D01*
X144392966Y-68996170D01*
X144404351Y-68984663D01*
X144414829Y-68974043D01*
X144424567Y-68964117D01*
X144433733Y-68954694D01*
X144442493Y-68945579D01*
X144451015Y-68936582D01*
X144459466Y-68927509D01*
X144468014Y-68918169D01*
X144476826Y-68908368D01*
X144486068Y-68897915D01*
X144495909Y-68886617D01*
X144506515Y-68874282D01*
X144518053Y-68860717D01*
X144530692Y-68845730D01*
X144544598Y-68829129D01*
X144559938Y-68810720D01*
X144576880Y-68790313D01*
X144595591Y-68767713D01*
X144616238Y-68742730D01*
X144638988Y-68715170D01*
X144664009Y-68684842D01*
X144671518Y-68675739D01*
X144687876Y-68654822D01*
X144705424Y-68630303D01*
X144718220Y-68611099D01*
X144950139Y-68611099D01*
X144950498Y-68613633D01*
X144951165Y-68613663D01*
X144951632Y-68611048D01*
X144951320Y-68609919D01*
X144950452Y-68609179D01*
X144950139Y-68611099D01*
X144718220Y-68611099D01*
X144723319Y-68603447D01*
X144951939Y-68603447D01*
X144952916Y-68604423D01*
X144953893Y-68603447D01*
X144952916Y-68602470D01*
X144951939Y-68603447D01*
X144723319Y-68603447D01*
X144724097Y-68602280D01*
X144743828Y-68570850D01*
X144753061Y-68555577D01*
X144793222Y-68485317D01*
X144829772Y-68414937D01*
X144862682Y-68344519D01*
X144891923Y-68274147D01*
X144917466Y-68203904D01*
X144939283Y-68133873D01*
X144957345Y-68064137D01*
X144971624Y-67994779D01*
X144982089Y-67925883D01*
X144987080Y-67878570D01*
X144987702Y-67869871D01*
X144988350Y-67858146D01*
X144988988Y-67844278D01*
X144989576Y-67829148D01*
X144990076Y-67813638D01*
X144990323Y-67804323D01*
X144990111Y-67733058D01*
X144986100Y-67661365D01*
X144978335Y-67589512D01*
X144966862Y-67517766D01*
X144951728Y-67446393D01*
X144932978Y-67375660D01*
X144910657Y-67305834D01*
X144898749Y-67272877D01*
X144890807Y-67253173D01*
X144880803Y-67230778D01*
X144868981Y-67206156D01*
X144855584Y-67179769D01*
X144840859Y-67152081D01*
X144825049Y-67123556D01*
X144808398Y-67094655D01*
X144791152Y-67065843D01*
X144779679Y-67047288D01*
X144768969Y-67030382D01*
X144758974Y-67015065D01*
X144749296Y-67000809D01*
X144739537Y-66987086D01*
X144729299Y-66973370D01*
X144718185Y-66959133D01*
X144705796Y-66943847D01*
X144691735Y-66926985D01*
X144675603Y-66908020D01*
X144667428Y-66898502D01*
X144657850Y-66887379D01*
X144646340Y-66874014D01*
X144633515Y-66859124D01*
X144619994Y-66843426D01*
X144606394Y-66827638D01*
X144593335Y-66812479D01*
X144587490Y-66805694D01*
X144564465Y-66778840D01*
X144543801Y-66754453D01*
X144525184Y-66732150D01*
X144508303Y-66711549D01*
X144492842Y-66692267D01*
X144478491Y-66673920D01*
X144464935Y-66656127D01*
X144461564Y-66651627D01*
X144432733Y-66611956D01*
X144406950Y-66574175D01*
X144384063Y-66537934D01*
X144363919Y-66502883D01*
X144346365Y-66468672D01*
X144331247Y-66434951D01*
X144318414Y-66401371D01*
X144307710Y-66367581D01*
X144298985Y-66333231D01*
X144292084Y-66297973D01*
X144286854Y-66261454D01*
X144285468Y-66249062D01*
X144284511Y-66236902D01*
X144283804Y-66221738D01*
X144283348Y-66204466D01*
X144283142Y-66185984D01*
X144283188Y-66167187D01*
X144283483Y-66148970D01*
X144284030Y-66132231D01*
X144284827Y-66117865D01*
X144285468Y-66110339D01*
X144293732Y-66048608D01*
X144305874Y-65987285D01*
X144321880Y-65926437D01*
X144332743Y-65891945D01*
X144336861Y-65880086D01*
X144342057Y-65865850D01*
X144347987Y-65850113D01*
X144354310Y-65833751D01*
X144360684Y-65817641D01*
X144366765Y-65802659D01*
X144372212Y-65789680D01*
X144376376Y-65780246D01*
X144379489Y-65772992D01*
X144381687Y-65766955D01*
X144382637Y-65763092D01*
X144382594Y-65762375D01*
X144380504Y-65760753D01*
X144375533Y-65758160D01*
X144368464Y-65754976D01*
X144361524Y-65752142D01*
X144325094Y-65739699D01*
X144287503Y-65730294D01*
X144249495Y-65724054D01*
X144211815Y-65721108D01*
X144181647Y-65721241D01*
X144163433Y-65722405D01*
X144144986Y-65724242D01*
X144126962Y-65726640D01*
X144110015Y-65729483D01*
X144094800Y-65732658D01*
X144081971Y-65736052D01*
X144072183Y-65739551D01*
X144069777Y-65740686D01*
X144063187Y-65743606D01*
X144055198Y-65746525D01*
X144051195Y-65747766D01*
X144046102Y-65749461D01*
X144041714Y-65751700D01*
X144037213Y-65755096D01*
X144031779Y-65760263D01*
X144024944Y-65767439D01*
X144003709Y-65788936D01*
X143981120Y-65809461D01*
X143957938Y-65828395D01*
X143934923Y-65845120D01*
X143912836Y-65859017D01*
X143911150Y-65859978D01*
X143902045Y-65864985D01*
X143892618Y-65869857D01*
X143882411Y-65874794D01*
X143870967Y-65879997D01*
X143857828Y-65885666D01*
X143842535Y-65892003D01*
X143824632Y-65899209D01*
X143803660Y-65907484D01*
X143796239Y-65910386D01*
X143771654Y-65920132D01*
X143750353Y-65928921D01*
X143731892Y-65936963D01*
X143715824Y-65944466D01*
X143701705Y-65951640D01*
X143689089Y-65958693D01*
X143677531Y-65965834D01*
X143676077Y-65966783D01*
X143651508Y-65984297D01*
X143629697Y-66002899D01*
X143610060Y-66023221D01*
X143592014Y-66045894D01*
X143574976Y-66071551D01*
X143567328Y-66084506D01*
X143562705Y-66092520D01*
X143558866Y-66099007D01*
X143556168Y-66103376D01*
X143554968Y-66105036D01*
X143554939Y-66105004D01*
X143555685Y-66102643D01*
X143557768Y-66097252D01*
X143560956Y-66089380D01*
X143565018Y-66079576D01*
X143569722Y-66068389D01*
X143574835Y-66056367D01*
X143580125Y-66044059D01*
X143585361Y-66032014D01*
X143590311Y-66020781D01*
X143594151Y-66012214D01*
X143627587Y-65942391D01*
X143664353Y-65873119D01*
X143704103Y-65804948D01*
X143746492Y-65738430D01*
X143791172Y-65674116D01*
X143837800Y-65612557D01*
X143868127Y-65575310D01*
X143887501Y-65552188D01*
X143889420Y-65537827D01*
X143890345Y-65527362D01*
X143889889Y-65517975D01*
X143888395Y-65509171D01*
X143883156Y-65474649D01*
X143881384Y-65439376D01*
X143883028Y-65403981D01*
X143888040Y-65369093D01*
X143896369Y-65335340D01*
X143903974Y-65313170D01*
X143918899Y-65279821D01*
X143937070Y-65248555D01*
X143958315Y-65219557D01*
X143982461Y-65193016D01*
X144009337Y-65169118D01*
X144038771Y-65148051D01*
X144070590Y-65130001D01*
X144073685Y-65128472D01*
X144101227Y-65116268D01*
X144128379Y-65106872D01*
X144156149Y-65100027D01*
X144185547Y-65095476D01*
X144211349Y-65093287D01*
X144224009Y-65092545D01*
X144237335Y-65091754D01*
X144249911Y-65090999D01*
X144260322Y-65090364D01*
X144262231Y-65090246D01*
X144291657Y-65090019D01*
X144322705Y-65092757D01*
X144354651Y-65098302D01*
X144386770Y-65106494D01*
X144418338Y-65117173D01*
X144448632Y-65130180D01*
X144452823Y-65132224D01*
X144478236Y-65145951D01*
X144499947Y-65160144D01*
X144518149Y-65174937D01*
X144527636Y-65184339D01*
X144536249Y-65194289D01*
X144544013Y-65204877D01*
X144551386Y-65216856D01*
X144558824Y-65230977D01*
X144566786Y-65247994D01*
X144568086Y-65250915D01*
X144577366Y-65271270D01*
X144585862Y-65288378D01*
X144593938Y-65302727D01*
X144601961Y-65314805D01*
X144610295Y-65325101D01*
X144619307Y-65334102D01*
X144629361Y-65342295D01*
X144640823Y-65350169D01*
X144643905Y-65352116D01*
X144657885Y-65360824D01*
X144672539Y-65359169D01*
X144682321Y-65357598D01*
X144692936Y-65355187D01*
X144700626Y-65352927D01*
X144706778Y-65350662D01*
X144711599Y-65348274D01*
X144715998Y-65345078D01*
X144720883Y-65340390D01*
X144727164Y-65333524D01*
X144728755Y-65331731D01*
X144757484Y-65296665D01*
X144783029Y-65260091D01*
X144805305Y-65222236D01*
X144824225Y-65183328D01*
X144839703Y-65143593D01*
X144851655Y-65103258D01*
X144859993Y-65062550D01*
X144864632Y-65021696D01*
X144865487Y-64980922D01*
X144865123Y-64971247D01*
X144864399Y-64957823D01*
X144863556Y-64945189D01*
X144862524Y-64932703D01*
X144861233Y-64919725D01*
X144859614Y-64905612D01*
X144857595Y-64889724D01*
X144855108Y-64871419D01*
X144852081Y-64850056D01*
X144851244Y-64844247D01*
X144847659Y-64819019D01*
X144844686Y-64797098D01*
X144842274Y-64777939D01*
X144840371Y-64760997D01*
X144838927Y-64745728D01*
X144837889Y-64731586D01*
X144837206Y-64718028D01*
X144836827Y-64704510D01*
X144836701Y-64690485D01*
X144836700Y-64690304D01*
X144836881Y-64669747D01*
X144837546Y-64651879D01*
X144838811Y-64635499D01*
X144840789Y-64619404D01*
X144843594Y-64602395D01*
X144846513Y-64587316D01*
X144857466Y-64542349D01*
X144871845Y-64498001D01*
X144889451Y-64454540D01*
X144910082Y-64412234D01*
X144933536Y-64371351D01*
X144959613Y-64332160D01*
X144988111Y-64294929D01*
X145018830Y-64259926D01*
X145051568Y-64227418D01*
X145086124Y-64197675D01*
X145122297Y-64170965D01*
X145159886Y-64147555D01*
X145187061Y-64133212D01*
X145208409Y-64123164D01*
X145227897Y-64114911D01*
X145246835Y-64107961D01*
X145266530Y-64101821D01*
X145280851Y-64097903D01*
X145294042Y-64094582D01*
X145306981Y-64091612D01*
X145320074Y-64088939D01*
X145333727Y-64086512D01*
X145348348Y-64084278D01*
X145364340Y-64082185D01*
X145382112Y-64080181D01*
X145402069Y-64078214D01*
X145424616Y-64076231D01*
X145450161Y-64074180D01*
X145479110Y-64072009D01*
X145486316Y-64071486D01*
X145514829Y-64069392D01*
X145539909Y-64067455D01*
X145562024Y-64065605D01*
X145581643Y-64063770D01*
X145599232Y-64061881D01*
X145615261Y-64059867D01*
X145630197Y-64057657D01*
X145644508Y-64055182D01*
X145658663Y-64052369D01*
X145673129Y-64049150D01*
X145688374Y-64045453D01*
X145704867Y-64041208D01*
X145723076Y-64036344D01*
X145727437Y-64035163D01*
X145751328Y-64028476D01*
X145778409Y-64020536D01*
X145808220Y-64011491D01*
X145840304Y-64001493D01*
X145874204Y-63990691D01*
X145909462Y-63979235D01*
X145945618Y-63967276D01*
X145982217Y-63954964D01*
X146018800Y-63942448D01*
X146054908Y-63929879D01*
X146090085Y-63917406D01*
X146123270Y-63905401D01*
X146207979Y-63872859D01*
X146293962Y-63836748D01*
X146381095Y-63797148D01*
X146469252Y-63754141D01*
X146558308Y-63707807D01*
X146648138Y-63658225D01*
X146738619Y-63605476D01*
X146829624Y-63549640D01*
X146921028Y-63490799D01*
X147012708Y-63429031D01*
X147104539Y-63364417D01*
X147196394Y-63297039D01*
X147288150Y-63226975D01*
X147379682Y-63154306D01*
X147470864Y-63079113D01*
X147561572Y-63001475D01*
X147648125Y-62924687D01*
X147662188Y-62911994D01*
X147673623Y-62901685D01*
X147682701Y-62893521D01*
X147689692Y-62887264D01*
X147694866Y-62882677D01*
X147698494Y-62879521D01*
X147700846Y-62877560D01*
X147702193Y-62876554D01*
X147702806Y-62876267D01*
X147702954Y-62876460D01*
G36*
X143553765Y-66110995D02*
G01*
X143552457Y-66115222D01*
X143550811Y-66119620D01*
X143547970Y-66126975D01*
X143544618Y-66135933D01*
X143541841Y-66143554D01*
X143539212Y-66150481D01*
X143536840Y-66156011D01*
X143535198Y-66159051D01*
X143535084Y-66159185D01*
X143534868Y-66158368D01*
X143535812Y-66154572D01*
X143537726Y-66148485D01*
X143539187Y-66144231D01*
X143543456Y-66132464D01*
X143547265Y-66122636D01*
X143550419Y-66115209D01*
X143552723Y-66110645D01*
X143553864Y-66109362D01*
X143553765Y-66110995D01*
G37*
X143553765Y-66110995D02*
X143552457Y-66115222D01*
X143550811Y-66119620D01*
X143547970Y-66126975D01*
X143544618Y-66135933D01*
X143541841Y-66143554D01*
X143539212Y-66150481D01*
X143536840Y-66156011D01*
X143535198Y-66159051D01*
X143535084Y-66159185D01*
X143534868Y-66158368D01*
X143535812Y-66154572D01*
X143537726Y-66148485D01*
X143539187Y-66144231D01*
X143543456Y-66132464D01*
X143547265Y-66122636D01*
X143550419Y-66115209D01*
X143552723Y-66110645D01*
X143553864Y-66109362D01*
X143553765Y-66110995D01*
G36*
X115677265Y-60446795D02*
G01*
X115675957Y-60451022D01*
X115674311Y-60455420D01*
X115671470Y-60462775D01*
X115668118Y-60471733D01*
X115665341Y-60479354D01*
X115662712Y-60486281D01*
X115660340Y-60491811D01*
X115658698Y-60494851D01*
X115658584Y-60494985D01*
X115658368Y-60494168D01*
X115659312Y-60490372D01*
X115661226Y-60484285D01*
X115662687Y-60480031D01*
X115666956Y-60468264D01*
X115670765Y-60458436D01*
X115673919Y-60451009D01*
X115676223Y-60446445D01*
X115677364Y-60445162D01*
X115677265Y-60446795D01*
G37*
X115677265Y-60446795D02*
X115675957Y-60451022D01*
X115674311Y-60455420D01*
X115671470Y-60462775D01*
X115668118Y-60471733D01*
X115665341Y-60479354D01*
X115662712Y-60486281D01*
X115660340Y-60491811D01*
X115658698Y-60494851D01*
X115658584Y-60494985D01*
X115658368Y-60494168D01*
X115659312Y-60490372D01*
X115661226Y-60484285D01*
X115662687Y-60480031D01*
X115666956Y-60468264D01*
X115670765Y-60458436D01*
X115673919Y-60451009D01*
X115676223Y-60446445D01*
X115677364Y-60445162D01*
X115677265Y-60446795D01*
G36*
X119826454Y-57212260D02*
G01*
X119826454Y-57212272D01*
X119825635Y-57214221D01*
X119823310Y-57219271D01*
X119819676Y-57227007D01*
X119814929Y-57237014D01*
X119809266Y-57248875D01*
X119802885Y-57262176D01*
X119797903Y-57272519D01*
X119752781Y-57367351D01*
X119707268Y-57465546D01*
X119661590Y-57566608D01*
X119615970Y-57670039D01*
X119570632Y-57775345D01*
X119566115Y-57785977D01*
X119555069Y-57812087D01*
X119545315Y-57835341D01*
X119536567Y-57856457D01*
X119528537Y-57876156D01*
X119520940Y-57895155D01*
X119513490Y-57914173D01*
X119505900Y-57933930D01*
X119497883Y-57955144D01*
X119489154Y-57978534D01*
X119485569Y-57988200D01*
X119475922Y-58013401D01*
X119465680Y-58038426D01*
X119454609Y-58063761D01*
X119442478Y-58089896D01*
X119429053Y-58117316D01*
X119414103Y-58146511D01*
X119397395Y-58177967D01*
X119379378Y-58210939D01*
X119331422Y-58293829D01*
X119279884Y-58375529D01*
X119224987Y-58455727D01*
X119166957Y-58534110D01*
X119106019Y-58610365D01*
X119042397Y-58684180D01*
X119024551Y-58703911D01*
X119014834Y-58714692D01*
X119007464Y-58723266D01*
X119002022Y-58730182D01*
X118998088Y-58735993D01*
X118995243Y-58741250D01*
X118994031Y-58744003D01*
X118985651Y-58760671D01*
X118975083Y-58774622D01*
X118961822Y-58786390D01*
X118945360Y-58796511D01*
X118943316Y-58797554D01*
X118938152Y-58800352D01*
X118932921Y-58803696D01*
X118927165Y-58807962D01*
X118920422Y-58813528D01*
X118912236Y-58820770D01*
X118902145Y-58830066D01*
X118891380Y-58840194D01*
X118880306Y-58850525D01*
X118869136Y-58860674D01*
X118858491Y-58870098D01*
X118848988Y-58878254D01*
X118841246Y-58884600D01*
X118837281Y-58887622D01*
X118829830Y-58893411D01*
X118820646Y-58901169D01*
X118810699Y-58910043D01*
X118800961Y-58919178D01*
X118797064Y-58922990D01*
X118787998Y-58931717D01*
X118778584Y-58940308D01*
X118769699Y-58947997D01*
X118762217Y-58954013D01*
X118759332Y-58956115D01*
X118752526Y-58960895D01*
X118743583Y-58967292D01*
X118733499Y-58974586D01*
X118723270Y-58982059D01*
X118719600Y-58984761D01*
X118694151Y-59003199D01*
X118669450Y-59020419D01*
X118646350Y-59035832D01*
X118636265Y-59042300D01*
X118616940Y-59054784D01*
X118600185Y-59066177D01*
X118586267Y-59076288D01*
X118575455Y-59084926D01*
X118571739Y-59088222D01*
X118560642Y-59098496D01*
X118567829Y-59099702D01*
X118576838Y-59101160D01*
X118589112Y-59103070D01*
X118604046Y-59105341D01*
X118621036Y-59107887D01*
X118639477Y-59110618D01*
X118658762Y-59113446D01*
X118678288Y-59116283D01*
X118697450Y-59119040D01*
X118715641Y-59121629D01*
X118732259Y-59123961D01*
X118746696Y-59125948D01*
X118755747Y-59127162D01*
X118792053Y-59131820D01*
X118825347Y-59135796D01*
X118856448Y-59139158D01*
X118886179Y-59141971D01*
X118915361Y-59144304D01*
X118944815Y-59146223D01*
X118975364Y-59147796D01*
X119007828Y-59149089D01*
X119034170Y-59149923D01*
X119055323Y-59150574D01*
X119073276Y-59151234D01*
X119088732Y-59151952D01*
X119102399Y-59152774D01*
X119114981Y-59153747D01*
X119127185Y-59154919D01*
X119139717Y-59156337D01*
X119150423Y-59157675D01*
X119244091Y-59169194D01*
X119334943Y-59179181D01*
X119423739Y-59187683D01*
X119511235Y-59194751D01*
X119598191Y-59200434D01*
X119685363Y-59204780D01*
X119773511Y-59207840D01*
X119863392Y-59209662D01*
X119955764Y-59210295D01*
X119961270Y-59210296D01*
X120029764Y-59210007D01*
X120095221Y-59209133D01*
X120158476Y-59207642D01*
X120220359Y-59205502D01*
X120281704Y-59202680D01*
X120343343Y-59199142D01*
X120406109Y-59194857D01*
X120459500Y-59190722D01*
X120500393Y-59187229D01*
X120542335Y-59183325D01*
X120584983Y-59179057D01*
X120627991Y-59174470D01*
X120671015Y-59169611D01*
X120713708Y-59164524D01*
X120755727Y-59159257D01*
X120796725Y-59153854D01*
X120836359Y-59148363D01*
X120874282Y-59142827D01*
X120910150Y-59137294D01*
X120943618Y-59131810D01*
X120974341Y-59126419D01*
X121001974Y-59121169D01*
X121026171Y-59116105D01*
X121033685Y-59114403D01*
X121067242Y-59106878D01*
X121101586Y-59099645D01*
X121135615Y-59092921D01*
X121168226Y-59086922D01*
X121198318Y-59081865D01*
X121200985Y-59081445D01*
X121214990Y-59079207D01*
X121229634Y-59076787D01*
X121243745Y-59074385D01*
X121256155Y-59072199D01*
X121264485Y-59070661D01*
X121277004Y-59068512D01*
X121286906Y-59067320D01*
X121293717Y-59067138D01*
X121295450Y-59067355D01*
X121301992Y-59068716D01*
X121292519Y-59075419D01*
X121281614Y-59083278D01*
X121268282Y-59093119D01*
X121253137Y-59104472D01*
X121236797Y-59116867D01*
X121219876Y-59129835D01*
X121202991Y-59142905D01*
X121186757Y-59155608D01*
X121171790Y-59167475D01*
X121170700Y-59168347D01*
X121092985Y-59232791D01*
X121017603Y-59299885D01*
X120944329Y-59369851D01*
X120872933Y-59442912D01*
X120803189Y-59519291D01*
X120754511Y-59575700D01*
X120734791Y-59598579D01*
X120712643Y-59623379D01*
X120688635Y-59649509D01*
X120663333Y-59676378D01*
X120637303Y-59703398D01*
X120611113Y-59729976D01*
X120585329Y-59755523D01*
X120560518Y-59779448D01*
X120544493Y-59794489D01*
X120469660Y-59861672D01*
X120394163Y-59925133D01*
X120318029Y-59984854D01*
X120241283Y-60040820D01*
X120163955Y-60093012D01*
X120086070Y-60141413D01*
X120007656Y-60186007D01*
X119928740Y-60226776D01*
X119849349Y-60263703D01*
X119769510Y-60296771D01*
X119719900Y-60315291D01*
X119680509Y-60328897D01*
X119639094Y-60342301D01*
X119596806Y-60355160D01*
X119554802Y-60367132D01*
X119514233Y-60377875D01*
X119485508Y-60384903D01*
X119473847Y-60387810D01*
X119459515Y-60391646D01*
X119443552Y-60396117D01*
X119426998Y-60400928D01*
X119410893Y-60405787D01*
X119403447Y-60408106D01*
X119314289Y-60434820D01*
X119226171Y-60458368D01*
X119138500Y-60478858D01*
X119050683Y-60496399D01*
X118962129Y-60511101D01*
X118872245Y-60523070D01*
X118780438Y-60532418D01*
X118691270Y-60538946D01*
X118673532Y-60539841D01*
X118652582Y-60540613D01*
X118629114Y-60541256D01*
X118603822Y-60541764D01*
X118577399Y-60542131D01*
X118550540Y-60542351D01*
X118523939Y-60542419D01*
X118498288Y-60542328D01*
X118474283Y-60542074D01*
X118452617Y-60541649D01*
X118435316Y-60541101D01*
X118347176Y-60536475D01*
X118261524Y-60529611D01*
X118177594Y-60520434D01*
X118094621Y-60508871D01*
X118081754Y-60506853D01*
X118041616Y-60500466D01*
X118018771Y-60504919D01*
X117974831Y-60515028D01*
X117930985Y-60528110D01*
X117887836Y-60543903D01*
X117845990Y-60562148D01*
X117806052Y-60582585D01*
X117768629Y-60604951D01*
X117739536Y-60625072D01*
X117725968Y-60635130D01*
X117730066Y-60641258D01*
X117738260Y-60656404D01*
X117744123Y-60673325D01*
X117747204Y-60690550D01*
X117747562Y-60698181D01*
X117747941Y-60704671D01*
X117749218Y-60711879D01*
X117751605Y-60720683D01*
X117755311Y-60731956D01*
X117756510Y-60735382D01*
X117775887Y-60795034D01*
X117792821Y-60857173D01*
X117807202Y-60921151D01*
X117818922Y-60986319D01*
X117827869Y-61052030D01*
X117833935Y-61117636D01*
X117837010Y-61182489D01*
X117837391Y-61213023D01*
X117835631Y-61283761D01*
X117830305Y-61355331D01*
X117821508Y-61427198D01*
X117809334Y-61498823D01*
X117793878Y-61569668D01*
X117775232Y-61639197D01*
X117753492Y-61706871D01*
X117748461Y-61721023D01*
X117743876Y-61733665D01*
X117739760Y-61744840D01*
X117735928Y-61754896D01*
X117732194Y-61764180D01*
X117728373Y-61773041D01*
X117724281Y-61781824D01*
X117719733Y-61790877D01*
X117714543Y-61800548D01*
X117708527Y-61811184D01*
X117701499Y-61823132D01*
X117693275Y-61836739D01*
X117683670Y-61852352D01*
X117672498Y-61870320D01*
X117659575Y-61890989D01*
X117648546Y-61908593D01*
X117622357Y-61950415D01*
X117598160Y-61989125D01*
X117575846Y-62024905D01*
X117555307Y-62057937D01*
X117536435Y-62088404D01*
X117519120Y-62116489D01*
X117503255Y-62142373D01*
X117488731Y-62166241D01*
X117475439Y-62188273D01*
X117463270Y-62208653D01*
X117452117Y-62227563D01*
X117441871Y-62245185D01*
X117432422Y-62261703D01*
X117423664Y-62277299D01*
X117415486Y-62292154D01*
X117407782Y-62306453D01*
X117400441Y-62320377D01*
X117393356Y-62334109D01*
X117386418Y-62347831D01*
X117381369Y-62357977D01*
X117371067Y-62379022D01*
X117362225Y-62397625D01*
X117354414Y-62414768D01*
X117347206Y-62431429D01*
X117340171Y-62448590D01*
X117332882Y-62467230D01*
X117328098Y-62479825D01*
X117308945Y-62535473D01*
X117292411Y-62593531D01*
X117278582Y-62653432D01*
X117267546Y-62714607D01*
X117259391Y-62776488D01*
X117254206Y-62838508D01*
X117252079Y-62900098D01*
X117253097Y-62960691D01*
X117253209Y-62963180D01*
X117253909Y-62978450D01*
X117254625Y-62994171D01*
X117255312Y-63009358D01*
X117255927Y-63023025D01*
X117256423Y-63034189D01*
X117256586Y-63037909D01*
X117256336Y-63076224D01*
X117252231Y-63114388D01*
X117244263Y-63152416D01*
X117232426Y-63190322D01*
X117216714Y-63228121D01*
X117197121Y-63265829D01*
X117173640Y-63303460D01*
X117146265Y-63341029D01*
X117114990Y-63378550D01*
X117109486Y-63384703D01*
X117067084Y-63430492D01*
X117025506Y-63472979D01*
X116984296Y-63512554D01*
X116943002Y-63549607D01*
X116901168Y-63584528D01*
X116858340Y-63617708D01*
X116814063Y-63649537D01*
X116767883Y-63680405D01*
X116756962Y-63687399D01*
X116742107Y-63696903D01*
X116728454Y-63705798D01*
X116715421Y-63714488D01*
X116702427Y-63723377D01*
X116688893Y-63732871D01*
X116674236Y-63743373D01*
X116657877Y-63755288D01*
X116639235Y-63769020D01*
X116631002Y-63775117D01*
X116610558Y-63790283D01*
X116592939Y-63803373D01*
X116577825Y-63814629D01*
X116564897Y-63824294D01*
X116553833Y-63832611D01*
X116544314Y-63839822D01*
X116536021Y-63846170D01*
X116528631Y-63851897D01*
X116521827Y-63857245D01*
X116515286Y-63862459D01*
X116508690Y-63867779D01*
X116508225Y-63868156D01*
X116494289Y-63879445D01*
X116483004Y-63888550D01*
X116473995Y-63895763D01*
X116466884Y-63901371D01*
X116461296Y-63905664D01*
X116456855Y-63908931D01*
X116453186Y-63911462D01*
X116449913Y-63913546D01*
X116447039Y-63915253D01*
X116440279Y-63919018D01*
X116436410Y-63920731D01*
X116435067Y-63920500D01*
X116435779Y-63918612D01*
X116437976Y-63915536D01*
X116442322Y-63909998D01*
X116448408Y-63902491D01*
X116455825Y-63893505D01*
X116464163Y-63883534D01*
X116473015Y-63873069D01*
X116481969Y-63862603D01*
X116490618Y-63852626D01*
X116491435Y-63851693D01*
X116501156Y-63840878D01*
X116513100Y-63828060D01*
X116526688Y-63813821D01*
X116541343Y-63798743D01*
X116556488Y-63783409D01*
X116571546Y-63768403D01*
X116585939Y-63754305D01*
X116599090Y-63741700D01*
X116610422Y-63731170D01*
X116614331Y-63727655D01*
X116627388Y-63715635D01*
X116642514Y-63700970D01*
X116659338Y-63684065D01*
X116677490Y-63665327D01*
X116696598Y-63645162D01*
X116716291Y-63623977D01*
X116736199Y-63602178D01*
X116755950Y-63580172D01*
X116775173Y-63558364D01*
X116793498Y-63537162D01*
X116810554Y-63516971D01*
X116825969Y-63498199D01*
X116839373Y-63481251D01*
X116839981Y-63480462D01*
X116873815Y-63433766D01*
X116905968Y-63383857D01*
X116936248Y-63331136D01*
X116964460Y-63276004D01*
X116990411Y-63218861D01*
X117013907Y-63160109D01*
X117034755Y-63100148D01*
X117052630Y-63039870D01*
X117056129Y-63026739D01*
X117059651Y-63013129D01*
X117063055Y-62999621D01*
X117066200Y-62986800D01*
X117068946Y-62975250D01*
X117071153Y-62965554D01*
X117072680Y-62958297D01*
X117073386Y-62954061D01*
X117073417Y-62953475D01*
X117072810Y-62954194D01*
X117071206Y-62957998D01*
X117068848Y-62964270D01*
X117065981Y-62972390D01*
X117065956Y-62972462D01*
X117050154Y-63013240D01*
X117031619Y-63051491D01*
X117010202Y-63087413D01*
X116985754Y-63121203D01*
X116958125Y-63153057D01*
X116927166Y-63183174D01*
X116892726Y-63211751D01*
X116874193Y-63225497D01*
X116857030Y-63237359D01*
X116839272Y-63248755D01*
X116820272Y-63260059D01*
X116799383Y-63271647D01*
X116775956Y-63283894D01*
X116755985Y-63293907D01*
X116692197Y-63327332D01*
X116628350Y-63364614D01*
X116564516Y-63405706D01*
X116500767Y-63450557D01*
X116437175Y-63499121D01*
X116373810Y-63551349D01*
X116371236Y-63553552D01*
X116357079Y-63565653D01*
X116341517Y-63578894D01*
X116325441Y-63592522D01*
X116309740Y-63605784D01*
X116295307Y-63617925D01*
X116284131Y-63627274D01*
X116270930Y-63638318D01*
X116259237Y-63648210D01*
X116248474Y-63657464D01*
X116238063Y-63666592D01*
X116227427Y-63676111D01*
X116215990Y-63686533D01*
X116203173Y-63698372D01*
X116188400Y-63712144D01*
X116180105Y-63719909D01*
X116168889Y-63730299D01*
X116157784Y-63740361D01*
X116147172Y-63749772D01*
X116137433Y-63758208D01*
X116128948Y-63765344D01*
X116122096Y-63770857D01*
X116117260Y-63774422D01*
X116114819Y-63775714D01*
X116114644Y-63775665D01*
X116115379Y-63773743D01*
X116118373Y-63769155D01*
X116123369Y-63762224D01*
X116130108Y-63753272D01*
X116138333Y-63742621D01*
X116147785Y-63730594D01*
X116158206Y-63717513D01*
X116169339Y-63703702D01*
X116180926Y-63689482D01*
X116192707Y-63675177D01*
X116204426Y-63661108D01*
X116215824Y-63647598D01*
X116226644Y-63634970D01*
X116233548Y-63627041D01*
X116249423Y-63609226D01*
X116268112Y-63588757D01*
X116289620Y-63565631D01*
X116313948Y-63539844D01*
X116341101Y-63511394D01*
X116371080Y-63480277D01*
X116403890Y-63446490D01*
X116439532Y-63410031D01*
X116478011Y-63370895D01*
X116516466Y-63331970D01*
X116527851Y-63320463D01*
X116538329Y-63309843D01*
X116548067Y-63299917D01*
X116557233Y-63290494D01*
X116565993Y-63281379D01*
X116574515Y-63272382D01*
X116582966Y-63263309D01*
X116591514Y-63253969D01*
X116600326Y-63244168D01*
X116609568Y-63233715D01*
X116619409Y-63222417D01*
X116630015Y-63210082D01*
X116641553Y-63196517D01*
X116654192Y-63181530D01*
X116668098Y-63164929D01*
X116683438Y-63146520D01*
X116700380Y-63126113D01*
X116719091Y-63103513D01*
X116739738Y-63078530D01*
X116762488Y-63050970D01*
X116787509Y-63020642D01*
X116795018Y-63011539D01*
X116811376Y-62990622D01*
X116828924Y-62966103D01*
X116841720Y-62946899D01*
X117073639Y-62946899D01*
X117073998Y-62949433D01*
X117074665Y-62949463D01*
X117075132Y-62946848D01*
X117074820Y-62945719D01*
X117073952Y-62944979D01*
X117073639Y-62946899D01*
X116841720Y-62946899D01*
X116846819Y-62939247D01*
X117075439Y-62939247D01*
X117076416Y-62940223D01*
X117077393Y-62939247D01*
X117076416Y-62938270D01*
X117075439Y-62939247D01*
X116846819Y-62939247D01*
X116847597Y-62938080D01*
X116867328Y-62906650D01*
X116876561Y-62891377D01*
X116916722Y-62821117D01*
X116953272Y-62750737D01*
X116986182Y-62680319D01*
X117015423Y-62609947D01*
X117040966Y-62539704D01*
X117062783Y-62469673D01*
X117080845Y-62399937D01*
X117095124Y-62330579D01*
X117105589Y-62261683D01*
X117110580Y-62214370D01*
X117111202Y-62205671D01*
X117111850Y-62193946D01*
X117112488Y-62180078D01*
X117113076Y-62164948D01*
X117113576Y-62149438D01*
X117113823Y-62140123D01*
X117113611Y-62068858D01*
X117109600Y-61997165D01*
X117101835Y-61925312D01*
X117090362Y-61853566D01*
X117075228Y-61782193D01*
X117056478Y-61711460D01*
X117034157Y-61641634D01*
X117022249Y-61608677D01*
X117014307Y-61588973D01*
X117004303Y-61566578D01*
X116992481Y-61541956D01*
X116979084Y-61515569D01*
X116964359Y-61487881D01*
X116948549Y-61459356D01*
X116931898Y-61430455D01*
X116914652Y-61401643D01*
X116903179Y-61383088D01*
X116892469Y-61366182D01*
X116882474Y-61350865D01*
X116872796Y-61336609D01*
X116863037Y-61322886D01*
X116852799Y-61309170D01*
X116841685Y-61294933D01*
X116829296Y-61279647D01*
X116815235Y-61262785D01*
X116799103Y-61243820D01*
X116790928Y-61234302D01*
X116781350Y-61223179D01*
X116769840Y-61209814D01*
X116757015Y-61194924D01*
X116743494Y-61179226D01*
X116729894Y-61163438D01*
X116716835Y-61148279D01*
X116710990Y-61141494D01*
X116687965Y-61114640D01*
X116667301Y-61090253D01*
X116648684Y-61067950D01*
X116631803Y-61047349D01*
X116616342Y-61028067D01*
X116601991Y-61009720D01*
X116588435Y-60991927D01*
X116585064Y-60987427D01*
X116556233Y-60947756D01*
X116530450Y-60909975D01*
X116507563Y-60873734D01*
X116487419Y-60838683D01*
X116469865Y-60804472D01*
X116454747Y-60770751D01*
X116441914Y-60737171D01*
X116431210Y-60703381D01*
X116422485Y-60669031D01*
X116415584Y-60633773D01*
X116410354Y-60597254D01*
X116408968Y-60584862D01*
X116408011Y-60572702D01*
X116407304Y-60557538D01*
X116406848Y-60540266D01*
X116406642Y-60521784D01*
X116406688Y-60502987D01*
X116406983Y-60484770D01*
X116407530Y-60468031D01*
X116408327Y-60453665D01*
X116408968Y-60446139D01*
X116417232Y-60384408D01*
X116429374Y-60323085D01*
X116445380Y-60262237D01*
X116456243Y-60227745D01*
X116460361Y-60215886D01*
X116465557Y-60201650D01*
X116471487Y-60185913D01*
X116477810Y-60169551D01*
X116484184Y-60153441D01*
X116490265Y-60138459D01*
X116495712Y-60125480D01*
X116499876Y-60116046D01*
X116502989Y-60108792D01*
X116505187Y-60102755D01*
X116506137Y-60098892D01*
X116506094Y-60098175D01*
X116504004Y-60096553D01*
X116499033Y-60093960D01*
X116491964Y-60090776D01*
X116485024Y-60087942D01*
X116448594Y-60075499D01*
X116411003Y-60066094D01*
X116372995Y-60059854D01*
X116335315Y-60056908D01*
X116305147Y-60057041D01*
X116286933Y-60058205D01*
X116268486Y-60060042D01*
X116250462Y-60062440D01*
X116233515Y-60065283D01*
X116218300Y-60068458D01*
X116205471Y-60071852D01*
X116195683Y-60075351D01*
X116193277Y-60076486D01*
X116186687Y-60079406D01*
X116178698Y-60082325D01*
X116174695Y-60083566D01*
X116169602Y-60085261D01*
X116165214Y-60087500D01*
X116160713Y-60090896D01*
X116155279Y-60096063D01*
X116148444Y-60103239D01*
X116127209Y-60124736D01*
X116104620Y-60145261D01*
X116081438Y-60164195D01*
X116058423Y-60180920D01*
X116036336Y-60194817D01*
X116034650Y-60195778D01*
X116025545Y-60200785D01*
X116016118Y-60205657D01*
X116005911Y-60210594D01*
X115994467Y-60215797D01*
X115981328Y-60221466D01*
X115966035Y-60227803D01*
X115948132Y-60235009D01*
X115927160Y-60243284D01*
X115919739Y-60246186D01*
X115895154Y-60255932D01*
X115873853Y-60264721D01*
X115855392Y-60272763D01*
X115839324Y-60280266D01*
X115825205Y-60287440D01*
X115812589Y-60294493D01*
X115801031Y-60301634D01*
X115799577Y-60302583D01*
X115775008Y-60320097D01*
X115753197Y-60338699D01*
X115733560Y-60359021D01*
X115715514Y-60381694D01*
X115698476Y-60407351D01*
X115690828Y-60420306D01*
X115686205Y-60428320D01*
X115682366Y-60434807D01*
X115679668Y-60439176D01*
X115678468Y-60440836D01*
X115678439Y-60440804D01*
X115679185Y-60438443D01*
X115681268Y-60433052D01*
X115684456Y-60425180D01*
X115688518Y-60415376D01*
X115693222Y-60404189D01*
X115698335Y-60392167D01*
X115703625Y-60379859D01*
X115708861Y-60367814D01*
X115713811Y-60356581D01*
X115717651Y-60348014D01*
X115751087Y-60278191D01*
X115787853Y-60208919D01*
X115827603Y-60140748D01*
X115869992Y-60074230D01*
X115914672Y-60009916D01*
X115961300Y-59948357D01*
X115991627Y-59911110D01*
X116011001Y-59887988D01*
X116012920Y-59873627D01*
X116013845Y-59863162D01*
X116013389Y-59853775D01*
X116011895Y-59844971D01*
X116006656Y-59810449D01*
X116004884Y-59775176D01*
X116006528Y-59739781D01*
X116011540Y-59704893D01*
X116019869Y-59671140D01*
X116027474Y-59648970D01*
X116042399Y-59615621D01*
X116060570Y-59584355D01*
X116081815Y-59555357D01*
X116105961Y-59528816D01*
X116132837Y-59504918D01*
X116162271Y-59483851D01*
X116194090Y-59465801D01*
X116197185Y-59464272D01*
X116224727Y-59452068D01*
X116251879Y-59442672D01*
X116279649Y-59435827D01*
X116309047Y-59431276D01*
X116334849Y-59429087D01*
X116347509Y-59428345D01*
X116360835Y-59427554D01*
X116373411Y-59426799D01*
X116383822Y-59426164D01*
X116385731Y-59426046D01*
X116415157Y-59425819D01*
X116446205Y-59428557D01*
X116478151Y-59434102D01*
X116510270Y-59442294D01*
X116541838Y-59452973D01*
X116572132Y-59465980D01*
X116576323Y-59468024D01*
X116601736Y-59481751D01*
X116623447Y-59495944D01*
X116641649Y-59510737D01*
X116651136Y-59520139D01*
X116659749Y-59530089D01*
X116667513Y-59540677D01*
X116674886Y-59552656D01*
X116682324Y-59566777D01*
X116690286Y-59583794D01*
X116691586Y-59586715D01*
X116700866Y-59607070D01*
X116709362Y-59624178D01*
X116717438Y-59638527D01*
X116725461Y-59650605D01*
X116733795Y-59660901D01*
X116742807Y-59669902D01*
X116752861Y-59678095D01*
X116764323Y-59685969D01*
X116767405Y-59687916D01*
X116781385Y-59696624D01*
X116796039Y-59694969D01*
X116805821Y-59693398D01*
X116816436Y-59690987D01*
X116824126Y-59688727D01*
X116830278Y-59686462D01*
X116835099Y-59684074D01*
X116839498Y-59680878D01*
X116844383Y-59676190D01*
X116850664Y-59669324D01*
X116852255Y-59667531D01*
X116880984Y-59632465D01*
X116906529Y-59595891D01*
X116928805Y-59558036D01*
X116947725Y-59519128D01*
X116963203Y-59479393D01*
X116975155Y-59439058D01*
X116983493Y-59398350D01*
X116988132Y-59357496D01*
X116988987Y-59316722D01*
X116988623Y-59307047D01*
X116987899Y-59293623D01*
X116987056Y-59280989D01*
X116986024Y-59268503D01*
X116984733Y-59255525D01*
X116983114Y-59241412D01*
X116981095Y-59225524D01*
X116978608Y-59207219D01*
X116975581Y-59185856D01*
X116974744Y-59180047D01*
X116971159Y-59154819D01*
X116968186Y-59132898D01*
X116965774Y-59113739D01*
X116963871Y-59096797D01*
X116962427Y-59081528D01*
X116961389Y-59067386D01*
X116960706Y-59053828D01*
X116960327Y-59040310D01*
X116960201Y-59026285D01*
X116960200Y-59026104D01*
X116960381Y-59005547D01*
X116961046Y-58987679D01*
X116962311Y-58971299D01*
X116964289Y-58955204D01*
X116967094Y-58938195D01*
X116970013Y-58923116D01*
X116980966Y-58878149D01*
X116995345Y-58833801D01*
X117012951Y-58790340D01*
X117033582Y-58748034D01*
X117057036Y-58707151D01*
X117083113Y-58667960D01*
X117111611Y-58630729D01*
X117142330Y-58595726D01*
X117175068Y-58563218D01*
X117209624Y-58533475D01*
X117245797Y-58506765D01*
X117283386Y-58483355D01*
X117310561Y-58469012D01*
X117331909Y-58458964D01*
X117351397Y-58450711D01*
X117370335Y-58443761D01*
X117390030Y-58437621D01*
X117404351Y-58433703D01*
X117417542Y-58430382D01*
X117430481Y-58427412D01*
X117443574Y-58424739D01*
X117457227Y-58422312D01*
X117471848Y-58420078D01*
X117487840Y-58417985D01*
X117505612Y-58415981D01*
X117525569Y-58414014D01*
X117548116Y-58412031D01*
X117573661Y-58409980D01*
X117602610Y-58407809D01*
X117609816Y-58407286D01*
X117638329Y-58405192D01*
X117663409Y-58403255D01*
X117685524Y-58401405D01*
X117705143Y-58399570D01*
X117722732Y-58397681D01*
X117738761Y-58395667D01*
X117753697Y-58393457D01*
X117768008Y-58390982D01*
X117782163Y-58388169D01*
X117796629Y-58384950D01*
X117811874Y-58381253D01*
X117828367Y-58377008D01*
X117846576Y-58372144D01*
X117850937Y-58370963D01*
X117874828Y-58364276D01*
X117901909Y-58356336D01*
X117931720Y-58347291D01*
X117963804Y-58337293D01*
X117997704Y-58326491D01*
X118032962Y-58315035D01*
X118069118Y-58303076D01*
X118105717Y-58290764D01*
X118142300Y-58278248D01*
X118178408Y-58265679D01*
X118213585Y-58253206D01*
X118246770Y-58241201D01*
X118331479Y-58208659D01*
X118417462Y-58172548D01*
X118504595Y-58132948D01*
X118592752Y-58089941D01*
X118681808Y-58043607D01*
X118771638Y-57994025D01*
X118862119Y-57941276D01*
X118953124Y-57885440D01*
X119044528Y-57826599D01*
X119136208Y-57764831D01*
X119228039Y-57700217D01*
X119319894Y-57632839D01*
X119411650Y-57562775D01*
X119503182Y-57490106D01*
X119594364Y-57414913D01*
X119685072Y-57337275D01*
X119771625Y-57260487D01*
X119785688Y-57247794D01*
X119797123Y-57237485D01*
X119806201Y-57229321D01*
X119813192Y-57223064D01*
X119818366Y-57218477D01*
X119821994Y-57215321D01*
X119824346Y-57213360D01*
X119825693Y-57212354D01*
X119826306Y-57212067D01*
X119826454Y-57212260D01*
G37*
X119826454Y-57212260D02*
X119826454Y-57212272D01*
X119825635Y-57214221D01*
X119823310Y-57219271D01*
X119819676Y-57227007D01*
X119814929Y-57237014D01*
X119809266Y-57248875D01*
X119802885Y-57262176D01*
X119797903Y-57272519D01*
X119752781Y-57367351D01*
X119707268Y-57465546D01*
X119661590Y-57566608D01*
X119615970Y-57670039D01*
X119570632Y-57775345D01*
X119566115Y-57785977D01*
X119555069Y-57812087D01*
X119545315Y-57835341D01*
X119536567Y-57856457D01*
X119528537Y-57876156D01*
X119520940Y-57895155D01*
X119513490Y-57914173D01*
X119505900Y-57933930D01*
X119497883Y-57955144D01*
X119489154Y-57978534D01*
X119485569Y-57988200D01*
X119475922Y-58013401D01*
X119465680Y-58038426D01*
X119454609Y-58063761D01*
X119442478Y-58089896D01*
X119429053Y-58117316D01*
X119414103Y-58146511D01*
X119397395Y-58177967D01*
X119379378Y-58210939D01*
X119331422Y-58293829D01*
X119279884Y-58375529D01*
X119224987Y-58455727D01*
X119166957Y-58534110D01*
X119106019Y-58610365D01*
X119042397Y-58684180D01*
X119024551Y-58703911D01*
X119014834Y-58714692D01*
X119007464Y-58723266D01*
X119002022Y-58730182D01*
X118998088Y-58735993D01*
X118995243Y-58741250D01*
X118994031Y-58744003D01*
X118985651Y-58760671D01*
X118975083Y-58774622D01*
X118961822Y-58786390D01*
X118945360Y-58796511D01*
X118943316Y-58797554D01*
X118938152Y-58800352D01*
X118932921Y-58803696D01*
X118927165Y-58807962D01*
X118920422Y-58813528D01*
X118912236Y-58820770D01*
X118902145Y-58830066D01*
X118891380Y-58840194D01*
X118880306Y-58850525D01*
X118869136Y-58860674D01*
X118858491Y-58870098D01*
X118848988Y-58878254D01*
X118841246Y-58884600D01*
X118837281Y-58887622D01*
X118829830Y-58893411D01*
X118820646Y-58901169D01*
X118810699Y-58910043D01*
X118800961Y-58919178D01*
X118797064Y-58922990D01*
X118787998Y-58931717D01*
X118778584Y-58940308D01*
X118769699Y-58947997D01*
X118762217Y-58954013D01*
X118759332Y-58956115D01*
X118752526Y-58960895D01*
X118743583Y-58967292D01*
X118733499Y-58974586D01*
X118723270Y-58982059D01*
X118719600Y-58984761D01*
X118694151Y-59003199D01*
X118669450Y-59020419D01*
X118646350Y-59035832D01*
X118636265Y-59042300D01*
X118616940Y-59054784D01*
X118600185Y-59066177D01*
X118586267Y-59076288D01*
X118575455Y-59084926D01*
X118571739Y-59088222D01*
X118560642Y-59098496D01*
X118567829Y-59099702D01*
X118576838Y-59101160D01*
X118589112Y-59103070D01*
X118604046Y-59105341D01*
X118621036Y-59107887D01*
X118639477Y-59110618D01*
X118658762Y-59113446D01*
X118678288Y-59116283D01*
X118697450Y-59119040D01*
X118715641Y-59121629D01*
X118732259Y-59123961D01*
X118746696Y-59125948D01*
X118755747Y-59127162D01*
X118792053Y-59131820D01*
X118825347Y-59135796D01*
X118856448Y-59139158D01*
X118886179Y-59141971D01*
X118915361Y-59144304D01*
X118944815Y-59146223D01*
X118975364Y-59147796D01*
X119007828Y-59149089D01*
X119034170Y-59149923D01*
X119055323Y-59150574D01*
X119073276Y-59151234D01*
X119088732Y-59151952D01*
X119102399Y-59152774D01*
X119114981Y-59153747D01*
X119127185Y-59154919D01*
X119139717Y-59156337D01*
X119150423Y-59157675D01*
X119244091Y-59169194D01*
X119334943Y-59179181D01*
X119423739Y-59187683D01*
X119511235Y-59194751D01*
X119598191Y-59200434D01*
X119685363Y-59204780D01*
X119773511Y-59207840D01*
X119863392Y-59209662D01*
X119955764Y-59210295D01*
X119961270Y-59210296D01*
X120029764Y-59210007D01*
X120095221Y-59209133D01*
X120158476Y-59207642D01*
X120220359Y-59205502D01*
X120281704Y-59202680D01*
X120343343Y-59199142D01*
X120406109Y-59194857D01*
X120459500Y-59190722D01*
X120500393Y-59187229D01*
X120542335Y-59183325D01*
X120584983Y-59179057D01*
X120627991Y-59174470D01*
X120671015Y-59169611D01*
X120713708Y-59164524D01*
X120755727Y-59159257D01*
X120796725Y-59153854D01*
X120836359Y-59148363D01*
X120874282Y-59142827D01*
X120910150Y-59137294D01*
X120943618Y-59131810D01*
X120974341Y-59126419D01*
X121001974Y-59121169D01*
X121026171Y-59116105D01*
X121033685Y-59114403D01*
X121067242Y-59106878D01*
X121101586Y-59099645D01*
X121135615Y-59092921D01*
X121168226Y-59086922D01*
X121198318Y-59081865D01*
X121200985Y-59081445D01*
X121214990Y-59079207D01*
X121229634Y-59076787D01*
X121243745Y-59074385D01*
X121256155Y-59072199D01*
X121264485Y-59070661D01*
X121277004Y-59068512D01*
X121286906Y-59067320D01*
X121293717Y-59067138D01*
X121295450Y-59067355D01*
X121301992Y-59068716D01*
X121292519Y-59075419D01*
X121281614Y-59083278D01*
X121268282Y-59093119D01*
X121253137Y-59104472D01*
X121236797Y-59116867D01*
X121219876Y-59129835D01*
X121202991Y-59142905D01*
X121186757Y-59155608D01*
X121171790Y-59167475D01*
X121170700Y-59168347D01*
X121092985Y-59232791D01*
X121017603Y-59299885D01*
X120944329Y-59369851D01*
X120872933Y-59442912D01*
X120803189Y-59519291D01*
X120754511Y-59575700D01*
X120734791Y-59598579D01*
X120712643Y-59623379D01*
X120688635Y-59649509D01*
X120663333Y-59676378D01*
X120637303Y-59703398D01*
X120611113Y-59729976D01*
X120585329Y-59755523D01*
X120560518Y-59779448D01*
X120544493Y-59794489D01*
X120469660Y-59861672D01*
X120394163Y-59925133D01*
X120318029Y-59984854D01*
X120241283Y-60040820D01*
X120163955Y-60093012D01*
X120086070Y-60141413D01*
X120007656Y-60186007D01*
X119928740Y-60226776D01*
X119849349Y-60263703D01*
X119769510Y-60296771D01*
X119719900Y-60315291D01*
X119680509Y-60328897D01*
X119639094Y-60342301D01*
X119596806Y-60355160D01*
X119554802Y-60367132D01*
X119514233Y-60377875D01*
X119485508Y-60384903D01*
X119473847Y-60387810D01*
X119459515Y-60391646D01*
X119443552Y-60396117D01*
X119426998Y-60400928D01*
X119410893Y-60405787D01*
X119403447Y-60408106D01*
X119314289Y-60434820D01*
X119226171Y-60458368D01*
X119138500Y-60478858D01*
X119050683Y-60496399D01*
X118962129Y-60511101D01*
X118872245Y-60523070D01*
X118780438Y-60532418D01*
X118691270Y-60538946D01*
X118673532Y-60539841D01*
X118652582Y-60540613D01*
X118629114Y-60541256D01*
X118603822Y-60541764D01*
X118577399Y-60542131D01*
X118550540Y-60542351D01*
X118523939Y-60542419D01*
X118498288Y-60542328D01*
X118474283Y-60542074D01*
X118452617Y-60541649D01*
X118435316Y-60541101D01*
X118347176Y-60536475D01*
X118261524Y-60529611D01*
X118177594Y-60520434D01*
X118094621Y-60508871D01*
X118081754Y-60506853D01*
X118041616Y-60500466D01*
X118018771Y-60504919D01*
X117974831Y-60515028D01*
X117930985Y-60528110D01*
X117887836Y-60543903D01*
X117845990Y-60562148D01*
X117806052Y-60582585D01*
X117768629Y-60604951D01*
X117739536Y-60625072D01*
X117725968Y-60635130D01*
X117730066Y-60641258D01*
X117738260Y-60656404D01*
X117744123Y-60673325D01*
X117747204Y-60690550D01*
X117747562Y-60698181D01*
X117747941Y-60704671D01*
X117749218Y-60711879D01*
X117751605Y-60720683D01*
X117755311Y-60731956D01*
X117756510Y-60735382D01*
X117775887Y-60795034D01*
X117792821Y-60857173D01*
X117807202Y-60921151D01*
X117818922Y-60986319D01*
X117827869Y-61052030D01*
X117833935Y-61117636D01*
X117837010Y-61182489D01*
X117837391Y-61213023D01*
X117835631Y-61283761D01*
X117830305Y-61355331D01*
X117821508Y-61427198D01*
X117809334Y-61498823D01*
X117793878Y-61569668D01*
X117775232Y-61639197D01*
X117753492Y-61706871D01*
X117748461Y-61721023D01*
X117743876Y-61733665D01*
X117739760Y-61744840D01*
X117735928Y-61754896D01*
X117732194Y-61764180D01*
X117728373Y-61773041D01*
X117724281Y-61781824D01*
X117719733Y-61790877D01*
X117714543Y-61800548D01*
X117708527Y-61811184D01*
X117701499Y-61823132D01*
X117693275Y-61836739D01*
X117683670Y-61852352D01*
X117672498Y-61870320D01*
X117659575Y-61890989D01*
X117648546Y-61908593D01*
X117622357Y-61950415D01*
X117598160Y-61989125D01*
X117575846Y-62024905D01*
X117555307Y-62057937D01*
X117536435Y-62088404D01*
X117519120Y-62116489D01*
X117503255Y-62142373D01*
X117488731Y-62166241D01*
X117475439Y-62188273D01*
X117463270Y-62208653D01*
X117452117Y-62227563D01*
X117441871Y-62245185D01*
X117432422Y-62261703D01*
X117423664Y-62277299D01*
X117415486Y-62292154D01*
X117407782Y-62306453D01*
X117400441Y-62320377D01*
X117393356Y-62334109D01*
X117386418Y-62347831D01*
X117381369Y-62357977D01*
X117371067Y-62379022D01*
X117362225Y-62397625D01*
X117354414Y-62414768D01*
X117347206Y-62431429D01*
X117340171Y-62448590D01*
X117332882Y-62467230D01*
X117328098Y-62479825D01*
X117308945Y-62535473D01*
X117292411Y-62593531D01*
X117278582Y-62653432D01*
X117267546Y-62714607D01*
X117259391Y-62776488D01*
X117254206Y-62838508D01*
X117252079Y-62900098D01*
X117253097Y-62960691D01*
X117253209Y-62963180D01*
X117253909Y-62978450D01*
X117254625Y-62994171D01*
X117255312Y-63009358D01*
X117255927Y-63023025D01*
X117256423Y-63034189D01*
X117256586Y-63037909D01*
X117256336Y-63076224D01*
X117252231Y-63114388D01*
X117244263Y-63152416D01*
X117232426Y-63190322D01*
X117216714Y-63228121D01*
X117197121Y-63265829D01*
X117173640Y-63303460D01*
X117146265Y-63341029D01*
X117114990Y-63378550D01*
X117109486Y-63384703D01*
X117067084Y-63430492D01*
X117025506Y-63472979D01*
X116984296Y-63512554D01*
X116943002Y-63549607D01*
X116901168Y-63584528D01*
X116858340Y-63617708D01*
X116814063Y-63649537D01*
X116767883Y-63680405D01*
X116756962Y-63687399D01*
X116742107Y-63696903D01*
X116728454Y-63705798D01*
X116715421Y-63714488D01*
X116702427Y-63723377D01*
X116688893Y-63732871D01*
X116674236Y-63743373D01*
X116657877Y-63755288D01*
X116639235Y-63769020D01*
X116631002Y-63775117D01*
X116610558Y-63790283D01*
X116592939Y-63803373D01*
X116577825Y-63814629D01*
X116564897Y-63824294D01*
X116553833Y-63832611D01*
X116544314Y-63839822D01*
X116536021Y-63846170D01*
X116528631Y-63851897D01*
X116521827Y-63857245D01*
X116515286Y-63862459D01*
X116508690Y-63867779D01*
X116508225Y-63868156D01*
X116494289Y-63879445D01*
X116483004Y-63888550D01*
X116473995Y-63895763D01*
X116466884Y-63901371D01*
X116461296Y-63905664D01*
X116456855Y-63908931D01*
X116453186Y-63911462D01*
X116449913Y-63913546D01*
X116447039Y-63915253D01*
X116440279Y-63919018D01*
X116436410Y-63920731D01*
X116435067Y-63920500D01*
X116435779Y-63918612D01*
X116437976Y-63915536D01*
X116442322Y-63909998D01*
X116448408Y-63902491D01*
X116455825Y-63893505D01*
X116464163Y-63883534D01*
X116473015Y-63873069D01*
X116481969Y-63862603D01*
X116490618Y-63852626D01*
X116491435Y-63851693D01*
X116501156Y-63840878D01*
X116513100Y-63828060D01*
X116526688Y-63813821D01*
X116541343Y-63798743D01*
X116556488Y-63783409D01*
X116571546Y-63768403D01*
X116585939Y-63754305D01*
X116599090Y-63741700D01*
X116610422Y-63731170D01*
X116614331Y-63727655D01*
X116627388Y-63715635D01*
X116642514Y-63700970D01*
X116659338Y-63684065D01*
X116677490Y-63665327D01*
X116696598Y-63645162D01*
X116716291Y-63623977D01*
X116736199Y-63602178D01*
X116755950Y-63580172D01*
X116775173Y-63558364D01*
X116793498Y-63537162D01*
X116810554Y-63516971D01*
X116825969Y-63498199D01*
X116839373Y-63481251D01*
X116839981Y-63480462D01*
X116873815Y-63433766D01*
X116905968Y-63383857D01*
X116936248Y-63331136D01*
X116964460Y-63276004D01*
X116990411Y-63218861D01*
X117013907Y-63160109D01*
X117034755Y-63100148D01*
X117052630Y-63039870D01*
X117056129Y-63026739D01*
X117059651Y-63013129D01*
X117063055Y-62999621D01*
X117066200Y-62986800D01*
X117068946Y-62975250D01*
X117071153Y-62965554D01*
X117072680Y-62958297D01*
X117073386Y-62954061D01*
X117073417Y-62953475D01*
X117072810Y-62954194D01*
X117071206Y-62957998D01*
X117068848Y-62964270D01*
X117065981Y-62972390D01*
X117065956Y-62972462D01*
X117050154Y-63013240D01*
X117031619Y-63051491D01*
X117010202Y-63087413D01*
X116985754Y-63121203D01*
X116958125Y-63153057D01*
X116927166Y-63183174D01*
X116892726Y-63211751D01*
X116874193Y-63225497D01*
X116857030Y-63237359D01*
X116839272Y-63248755D01*
X116820272Y-63260059D01*
X116799383Y-63271647D01*
X116775956Y-63283894D01*
X116755985Y-63293907D01*
X116692197Y-63327332D01*
X116628350Y-63364614D01*
X116564516Y-63405706D01*
X116500767Y-63450557D01*
X116437175Y-63499121D01*
X116373810Y-63551349D01*
X116371236Y-63553552D01*
X116357079Y-63565653D01*
X116341517Y-63578894D01*
X116325441Y-63592522D01*
X116309740Y-63605784D01*
X116295307Y-63617925D01*
X116284131Y-63627274D01*
X116270930Y-63638318D01*
X116259237Y-63648210D01*
X116248474Y-63657464D01*
X116238063Y-63666592D01*
X116227427Y-63676111D01*
X116215990Y-63686533D01*
X116203173Y-63698372D01*
X116188400Y-63712144D01*
X116180105Y-63719909D01*
X116168889Y-63730299D01*
X116157784Y-63740361D01*
X116147172Y-63749772D01*
X116137433Y-63758208D01*
X116128948Y-63765344D01*
X116122096Y-63770857D01*
X116117260Y-63774422D01*
X116114819Y-63775714D01*
X116114644Y-63775665D01*
X116115379Y-63773743D01*
X116118373Y-63769155D01*
X116123369Y-63762224D01*
X116130108Y-63753272D01*
X116138333Y-63742621D01*
X116147785Y-63730594D01*
X116158206Y-63717513D01*
X116169339Y-63703702D01*
X116180926Y-63689482D01*
X116192707Y-63675177D01*
X116204426Y-63661108D01*
X116215824Y-63647598D01*
X116226644Y-63634970D01*
X116233548Y-63627041D01*
X116249423Y-63609226D01*
X116268112Y-63588757D01*
X116289620Y-63565631D01*
X116313948Y-63539844D01*
X116341101Y-63511394D01*
X116371080Y-63480277D01*
X116403890Y-63446490D01*
X116439532Y-63410031D01*
X116478011Y-63370895D01*
X116516466Y-63331970D01*
X116527851Y-63320463D01*
X116538329Y-63309843D01*
X116548067Y-63299917D01*
X116557233Y-63290494D01*
X116565993Y-63281379D01*
X116574515Y-63272382D01*
X116582966Y-63263309D01*
X116591514Y-63253969D01*
X116600326Y-63244168D01*
X116609568Y-63233715D01*
X116619409Y-63222417D01*
X116630015Y-63210082D01*
X116641553Y-63196517D01*
X116654192Y-63181530D01*
X116668098Y-63164929D01*
X116683438Y-63146520D01*
X116700380Y-63126113D01*
X116719091Y-63103513D01*
X116739738Y-63078530D01*
X116762488Y-63050970D01*
X116787509Y-63020642D01*
X116795018Y-63011539D01*
X116811376Y-62990622D01*
X116828924Y-62966103D01*
X116841720Y-62946899D01*
X117073639Y-62946899D01*
X117073998Y-62949433D01*
X117074665Y-62949463D01*
X117075132Y-62946848D01*
X117074820Y-62945719D01*
X117073952Y-62944979D01*
X117073639Y-62946899D01*
X116841720Y-62946899D01*
X116846819Y-62939247D01*
X117075439Y-62939247D01*
X117076416Y-62940223D01*
X117077393Y-62939247D01*
X117076416Y-62938270D01*
X117075439Y-62939247D01*
X116846819Y-62939247D01*
X116847597Y-62938080D01*
X116867328Y-62906650D01*
X116876561Y-62891377D01*
X116916722Y-62821117D01*
X116953272Y-62750737D01*
X116986182Y-62680319D01*
X117015423Y-62609947D01*
X117040966Y-62539704D01*
X117062783Y-62469673D01*
X117080845Y-62399937D01*
X117095124Y-62330579D01*
X117105589Y-62261683D01*
X117110580Y-62214370D01*
X117111202Y-62205671D01*
X117111850Y-62193946D01*
X117112488Y-62180078D01*
X117113076Y-62164948D01*
X117113576Y-62149438D01*
X117113823Y-62140123D01*
X117113611Y-62068858D01*
X117109600Y-61997165D01*
X117101835Y-61925312D01*
X117090362Y-61853566D01*
X117075228Y-61782193D01*
X117056478Y-61711460D01*
X117034157Y-61641634D01*
X117022249Y-61608677D01*
X117014307Y-61588973D01*
X117004303Y-61566578D01*
X116992481Y-61541956D01*
X116979084Y-61515569D01*
X116964359Y-61487881D01*
X116948549Y-61459356D01*
X116931898Y-61430455D01*
X116914652Y-61401643D01*
X116903179Y-61383088D01*
X116892469Y-61366182D01*
X116882474Y-61350865D01*
X116872796Y-61336609D01*
X116863037Y-61322886D01*
X116852799Y-61309170D01*
X116841685Y-61294933D01*
X116829296Y-61279647D01*
X116815235Y-61262785D01*
X116799103Y-61243820D01*
X116790928Y-61234302D01*
X116781350Y-61223179D01*
X116769840Y-61209814D01*
X116757015Y-61194924D01*
X116743494Y-61179226D01*
X116729894Y-61163438D01*
X116716835Y-61148279D01*
X116710990Y-61141494D01*
X116687965Y-61114640D01*
X116667301Y-61090253D01*
X116648684Y-61067950D01*
X116631803Y-61047349D01*
X116616342Y-61028067D01*
X116601991Y-61009720D01*
X116588435Y-60991927D01*
X116585064Y-60987427D01*
X116556233Y-60947756D01*
X116530450Y-60909975D01*
X116507563Y-60873734D01*
X116487419Y-60838683D01*
X116469865Y-60804472D01*
X116454747Y-60770751D01*
X116441914Y-60737171D01*
X116431210Y-60703381D01*
X116422485Y-60669031D01*
X116415584Y-60633773D01*
X116410354Y-60597254D01*
X116408968Y-60584862D01*
X116408011Y-60572702D01*
X116407304Y-60557538D01*
X116406848Y-60540266D01*
X116406642Y-60521784D01*
X116406688Y-60502987D01*
X116406983Y-60484770D01*
X116407530Y-60468031D01*
X116408327Y-60453665D01*
X116408968Y-60446139D01*
X116417232Y-60384408D01*
X116429374Y-60323085D01*
X116445380Y-60262237D01*
X116456243Y-60227745D01*
X116460361Y-60215886D01*
X116465557Y-60201650D01*
X116471487Y-60185913D01*
X116477810Y-60169551D01*
X116484184Y-60153441D01*
X116490265Y-60138459D01*
X116495712Y-60125480D01*
X116499876Y-60116046D01*
X116502989Y-60108792D01*
X116505187Y-60102755D01*
X116506137Y-60098892D01*
X116506094Y-60098175D01*
X116504004Y-60096553D01*
X116499033Y-60093960D01*
X116491964Y-60090776D01*
X116485024Y-60087942D01*
X116448594Y-60075499D01*
X116411003Y-60066094D01*
X116372995Y-60059854D01*
X116335315Y-60056908D01*
X116305147Y-60057041D01*
X116286933Y-60058205D01*
X116268486Y-60060042D01*
X116250462Y-60062440D01*
X116233515Y-60065283D01*
X116218300Y-60068458D01*
X116205471Y-60071852D01*
X116195683Y-60075351D01*
X116193277Y-60076486D01*
X116186687Y-60079406D01*
X116178698Y-60082325D01*
X116174695Y-60083566D01*
X116169602Y-60085261D01*
X116165214Y-60087500D01*
X116160713Y-60090896D01*
X116155279Y-60096063D01*
X116148444Y-60103239D01*
X116127209Y-60124736D01*
X116104620Y-60145261D01*
X116081438Y-60164195D01*
X116058423Y-60180920D01*
X116036336Y-60194817D01*
X116034650Y-60195778D01*
X116025545Y-60200785D01*
X116016118Y-60205657D01*
X116005911Y-60210594D01*
X115994467Y-60215797D01*
X115981328Y-60221466D01*
X115966035Y-60227803D01*
X115948132Y-60235009D01*
X115927160Y-60243284D01*
X115919739Y-60246186D01*
X115895154Y-60255932D01*
X115873853Y-60264721D01*
X115855392Y-60272763D01*
X115839324Y-60280266D01*
X115825205Y-60287440D01*
X115812589Y-60294493D01*
X115801031Y-60301634D01*
X115799577Y-60302583D01*
X115775008Y-60320097D01*
X115753197Y-60338699D01*
X115733560Y-60359021D01*
X115715514Y-60381694D01*
X115698476Y-60407351D01*
X115690828Y-60420306D01*
X115686205Y-60428320D01*
X115682366Y-60434807D01*
X115679668Y-60439176D01*
X115678468Y-60440836D01*
X115678439Y-60440804D01*
X115679185Y-60438443D01*
X115681268Y-60433052D01*
X115684456Y-60425180D01*
X115688518Y-60415376D01*
X115693222Y-60404189D01*
X115698335Y-60392167D01*
X115703625Y-60379859D01*
X115708861Y-60367814D01*
X115713811Y-60356581D01*
X115717651Y-60348014D01*
X115751087Y-60278191D01*
X115787853Y-60208919D01*
X115827603Y-60140748D01*
X115869992Y-60074230D01*
X115914672Y-60009916D01*
X115961300Y-59948357D01*
X115991627Y-59911110D01*
X116011001Y-59887988D01*
X116012920Y-59873627D01*
X116013845Y-59863162D01*
X116013389Y-59853775D01*
X116011895Y-59844971D01*
X116006656Y-59810449D01*
X116004884Y-59775176D01*
X116006528Y-59739781D01*
X116011540Y-59704893D01*
X116019869Y-59671140D01*
X116027474Y-59648970D01*
X116042399Y-59615621D01*
X116060570Y-59584355D01*
X116081815Y-59555357D01*
X116105961Y-59528816D01*
X116132837Y-59504918D01*
X116162271Y-59483851D01*
X116194090Y-59465801D01*
X116197185Y-59464272D01*
X116224727Y-59452068D01*
X116251879Y-59442672D01*
X116279649Y-59435827D01*
X116309047Y-59431276D01*
X116334849Y-59429087D01*
X116347509Y-59428345D01*
X116360835Y-59427554D01*
X116373411Y-59426799D01*
X116383822Y-59426164D01*
X116385731Y-59426046D01*
X116415157Y-59425819D01*
X116446205Y-59428557D01*
X116478151Y-59434102D01*
X116510270Y-59442294D01*
X116541838Y-59452973D01*
X116572132Y-59465980D01*
X116576323Y-59468024D01*
X116601736Y-59481751D01*
X116623447Y-59495944D01*
X116641649Y-59510737D01*
X116651136Y-59520139D01*
X116659749Y-59530089D01*
X116667513Y-59540677D01*
X116674886Y-59552656D01*
X116682324Y-59566777D01*
X116690286Y-59583794D01*
X116691586Y-59586715D01*
X116700866Y-59607070D01*
X116709362Y-59624178D01*
X116717438Y-59638527D01*
X116725461Y-59650605D01*
X116733795Y-59660901D01*
X116742807Y-59669902D01*
X116752861Y-59678095D01*
X116764323Y-59685969D01*
X116767405Y-59687916D01*
X116781385Y-59696624D01*
X116796039Y-59694969D01*
X116805821Y-59693398D01*
X116816436Y-59690987D01*
X116824126Y-59688727D01*
X116830278Y-59686462D01*
X116835099Y-59684074D01*
X116839498Y-59680878D01*
X116844383Y-59676190D01*
X116850664Y-59669324D01*
X116852255Y-59667531D01*
X116880984Y-59632465D01*
X116906529Y-59595891D01*
X116928805Y-59558036D01*
X116947725Y-59519128D01*
X116963203Y-59479393D01*
X116975155Y-59439058D01*
X116983493Y-59398350D01*
X116988132Y-59357496D01*
X116988987Y-59316722D01*
X116988623Y-59307047D01*
X116987899Y-59293623D01*
X116987056Y-59280989D01*
X116986024Y-59268503D01*
X116984733Y-59255525D01*
X116983114Y-59241412D01*
X116981095Y-59225524D01*
X116978608Y-59207219D01*
X116975581Y-59185856D01*
X116974744Y-59180047D01*
X116971159Y-59154819D01*
X116968186Y-59132898D01*
X116965774Y-59113739D01*
X116963871Y-59096797D01*
X116962427Y-59081528D01*
X116961389Y-59067386D01*
X116960706Y-59053828D01*
X116960327Y-59040310D01*
X116960201Y-59026285D01*
X116960200Y-59026104D01*
X116960381Y-59005547D01*
X116961046Y-58987679D01*
X116962311Y-58971299D01*
X116964289Y-58955204D01*
X116967094Y-58938195D01*
X116970013Y-58923116D01*
X116980966Y-58878149D01*
X116995345Y-58833801D01*
X117012951Y-58790340D01*
X117033582Y-58748034D01*
X117057036Y-58707151D01*
X117083113Y-58667960D01*
X117111611Y-58630729D01*
X117142330Y-58595726D01*
X117175068Y-58563218D01*
X117209624Y-58533475D01*
X117245797Y-58506765D01*
X117283386Y-58483355D01*
X117310561Y-58469012D01*
X117331909Y-58458964D01*
X117351397Y-58450711D01*
X117370335Y-58443761D01*
X117390030Y-58437621D01*
X117404351Y-58433703D01*
X117417542Y-58430382D01*
X117430481Y-58427412D01*
X117443574Y-58424739D01*
X117457227Y-58422312D01*
X117471848Y-58420078D01*
X117487840Y-58417985D01*
X117505612Y-58415981D01*
X117525569Y-58414014D01*
X117548116Y-58412031D01*
X117573661Y-58409980D01*
X117602610Y-58407809D01*
X117609816Y-58407286D01*
X117638329Y-58405192D01*
X117663409Y-58403255D01*
X117685524Y-58401405D01*
X117705143Y-58399570D01*
X117722732Y-58397681D01*
X117738761Y-58395667D01*
X117753697Y-58393457D01*
X117768008Y-58390982D01*
X117782163Y-58388169D01*
X117796629Y-58384950D01*
X117811874Y-58381253D01*
X117828367Y-58377008D01*
X117846576Y-58372144D01*
X117850937Y-58370963D01*
X117874828Y-58364276D01*
X117901909Y-58356336D01*
X117931720Y-58347291D01*
X117963804Y-58337293D01*
X117997704Y-58326491D01*
X118032962Y-58315035D01*
X118069118Y-58303076D01*
X118105717Y-58290764D01*
X118142300Y-58278248D01*
X118178408Y-58265679D01*
X118213585Y-58253206D01*
X118246770Y-58241201D01*
X118331479Y-58208659D01*
X118417462Y-58172548D01*
X118504595Y-58132948D01*
X118592752Y-58089941D01*
X118681808Y-58043607D01*
X118771638Y-57994025D01*
X118862119Y-57941276D01*
X118953124Y-57885440D01*
X119044528Y-57826599D01*
X119136208Y-57764831D01*
X119228039Y-57700217D01*
X119319894Y-57632839D01*
X119411650Y-57562775D01*
X119503182Y-57490106D01*
X119594364Y-57414913D01*
X119685072Y-57337275D01*
X119771625Y-57260487D01*
X119785688Y-57247794D01*
X119797123Y-57237485D01*
X119806201Y-57229321D01*
X119813192Y-57223064D01*
X119818366Y-57218477D01*
X119821994Y-57215321D01*
X119824346Y-57213360D01*
X119825693Y-57212354D01*
X119826306Y-57212067D01*
X119826454Y-57212260D01*
D10*
X124158400Y-72177700D02*
X123608400Y-72177700D01*
X123608400Y-72177700D02*
X123608400Y-69727700D01*
X124758400Y-68927700D02*
X124758400Y-63927700D01*
X123608400Y-63127700D02*
X123608400Y-60677700D01*
X123608400Y-60677700D02*
X124158400Y-60677700D01*
X127658400Y-60677700D02*
X130358400Y-60677700D01*
X130358400Y-60677700D02*
X130358400Y-72177700D01*
X130358400Y-72177700D02*
X127658400Y-72177700D01*
X122958400Y-70127700D02*
G75*
G03*
X122958400Y-70127700I-350000J0D01*
G01*
X141279300Y-62714300D02*
G75*
G03*
X141279300Y-62714300I-350000J0D01*
G01*
X133179300Y-60664300D02*
X135879300Y-60664300D01*
X133179300Y-72164300D02*
X133179300Y-60664300D01*
X135879300Y-72164300D02*
X133179300Y-72164300D01*
X139929300Y-72164300D02*
X139379300Y-72164300D01*
X139929300Y-69714300D02*
X139929300Y-72164300D01*
X138779300Y-63914300D02*
X138779300Y-68914300D01*
X139929300Y-60664300D02*
X139929300Y-63114300D01*
X139379300Y-60664300D02*
X139929300Y-60664300D01*
D12*
X112150000Y-65083700D02*
G75*
G03*
X112150000Y-65083700I-100000J0D01*
G01*
D13*
X106500000Y-62733700D02*
X106500000Y-70133700D01*
X106770000Y-70133700D02*
X106500000Y-70133700D01*
X106500000Y-62733700D02*
X106770000Y-62733700D01*
X110800000Y-70133700D02*
X110800000Y-69953700D01*
X110800000Y-62733700D02*
X110800000Y-62913700D01*
X110800000Y-70133700D02*
X109045000Y-70133700D01*
X110800000Y-62733700D02*
X109045000Y-62733700D01*
D10*
X114871000Y-65083700D02*
X114871000Y-64133700D01*
X114871000Y-67783700D02*
X114871000Y-68733700D01*
X114871000Y-66783700D02*
X114871000Y-67083700D01*
X114871000Y-65783700D02*
X114871000Y-66083700D01*
X119571000Y-65083700D02*
X119571000Y-64133700D01*
X119571000Y-67783700D02*
X119571000Y-68733700D01*
X119571000Y-66783700D02*
X119571000Y-67083700D01*
X119571000Y-65783700D02*
X119571000Y-66083700D01*
X119571000Y-68733700D02*
X114871000Y-68733700D01*
X114871000Y-64133700D02*
X119571000Y-64133700D01*
X114871000Y-64133700D02*
X114871000Y-64833700D01*
X114871000Y-64833700D02*
X115571000Y-64833700D01*
X115571000Y-64833700D02*
X115571000Y-64133700D01*
X115571000Y-64133700D02*
X114871000Y-64133700D01*
X114871000Y-68733700D02*
X114871000Y-68033700D01*
X114871000Y-68033700D02*
X115571000Y-68033700D01*
X115571000Y-68033700D02*
X115571000Y-68733700D01*
X115571000Y-68733700D02*
X114871000Y-68733700D01*
X119571000Y-68733700D02*
X118871000Y-68733700D01*
X118871000Y-68733700D02*
X118871000Y-68033700D01*
X118871000Y-68033700D02*
X119571000Y-68033700D01*
X119571000Y-68033700D02*
X119571000Y-68733700D01*
X119571000Y-64133700D02*
X119571000Y-64833700D01*
X119571000Y-64833700D02*
X118871000Y-64833700D01*
X118871000Y-64833700D02*
X118871000Y-64133700D01*
X118871000Y-64133700D02*
X119571000Y-64133700D01*
X122310780Y-61511033D02*
X123025066Y-61511033D01*
X123167923Y-61558652D01*
X123263161Y-61653890D01*
X123310780Y-61796747D01*
X123310780Y-61891985D01*
X123310780Y-60511033D02*
X123310780Y-61082461D01*
X123310780Y-60796747D02*
X122310780Y-60796747D01*
X122453638Y-60891985D01*
X122548876Y-60987223D01*
X122596495Y-61082461D01*
X140131680Y-71997633D02*
X140845966Y-71997633D01*
X140988823Y-72045252D01*
X141084061Y-72140490D01*
X141131680Y-72283347D01*
X141131680Y-72378585D01*
X140226919Y-71569061D02*
X140179300Y-71521442D01*
X140131680Y-71426204D01*
X140131680Y-71188109D01*
X140179300Y-71092871D01*
X140226919Y-71045252D01*
X140322157Y-70997633D01*
X140417395Y-70997633D01*
X140560252Y-71045252D01*
X141131680Y-71616680D01*
X141131680Y-70997633D01*
X110981849Y-70863959D02*
X110981849Y-71578925D01*
X110934184Y-71721918D01*
X110838855Y-71817247D01*
X110695862Y-71864912D01*
X110600533Y-71864912D01*
X111363164Y-70863959D02*
X111982802Y-70863959D01*
X111649151Y-71245274D01*
X111792144Y-71245274D01*
X111887473Y-71292938D01*
X111935137Y-71340603D01*
X111982802Y-71435932D01*
X111982802Y-71674254D01*
X111935137Y-71769583D01*
X111887473Y-71817247D01*
X111792144Y-71864912D01*
X111506157Y-71864912D01*
X111410828Y-71817247D01*
X111363164Y-71769583D01*
X117075761Y-67817033D02*
X117123380Y-67674176D01*
X117123380Y-67436080D01*
X117075761Y-67340842D01*
X117028142Y-67293223D01*
X116932904Y-67245604D01*
X116837666Y-67245604D01*
X116742428Y-67293223D01*
X116694809Y-67340842D01*
X116647190Y-67436080D01*
X116599571Y-67626557D01*
X116551952Y-67721795D01*
X116504333Y-67769414D01*
X116409095Y-67817033D01*
X116313857Y-67817033D01*
X116218619Y-67769414D01*
X116171000Y-67721795D01*
X116123380Y-67626557D01*
X116123380Y-67388461D01*
X116171000Y-67245604D01*
X116123380Y-66912271D02*
X117123380Y-66674176D01*
X116409095Y-66483700D01*
X117123380Y-66293223D01*
X116123380Y-66055128D01*
X117123380Y-65150366D02*
X117123380Y-65721795D01*
X117123380Y-65436080D02*
X116123380Y-65436080D01*
X116266238Y-65531319D01*
X116361476Y-65626557D01*
X116409095Y-65721795D01*
M02*
