G04 #@! TF.GenerationSoftware,KiCad,Pcbnew,(5.1.9)-1*
G04 #@! TF.CreationDate,2021-02-21T21:01:16-08:00*
G04 #@! TF.ProjectId,AnalogFaderV2,416e616c-6f67-4466-9164-657256322e6b,rev?*
G04 #@! TF.SameCoordinates,Original*
G04 #@! TF.FileFunction,Legend,Bot*
G04 #@! TF.FilePolarity,Positive*
%FSLAX46Y46*%
G04 Gerber Fmt 4.6, Leading zero omitted, Abs format (unit mm)*
G04 Created by KiCad (PCBNEW (5.1.9)-1) date 2021-02-21 21:01:16*
%MOMM*%
%LPD*%
G01*
G04 APERTURE LIST*
%ADD10C,0.120000*%
%ADD11C,0.100000*%
%ADD12C,0.200000*%
%ADD13C,0.127000*%
%ADD14C,0.150000*%
G04 APERTURE END LIST*
D10*
X123247200Y-64944700D02*
X122547200Y-64944700D01*
X122547200Y-66144700D02*
X123247200Y-66144700D01*
X115547700Y-66999600D02*
X115547700Y-66299600D01*
X114347700Y-66299600D02*
X114347700Y-66999600D01*
X113279100Y-70075500D02*
X112579100Y-70075500D01*
X112579100Y-71275500D02*
X113279100Y-71275500D01*
D11*
X149388100Y-64921000D02*
X149388100Y-64621000D01*
X149388100Y-64621000D02*
X145788100Y-64621000D01*
X145788100Y-64621000D02*
X145788100Y-64921000D01*
X149388100Y-68021000D02*
X149388100Y-68221000D01*
X149388100Y-68221000D02*
X145788100Y-68221000D01*
X145788100Y-68221000D02*
X145788100Y-67921000D01*
X145788100Y-67921000D02*
X145388100Y-67921000D01*
X112191900Y-60306500D02*
X112191900Y-59506500D01*
X112191900Y-60306500D02*
X112191900Y-61106500D01*
X113791900Y-59506500D02*
X113791900Y-61106500D01*
X112441900Y-59606500D02*
X112441900Y-59506500D01*
X113541900Y-59606500D02*
X112441900Y-59606500D01*
X113541900Y-59506500D02*
X113541900Y-59606500D01*
X112441900Y-59506500D02*
X113541900Y-59506500D01*
D10*
X109070800Y-67453900D02*
X109070800Y-65453900D01*
X106930800Y-65453900D02*
X106930800Y-67453900D01*
X118877400Y-71811600D02*
X117877400Y-71811600D01*
X117877400Y-73171600D02*
X118877400Y-73171600D01*
X118877400Y-70287600D02*
X117877400Y-70287600D01*
X117877400Y-71647600D02*
X118877400Y-71647600D01*
X122538300Y-69260000D02*
X123538300Y-69260000D01*
X123538300Y-67900000D02*
X122538300Y-67900000D01*
X123538300Y-66363300D02*
X122538300Y-66363300D01*
X122538300Y-67723300D02*
X123538300Y-67723300D01*
X120580700Y-60927300D02*
X120580700Y-59927300D01*
X119220700Y-59927300D02*
X119220700Y-60927300D01*
X117645900Y-59927300D02*
X117645900Y-60927300D01*
X119005900Y-60927300D02*
X119005900Y-59927300D01*
X117443800Y-60927300D02*
X117443800Y-59927300D01*
X116083800Y-59927300D02*
X116083800Y-60927300D01*
X114305800Y-59927300D02*
X114305800Y-60927300D01*
X115665800Y-60927300D02*
X115665800Y-59927300D01*
D12*
X120940600Y-65505300D02*
G75*
G03*
X120940600Y-65505300I-100000J0D01*
G01*
D13*
X119295600Y-68015300D02*
X117635600Y-68015300D01*
X117635600Y-65055300D02*
X119295600Y-65055300D01*
D14*
X125361866Y-65939942D02*
X125409485Y-65987561D01*
X125552342Y-66035180D01*
X125647580Y-66035180D01*
X125790438Y-65987561D01*
X125885676Y-65892323D01*
X125933295Y-65797085D01*
X125980914Y-65606609D01*
X125980914Y-65463752D01*
X125933295Y-65273276D01*
X125885676Y-65178038D01*
X125790438Y-65082800D01*
X125647580Y-65035180D01*
X125552342Y-65035180D01*
X125409485Y-65082800D01*
X125361866Y-65130419D01*
X124409485Y-66035180D02*
X124980914Y-66035180D01*
X124695200Y-66035180D02*
X124695200Y-65035180D01*
X124790438Y-65178038D01*
X124885676Y-65273276D01*
X124980914Y-65320895D01*
X115330242Y-64082633D02*
X115377861Y-64035014D01*
X115425480Y-63892157D01*
X115425480Y-63796919D01*
X115377861Y-63654061D01*
X115282623Y-63558823D01*
X115187385Y-63511204D01*
X114996909Y-63463585D01*
X114854052Y-63463585D01*
X114663576Y-63511204D01*
X114568338Y-63558823D01*
X114473100Y-63654061D01*
X114425480Y-63796919D01*
X114425480Y-63892157D01*
X114473100Y-64035014D01*
X114520719Y-64082633D01*
X114520719Y-64463585D02*
X114473100Y-64511204D01*
X114425480Y-64606442D01*
X114425480Y-64844538D01*
X114473100Y-64939776D01*
X114520719Y-64987395D01*
X114615957Y-65035014D01*
X114711195Y-65035014D01*
X114854052Y-64987395D01*
X115425480Y-64415966D01*
X115425480Y-65035014D01*
X113145866Y-69762642D02*
X113193485Y-69810261D01*
X113336342Y-69857880D01*
X113431580Y-69857880D01*
X113574438Y-69810261D01*
X113669676Y-69715023D01*
X113717295Y-69619785D01*
X113764914Y-69429309D01*
X113764914Y-69286452D01*
X113717295Y-69095976D01*
X113669676Y-69000738D01*
X113574438Y-68905500D01*
X113431580Y-68857880D01*
X113336342Y-68857880D01*
X113193485Y-68905500D01*
X113145866Y-68953119D01*
X112812533Y-68857880D02*
X112193485Y-68857880D01*
X112526819Y-69238833D01*
X112383961Y-69238833D01*
X112288723Y-69286452D01*
X112241104Y-69334071D01*
X112193485Y-69429309D01*
X112193485Y-69667404D01*
X112241104Y-69762642D01*
X112288723Y-69810261D01*
X112383961Y-69857880D01*
X112669676Y-69857880D01*
X112764914Y-69810261D01*
X112812533Y-69762642D01*
X148326195Y-69873380D02*
X148326195Y-68873380D01*
X148088100Y-68873380D01*
X147945242Y-68921000D01*
X147850004Y-69016238D01*
X147802385Y-69111476D01*
X147754766Y-69301952D01*
X147754766Y-69444809D01*
X147802385Y-69635285D01*
X147850004Y-69730523D01*
X147945242Y-69825761D01*
X148088100Y-69873380D01*
X148326195Y-69873380D01*
X146802385Y-69873380D02*
X147373814Y-69873380D01*
X147088100Y-69873380D02*
X147088100Y-68873380D01*
X147183338Y-69016238D01*
X147278576Y-69111476D01*
X147373814Y-69159095D01*
X113691895Y-63952380D02*
X113691895Y-62952380D01*
X113453800Y-62952380D01*
X113310942Y-63000000D01*
X113215704Y-63095238D01*
X113168085Y-63190476D01*
X113120466Y-63380952D01*
X113120466Y-63523809D01*
X113168085Y-63714285D01*
X113215704Y-63809523D01*
X113310942Y-63904761D01*
X113453800Y-63952380D01*
X113691895Y-63952380D01*
X112739514Y-63047619D02*
X112691895Y-63000000D01*
X112596657Y-62952380D01*
X112358561Y-62952380D01*
X112263323Y-63000000D01*
X112215704Y-63047619D01*
X112168085Y-63142857D01*
X112168085Y-63238095D01*
X112215704Y-63380952D01*
X112787133Y-63952380D01*
X112168085Y-63952380D01*
X105729371Y-66070566D02*
X105729371Y-65737233D01*
X106253180Y-65737233D02*
X105253180Y-65737233D01*
X105253180Y-66213423D01*
X106253180Y-67118185D02*
X106253180Y-66546757D01*
X106253180Y-66832471D02*
X105253180Y-66832471D01*
X105396038Y-66737233D01*
X105491276Y-66641995D01*
X105538895Y-66546757D01*
X116409766Y-72969380D02*
X116743100Y-72493190D01*
X116981195Y-72969380D02*
X116981195Y-71969380D01*
X116600242Y-71969380D01*
X116505004Y-72017000D01*
X116457385Y-72064619D01*
X116409766Y-72159857D01*
X116409766Y-72302714D01*
X116457385Y-72397952D01*
X116505004Y-72445571D01*
X116600242Y-72493190D01*
X116981195Y-72493190D01*
X115457385Y-72969380D02*
X116028814Y-72969380D01*
X115743100Y-72969380D02*
X115743100Y-71969380D01*
X115838338Y-72112238D01*
X115933576Y-72207476D01*
X116028814Y-72255095D01*
X116384366Y-71432680D02*
X116717700Y-70956490D01*
X116955795Y-71432680D02*
X116955795Y-70432680D01*
X116574842Y-70432680D01*
X116479604Y-70480300D01*
X116431985Y-70527919D01*
X116384366Y-70623157D01*
X116384366Y-70766014D01*
X116431985Y-70861252D01*
X116479604Y-70908871D01*
X116574842Y-70956490D01*
X116955795Y-70956490D01*
X116003414Y-70527919D02*
X115955795Y-70480300D01*
X115860557Y-70432680D01*
X115622461Y-70432680D01*
X115527223Y-70480300D01*
X115479604Y-70527919D01*
X115431985Y-70623157D01*
X115431985Y-70718395D01*
X115479604Y-70861252D01*
X116051033Y-71432680D01*
X115431985Y-71432680D01*
X125401366Y-69083180D02*
X125734700Y-68606990D01*
X125972795Y-69083180D02*
X125972795Y-68083180D01*
X125591842Y-68083180D01*
X125496604Y-68130800D01*
X125448985Y-68178419D01*
X125401366Y-68273657D01*
X125401366Y-68416514D01*
X125448985Y-68511752D01*
X125496604Y-68559371D01*
X125591842Y-68606990D01*
X125972795Y-68606990D01*
X125068033Y-68083180D02*
X124448985Y-68083180D01*
X124782319Y-68464133D01*
X124639461Y-68464133D01*
X124544223Y-68511752D01*
X124496604Y-68559371D01*
X124448985Y-68654609D01*
X124448985Y-68892704D01*
X124496604Y-68987942D01*
X124544223Y-69035561D01*
X124639461Y-69083180D01*
X124925176Y-69083180D01*
X125020414Y-69035561D01*
X125068033Y-68987942D01*
X125452166Y-67584580D02*
X125785500Y-67108390D01*
X126023595Y-67584580D02*
X126023595Y-66584580D01*
X125642642Y-66584580D01*
X125547404Y-66632200D01*
X125499785Y-66679819D01*
X125452166Y-66775057D01*
X125452166Y-66917914D01*
X125499785Y-67013152D01*
X125547404Y-67060771D01*
X125642642Y-67108390D01*
X126023595Y-67108390D01*
X124595023Y-66917914D02*
X124595023Y-67584580D01*
X124833119Y-66536961D02*
X125071214Y-67251247D01*
X124452166Y-67251247D01*
X120289580Y-58037433D02*
X119813390Y-57704100D01*
X120289580Y-57466004D02*
X119289580Y-57466004D01*
X119289580Y-57846957D01*
X119337200Y-57942195D01*
X119384819Y-57989814D01*
X119480057Y-58037433D01*
X119622914Y-58037433D01*
X119718152Y-57989814D01*
X119765771Y-57942195D01*
X119813390Y-57846957D01*
X119813390Y-57466004D01*
X119289580Y-58942195D02*
X119289580Y-58466004D01*
X119765771Y-58418385D01*
X119718152Y-58466004D01*
X119670533Y-58561242D01*
X119670533Y-58799338D01*
X119718152Y-58894576D01*
X119765771Y-58942195D01*
X119861009Y-58989814D01*
X120099104Y-58989814D01*
X120194342Y-58942195D01*
X120241961Y-58894576D01*
X120289580Y-58799338D01*
X120289580Y-58561242D01*
X120241961Y-58466004D01*
X120194342Y-58418385D01*
X118727480Y-58024733D02*
X118251290Y-57691400D01*
X118727480Y-57453304D02*
X117727480Y-57453304D01*
X117727480Y-57834257D01*
X117775100Y-57929495D01*
X117822719Y-57977114D01*
X117917957Y-58024733D01*
X118060814Y-58024733D01*
X118156052Y-57977114D01*
X118203671Y-57929495D01*
X118251290Y-57834257D01*
X118251290Y-57453304D01*
X117727480Y-58881876D02*
X117727480Y-58691400D01*
X117775100Y-58596161D01*
X117822719Y-58548542D01*
X117965576Y-58453304D01*
X118156052Y-58405685D01*
X118537004Y-58405685D01*
X118632242Y-58453304D01*
X118679861Y-58500923D01*
X118727480Y-58596161D01*
X118727480Y-58786638D01*
X118679861Y-58881876D01*
X118632242Y-58929495D01*
X118537004Y-58977114D01*
X118298909Y-58977114D01*
X118203671Y-58929495D01*
X118156052Y-58881876D01*
X118108433Y-58786638D01*
X118108433Y-58596161D01*
X118156052Y-58500923D01*
X118203671Y-58453304D01*
X118298909Y-58405685D01*
X117279680Y-57986633D02*
X116803490Y-57653300D01*
X117279680Y-57415204D02*
X116279680Y-57415204D01*
X116279680Y-57796157D01*
X116327300Y-57891395D01*
X116374919Y-57939014D01*
X116470157Y-57986633D01*
X116613014Y-57986633D01*
X116708252Y-57939014D01*
X116755871Y-57891395D01*
X116803490Y-57796157D01*
X116803490Y-57415204D01*
X116279680Y-58319966D02*
X116279680Y-58986633D01*
X117279680Y-58558061D01*
X115152466Y-58987380D02*
X115485800Y-58511190D01*
X115723895Y-58987380D02*
X115723895Y-57987380D01*
X115342942Y-57987380D01*
X115247704Y-58035000D01*
X115200085Y-58082619D01*
X115152466Y-58177857D01*
X115152466Y-58320714D01*
X115200085Y-58415952D01*
X115247704Y-58463571D01*
X115342942Y-58511190D01*
X115723895Y-58511190D01*
X114581038Y-58415952D02*
X114676276Y-58368333D01*
X114723895Y-58320714D01*
X114771514Y-58225476D01*
X114771514Y-58177857D01*
X114723895Y-58082619D01*
X114676276Y-58035000D01*
X114581038Y-57987380D01*
X114390561Y-57987380D01*
X114295323Y-58035000D01*
X114247704Y-58082619D01*
X114200085Y-58177857D01*
X114200085Y-58225476D01*
X114247704Y-58320714D01*
X114295323Y-58368333D01*
X114390561Y-58415952D01*
X114581038Y-58415952D01*
X114676276Y-58463571D01*
X114723895Y-58511190D01*
X114771514Y-58606428D01*
X114771514Y-58796904D01*
X114723895Y-58892142D01*
X114676276Y-58939761D01*
X114581038Y-58987380D01*
X114390561Y-58987380D01*
X114295323Y-58939761D01*
X114247704Y-58892142D01*
X114200085Y-58796904D01*
X114200085Y-58606428D01*
X114247704Y-58511190D01*
X114295323Y-58463571D01*
X114390561Y-58415952D01*
X119165108Y-63637387D02*
X119165108Y-64448084D01*
X119117420Y-64543460D01*
X119069732Y-64591148D01*
X118974356Y-64638836D01*
X118783604Y-64638836D01*
X118688228Y-64591148D01*
X118640540Y-64543460D01*
X118592852Y-64448084D01*
X118592852Y-63637387D01*
X117591403Y-64638836D02*
X118163659Y-64638836D01*
X117877531Y-64638836D02*
X117877531Y-63637387D01*
X117972907Y-63780451D01*
X118068283Y-63875827D01*
X118163659Y-63923515D01*
M02*
