M48
; DRILL file {KiCad (5.1.9)-1} date 02/21/21 21:01:13
; FORMAT={-:-/ absolute / inch / decimal}
; #@! TF.CreationDate,2021-02-21T21:01:13-08:00
; #@! TF.GenerationSoftware,Kicad,Pcbnew,(5.1.9)-1
; #@! TF.FileFunction,NonPlated,1,2,NPTH
FMAT,2
INCH
T1C0.0197
%
G90
G05
T1
X5.135Y-2.413
X5.135Y-2.7005
X5.1355Y-2.5225
X5.1355Y-2.81
X5.139Y-2.44
X5.139Y-2.4675
X5.139Y-2.495
X5.139Y-2.7275
X5.139Y-2.755
X5.139Y-2.7825
X5.2385Y-2.441
X5.2385Y-2.4685
X5.2385Y-2.496
X5.2385Y-2.7285
X5.2385Y-2.756
X5.2385Y-2.7835
X5.242Y-2.4135
X5.242Y-2.701
X5.2425Y-2.523
X5.2425Y-2.8105
T0
M30
